<?xml version="1.0" encoding="UTF-8" standalone="no"?><!DOCTYPE svg PUBLIC "-//W3C//DTD SVG 1.1//EN" "http://www.w3.org/Graphics/SVG/1.1/DTD/svg11.dtd"><svg width="100%" height="100%" viewBox="0 0 9103 5449" version="1.1" xmlns="http://www.w3.org/2000/svg" xmlns:xlink="http://www.w3.org/1999/xlink" xml:space="preserve" xmlns:serif="http://www.serif.com/" style="fill-rule:evenodd;clip-rule:evenodd;stroke-linejoin:round;stroke-miterlimit:2;"><g><g><path d="M3568.45,4952.23c-579.238,0 -1292.65,-22.833 -1863.95,-112.375c-1166.51,-182.792 -936.733,-1462.62 -680.5,-1851.79c256.238,-389.183 329.825,-362.179 -355.796,-758.233c-685.629,-396.054 -821.383,-1060.62 -508.862,-1554.03c182.621,-288.329 461.516,-422.8 806.896,-422.8c245.67,-0 524.995,68.062 827.145,197.204c116.184,49.654 211.9,70.35 293.688,70.342c205.029,-0.021 322.287,-130.142 453.204,-260.267c130.925,-130.138 275.55,-260.271 535.45,-260.271c25.179,0 51.446,1.225 78.879,3.783c603.842,56.375 550.175,595.988 1070.13,595.946c88.583,-0.008 193.875,-15.679 321.875,-52.071c217.708,-61.92 365.291,-86.295 474.208,-86.295c330.958,-0 305.667,224.92 808.583,305.787c42.584,6.846 85.875,9.971 129.875,9.967c232.625,-0.004 484.167,-87.442 743.459,-174.884c259.291,-87.441 526.375,-174.883 790.166,-174.883c205.875,0 409.75,53.275 606.334,201.392c747.916,563.546 297.458,1124.32 -57.209,1397.51c-354.666,273.192 -242.25,475.721 416.875,670.467c659.167,194.75 983.209,882.212 122.334,1571.8c-790.584,633.291 -3461.75,659.125 -3892.46,659.125c-38.291,-0 -58.916,-0.209 -58.916,-0.209c-0,0 -457.875,24.792 -1061.42,24.792Zm1659.21,-2488.02c-13.958,0 -29.375,1.038 -46.416,3.271c-241.292,31.6 -200.25,173.737 -219.292,244.912c-19.083,71.175 -120.292,151.838 -401.958,261.659c-281.667,109.821 -198.167,409.221 -71.667,508.596c126.542,99.375 195.542,33.333 224.958,204.833c20.792,121.167 85.459,226.25 173.292,226.25c36.5,-0 76.958,-18.167 119.958,-60.833c146.459,-145.375 312.917,-317.334 266.375,-542.763c-46.541,-225.446 6.167,-182.8 97.042,-286.221c90.875,-103.421 -101.75,-203.533 -29.042,-380.254c0,0 70.459,-179.45 -113.25,-179.45Zm520.084,-1608.6c-3.084,0 -4.709,0.021 -4.709,0.021c-286,23.625 -601.75,189.85 -646.458,497.987c-38,262.025 233.417,415.013 403.042,489.105c47.333,20.662 85.375,57.933 107.125,104.758c46.041,99.071 147.75,264.154 313.875,264.171c21.791,-0 44.625,-2.829 68.625,-9.017c15.083,-3.887 14.625,-25.604 -0.584,-29.029c-48.375,-10.913 -114.416,-35.975 -148.625,-93.321c-46.583,-78.108 4.667,-178.287 94.917,-189.612c170.75,-21.434 506.958,-114.238 572.792,-510.85c85.125,-513.042 -692.209,-524.213 -760,-524.213Z" style="fill:url(#_Linear1);"/><path d="M8104.4,3151.95c0,-0 440.417,-772.846 303.792,-887.958c-136.625,-115.113 -139.042,219.233 -194.375,171.875c-55.292,-47.359 34.917,-326.542 10.333,-520.534c-24.583,-193.991 -77.916,-453.516 -146.833,-192.725c-68.875,260.792 -60.292,517.917 -90.125,385.059c-29.875,-132.859 -132.792,-825.405 -265.167,-618.746c-132.375,206.654 -160.125,475.683 -26.708,632.429c133.417,156.75 312.542,331.779 92.333,216.233c-220.25,-115.546 -370.333,-64 -134.791,145.334c-0,-0 354.25,293.154 200.458,279.412c-153.792,-13.737 -398.625,148.567 -146.292,265.854c0,0 358.459,52.067 397.375,123.767Z" style="fill:#91b3fa;fill-rule:nonzero;"/><path d="M7921.4,3856.77c0,-0 -858.458,-40.709 -820.458,-239.5c38,-198.75 318.167,-65.667 442.833,-53.042c124.667,12.625 51.542,-72.625 -202.416,-251.379c-253.959,-178.767 -393.542,-440.584 -124.667,-318.504c268.917,122.087 376.375,351.341 358.167,189.637c-18.209,-161.7 -363.875,-616.933 -71.5,-430.533c292.333,186.396 272.333,358.891 281.166,494.979c8.792,136.092 47.75,-263.375 139.167,-203.867c91.375,59.509 39.5,120.646 6.792,278.825c-32.75,158.175 58.875,30.675 89.125,-21.245c30.291,-51.917 104.666,72.629 31.791,244.42c-72.833,171.792 -130,310.209 -130,310.209Z" style="fill:#bdd0fb;fill-rule:nonzero;"/><path d="M8092.36,4761.73c-0.542,0.5 -0.917,1.083 -1.084,1.708c-0.083,0.042 -0.125,1.209 -0.041,0.334l0.083,-2.459l0.5,-9.75l0.792,-19.958l1.333,-40.292l2.083,-80.916l2.792,-162.084c1.375,-108.083 1.875,-216.208 1.542,-324.333c-0.667,-216.25 -4.542,-432.458 -12.792,-648.5c-4.292,-108 -9.75,-215.908 -16.542,-323.729c-7.166,-107.784 -15.875,-215.429 -26.875,-322.779c-11.083,-107.33 -25.041,-214.309 -43.625,-320.255c-19.041,-105.67 -42,-211.258 -79.958,-310.154l-0.208,-0.521c-3.75,-9.725 1.125,-20.633 10.833,-24.362c9.625,-3.7 20.458,1.054 24.292,10.608c41.125,102.988 65.666,209.85 86.458,316.792c20.333,107.096 35.875,214.813 48.542,322.742c12.541,107.937 22.75,216.062 31.416,324.275c8.334,108.22 15.292,216.508 21.042,324.883c11.25,216.667 18.125,433.5 21.75,650.375c1.792,108.458 2.792,216.917 2.917,325.375l-0.625,162.792l-0.959,81.458l-0.791,40.875l-0.542,20.667l-0.375,10.5l-0.083,2.666c-0.042,0.792 -0.25,3.625 -0.459,5.375c-0.416,3.959 -1.083,7.959 -1.958,11.834c-6.375,19.166 -27.125,29.541 -46.292,23.125c-19.166,-6.375 -29.541,-27.125 -23.166,-46.292Z" style="fill:#7d97f4;fill-rule:nonzero;"/><path d="M8087.65,4803.39c-0.333,0.958 -0.5,2 -0.458,3c-0,0.25 0.167,1.5 0.125,0.916l-0.25,-1.541l-0.875,-6.125l-1.917,-12.584l-4.041,-25.541l-8.5,-51.292l-17.75,-102.583c-12.125,-68.417 -24.75,-136.75 -37.875,-204.959c-26.167,-136.5 -54.167,-272.625 -84.584,-408.125c-30.583,-135.458 -63.5,-270.416 -101.541,-403.666c-19.084,-66.625 -39.709,-132.709 -62.834,-197.709c-23.291,-64.791 -48.833,-129.141 -82.125,-187.75l-0.25,-0.475c-5.166,-9.058 -2,-20.562 7.084,-25.708c8.916,-5.071 20.25,-2.033 25.5,6.742c36.833,61.845 64.083,126.995 89.333,192.566c24.958,65.709 47.208,132.167 67.917,199c41.291,133.709 77.25,268.75 110.916,404.25c33.459,135.542 64.459,271.625 93.667,408.084c14.583,68.25 28.75,136.541 42.375,205l20.042,102.833l9.666,51.542l4.709,25.958l2.25,13.167l1.125,6.75l0.291,1.708l0.5,4.167c0.292,3.166 0.417,6.375 0.334,9.5c-1.959,20.125 -19.875,34.833 -40,32.875c-20.125,-2 -34.834,-19.917 -32.834,-40Z" style="fill:#7d97f4;fill-rule:nonzero;"/><path d="M8271.65,3307.98c0,0 870.292,-138.691 787.25,-323.237c-83,-184.546 -324.708,9.862 -443.083,51.037c-118.333,41.175 -135.333,20.638 70.25,-212.121c205.583,-232.758 224.792,-474.258 -8.458,-293.175c-233.292,181.084 -152.542,349.038 -172.334,187.517c-19.75,-161.521 292.042,-778.225 50.875,-529.142c-241.166,249.084 -270.666,461.092 -247.708,595.521c23,134.425 -107.5,-245.129 -182.625,-166.058c-75.125,79.075 -10.458,126.521 58.042,272.808c68.5,146.284 -50.167,43.488 -91.667,0c-41.5,-43.496 -84.958,94.888 25.75,245.129c110.667,150.242 153.708,171.721 153.708,171.721Z" style="fill:#91b3fa;fill-rule:nonzero;"/><path d="M8206.07,4784.89c-0.792,-3.459 -1.417,-7 -1.833,-10.584c-0.167,-1.5 -0.375,-4.166 -0.375,-4.708l-0.084,-2l-0.25,-8l-0.375,-15.5l-0.541,-30.667l-0.584,-61l-0.166,-121.791c0.25,-81.167 1.208,-162.292 2.75,-243.417c3.041,-162.25 8.583,-324.5 17.375,-486.625c9,-162.083 21.125,-324.167 40.375,-485.737c9.666,-80.78 21.5,-161.421 36.875,-241.655c15.791,-80.12 34.333,-160.195 65.5,-237.725c3.916,-9.658 14.875,-14.345 24.541,-10.458c9.542,3.838 14.25,14.613 10.584,24.188l-0.209,0.545c-27.958,73.438 -44.958,152.23 -58.958,231.092c-13.667,79.088 -23.917,158.983 -32.042,239.167c-16.125,160.416 -25.25,321.708 -31.291,483.125c-5.792,161.458 -8.334,323.083 -8.417,484.708c-0.083,80.792 0.458,161.625 1.667,242.375l2.375,121.125l1.708,60.417l1.042,30.083l0.666,14.833l0.334,7.167l0.125,1.833c0.041,0.667 -0.042,-0.708 -0.125,-0.958c-0.167,-1.042 -0.584,-2.083 -1.209,-3c6.417,19.167 -3.958,39.917 -23.166,46.292c-19.167,6.416 -39.875,-3.959 -46.292,-23.125Z" style="fill:#7d97f4;fill-rule:nonzero;"/><path d="M7789.45,4617.1l720.625,0c47.25,0 82.167,43.917 71.542,89.958c-46.084,199.75 -101.334,402.417 -214.417,608.125c-20.875,38 -60.625,61.834 -104,61.834l-235.125,-0c-42.708,-0 -81.875,-23.459 -102.125,-61.084c-90.583,-168.291 -177.708,-368.958 -220.75,-596.666c-10,-53 30.333,-102.167 84.25,-102.167Z" style="fill:url(#_Linear2);"/><path d="M4886.57,3913.72c-87.833,0 -152.5,-105.083 -173.292,-226.25c-29.416,-171.5 -98.416,-105.458 -224.958,-204.833c-126.5,-99.375 -210,-398.775 71.667,-508.596c281.666,-109.821 382.875,-190.483 401.958,-261.659c19.042,-71.174 -22,-213.312 219.292,-244.912c17.041,-2.233 32.458,-3.271 46.416,-3.271c183.709,0 113.25,179.45 113.25,179.45c-72.708,176.721 119.917,276.834 29.042,380.254c-90.875,103.421 -143.583,60.775 -97.042,286.221c46.542,225.429 -119.916,397.388 -266.375,542.763c-43,42.666 -83.458,60.833 -119.958,60.833Zm-392.542,-841.367c-0.666,0 -1.333,0.296 -1.75,0.859c-0.708,0.95 -71.416,95.791 -47,211.9c18.709,88.941 86.834,166.608 202.542,230.858l1.083,0.292c0.75,-0 1.5,-0.417 1.875,-1.125c0.584,-1.084 0.209,-2.375 -0.833,-3c-114.5,-63.584 -181.917,-140.25 -200.375,-227.884c-24.042,-114.125 45.458,-207.466 46.167,-208.4c0.75,-0.958 0.541,-2.325 -0.417,-3.058c-0.375,-0.296 -0.833,-0.442 -1.292,-0.442Zm460.334,-242.954c2.833,45.371 19.041,83.342 53.041,115.975c23.292,22.379 42.584,30.05 58.042,30.05c33.75,0 49.417,-36.454 49.417,-36.454c-0,0 -39.625,-65.771 -21.875,-99.921c5.083,-9.741 11.75,-13.225 18.75,-13.225c17.458,0 36.75,21.859 36.75,21.859l11.291,-5.455c0,0 -65.583,-200.479 108.75,-200.479c1.042,0 2.042,0.009 3.084,0.021l41.125,30.408c-0,0 68.333,-109.654 -37.542,-165.675c-30.417,-16.095 -62.542,-24.22 -94.083,-24.22c-78.209,-0 -152.709,49.954 -187.959,152.087c-25.875,74.842 -41.041,136.917 -39.083,189.292c-23.292,21.779 -54.917,39.875 -94.333,53.583c-1.125,0.4 -1.709,1.65 -1.334,2.779c0.334,0.904 1.167,1.463 2.084,1.463l0.708,-0.117c38.5,-13.396 69.708,-30.929 93.167,-51.971Z" style="fill:url(#_Linear3);"/><rect x="3736.74" y="4591.64" width="69.625" height="753.083" style="fill:#7d97f4;"/><path d="M4076.49,5359.23l-609.917,0c-0,-25 20.292,-45.333 45.333,-45.333l519.292,-0c25,-0 45.292,20.333 45.292,45.333Z" style="fill:#7d97f4;fill-rule:nonzero;"/><path d="M4167.03,4565.48c0,41.208 -33.708,74.917 -74.875,74.917l-617.125,-0c-41.166,-0 -74.875,-33.709 -74.875,-74.917l0,-67.708c0,-41.167 33.709,-74.875 74.875,-74.875l617.125,-0c41.167,-0 74.875,33.708 74.875,74.875l0,67.708Z" style="fill:#7d97f4;fill-rule:nonzero;"/><path d="M3380.07,2121.29c-0,-0 67.333,-167.754 -140.567,-195.438c-207.896,-27.683 -287.916,147.238 -370.1,376.796c-67.275,187.921 -294.046,291.667 -441.066,407.271c-185.15,145.583 -271.3,368.079 -203.409,602.717c55.534,191.92 265.879,256.545 445.992,249.254c551.179,-22.292 688.483,-10.542 721.733,-359.204c33.209,-348.684 -12.583,-1081.4 -12.583,-1081.4Z" style="fill:url(#_Linear4);"/><path d="M3986.53,2209.02c-4.666,-8.888 -17.833,-7.488 -20.5,2.175c-9.958,35.783 -34,98.212 -84.5,120.379c-2.5,1.121 -4.916,2.25 -7.25,3.383c-2.291,-6.862 -2.333,-14.833 3.167,-23.212c15.667,-23.988 -12.667,-56.742 -12.667,-56.742c0,0 -1.875,28.846 -23.791,47.017c-18.875,15.646 -27.959,50.466 -15.042,79.029c27.333,106.125 68.208,246.483 -91.125,349.025c-159.375,102.542 -383.813,-193.517 -383.813,-193.517l111.396,353.125c0,0 171.917,126.875 371.917,-51.529c200,-178.412 67.417,-438.021 67.417,-438.021c-0,0 152.541,-61.537 84.791,-191.112Z" style="fill:url(#_Linear5);"/><path d="M3336.12,2497.76c-47.667,-14.291 -186.475,-40.679 -318.5,81.163c-22.392,20.662 -31.546,52.062 -23.558,81.466c35.462,130.551 129.025,516.263 46.987,683.171c0,0 159.42,158.288 317.137,29.872c-0,-0 103.327,-280.523 148.588,-442.78c30.439,-109.119 -102,-351.017 -144.041,-413.237c-6.334,-9.421 -15.725,-16.392 -26.613,-19.655Z" style="fill:url(#_Linear6);"/><path d="M3204.5,2238.38c0,0 -70.5,199.425 -75.804,287.4c-0,0 77.921,35.434 151.342,-24.371c-0,0 7.704,-199.187 18.837,-234.858l-94.375,-28.171Z" style="fill:url(#_Linear7);"/><path d="M3365.24,2082.03c-0,0 123.291,292.246 -0.709,341.183c-123.983,48.946 -211.812,-158.791 -211.812,-158.791c-0,-0 -10.746,-147.192 43.416,-184.121c54.167,-36.929 169.105,1.729 169.105,1.729Z" style="fill:url(#_Linear8);"/><path d="M3295.51,2003.13c-0,0 78.266,38.171 81.433,78.175c3.167,40.004 -133.433,45.713 -169.9,39.292l-63.021,144.362c0,0 -54.021,-161.291 -1.533,-235.616c52.491,-74.33 153.021,-26.213 153.021,-26.213Z" style="fill:url(#_Linear9);"/><path d="M3191.76,2253.74c-0,-0 -51.784,-96.85 -91.534,-50.242c-39.741,46.604 42.213,106.737 79.513,87.858l12.021,-37.616Z" style="fill:url(#_Linear10);"/><path d="M3527.45,4022.02c-0.542,14 24.042,125.041 37.458,184.291c5.375,23.834 1.625,48.792 -10.541,70l-463.313,779.792c-5.604,9.458 -9.683,19.667 -12.162,30.333c-8.492,36.625 -26.105,126.292 -16.909,207.875l23.971,49.792l-103.662,-23.542l-22.555,-278.375l29.346,-17.916c25.35,-15.459 45.092,-38.542 56.396,-66c41.896,-101.792 145.933,-360.834 172.754,-487.084c30.479,-143.458 189.8,-260 189.8,-260l-28,-66.166l147.417,-123Z" style="fill:url(#_Linear11);"/><path d="M2867.08,5224.77c0,-0 55.979,-88.75 62.567,-123.292c6.583,-34.542 24.921,-95.542 59.433,-77.208c0,-0 16.263,167.833 10.659,233.416c-5.613,65.584 74.125,63.459 74.125,63.459c-0,-0 21.975,3.083 38.066,19.166c11.113,11.125 3.171,30.417 -12.512,31.417c-26.092,1.667 -67.538,2.125 -111.054,-6.292c-15.213,-2.958 -26.484,-15.875 -27.409,-31.333l-11.487,-193.167l-70.613,89.167l-11.775,-5.333Z" style="fill:url(#_Linear12);"/><path d="M3250.68,4146.23c0,0 -16.342,697.542 -18.554,796.625c-2.213,99.042 15.642,318.583 114.958,384.208l-43.216,32c-0,0 -54.009,-45.916 -106.767,-134.25c-59.271,-99.25 -77.196,-117.375 -77.196,-117.375l19.671,-40.25c8.608,-17.666 11.137,-37.583 7.175,-56.791c-21.433,-103.875 -93.029,-449.375 -112.558,-523.792c-23.055,-87.833 -24.696,-205.125 55.508,-303.292c80.208,-98.166 160.979,-37.083 160.979,-37.083Z" style="fill:url(#_Linear13);"/><path d="M3158.97,5390.52c-3.079,-0 -5.7,-2.209 -6.134,-5.25c-3.308,-23.25 -17.062,-116.5 -28.325,-140.625c-12.895,-27.667 -55.02,-144 0.025,-153.875c0,-0 136.85,199.916 163.121,226.875c26.267,26.958 59.425,9.416 59.425,9.416c0,0 25.575,7.584 44.909,32.25c9.166,11.709 0.625,28.959 -14.292,29.084l-92.175,0.916c-26.771,0.25 -50.85,-16.041 -60.8,-40.875c-16.225,-40.541 -44.096,-99.958 -76.583,-126.333l16.879,161.625c0.379,3.583 -2.429,6.75 -6.05,6.792Z" style="fill:url(#_Linear14);"/><path d="M3365.15,3299.25c0,0 -20.766,66.221 11.167,175.263l237.177,889.647c3.125,10.875 -2.712,33.988 -13.337,37.822c-59.208,21.25 -320.657,74.995 -586.373,56.704c-13.38,-0.959 -28.893,-10.705 -31.801,-23.788c-17.508,-78.792 -45.445,-551.26 -57.745,-606.51c-46.867,-210.5 -99.196,-437.542 131.012,-574.8c106.096,45.441 205.046,72.216 309.9,45.662Z" style="fill:url(#_Linear15);"/><path d="M2998.73,2604.97c0,-0 -225.229,187.175 -281.125,442.95c-55.895,255.771 329.121,282.971 329.121,282.971c0,-0 52.267,-58.384 114.317,-37.567c62.054,20.817 4.804,-101.862 -67.796,-101.542c-72.6,0.325 -38.971,57.734 -141.675,11.213c-100.05,-45.321 -161.887,-185.479 93.379,-397.942c14.796,-12.312 26.604,-28.016 33.713,-45.908c49.591,-124.833 10.258,-206.663 -79.934,-154.175Z" style="fill:url(#_Linear16);"/><path d="M2524.31,3477.18l-0.145,0c-49.105,-2.958 -106.996,-23.083 -144.059,-50.125c-40.283,-29.416 -77.037,-97.875 -98.004,-152.17c-44.1,-114.188 -32.596,-228.13 34.196,-338.667c49.783,-82.392 130.596,-164.4 247.05,-250.717c50.7,-37.583 105.154,-75.012 161.829,-111.229c1.083,-0.696 2.521,-0.383 3.217,0.704c0.696,1.088 0.379,2.525 -0.704,3.217c-56.592,36.166 -110.955,73.529 -161.567,111.05c-115.954,85.954 -196.367,167.525 -245.833,249.387c-66.009,109.234 -77.396,221.804 -33.834,334.579c20.725,53.68 56.929,121.263 96.4,150.055c36.396,26.583 93.296,46.375 141.588,49.25c1.283,0.083 2.262,1.208 2.187,2.458c-0.075,1.25 -1.1,2.208 -2.321,2.208Z" style="fill:#7d97f4;fill-rule:nonzero;"/><path d="M3359.49,2050.87c-1.084,-0 -2.042,-0.771 -2.292,-1.875c-0.083,-0.583 -12.479,-58.4 -83.154,-74.292c-1.254,-0.287 -2.046,-1.529 -1.767,-2.783c0.288,-1.254 1.563,-2.038 2.788,-1.767c73.729,16.579 86.591,77.321 86.716,77.929c0.25,1.263 -0.583,2.492 -1.833,2.742l-0.458,0.046Z" style="fill:#7d97f4;fill-rule:nonzero;"/><path d="M3064.13,3947.31c3.146,0 6.33,-0.125 9.538,-0.333l-2.454,-40.042c-29.025,1.75 -53.079,-7 -69.496,-25.375c-18.342,-20.541 -25.875,-52.166 -20.154,-84.541c1.775,-10.042 6.162,-27.375 15.616,-30.375c14.38,-4.5 44.738,15.541 61.146,31.791l28.234,-28.541c-9.413,-9.292 -58.584,-55.125 -101.53,-41.459c-22.562,7.167 -37.025,27.875 -42.979,61.584c-7.954,45.083 2.884,88.166 29.734,118.25c22.616,25.333 55.141,39 92.345,39.041Z" style="fill:url(#_Linear17);"/><path d="M3065.6,3710.85l256.471,0c4.513,0 5.263,4.75 5.263,9.25l-0,194.708c-0,38.625 -28.413,66.375 -67.055,66.375l-132.891,0c-38.638,0 -70.363,-27.75 -70.363,-66.375l0,-194.708c0,-4.5 4.059,-9.25 8.575,-9.25Z" style="fill:url(#_Linear18);"/><path d="M1592.8,4500.52c-18.179,26.875 -90.425,635.916 -101.729,860.833c-0.767,15.208 11.4,27.875 26.629,27.875c13.138,0 24.313,-9.583 26.338,-22.542l132.141,-846.791l-83.379,-19.375Z" style="fill:#7d97f4;fill-rule:nonzero;"/><path d="M2173.66,4500.52c18.18,26.875 90.421,635.916 101.73,860.833c0.766,15.208 -11.4,27.875 -26.634,27.875c-13.133,0 -24.308,-9.583 -26.333,-22.542l-132.142,-846.791l83.379,-19.375Z" style="fill:#7d97f4;fill-rule:nonzero;"/><path d="M1483.52,4452.98l-0.063,6.625c-0.437,47.792 40.721,87 92.259,87.875l610.791,10.375c50.796,0.875 93.138,-35.833 95.605,-82.875l0.316,-6.083c2.571,-49.042 -39.087,-90.375 -92.062,-91.334l-611.046,-10.958c-52.3,-0.917 -95.363,37.875 -95.8,86.375Z" style="fill:#7d97f4;fill-rule:nonzero;"/><path d="M6928.86,4500.52c-18.167,26.875 -90.417,635.916 -101.75,860.833c-0.75,15.208 11.416,27.875 26.666,27.875c13.125,0 24.292,-9.583 26.334,-22.542l132.125,-846.791l-83.375,-19.375Z" style="fill:#7d97f4;fill-rule:nonzero;"/><path d="M7509.7,4500.52c18.208,26.875 90.458,635.916 101.75,860.833c0.75,15.208 -11.417,27.875 -26.625,27.875c-13.125,0 -24.333,-9.583 -26.333,-22.542l-132.167,-846.791l83.375,-19.375Z" style="fill:#7d97f4;fill-rule:nonzero;"/><path d="M6819.57,4452.98l-0.042,6.625c-0.458,47.792 40.709,87 92.25,87.875l610.792,10.375c50.792,0.875 93.125,-35.833 95.583,-82.875l0.334,-6.083c2.583,-49.042 -39.084,-90.375 -92.084,-91.334l-611.041,-10.958c-52.292,-0.917 -95.334,37.875 -95.792,86.375Z" style="fill:#7d97f4;fill-rule:nonzero;"/><path d="M3000.53,3946.6l42.842,-11.417l130.066,-30.125c15.659,-3.625 32.117,-0.833 45.721,7.709l111.834,70.375l-308.846,-0.542l-21.617,-36Z" style="fill:url(#_Linear19);"/><path d="M2770.17,5339.23c-108.575,0 -156.617,-9.333 -178.096,-17.833c4.175,17.833 20.054,31.916 40.125,31.916l384.108,0c12.934,0 21.1,-12.375 18.009,-23.583c-43.784,3.5 -136.784,9.5 -264.146,9.5Z" style="fill:#7d97f4;fill-rule:nonzero;"/><path d="M3034.31,5329.73c-0.621,-2.25 -1.538,-4.5 -3.142,-6.542c-29.263,-37.333 -88.042,-96 -167.992,-94.875c-117.129,1.625 -157.966,14.334 -248.987,0.709l-21.471,71.166c-2.188,7.25 -2.229,14.5 -0.65,21.209c21.479,8.5 69.521,17.833 178.096,17.833c127.362,0 220.362,-6 264.146,-9.5Z" style="fill:url(#_Linear20);"/><path d="M2640.55,5152.31l-26.362,89.625c-0,0 58.391,26.584 109.75,5.25l10.087,-77.666l-93.475,-17.209Z" style="fill:url(#_Linear21);"/><path d="M3436.65,5282.77c-84.629,68 -127.883,90.875 -149.921,97.75c14.367,11.208 35.521,12.166 51.167,-0.375l299.421,-240.625c10.083,-8.084 8.75,-22.792 -0.667,-29.584c-31.916,30.167 -100.708,93.042 -200,172.834Z" style="fill:#7d97f4;fill-rule:nonzero;"/><path d="M3636.65,5109.93c-1.875,-1.333 -4,-2.5 -6.541,-3.083c-46.084,-10.667 -128.459,-19.375 -190.084,31.583c-90.287,74.667 -114.2,110.084 -193.658,156.5l27.629,68.667c2.821,7 7.304,12.667 12.733,16.917c22.038,-6.875 65.292,-29.75 149.921,-97.75c99.292,-79.792 168.084,-142.667 200,-172.834Z" style="fill:url(#_Linear22);"/><path d="M2076.72,4130.98c-0,0 650.05,53.083 783.4,115.875c133.354,62.75 -108.821,942.583 -108.821,942.583c-0,0 -36.304,17.5 -117.083,-7.625c-0,0 82.833,-649.291 21.191,-790.083l-703.833,-115.125l125.146,-145.625Z" style="fill:url(#_Linear23);"/><path d="M3181.79,5171.35c6.033,5.5 64.583,123.583 64.583,123.583c-0,0 65.187,-14.083 78.479,-55.333l-58.654,-106.583l-84.408,38.333Z" style="fill:url(#_Linear24);"/><path d="M1685.2,4125.56c0,0 -21.187,50.959 -20.321,118.709c1.196,93.666 76.509,169.666 170.075,174.333l768.463,35.042c16.229,0.75 29.962,12 34.025,27.708c18.058,69.875 106.325,284.375 537.791,712.375c11.48,11.375 29.363,13.333 43.03,4.667l61.425,-38.792c6.445,-4.083 8.504,-12.5 4.65,-19.083l-447.438,-764.084c-23.504,-38.791 -61.279,-66.791 -105.217,-78.041l-654.966,-167.417l-391.517,-5.417Z" style="fill:url(#_Linear25);"/><path d="M2442.51,2932c-0,0 -82.321,145.554 -166.255,216.067l173.484,96.791c-0,0 39.091,-154.083 128.4,-199.204l-135.629,-113.654Z" style="fill:url(#_Linear26);"/><path d="M1671.24,4130.98c-0,0 207.454,50.583 405.475,0c-0,0 277.083,-372.5 384.283,-473.875c0,0 170.988,269.833 551.583,308.083l21.225,-47.458c0,-0 -302.991,-139.667 -396.27,-354.25c-93.275,-214.625 -130.742,-306.154 -215.6,-362.15c-52.855,-34.871 -84.5,-58.696 -100.85,-71.704c-8.955,-7.121 -21.313,-7.925 -31.084,-1.971c-90.058,54.875 -513.816,345.117 -618.762,1003.33Z" style="fill:url(#_Linear27);"/><path d="M2416.3,3598.89c-4.575,-0 -9.1,-2.084 -12.104,-6c-48.638,-63.417 -75.746,-133.334 -76.871,-136.292c-3.017,-7.833 0.908,-16.667 8.763,-19.667c7.854,-3.041 16.67,0.917 19.687,8.75c0.263,0.667 26.742,68.875 72.608,128.667c5.117,6.708 3.855,16.25 -2.825,21.375c-2.766,2.125 -6.025,3.167 -9.258,3.167Z" style="fill:url(#_Linear28);"/><path d="M2573.22,2713.75c-0,0 80.004,132.992 93.883,206.492c13.879,73.508 36.167,119.454 -47.487,145.646c-83.663,26.191 -161.409,-6.959 -210.2,-75.567c-0,-0 -76.2,-105.592 -68.6,-153.954c7.604,-48.354 232.404,-122.617 232.404,-122.617Z" style="fill:url(#_Linear29);"/><path d="M2438.43,2815.98c0,0 253.004,-84.012 230.604,-202.65c-22.4,-118.637 -134.625,-125.325 -192.883,-25.017c-58.254,100.309 -223.675,115.738 -192.325,209.517c12.713,56.5 -99.329,109.996 143.467,218.438c-28.317,-86.971 -6.792,-88.384 4.212,-88.384l13.984,0c-0,0 -73.542,-103.271 -7.059,-111.904Z" style="fill:url(#_Linear30);"/><path d="M2436.13,2946.62c0,-0 -35.3,-87.034 -72.379,-56.446c-37.075,30.596 34.271,98.221 67.204,97.312l5.175,-40.866Z" style="fill:url(#_Linear31);"/><path d="M2600.6,2696.12c-0.917,0 -1.783,-0.542 -2.15,-1.437c-0.496,-1.188 0.071,-2.546 1.254,-3.042c1.179,-0.492 28.854,-12.65 28.854,-63.096c0,-50.738 -58.637,-78.392 -59.233,-78.667c-1.167,-0.537 -1.679,-1.925 -1.142,-3.091c0.55,-1.171 1.925,-1.68 3.1,-1.142c0.617,0.287 61.938,29.212 61.938,82.9c-0,53.767 -30.446,66.871 -31.742,67.404l-0.879,0.171Z" style="fill:url(#_Linear32);"/><rect x="5445.32" y="4591.64" width="69.625" height="753.083" style="fill:#7d97f4;"/><path d="M5785.11,5359.23l-609.917,0c-0,-25 20.292,-45.333 45.292,-45.333l519.291,-0c25.042,-0 45.334,20.333 45.334,45.333Z" style="fill:#7d97f4;fill-rule:nonzero;"/><path d="M5875.61,4565.48c-0,41.208 -33.667,74.917 -74.875,74.917l-617.084,-0c-41.208,-0 -74.875,-33.709 -74.875,-74.917l0,-67.708c0,-41.167 33.667,-74.875 74.875,-74.875l617.084,-0c41.208,-0 74.875,33.708 74.875,74.875l-0,67.708Z" style="fill:#7d97f4;fill-rule:nonzero;"/><path d="M4966.03,4089.47c0,0 -103.458,16.042 -219.791,93.833c-18.334,12.25 -28.375,33.584 -25.625,55.417c13.958,110.375 71.208,467.542 260.125,816.375c9.958,18.417 12.791,39.833 8.416,60.25l-32.833,152.75l-60.833,57.042l156.75,-0l104.375,-282.417l-44.667,-14.125c-34.583,-10.958 -58.333,-42.792 -58.958,-79.042l-5.25,-303c4.5,-134.958 -82.75,-228.125 -82.75,-228.125l250.333,-12.166l-249.292,-316.792Z" style="fill:url(#_Linear33);"/><path d="M4834.28,5352.68c-14.291,18.709 153.625,43.334 238.459,2.5c-0,0 117.625,-204.625 117.625,-310c-0,0 -9.334,-21.458 -78.417,-16.583c-0,0 -39.458,242.25 -81.167,269.417c-41.708,27.125 -116.666,2.75 -116.666,2.75c-0,-0 -58.792,24.375 -79.834,51.916Z" style="fill:url(#_Linear34);"/><path d="M5183.65,4422.89c-1.333,-2.292 -269.541,-32.25 -269.541,-32.25c-0,-0 8.791,81.541 -18.625,193.791c-27.459,112.25 -421.209,598.584 -421.209,598.584l41.292,130.875c-127.667,44.5 -253.208,51.583 -376.792,22.708l255.875,-153.583c0,-0 239.459,-816.042 386.125,-961.625l268.834,-93l134.041,294.5Z" style="fill:url(#_Linear35);"/><path d="M5785.11,3948.06c-0,0 154.5,229.834 167.208,334.667c12.667,104.833 -42.333,147.417 -204.458,154.458c-82.448,3.56 -494.544,-28.065 -625.167,18.239c-17.692,6.271 -48.667,262.476 -48.667,262.476l-485.871,-195.898c-0,0 45.527,-229.647 143.478,-329.645c121.296,-123.831 355.228,-173.307 391.06,-187.213c70,-27.125 662.417,-57.084 662.417,-57.084Z" style="fill:url(#_Linear36);"/><path d="M4499.99,5269.85c-0,0 44.416,43.042 14.416,90.958c0,0 -352.125,62.417 -447.75,34.084c0,-0 19.875,-45.334 127.5,-96.875l-7.916,6.083c-10.084,7.708 -4.167,23.792 8.5,23.083c70.916,-4.041 217.75,-17.041 305.25,-57.333Z" style="fill:url(#_Linear37);"/><path d="M5367.24,3917.64c-0,-0 -166.641,-170.374 -246.692,-290.014c-45.909,-68.614 -38.927,-121.247 -35.265,-212.214c5.717,-141.991 84.957,-276.643 91.54,-298.606c10.042,-33.662 211.792,-32.262 211.792,-32.262c-0,-0 397,257.679 553,694.137l-175.167,54.542c-0,0 -103.667,-173.917 -206.083,-284.5c-0,0 177.208,234.125 183.458,330l-376.583,38.917Z" style="fill:url(#_Linear38);"/><path d="M5152.4,2928.68c2.125,6.996 54.792,181.571 58.875,185.192c4.125,3.625 115.5,9.617 167.917,-26.213l-130.042,-254.333l-96.75,95.354Z" style="fill:url(#_Linear39);"/><path d="M5233.24,2611.78c-0,0 93.958,42.65 154.916,181.688c61,139.046 11.042,201.166 -49.791,208.262c-60.875,7.092 -151.459,3.363 -245,-87.896c-93.5,-91.254 17.583,-352.904 139.875,-302.054Z" style="fill:url(#_Linear40);"/><path d="M5065.45,2975.43c-15.458,0 -34.75,-7.671 -58.042,-30.05c-34,-32.633 -50.208,-70.604 -53.041,-115.975c39.375,-35.333 56.791,-80.558 50.041,-132.716c-10.5,-81.092 37.75,-93.959 39.834,-94.459c1.166,-0.291 1.875,-1.471 1.583,-2.642c-0.25,-0.991 -1.125,-1.67 -2.125,-1.67c-0.167,-0 -0.333,0.02 -0.5,0.066c-0.542,0.138 -54.125,14.13 -43.125,99.271c6.417,49.354 -9.625,92.383 -46,126.413c-1.958,-52.375 13.208,-114.45 39.083,-189.292c35.25,-102.133 109.75,-152.088 187.959,-152.088c31.541,0.001 63.666,8.125 94.083,24.221c105.875,56.021 37.542,165.675 37.542,165.675l-41.125,-30.408c-1.042,-0.013 -2.042,-0.021 -3.084,-0.021c-174.333,0 -108.75,200.479 -108.75,200.479l-11.291,5.454c-0,0 -19.292,-21.858 -36.75,-21.858c-7,0 -13.667,3.483 -18.75,13.225c-17.75,34.15 21.875,99.921 21.875,99.921c-0,0 -15.667,36.454 -49.417,36.454Z" style="fill:url(#_Linear41);"/><path d="M5139.2,2864.08c-0,0 -33.5,-104.458 -82.958,-64.525c-49.459,39.929 36.791,96.642 70.625,115.171l12.333,-50.646Z" style="fill:url(#_Linear42);"/><path d="M5000.65,3930.35l132.209,-127.417l182.875,77.25c-0,0 182.041,28.209 286.25,0l104.166,-28.208l235.459,-73.292l36.958,104.5c9.417,26.542 -0.042,56 -22.958,72.292c-20.375,14.458 -44.25,30.375 -59.459,37.042c-31.041,13.583 -764.333,-9.375 -764.333,-9.375l-131.167,-52.792Z" style="fill:url(#_Linear43);"/><path d="M6424.53,5188.52c0,-0 7.542,41.875 10.542,91.541c1.25,21.167 -14.458,39.584 -35.542,41.625c-73.541,7.125 -240.875,20.292 -347.708,4.875c-14.958,-2.166 -20.917,-20.541 -9.833,-30.833c44.041,-41.042 150.458,-120.917 325.583,-138.333l56.958,31.125Z" style="fill:url(#_Linear44);"/><path d="M6461.07,5094.18l-37.167,91.084c-5.083,12.5 -17.75,20.25 -31.166,18.875c-9.084,-0.959 -19.875,-2.709 -30.375,-5.917c-20.959,-6.333 -32.792,-28.583 -26.5,-49.583l28.041,-93.834l97.167,39.375Z" style="fill:url(#_Linear45);"/><path d="M7096.53,5261.1c0,0 -74.416,62.25 -103.416,142.125c-8,22 8.875,45.125 32.25,45.125l153.125,0c22.458,0 39.625,-20.167 35.708,-42.25c-9.75,-55.125 -37.875,-144.792 -117.667,-145Z" style="fill:url(#_Linear46);"/><path d="M7188.74,5180.06c-0,0 -15.042,66.542 -26.625,110.5c-2.084,8 -10.584,12.375 -18.375,9.584c-23.167,-8.292 -42.042,-11.959 -55.75,-10.125c-6.334,0.875 -11.875,-4.417 -11.959,-10.792l-1.416,-110.542l114.125,11.375Z" style="fill:url(#_Linear47);"/><path d="M6792.9,3682.77l-452.708,1381.04c-0,0 86.833,56.875 128.208,54.5l537.709,-1109.92c-0,-0 94.083,683.916 48.5,1174.88l154,11.75c-0,-0 250.416,-1254.71 60.75,-1684.46l-476.459,172.209Z" style="fill:url(#_Linear48);"/><path d="M7003.2,3996.47l0.542,-0.042c2.375,-0.291 4.083,-2.5 3.791,-4.875l-17.583,-139.458c-0.292,-2.375 -2.458,-4.083 -4.875,-3.792c-2.417,0.292 -4.125,2.5 -3.792,4.875l17.542,139.459c0.292,2.208 2.167,3.833 4.375,3.833Z" style="fill:url(#_Linear49);"/><path d="M6708.03,2467.47c0,0 366.75,32.571 314.875,293.904c0,0 202.75,381.542 297.542,830.971c3.083,14.667 -6.708,28.917 -21.458,31.417l-610.792,104.583c-16.833,2.917 -33.125,-7.625 -37.375,-24.167l-145.958,-564.025l-56.875,262.234l-180.709,-47.084l152.125,-770.57c0,-0 21.25,-112.43 288.625,-117.263Z" style="fill:url(#_Linear50);"/><path d="M6501.78,3114.93l0.959,-0.104c2.458,-0.537 4,-2.958 3.458,-5.408l-50.917,-233.788c-0.5,-2.45 -2.916,-3.995 -5.416,-3.475c-2.417,0.534 -4,2.954 -3.459,5.409l50.917,233.783c0.458,2.129 2.333,3.583 4.458,3.583Z" style="fill:url(#_Linear51);"/><path d="M6538.61,3810.6c19.25,-10.583 41.791,-13.5 63.083,-8.208l42.5,10.583c9.042,2.25 18,-3.958 19.042,-13.208l43.958,-391.459c55,26.125 134.333,23 160.5,21.084l-101.25,461.5l-354.167,-0l126.334,-80.292Z" style="fill:url(#_Linear52);"/><path d="M5597.53,2961.55l10.709,-35.579c6.166,-20.475 21.291,-37.038 41.125,-45.013l193.625,-77.87c-0,-0.001 2.916,-24.834 -40.917,-41.709c-43.833,-16.875 -33.583,-65.967 -33.583,-65.967c-0,0.001 59.916,27.321 147.583,70.646c50.125,24.78 78.25,68.53 93.167,101.459l438.75,534.875l-51.5,35.416c-67.75,46.542 -160.917,23.667 -199.417,-48.958l-237.667,-455.783c-119.333,35.854 -240.083,42.704 -361.875,28.483Z" style="fill:url(#_Linear53);"/><path d="M6589.2,2217.95l112.792,315.725c-0,0 -99.875,78.092 -172.792,51.688l-56.833,-180.979c-0,-0.001 43.416,-221.196 116.833,-186.434Z" style="fill:url(#_Linear54);"/><path d="M6410.24,1997.25c-3.042,4.275 -95,337.529 -95,337.529l191.416,48.471l134.084,-302.904c-0,-0 -180.084,-154.65 -230.5,-83.096Z" style="fill:url(#_Linear55);"/><path d="M6568.7,2126.4l-58.083,164.984c-0.75,2.116 -1.75,4.075 -3.042,5.908c-7.875,11.237 -37.875,47.896 -73.5,14.921c-32.333,-29.917 -62.292,-56.742 -89.958,-61.592c-12.417,-2.183 -24.417,5.404 -27.792,17.554c-8.333,30.279 -25.875,98.863 -32.042,160.775c-1.25,12.563 7.459,23.909 19.834,26.254c37.375,7.071 116.666,19.775 182.791,15.059c8.959,-0.638 16.875,-6.025 20.584,-14.196c18.208,-39.854 73.958,-160.775 94.75,-192.067c19.458,-29.371 67.25,-28.583 87.333,-26.825c6.542,0.579 13,-1.541 17.958,-5.896c17.542,-15.391 50.917,-54.666 3.917,-101.62c-9.833,-9.825 -9.583,-25.692 0.542,-35.221c20.125,-18.975 41.666,-52.621 8.041,-94.3c-34.166,-42.363 -79.25,-35.584 -106.875,-25.484c-11.166,4.084 -23.333,-0.629 -29.416,-10.841c-3.459,-5.817 -9.5,-10.217 -19.959,-9.313c-14.083,1.225 -25.916,-10.521 -25.666,-24.654c0.458,-27.158 -9.292,-61.462 -56.417,-76.087c-83.625,-25.955 -135.667,54.845 -140.792,115.112c-5.125,60.267 87.125,83.25 141.375,79.146c41.209,-3.125 71.875,37.725 84.209,57.487c3.875,6.263 4.666,13.938 2.208,20.896Z" style="fill:url(#_Linear56);"/><path d="M6580.45,2323.86c-0,-0 13.458,-104.63 56.958,-109.788c43.5,-5.158 85.917,30.575 42.667,89.333c-53.75,73.08 -99.625,20.455 -99.625,20.455Z" style="fill:url(#_Linear57);"/><path d="M6423.78,2009.61l-0.166,-0.005c-17.5,-1.266 -32.792,-9.529 -42,-22.675c-8.875,-12.7 -11.417,-29.054 -6.917,-44.858c7.833,-27.425 28.292,-54.35 54.792,-72.021c1.041,-0.716 2.5,-0.433 3.208,0.646c0.708,1.067 0.458,2.517 -0.625,3.229c-25.583,17.079 -45.375,43.029 -52.875,69.421c-4.167,14.667 -1.958,29.192 6.25,40.912c8.5,12.167 22.208,19.517 38.5,20.696c1.292,0.096 2.25,1.209 2.167,2.492c-0.084,1.225 -1.125,2.163 -2.334,2.163Z" style="fill:#7d97f4;fill-rule:nonzero;"/><path d="M6832.07,3435.27c25.042,-0 42.917,-1.875 44.833,-2.084l3.25,-0.375l133.584,-622.679c0.5,-2.45 -1.042,-4.871 -3.5,-5.396c-2.5,-0.546 -4.875,1.038 -5.417,3.488l-132.167,616.212c-19.875,1.75 -126,8.792 -182.041,-30.916l115.708,-540.967l-24.167,-45.504c-1.166,-2.221 -3.916,-3.063 -6.125,-1.888c-2.208,1.18 -3.083,3.93 -1.875,6.15l22.584,42.584l-116.209,543.458l2.292,1.75c40.5,30.417 105.708,36.167 149.25,36.167Z" style="fill:url(#_Linear58);"/><path d="M2535.28,5419.39c-3.275,-0 -6.604,-0.75 -9.808,-2.25c-12.604,-5.917 -18.425,-21.875 -13.004,-35.625l521.104,-1322.21c5.416,-13.75 20.021,-20.083 32.641,-14.166c12.605,5.916 18.43,21.833 13.009,35.625l-521.104,1322.21c-4.042,10.25 -13.209,16.417 -22.838,16.417Z" style="fill:#7d97f4;fill-rule:nonzero;"/><path d="M3122.32,5419.39c-9.629,-0 -18.796,-6.167 -22.838,-16.417l-521.104,-1322.21c-5.421,-13.792 0.4,-29.709 13.009,-35.625c12.595,-5.917 27.212,0.416 32.641,14.166l521.104,1322.21c5.421,13.75 -0.404,29.708 -13.008,35.625c-3.196,1.5 -6.529,2.25 -9.804,2.25Z" style="fill:#7d97f4;fill-rule:nonzero;"/><path d="M6071.86,5419.39c-3.25,-0 -6.584,-0.75 -9.792,-2.25c-12.625,-5.917 -18.458,-21.875 -13,-35.625l521.083,-1322.21c5.417,-13.75 20.042,-20.083 32.625,-14.166c12.625,5.916 18.459,21.833 13.042,35.625l-521.125,1322.21c-4.042,10.25 -13.208,16.417 -22.833,16.417Z" style="fill:#7d97f4;fill-rule:nonzero;"/><path d="M6658.9,5419.39c-9.625,-0 -18.791,-6.167 -22.833,-16.417l-521.083,-1322.21c-5.459,-13.792 0.375,-29.709 13,-35.625c12.583,-5.917 27.208,0.416 32.625,14.166l521.125,1322.21c5.416,13.75 -0.417,29.708 -13.042,35.625c-3.167,1.5 -6.5,2.25 -9.792,2.25Z" style="fill:#7d97f4;fill-rule:nonzero;"/><path d="M5996.24,3965.93l754.75,0l-0,-77.875l-754.75,0c16.166,0 16.166,77.875 -0,77.875Z" style="fill:#91b3fa;fill-rule:nonzero;"/><path d="M6746.82,3965.93c2.292,0 4.167,-1.875 4.167,-4.166l-0,-69.542c-0,-2.292 -1.875,-4.167 -4.167,-4.167l-769.417,0c-2.291,0 -4.166,-1.875 -4.166,-4.166l-0,-9.292c-0,-2.292 1.875,-4.167 4.166,-4.167l816.792,0c18,0 32.625,14.584 32.625,32.584l-0,49.791c-0,16.959 -13.792,30.75 -30.75,30.75l-818.667,0c-2.291,0 -4.166,-1.875 -4.166,-4.166l-0,-9.292c-0,-2.292 1.875,-4.167 4.166,-4.167l769.417,0Z" style="fill:url(#_Linear59);"/><path d="M6860.4,4018.43c2.542,-8.708 -0.916,-17.666 -9.416,-24.5c-8.5,-6.833 -21.167,-10.791 -34.5,-10.791l-4522.35,-0c-17.555,-0 -33.9,5.916 -43.359,15.75c-9.458,9.791 -10.729,22.125 -3.366,32.708l49.008,70.333c11.221,16.125 35.537,26.459 62.292,26.459l4426.73,-0c24.917,-0 46.292,-11.709 51.042,-27.917l23.916,-82.042Z" style="fill:#7d97f4;fill-rule:nonzero;"/><path d="M5041.86,3947.31c-3.125,0 -6.334,-0.125 -9.542,-0.333l2.458,-40.042c29.042,1.75 53.084,-7 69.5,-25.375c18.334,-20.541 25.875,-52.166 20.167,-84.541c-1.792,-10.042 -6.167,-27.375 -15.625,-30.375c-14.375,-4.5 -44.75,15.541 -61.167,31.791l-28.208,-28.541c9.417,-9.292 58.583,-55.125 101.542,-41.459c22.541,7.167 37,27.875 42.958,61.584c7.958,45.083 -2.875,88.166 -29.75,118.25c-22.583,25.333 -55.125,39 -92.333,39.041Z" style="fill:url(#_Linear60);"/><path d="M5040.4,3710.85l-256.5,0c-4.5,0 -11.791,4.75 -11.791,9.25l-0,194.708c-0,38.625 34.958,66.375 73.583,66.375l132.917,0c38.625,0 63.791,-27.75 63.791,-66.375l0,-194.708c0,-4.5 2.5,-9.25 -2,-9.25Z" style="fill:url(#_Linear61);"/><path d="M3912.36,3947.31c3.125,0 6.333,-0.125 9.541,-0.333l-2.458,-40.042c-29.042,1.75 -53.083,-7 -69.5,-25.375c-18.333,-20.541 -25.875,-52.166 -20.167,-84.541c1.792,-10.042 6.167,-27.375 15.625,-30.375c14.375,-4.5 44.75,15.541 61.125,31.791l28.25,-28.541c-9.416,-9.292 -58.583,-55.125 -101.541,-41.459c-22.542,7.167 -37,27.875 -42.959,61.584c-7.958,45.083 2.875,88.166 29.709,118.25c22.625,25.333 55.166,39 92.375,39.041Z" style="fill:url(#_Linear62);"/><path d="M3913.82,3710.85l256.458,0c4.542,0 5.292,4.75 5.292,9.25l-0,194.708c-0,38.625 -28.417,66.375 -67.083,66.375l-132.875,0c-38.625,0 -70.375,-27.75 -70.375,-66.375l-0,-194.708c-0,-4.5 4.083,-9.25 8.583,-9.25Z" style="fill:url(#_Linear63);"/><path d="M6281.57,3947.31c-3.167,0 -6.333,-0.125 -9.542,-0.333l2.459,-40.042c29,1.75 53.083,-7 69.5,-25.375c18.333,-20.541 25.875,-52.166 20.166,-84.541c-1.791,-10.042 -6.166,-27.375 -15.625,-30.375c-14.375,-4.5 -44.75,15.541 -61.166,31.791l-28.209,-28.541c9.417,-9.292 58.584,-55.125 101.5,-41.459c22.584,7.167 37.042,27.875 43,61.584c7.959,45.083 -2.875,88.166 -29.75,118.25c-22.625,25.333 -55.125,39 -92.333,39.041Z" style="fill:url(#_Linear64);"/><path d="M6280.11,3710.85l-256.5,0c-4.5,0 -11.792,4.75 -11.792,9.25l-0,194.708c-0,38.625 34.958,66.375 73.583,66.375l132.917,0c38.625,0 63.792,-27.75 63.792,-66.375l-0,-194.708c-0,-4.5 2.5,-9.25 -2,-9.25Z" style="fill:url(#_Linear65);"/><path d="M4860.49,2881.49c-0.917,-0 -1.75,-0.559 -2.084,-1.463c-0.375,-1.129 0.209,-2.379 1.334,-2.779c39.416,-13.708 71.041,-31.804 94.333,-53.583c0.083,1.921 0.167,3.837 0.292,5.737c-23.459,21.042 -54.667,38.575 -93.167,51.971l-0.708,0.117Z" style="fill:url(#_Linear66);"/><path d="M4954.36,2829.4c-0.125,-1.9 -0.209,-3.816 -0.292,-5.737c36.375,-34.029 52.417,-77.059 46,-126.413c-11,-85.141 42.583,-99.133 43.125,-99.271c0.167,-0.045 0.333,-0.066 0.5,-0.066c1,-0 1.875,0.679 2.125,1.671c0.292,1.17 -0.417,2.35 -1.583,2.641c-2.084,0.5 -50.334,13.367 -39.834,94.459c6.75,52.158 -10.666,97.383 -50.041,132.716Z" style="fill:url(#_Linear67);"/><path d="M4648.9,3516.27l-1.083,-0.292c-115.708,-64.25 -183.833,-141.917 -202.542,-230.858c-24.416,-116.109 46.292,-210.95 47,-211.9c0.417,-0.563 1.084,-0.859 1.75,-0.859c0.459,0 0.917,0.146 1.292,0.442c0.958,0.733 1.167,2.1 0.417,3.058c-0.709,0.934 -70.209,94.275 -46.167,208.4c18.458,87.634 85.875,164.3 200.375,227.884c1.042,0.625 1.417,1.916 0.833,3c-0.375,0.708 -1.125,1.125 -1.875,1.125Z" style="fill:url(#_Linear68);"/><path d="M3147.16,3689.6c-1,0 -2.008,-0.333 -2.858,-1c-1.625,-1.25 -39.787,-31.333 -43.287,-66.125c-1.367,-13.542 2.687,-25.958 12.054,-36.875c6.05,-7.083 12.783,-12.917 19.291,-18.583c17.909,-15.584 30.85,-26.834 19.7,-52.209c-4.154,-9.458 -9.112,-18.083 -13.9,-26.416c-16.191,-28.209 -31.487,-54.875 5.825,-89.584c1.88,-1.791 4.838,-1.666 6.588,0.209c1.758,1.875 1.65,4.833 -0.233,6.583c-31.905,29.708 -20.238,50.042 -4.096,78.125c4.912,8.583 9.996,17.417 14.358,27.333c13.9,31.667 -4.412,47.584 -22.129,63c-6.254,5.417 -12.725,11.042 -18.329,17.584c-7.634,8.916 -10.95,18.958 -9.859,29.875c3.088,30.833 39.38,59.458 39.746,59.75c2.025,1.583 2.392,4.5 0.804,6.541c-0.912,1.167 -2.287,1.792 -3.675,1.792Z" style="fill:#fff;fill-rule:nonzero;"/><path d="M3212.4,3689.6c-1,0 -2.008,-0.333 -2.858,-1c-1.625,-1.25 -39.788,-31.333 -43.288,-66.125c-1.366,-13.542 2.692,-25.958 12.055,-36.875c6.05,-7.083 12.783,-12.917 19.291,-18.583c17.909,-15.584 30.854,-26.834 19.7,-52.209c-4.154,-9.458 -9.108,-18.083 -13.9,-26.416c-16.191,-28.209 -31.487,-54.875 5.829,-89.584c1.88,-1.791 4.838,-1.666 6.584,0.209c1.758,1.875 1.654,4.833 -0.229,6.583c-31.905,29.708 -20.242,50.042 -4.1,78.125c4.912,8.583 9.995,17.417 14.358,27.333c13.904,31.667 -4.413,47.584 -22.129,63c-6.254,5.417 -12.721,11.042 -18.329,17.584c-7.634,8.916 -10.95,18.958 -9.859,29.875c3.088,30.833 39.379,59.458 39.75,59.75c2.021,1.583 2.388,4.5 0.8,6.541c-0.912,1.167 -2.287,1.792 -3.675,1.792Z" style="fill:#fff;fill-rule:nonzero;"/><path d="M3277.65,3689.6c-1,0 -2.004,-0.333 -2.854,-1c-1.625,-1.25 -39.792,-31.333 -43.288,-66.125c-1.366,-13.542 2.688,-25.958 12.055,-36.875c6.05,-7.083 12.779,-12.917 19.287,-18.583c17.908,-15.584 30.854,-26.834 19.704,-52.209c-4.154,-9.458 -9.112,-18.083 -13.9,-26.416c-16.196,-28.209 -31.487,-54.875 5.825,-89.584c1.879,-1.791 4.834,-1.666 6.588,0.209c1.758,1.875 1.65,4.833 -0.234,6.583c-31.904,29.708 -20.237,50.042 -4.095,78.125c4.912,8.583 9.995,17.417 14.354,27.333c13.904,31.667 -4.409,47.584 -22.129,63c-6.255,5.417 -12.721,11.042 -18.33,17.584c-7.629,8.916 -10.945,18.958 -9.854,29.875c3.084,30.833 39.375,59.458 39.746,59.75c2.025,1.583 2.388,4.5 0.804,6.541c-0.916,1.167 -2.287,1.792 -3.679,1.792Z" style="fill:#fff;fill-rule:nonzero;"/><path d="M3976.74,3689.6c-1,0 -2,-0.333 -2.875,-1c-1.625,-1.25 -39.792,-31.333 -43.292,-66.125c-1.333,-13.542 2.708,-25.958 12.083,-36.875c6.042,-7.083 12.75,-12.917 19.292,-18.583c17.875,-15.584 30.833,-26.834 19.667,-52.209c-4.125,-9.458 -9.084,-18.083 -13.875,-26.416c-16.209,-28.209 -31.5,-54.875 5.833,-89.584c1.875,-1.791 4.833,-1.666 6.583,0.209c1.75,1.875 1.625,4.833 -0.25,6.583c-31.875,29.708 -20.25,50.042 -4.083,78.125c4.917,8.583 10,17.417 14.333,27.333c13.917,31.667 -4.375,47.584 -22.125,63c-6.25,5.417 -12.708,11.042 -18.333,17.584c-7.625,8.916 -10.917,18.958 -9.833,29.875c3.083,30.833 39.375,59.458 39.75,59.75c2,1.583 2.375,4.5 0.791,6.541c-0.916,1.167 -2.291,1.792 -3.666,1.792Z" style="fill:#fff;fill-rule:nonzero;"/><path d="M4041.99,3689.6c-1,0 -2,-0.333 -2.875,-1c-1.625,-1.25 -39.792,-31.333 -43.292,-66.125c-1.333,-13.542 2.708,-25.958 12.083,-36.875c6.042,-7.083 12.75,-12.917 19.292,-18.583c17.875,-15.584 30.833,-26.834 19.667,-52.209c-4.125,-9.458 -9.084,-18.083 -13.875,-26.416c-16.209,-28.209 -31.5,-54.875 5.833,-89.584c1.875,-1.791 4.833,-1.666 6.583,0.209c1.75,1.875 1.625,4.833 -0.25,6.583c-31.916,29.708 -20.25,50.042 -4.083,78.125c4.917,8.583 10,17.417 14.333,27.333c13.917,31.667 -4.375,47.584 -22.125,63c-6.25,5.417 -12.708,11.042 -18.333,17.584c-7.625,8.916 -10.917,18.958 -9.833,29.875c3.083,30.833 39.375,59.458 39.75,59.75c2,1.583 2.375,4.5 0.791,6.541c-0.916,1.167 -2.291,1.792 -3.666,1.792Z" style="fill:#fff;fill-rule:nonzero;"/><path d="M4107.24,3689.6c-1,0 -2,-0.333 -2.875,-1c-1.625,-1.25 -39.792,-31.333 -43.292,-66.125c-1.375,-13.542 2.708,-25.958 12.083,-36.875c6.042,-7.083 12.75,-12.917 19.292,-18.583c17.875,-15.584 30.833,-26.834 19.667,-52.209c-4.125,-9.458 -9.084,-18.083 -13.875,-26.416c-16.209,-28.209 -31.5,-54.875 5.833,-89.584c1.875,-1.791 4.833,-1.666 6.583,0.209c1.75,1.875 1.625,4.833 -0.25,6.583c-31.916,29.708 -20.25,50.042 -4.083,78.125c4.917,8.583 10,17.417 14.333,27.333c13.917,31.667 -4.416,47.584 -22.125,63c-6.25,5.417 -12.708,11.042 -18.333,17.584c-7.625,8.916 -10.917,18.958 -9.833,29.875c3.083,30.833 39.375,59.458 39.75,59.75c2,1.583 2.375,4.5 0.791,6.541c-0.916,1.167 -2.291,1.792 -3.666,1.792Z" style="fill:#fff;fill-rule:nonzero;"/><path d="M4964.7,3689.6c-1.375,0 -2.75,-0.625 -3.667,-1.792c-1.583,-2.041 -1.25,-4.958 0.792,-6.541c0.375,-0.292 36.667,-28.917 39.75,-59.75c1.083,-10.917 -2.208,-20.959 -9.875,-29.875c-5.583,-6.542 -12.042,-12.167 -18.292,-17.584c-17.75,-15.416 -36.041,-31.333 -22.166,-63c4.375,-9.916 9.458,-18.791 14.375,-27.333c16.125,-28.083 27.791,-48.417 -4.084,-78.125c-1.916,-1.75 -2,-4.708 -0.25,-6.583c1.75,-1.875 4.709,-2 6.584,-0.209c37.333,34.709 22.041,61.375 5.833,89.584c-4.792,8.333 -9.75,16.958 -13.917,26.416c-11.125,25.375 1.792,36.625 19.709,52.209c6.5,5.666 13.25,11.5 19.291,18.583c9.375,10.917 13.417,23.333 12.042,36.875c-3.5,34.792 -41.625,64.875 -43.25,66.125c-0.875,0.667 -1.875,1 -2.875,1Z" style="fill:#fff;fill-rule:nonzero;"/><path d="M4899.45,3689.6c-1.375,0 -2.75,-0.625 -3.667,-1.792c-1.583,-2.041 -1.208,-4.958 0.792,-6.541c0.375,-0.292 36.667,-28.917 39.75,-59.75c1.083,-10.917 -2.208,-20.959 -9.875,-29.875c-5.583,-6.542 -12.042,-12.167 -18.292,-17.584c-17.75,-15.416 -36.041,-31.333 -22.125,-63c4.334,-9.916 9.417,-18.791 14.334,-27.333c16.166,-28.083 27.791,-48.417 -4.084,-78.125c-1.875,-1.75 -2,-4.708 -0.25,-6.583c1.75,-1.875 4.709,-2 6.584,-0.209c37.333,34.709 22.041,61.375 5.833,89.584c-4.792,8.333 -9.75,16.958 -13.917,26.416c-11.125,25.375 1.834,36.625 19.709,52.209c6.5,5.666 13.25,11.5 19.291,18.583c9.375,10.917 13.417,23.333 12.084,36.875c-3.5,34.792 -41.667,64.875 -43.292,66.125c-0.875,0.667 -1.875,1 -2.875,1Z" style="fill:#fff;fill-rule:nonzero;"/><path d="M4834.2,3689.6c-1.375,0 -2.75,-0.625 -3.667,-1.792c-1.583,-2.041 -1.208,-4.958 0.792,-6.541c0.375,-0.292 36.667,-28.917 39.75,-59.75c1.083,-10.917 -2.208,-20.959 -9.833,-29.875c-5.625,-6.542 -12.084,-12.167 -18.334,-17.584c-17.75,-15.416 -36.041,-31.333 -22.125,-63c4.334,-9.916 9.417,-18.791 14.334,-27.333c16.166,-28.083 27.791,-48.417 -4.084,-78.125c-1.875,-1.75 -2,-4.708 -0.25,-6.583c1.75,-1.875 4.709,-2 6.584,-0.209c37.333,34.709 22.041,61.375 5.833,89.584c-4.792,8.333 -9.75,16.958 -13.875,26.416c-11.167,25.375 1.792,36.625 19.667,52.209c6.541,5.666 13.25,11.5 19.291,18.583c9.375,10.917 13.417,23.333 12.084,36.875c-3.5,34.792 -41.667,64.875 -43.292,66.125c-0.875,0.667 -1.875,1 -2.875,1Z" style="fill:#fff;fill-rule:nonzero;"/><path d="M6204.4,3689.6c-1.375,0 -2.75,-0.625 -3.666,-1.792c-1.584,-2.041 -1.25,-4.958 0.791,-6.541c0.375,-0.292 36.667,-28.917 39.75,-59.75c1.084,-10.917 -2.25,-20.959 -9.875,-29.875c-5.583,-6.542 -12.083,-12.167 -18.333,-17.584c-17.708,-15.416 -36,-31.333 -22.125,-63c4.375,-9.916 9.458,-18.791 14.375,-27.333c16.125,-28.083 27.792,-48.417 -4.083,-78.125c-1.917,-1.75 -2,-4.708 -0.25,-6.583c1.75,-1.875 4.708,-2 6.583,-0.209c37.333,34.709 22,61.375 5.833,89.584c-4.791,8.333 -9.75,16.958 -13.916,26.416c-11.125,25.375 1.791,36.625 19.708,52.209c6.5,5.666 13.25,11.5 19.292,18.583c9.375,10.917 13.416,23.333 12.041,36.875c-3.5,34.792 -41.666,64.875 -43.291,66.125c-0.834,0.667 -1.834,1 -2.834,1Z" style="fill:#fff;fill-rule:nonzero;"/><path d="M6139.15,3689.6c-1.375,0 -2.75,-0.625 -3.666,-1.792c-1.584,-2.041 -1.25,-4.958 0.791,-6.541c0.375,-0.292 36.667,-28.917 39.75,-59.75c1.084,-10.917 -2.208,-20.959 -9.875,-29.875c-5.583,-6.542 -12.041,-12.167 -18.333,-17.584c-17.708,-15.416 -36,-31.333 -22.125,-63c4.375,-9.916 9.458,-18.791 14.375,-27.333c16.125,-28.083 27.792,-48.417 -4.083,-78.125c-1.917,-1.75 -2,-4.708 -0.25,-6.583c1.75,-1.875 4.708,-2 6.583,-0.209c37.333,34.709 22.042,61.375 5.833,89.584c-4.791,8.333 -9.75,16.958 -13.916,26.416c-11.125,25.375 1.791,36.625 19.708,52.209c6.5,5.666 13.25,11.5 19.292,18.583c9.375,10.917 13.416,23.333 12.041,36.875c-3.5,34.792 -41.666,64.875 -43.25,66.125c-0.875,0.667 -1.875,1 -2.875,1Z" style="fill:#fff;fill-rule:nonzero;"/><path d="M6073.9,3689.6c-1.375,0 -2.75,-0.625 -3.666,-1.792c-1.584,-2.041 -1.25,-4.958 0.791,-6.541c0.375,-0.292 36.667,-28.917 39.75,-59.75c1.084,-10.917 -2.208,-20.959 -9.875,-29.875c-5.583,-6.542 -12.041,-12.167 -18.291,-17.584c-17.75,-15.416 -36.042,-31.333 -22.167,-63c4.375,-9.916 9.458,-18.791 14.375,-27.333c16.125,-28.083 27.792,-48.417 -4.083,-78.125c-1.917,-1.75 -2,-4.708 -0.25,-6.583c1.75,-1.875 4.708,-2 6.583,-0.209c37.333,34.709 22.042,61.375 5.833,89.584c-4.791,8.333 -9.75,16.958 -13.916,26.416c-11.125,25.375 1.791,36.625 19.708,52.209c6.5,5.666 13.25,11.5 19.292,18.583c9.375,10.917 13.416,23.333 12.041,36.875c-3.5,34.792 -41.625,64.875 -43.25,66.125c-0.875,0.667 -1.875,1 -2.875,1Z" style="fill:#fff;fill-rule:nonzero;"/><path d="M5743.03,855.625c-286,23.625 -601.75,189.85 -646.458,497.987c-38,262.026 233.417,415.013 403.042,489.105c47.333,20.662 85.375,57.933 107.125,104.758c52.083,112.05 175.291,308.546 382.5,255.154c15.083,-3.887 14.625,-25.604 -0.584,-29.029c-48.375,-10.912 -114.416,-35.975 -148.625,-93.321c-46.583,-78.108 4.667,-178.287 94.917,-189.612c170.75,-21.434 506.958,-114.238 572.792,-510.85c89,-536.384 -764.709,-524.192 -764.709,-524.192Z" style="fill:#91b3fa;fill-rule:nonzero;"/><path d="M5258.82,1166.1c-4,0 -8.042,-1.291 -11.458,-3.954c-8.084,-6.338 -9.542,-18.054 -3.209,-26.171c153.834,-196.862 403.042,-239.875 591.125,-239.875c5.5,0 10.917,0.038 16.334,0.109c10.291,0.133 18.541,8.587 18.416,18.883c-0.166,10.137 -8.583,18.404 -18.416,18.404c-0.167,-0 -0.334,-0 -0.459,-0.004c-5.208,-0.067 -10.5,-0.104 -15.791,-0.104c-179.709,-0 -417.167,40.396 -561.834,225.545c-3.666,4.709 -9.166,7.167 -14.708,7.167Z" style="fill:#d3e1fd;fill-rule:nonzero;"/><path d="M5158.28,1388.75c-0.75,-0 -1.5,-0.042 -2.25,-0.129c-10.208,-1.217 -17.5,-10.459 -16.291,-20.671c0.166,-1.425 4.291,-35.454 22.458,-84.833c2.792,-7.534 9.917,-12.217 17.5,-12.217c2.125,-0 4.292,0.371 6.417,1.158c9.666,3.55 14.625,14.263 11.083,23.929c-16.5,44.888 -20.417,76.03 -20.458,76.338c-1.125,9.462 -9.167,16.425 -18.459,16.425Z" style="fill:#d3e1fd;fill-rule:nonzero;"/><path d="M6347.36,1172.12c-0,12.175 -9.875,22.046 -22.042,22.046l-888,-0c-12.208,-0 -22.083,-9.871 -22.083,-22.046l-0,-2.517c-0,-12.171 9.875,-22.046 22.083,-22.046l888,0c12.167,0 22.042,9.875 22.042,22.046l-0,2.517Z" style="fill:#bdd0fb;fill-rule:nonzero;"/><path d="M6282.11,1631.23c-0,11.567 -1.917,19.675 -13.334,19.675l-830.291,0c-11.375,0 -23.25,-8.108 -23.25,-19.675l-0,-2.392c-0,-11.566 11.875,-24.541 23.25,-24.541l830.291,-0c11.417,-0 13.334,12.975 13.334,24.541l-0,2.392Z" style="fill:#bdd0fb;fill-rule:nonzero;"/><path d="M6356.7,1336.4c-0,13.208 -8.417,16.225 -21.792,16.225l-976.666,0c-13.375,0 -26.875,-3.017 -26.875,-16.225l-0,-2.729c-0,-13.213 13.5,-27.65 26.875,-27.65l976.666,-0c13.375,-0 21.792,14.437 21.792,27.65l-0,2.729Z" style="fill:#bdd0fb;fill-rule:nonzero;"/><path d="M6356.7,1476.22c-0,13.208 -8.417,16.22 -21.792,16.22l-976.666,0c-13.375,0 -26.875,-3.012 -26.875,-16.22l-0,-2.73c-0,-13.212 13.5,-27.654 26.875,-27.654l976.666,0c13.375,0 21.792,14.442 21.792,27.654l-0,2.73Z" style="fill:#bdd0fb;fill-rule:nonzero;"/><path d="M7657.15,4453.39l15.959,-43.792c1.083,-2.958 4.333,-4.458 7.291,-3.417c2.917,1.084 4.459,4.334 3.375,7.292l0,0.042l-16.416,43.625c-1.084,2.833 -4.209,4.25 -7,3.208c-2.792,-1.083 -4.209,-4.167 -3.209,-6.958Z" style="fill:#fff;fill-rule:nonzero;"/><path d="M7694.11,4338.81l9.916,-45.541c0.75,-3.417 4.125,-5.584 7.542,-4.834c3.417,0.75 5.583,4.125 4.833,7.542l0,0.083l-10.458,45.417c-0.708,3.25 -4,5.333 -7.25,4.583c-3.25,-0.75 -5.292,-4 -4.583,-7.25Z" style="fill:#fff;fill-rule:nonzero;"/><path d="M7713.11,4220.6l0.625,-46.583c0.041,-3.834 3.208,-6.959 7.083,-6.875c3.833,-0 6.958,3.166 6.917,7.041l-0,0.084l-1.167,46.583c-0.083,3.708 -3.167,6.667 -6.875,6.583c-3.708,-0.083 -6.625,-3.125 -6.583,-6.833Z" style="fill:#fff;fill-rule:nonzero;"/><path d="M7704.86,4101.98c-0,0 -2.875,-11.292 -5.75,-22.583c-3.5,-10.709 -7,-21.417 -7,-21.417l-0.167,-0.5c-1.292,-4 0.917,-8.333 4.917,-9.625c4,-1.292 8.333,0.875 9.625,4.917l0.041,0.083c0,0 3.584,11.458 7.167,22.917c2.75,11.333 5.5,22.625 5.5,22.625c0.958,3.958 -1.458,7.958 -5.458,8.916c-3.917,1 -7.875,-1.416 -8.875,-5.333Z" style="fill:#fff;fill-rule:nonzero;"/><path d="M7660.07,3993.02c-0,-0 -6.625,-9.542 -13.25,-19.125c-7,-8.792 -14,-17.584 -14,-17.584l-0.375,-0.416c-2.833,-3.584 -2.25,-8.792 1.333,-11.667c3.584,-2.833 8.792,-2.25 11.667,1.333l0.042,0.084c-0,-0 7.416,9.5 14.833,19c6.5,9.666 13.042,19.333 13.042,19.333c2.458,3.667 1.5,8.667 -2.167,11.167c-3.667,2.458 -8.625,1.5 -11.125,-2.125Z" style="fill:#fff;fill-rule:nonzero;"/><path d="M7580.65,3906.1l-37.875,-27.125c-4,-2.875 -4.916,-8.458 -2.041,-12.458c2.875,-4.042 8.458,-4.959 12.458,-2.084l0.125,0.084l37.542,27.5c3.875,2.833 4.75,8.291 1.875,12.166c-2.792,3.834 -8.209,4.667 -12.084,1.917Z" style="fill:#fff;fill-rule:nonzero;"/><path d="M7479.24,3844.06l-42.834,-18.416c-4.875,-2.084 -7.125,-7.75 -5,-12.625c2.084,-4.875 7.709,-7.125 12.584,-5.042l0.125,0.083l42.625,18.834c4.708,2.083 6.875,7.625 4.75,12.333c-2.042,4.708 -7.542,6.833 -12.25,4.833Z" style="fill:#fff;fill-rule:nonzero;"/><path d="M7367.2,3802.14l-45.042,-12.084c-5.458,-1.458 -8.708,-7.083 -7.25,-12.583c1.5,-5.458 7.125,-8.708 12.584,-7.25l0.125,0.042l44.875,12.583c5.333,1.5 8.416,7 6.958,12.333c-1.5,5.292 -6.958,8.375 -12.25,6.959Z" style="fill:#fff;fill-rule:nonzero;"/><path d="M7250.24,3774.81l-46,-7.583c-5.917,-1 -9.959,-6.625 -8.959,-12.542c0.959,-5.958 6.584,-10 12.542,-9l0.125,0l45.875,8.084c5.792,1.041 9.708,6.583 8.667,12.375c-1,5.75 -6.5,9.625 -12.25,8.666Z" style="fill:#fff;fill-rule:nonzero;"/><path d="M7131.11,3758.02l-46.417,-4.292c-6.333,-0.583 -11.042,-6.25 -10.458,-12.583c0.625,-6.375 6.25,-11.042 12.625,-10.459l0.125,0l46.333,4.792c6.208,0.625 10.75,6.208 10.083,12.417c-0.625,6.166 -6.125,10.666 -12.291,10.125Z" style="fill:#fff;fill-rule:nonzero;"/><path d="M7010.95,3749.02l-46.583,-1.834c-6.667,-0.25 -11.917,-5.916 -11.625,-12.625c0.25,-6.708 5.916,-11.916 12.625,-11.666l0.083,0.041l46.542,2.167c6.583,0.333 11.708,5.917 11.375,12.542c-0.292,6.583 -5.875,11.666 -12.417,11.375Z" style="fill:#fff;fill-rule:nonzero;"/><path d="M6890.4,3745.85l-46.625,0.083c-6.916,0 -12.5,-5.583 -12.5,-12.5c-0.041,-6.875 5.542,-12.5 12.459,-12.5l0.083,0l46.583,0.167c6.834,0.042 12.375,5.583 12.334,12.417c-0.042,6.833 -5.542,12.291 -12.334,12.333Z" style="fill:#fff;fill-rule:nonzero;"/><path d="M6769.7,3747.39l-46.583,1.708c-7.125,0.25 -13.084,-5.333 -13.375,-12.417c-0.25,-7.125 5.333,-13.083 12.416,-13.333l0.084,-0l46.583,-1.417c7.042,-0.208 12.917,5.334 13.125,12.375c0.208,7 -5.292,12.834 -12.25,13.084Z" style="fill:#fff;fill-rule:nonzero;"/><path d="M6648.99,3752.85l-46.542,2.958c-7.292,0.459 -13.625,-5.083 -14.083,-12.375c-0.459,-7.291 5.083,-13.583 12.375,-14.083l0.083,0l46.583,-2.667c7.209,-0.416 13.417,5.084 13.834,12.334c0.416,7.166 -5.084,13.375 -12.25,13.833Z" style="fill:#fff;fill-rule:nonzero;"/><path d="M6528.4,3761.43l-46.458,4.042c-7.458,0.667 -14.083,-4.875 -14.75,-12.375c-0.625,-7.5 4.917,-14.083 12.417,-14.75l0.083,0l46.458,-3.75c7.417,-0.625 13.917,4.917 14.5,12.333c0.584,7.375 -4.875,13.875 -12.25,14.5Z" style="fill:#fff;fill-rule:nonzero;"/><path d="M6407.99,3772.64l-46.334,4.916c-7.708,0.834 -14.583,-4.75 -15.375,-12.416c-0.833,-7.709 4.75,-14.584 12.417,-15.375l0.083,-0.042l46.375,-4.625c7.625,-0.75 14.417,4.792 15.167,12.417c0.75,7.583 -4.75,14.333 -12.333,15.125Z" style="fill:#fff;fill-rule:nonzero;"/><path d="M6287.74,3785.97l-46.25,5.625c-7.875,0.917 -15.042,-4.667 -15.959,-12.542c-0.958,-7.875 4.625,-15.041 12.5,-16l0.084,0l46.333,-5.291c7.792,-0.917 14.833,4.708 15.708,12.5c0.917,7.75 -4.666,14.791 -12.416,15.708Z" style="fill:#fff;fill-rule:nonzero;"/><path d="M6167.61,3800.93l-46.209,6.042c-8.041,1.042 -15.458,-4.625 -16.5,-12.708c-1.041,-8.042 4.625,-15.459 12.709,-16.5l0.083,-0l46.25,-5.75c8,-1 15.292,4.666 16.25,12.666c1,7.959 -4.625,15.209 -12.583,16.25Z" style="fill:#fff;fill-rule:nonzero;"/><path d="M6047.49,3816.77l-46.209,6.083c-8.291,1.083 -15.833,-4.75 -16.958,-13c-1.083,-8.25 4.75,-15.833 13,-16.917l0.125,-0.041l46.25,-5.75c8.167,-1.042 15.667,4.75 16.667,12.958c1.041,8.167 -4.75,15.625 -12.875,16.667Z" style="fill:#fff;fill-rule:nonzero;"/><path d="M5927.07,3832.06l-46.292,5.375c-8.5,1 -16.166,-5.083 -17.166,-13.583c-0.959,-8.458 5.083,-16.125 13.583,-17.125l0.083,0l46.334,-5.125c8.416,-0.917 15.958,5.167 16.916,13.583c0.917,8.375 -5.125,15.917 -13.458,16.875Z" style="fill:#fff;fill-rule:nonzero;"/><path d="M5806.4,3845.52l-46.375,4.666c-8.708,0.875 -16.458,-5.458 -17.333,-14.125c-0.875,-8.708 5.458,-16.458 14.167,-17.333l0.083,-0.042l46.417,-4.375c8.625,-0.833 16.25,5.5 17.083,14.125c0.833,8.584 -5.458,16.209 -14.042,17.084Z" style="fill:#fff;fill-rule:nonzero;"/><path d="M5685.57,3857.14l-46.458,4c-8.917,0.791 -16.75,-5.834 -17.5,-14.75c-0.792,-8.917 5.833,-16.75 14.75,-17.5l0.083,-0l46.458,-3.75c8.834,-0.709 16.584,5.916 17.292,14.75c0.708,8.791 -5.833,16.5 -14.625,17.25Z" style="fill:#fff;fill-rule:nonzero;"/><path d="M5564.57,3867.02l-46.5,3.333c-9.125,0.625 -17.042,-6.25 -17.708,-15.375c-0.667,-9.125 6.208,-17.042 15.333,-17.708l0.125,-0l46.5,-3c9.042,-0.625 16.875,6.25 17.458,15.291c0.584,9.042 -6.25,16.834 -15.208,17.459Z" style="fill:#fff;fill-rule:nonzero;"/><path d="M5443.4,3874.97l-46.541,2.542c-9.209,0.5 -17.084,-6.542 -17.584,-15.75c-0.5,-9.209 6.542,-17.084 15.75,-17.584l0.042,0l46.542,-2.458c9.166,-0.5 17,6.542 17.5,15.75c0.5,9.167 -6.542,17 -15.709,17.5Z" style="fill:#fff;fill-rule:nonzero;"/><path d="M5322.15,3881.06l-46.541,1.875c-9.292,0.375 -17.125,-6.833 -17.5,-16.125c-0.375,-9.291 6.875,-17.125 16.125,-17.5l0.041,0l46.542,-1.75c9.25,-0.375 17.042,6.834 17.417,16.084c0.333,9.25 -6.834,17.041 -16.084,17.416Z" style="fill:#fff;fill-rule:nonzero;"/><path d="M5200.86,3885.39l-46.625,1.25c-9.375,0.25 -17.125,-7.167 -17.375,-16.5c-0.25,-9.334 7.125,-17.125 16.5,-17.375l46.625,-1.125c9.333,-0.209 17.083,7.166 17.291,16.458c0.25,9.333 -7.125,17.083 -16.416,17.292Z" style="fill:#fff;fill-rule:nonzero;"/><path d="M5079.45,3888.06l-46.625,0.584c-9.417,0.083 -17.125,-7.459 -17.25,-16.875c-0.125,-9.417 7.417,-17.167 16.833,-17.25l0.042,-0l46.625,-0.5c9.375,-0.084 17.083,7.458 17.167,16.875c0.083,9.375 -7.417,17.083 -16.792,17.166Z" style="fill:#fff;fill-rule:nonzero;"/><path d="M4958.03,3889.02l-46.625,-0.084c-9.458,-0.041 -17.166,-7.75 -17.125,-17.208c0,-9.5 7.709,-17.167 17.209,-17.167l0.041,0l46.584,0.167c9.458,0.042 17.125,7.75 17.083,17.208c-0.042,9.459 -7.708,17.125 -17.167,17.084Z" style="fill:#fff;fill-rule:nonzero;"/><path d="M4836.61,3888.27l-46.584,-0.75c-9.583,-0.125 -17.208,-8 -17.041,-17.542c0.166,-9.583 8,-17.208 17.583,-17.042l0.042,0l46.583,0.834c9.542,0.166 17.125,8 16.958,17.541c-0.166,9.542 -8,17.125 -17.541,16.959Z" style="fill:#fff;fill-rule:nonzero;"/><path d="M4715.24,3885.85l-46.584,-1.375c-9.625,-0.292 -17.208,-8.292 -16.916,-17.917c0.291,-9.625 8.333,-17.208 17.916,-16.916l0.042,-0l46.583,1.458c9.625,0.292 17.125,8.333 16.834,17.917c-0.292,9.583 -8.292,17.125 -17.875,16.833Z" style="fill:#fff;fill-rule:nonzero;"/><path d="M4593.9,3881.77l-46.583,-2c-9.667,-0.417 -17.208,-8.584 -16.75,-18.292c0.417,-9.667 8.583,-17.208 18.25,-16.75l0.042,0l46.583,2.083c9.625,0.417 17.125,8.625 16.667,18.25c-0.417,9.667 -8.584,17.167 -18.209,16.709Z" style="fill:#fff;fill-rule:nonzero;"/><path d="M4472.61,3876.06l-46.542,-2.666c-9.75,-0.542 -17.167,-8.875 -16.625,-18.625c0.542,-9.75 8.875,-17.209 18.625,-16.667l0.042,0.042l46.541,2.708c9.709,0.583 17.125,8.917 16.542,18.625c-0.542,9.708 -8.875,17.125 -18.583,16.583Z" style="fill:#fff;fill-rule:nonzero;"/><path d="M4351.4,3868.64l-46.458,-3.25c-9.833,-0.667 -17.208,-9.209 -16.5,-19c0.667,-9.792 9.167,-17.167 19,-16.5l46.5,3.375c9.792,0.708 17.125,9.208 16.417,18.958c-0.709,9.792 -9.167,17.125 -18.959,16.417Z" style="fill:#fff;fill-rule:nonzero;"/><path d="M4230.36,3859.64l-46.459,-3.917c-9.875,-0.792 -17.166,-9.458 -16.333,-19.333c0.792,-9.875 9.458,-17.167 19.333,-16.334l0.042,0l46.417,3.959c9.833,0.875 17.125,9.5 16.291,19.333c-0.875,9.833 -9.458,17.125 -19.291,16.292Z" style="fill:#fff;fill-rule:nonzero;"/><path d="M4109.4,3848.97l-46.375,-4.5c-9.916,-1 -17.166,-9.792 -16.208,-19.708c0.958,-9.917 9.792,-17.167 19.708,-16.209l0.042,0l46.375,4.625c9.875,0.959 17.083,9.792 16.083,19.667c-0.958,9.917 -9.75,17.125 -19.625,16.125Z" style="fill:#fff;fill-rule:nonzero;"/><path d="M3988.61,3836.68l-46.334,-5.125c-9.958,-1.125 -17.125,-10.125 -16.041,-20.083c1.125,-9.958 10.083,-17.125 20.041,-16.042l0.042,0l46.333,5.25c9.917,1.125 17.084,10.125 15.959,20.042c-1.125,9.958 -10.084,17.083 -20,15.958Z" style="fill:#fff;fill-rule:nonzero;"/><path d="M3867.99,3822.77l-46.25,-5.792c-10,-1.25 -17.125,-10.375 -15.875,-20.375c1.25,-10.042 10.375,-17.125 20.416,-15.875l0.042,-0l46.208,5.875c10,1.25 17.084,10.375 15.792,20.375c-1.25,10 -10.333,17.042 -20.333,15.792Z" style="fill:#fff;fill-rule:nonzero;"/><path d="M3747.57,3807.22l-46.167,-6.417c-10.083,-1.416 -17.083,-10.708 -15.708,-20.75c1.417,-10.083 10.708,-17.125 20.75,-15.708l0.042,0l46.166,6.5c10.042,1.417 17.042,10.708 15.625,20.75c-1.416,10.042 -10.666,17.042 -20.708,15.625Z" style="fill:#fff;fill-rule:nonzero;"/><path d="M3627.36,3790.02l-46.084,-7.042c-10.083,-1.542 -17.041,-11 -15.5,-21.083c1.542,-10.125 11,-17.084 21.084,-15.542l0.041,-0l46.084,7.125c10.083,1.583 17,11 15.416,21.083c-1.541,10.084 -10.958,17 -21.041,15.459Z" style="fill:#fff;fill-rule:nonzero;"/><path d="M3507.4,3771.18l-45.958,-7.666c-10.167,-1.709 -17.042,-11.292 -15.333,-21.459c1.708,-10.125 11.291,-17 21.458,-15.291l0.042,-0l45.958,7.75c10.125,1.708 16.958,11.291 15.25,21.416c-1.708,10.125 -11.292,16.959 -21.417,15.25Z" style="fill:#fff;fill-rule:nonzero;"/><path d="M3387.74,3750.56l-45.842,-8.375c-10.063,-1.833 -16.725,-11.5 -14.888,-21.541c1.842,-10.084 11.455,-16.75 21.513,-14.917l45.842,8.292c10.125,1.833 16.791,11.5 15,21.583c-1.834,10.083 -11.5,16.792 -21.584,14.958l-0.041,0Z" style="fill:#fff;fill-rule:nonzero;"/><path d="M3268.38,3728.22l-45.72,-9.042c-9.975,-1.958 -16.463,-11.625 -14.492,-21.625c1.962,-9.958 11.604,-16.458 21.575,-14.458l45.742,8.917c10,1.958 16.525,11.625 14.57,21.625c-1.95,10 -11.637,16.541 -21.637,14.583l-0.038,0Z" style="fill:#fff;fill-rule:nonzero;"/><path d="M3149.35,3704.18l-45.592,-9.625c-9.879,-2.083 -16.187,-11.791 -14.095,-21.666c2.091,-9.917 11.758,-16.209 21.637,-14.125l45.613,9.583c9.904,2.083 16.254,11.792 14.175,21.667c-2.08,9.916 -11.792,16.25 -21.7,14.208l-0.038,-0.042Z" style="fill:#fff;fill-rule:nonzero;"/><path d="M3030.67,3678.52l-45.479,-10.292c-9.784,-2.208 -15.917,-11.958 -13.7,-21.708c2.216,-9.792 11.908,-15.959 21.691,-13.709l45.5,10.209c9.813,2.208 15.979,11.916 13.775,21.75c-2.2,9.791 -11.941,15.958 -21.75,13.75l-0.037,-0Z" style="fill:#fff;fill-rule:nonzero;"/><path d="M2912.39,3651.22l-45.342,-10.792c-9.696,-2.291 -15.687,-12 -13.383,-21.708c2.304,-9.708 12,-15.708 21.696,-13.375l45.358,10.667c9.725,2.291 15.754,12.041 13.458,21.75c-2.287,9.708 -12.029,15.75 -21.75,13.458l-0.037,0Z" style="fill:#fff;fill-rule:nonzero;"/><path d="M2794.44,3622.93l-45.267,-11.083c-9.617,-2.333 -15.5,-12.042 -13.146,-21.667c2.354,-9.625 12.021,-15.5 21.638,-13.166l45.291,11c9.642,2.333 15.563,12.083 13.221,21.708c-2.341,9.667 -12.058,15.583 -21.704,13.208l-0.033,0Z" style="fill:#fff;fill-rule:nonzero;"/><path d="M2676.67,3593.77l-45.167,-11.459c-9.529,-2.416 -15.292,-12.125 -12.871,-21.666c2.425,-9.5 12.084,-15.292 21.613,-12.875l45.191,11.416c9.559,2.417 15.355,12.084 12.942,21.667c-2.408,9.542 -12.112,15.333 -21.675,12.958l-0.033,-0.041Z" style="fill:#fff;fill-rule:nonzero;"/><path d="M2559.16,3563.52l-45.075,-12c-9.442,-2.5 -15.059,-12.167 -12.55,-21.625c2.508,-9.417 12.162,-15.042 21.6,-12.542l45.1,11.875c9.47,2.5 15.12,12.208 12.625,21.667c-2.496,9.458 -12.196,15.125 -21.667,12.625l-0.033,-0Z" style="fill:#fff;fill-rule:nonzero;"/><path d="M2441.93,3531.89l-44.892,-12.542c-9.345,-2.625 -14.804,-12.292 -12.195,-21.625c2.612,-9.375 12.27,-14.833 21.616,-12.208l44.913,12.416c9.375,2.625 14.866,12.334 12.266,21.709c-2.595,9.375 -12.304,14.875 -21.675,12.25l-0.033,-0Z" style="fill:#fff;fill-rule:nonzero;"/><path d="M2325.11,3498.72l-44.7,-13.208c-9.242,-2.709 -14.525,-12.417 -11.796,-21.667c2.725,-9.25 12.396,-14.542 21.641,-11.792l44.725,13.084c9.271,2.708 14.588,12.458 11.871,21.708c-2.716,9.292 -12.437,14.583 -21.708,11.875l-0.033,0Z" style="fill:#fff;fill-rule:nonzero;"/><path d="M2208.79,3463.77l-44.475,-13.917c-9.134,-2.875 -14.217,-12.583 -11.359,-21.75c2.863,-9.125 12.554,-14.208 21.688,-11.333l44.5,13.833c9.166,2.833 14.283,12.583 11.429,21.75c-2.85,9.167 -12.588,14.292 -21.75,11.417l-0.033,-0Z" style="fill:#fff;fill-rule:nonzero;"/><path d="M2093.05,3426.81l-44.208,-14.75c-9.017,-3.041 -13.888,-12.791 -10.879,-21.791c3.012,-9 12.729,-13.875 21.746,-10.875l44.233,14.666c9.046,3 13.95,12.75 10.95,21.792c-3,9.042 -12.763,13.958 -21.813,10.958l-0.029,0Z" style="fill:#fff;fill-rule:nonzero;"/><path d="M1978.02,3387.6l-43.892,-15.667c-8.892,-3.166 -13.525,-12.958 -10.35,-21.833c3.171,-8.875 12.921,-13.542 21.813,-10.375l43.92,15.583c8.921,3.167 13.588,12.959 10.421,21.875c-3.162,8.917 -12.958,13.584 -21.879,10.459l-0.033,-0.042Z" style="fill:#fff;fill-rule:nonzero;"/><path d="M1863.82,3345.97l-43.525,-16.667c-8.754,-3.375 -13.134,-13.179 -9.784,-21.937c3.355,-8.75 13.134,-13.142 21.888,-9.788l43.558,16.575c8.784,3.346 13.196,13.192 9.85,21.942c-3.341,8.792 -13.175,13.208 -21.958,9.875l-0.029,0Z" style="fill:#fff;fill-rule:nonzero;"/><path d="M1750.59,3301.62l-43.092,-17.742c-8.608,-3.546 -12.708,-13.396 -9.167,-22.004c3.546,-8.604 13.367,-12.721 21.971,-9.179l43.129,17.666c8.638,3.534 12.771,13.401 9.238,22.042c-3.542,8.638 -13.409,12.771 -22.046,9.234l-0.033,-0.017Z" style="fill:#fff;fill-rule:nonzero;"/><path d="M1638.51,3254.39l-42.595,-18.917c-8.446,-3.75 -12.255,-13.638 -8.505,-22.079c3.755,-8.45 13.613,-12.271 22.059,-8.521l42.633,18.825c8.475,3.75 12.313,13.658 8.571,22.133c-3.746,8.475 -13.654,12.313 -22.129,8.567l-0.034,-0.008Z" style="fill:#fff;fill-rule:nonzero;"/><path d="M1527.76,3204.03l-42.045,-20.171c-8.275,-3.97 -11.763,-13.896 -7.796,-22.171c3.966,-8.27 13.862,-11.779 22.137,-7.808l42.088,20.092c8.304,3.962 11.825,13.908 7.862,22.212c-3.966,8.304 -13.912,11.821 -22.212,7.859l-0.034,-0.013Z" style="fill:#fff;fill-rule:nonzero;"/><path d="M1418.53,3150.25l-41.325,-21.562c-7.996,-4.175 -11.096,-14.042 -6.925,-22.038c4.159,-7.971 13.971,-11.075 21.954,-6.971l41.455,21.321c8.087,4.159 11.275,14.092 7.112,22.179c-4.158,8.088 -14.092,11.275 -22.183,7.117l-0.088,-0.046Z" style="fill:#fff;fill-rule:nonzero;"/><path d="M1311.2,3092.83l-40.563,-22.95c-7.679,-4.345 -10.383,-14.091 -6.037,-21.766c4.325,-7.65 14.021,-10.363 21.687,-6.084l40.696,22.704c7.771,4.338 10.559,14.15 6.217,21.921c-4.329,7.771 -14.146,10.559 -21.917,6.221l-0.083,-0.046Z" style="fill:#fff;fill-rule:nonzero;"/><path d="M1205.75,3030.93l-38.871,-25.721c-7.192,-4.758 -9.167,-14.446 -4.408,-21.642c4.741,-7.162 14.383,-9.137 21.571,-4.45l39.025,25.488c7.283,4.758 9.333,14.521 4.575,21.804c-4.759,7.284 -14.517,9.333 -21.805,4.575l-0.087,-0.054Z" style="fill:#fff;fill-rule:nonzero;"/><path d="M1105.5,2959.9l-35.833,-29.808c-6.475,-5.388 -7.359,-15.009 -1.967,-21.488c5.367,-6.45 14.946,-7.337 21.421,-2.017l36.008,29.592c6.567,5.4 7.517,15.1 2.117,21.671c-5.4,6.567 -15.1,7.512 -21.667,2.112l-0.079,-0.062Z" style="fill:#fff;fill-rule:nonzero;"/><path d="M1014.11,2877.17l-31.213,-34.609c-5.508,-6.108 -5.021,-15.529 1.088,-21.037c6.083,-5.492 15.466,-5.013 20.987,1.033l31.417,34.425c5.596,6.133 5.162,15.642 -0.971,21.238c-6.133,5.596 -15.642,5.166 -21.238,-0.971l-0.07,-0.079Z" style="fill:#fff;fill-rule:nonzero;"/><path d="M936.333,2780.86l-24.337,-39.742c-4.192,-6.846 -2.042,-15.792 4.804,-19.988c6.821,-4.175 15.738,-2.041 19.946,4.746l24.579,39.596c4.271,6.883 2.154,15.929 -4.729,20.2c-6.888,4.279 -15.933,2.158 -20.208,-4.725l-0.055,-0.088Z" style="fill:#fff;fill-rule:nonzero;"/><path d="M878.763,2670.87l-14.975,-44.125c-2.517,-7.417 1.454,-15.463 8.866,-17.979c7.388,-2.505 15.404,1.433 17.954,8.791l15.238,44.038c2.587,7.466 -1.375,15.621 -8.846,18.204c-7.471,2.587 -15.621,-1.375 -18.204,-8.846l-0.033,-0.083Z" style="fill:#fff;fill-rule:nonzero;"/><path d="M847.667,2550.63l-4.225,-46.392c-0.696,-7.599 4.904,-14.325 12.5,-15.02c7.571,-0.692 14.275,4.87 15.012,12.425l4.496,46.366c0.75,7.675 -4.862,14.496 -12.533,15.246c-7.671,0.746 -14.496,-4.867 -15.242,-12.533l-0.008,-0.092Z" style="fill:#fff;fill-rule:nonzero;"/><path d="M845.075,2426.8l5.833,-46.221c0.921,-7.371 7.646,-12.604 15.021,-11.683c7.346,0.925 12.563,7.621 11.692,14.958l-5.558,46.258c-0.892,7.455 -7.655,12.78 -15.109,11.892c-7.458,-0.891 -12.779,-7.654 -11.891,-15.108l0.012,-0.096Z" style="fill:#fff;fill-rule:nonzero;"/><path d="M867.571,2305.53l13.867,-44.487c2.15,-6.905 9.487,-10.767 16.395,-8.621c6.88,2.137 10.73,9.446 8.638,16.329l-13.604,44.571c-2.129,6.991 -9.517,10.937 -16.513,8.808c-6.991,-2.125 -10.937,-9.517 -8.808,-16.512l0.025,-0.088Z" style="fill:#fff;fill-rule:nonzero;"/><path d="M909.388,2189.99l19.812,-42.163c2.992,-6.367 10.571,-9.108 16.942,-6.121c6.346,2.971 9.083,10.525 6.15,16.879l-19.567,42.28c-2.983,6.458 -10.629,9.27 -17.083,6.291c-6.459,-2.979 -9.275,-10.629 -6.292,-17.087l0.038,-0.079Z" style="fill:#fff;fill-rule:nonzero;"/><path d="M965.275,2081.05l24.146,-39.808c3.542,-5.851 11.15,-7.717 17,-4.175c5.821,3.529 7.692,11.104 4.204,16.941l-23.908,39.954c-3.546,5.929 -11.229,7.867 -17.163,4.321c-5.933,-3.546 -7.866,-11.233 -4.321,-17.162l0.042,-0.071Z" style="fill:#fff;fill-rule:nonzero;"/><path d="M1031.4,1978.38l27.404,-37.696c3.896,-5.362 11.405,-6.554 16.767,-2.658c5.342,3.879 6.538,11.35 2.7,16.713l-27.158,37.87c-3.913,5.455 -11.504,6.713 -16.963,2.801c-5.458,-3.909 -6.708,-11.505 -2.8,-16.963l0.05,-0.067Z" style="fill:#fff;fill-rule:nonzero;"/><path d="M1105.33,1881.42l29.93,-35.713c4.033,-4.812 11.2,-5.445 16.012,-1.416c4.779,4.004 5.429,11.108 1.492,15.92l-29.554,36.03c-4.063,4.958 -11.38,5.683 -16.338,1.616c-4.958,-4.062 -5.687,-11.379 -1.621,-16.337l0.079,-0.1Z" style="fill:#fff;fill-rule:nonzero;"/><path d="M1185.17,1789.5l31.858,-34.012c4.046,-4.321 10.834,-4.546 15.159,-0.5c4.291,4.021 4.537,10.75 0.575,15.079l-31.492,34.346c-4.096,4.466 -11.033,4.766 -15.5,0.675c-4.471,-4.096 -4.771,-11.034 -0.679,-15.5l0.079,-0.088Z" style="fill:#fff;fill-rule:nonzero;"/><path d="M1269.63,1701.98l33.409,-32.492c3.991,-3.883 10.375,-3.796 14.262,0.196c3.858,3.967 3.792,10.296 -0.121,14.188l-33.062,32.841c-4.05,4.021 -10.592,4 -14.613,-0.045c-4.021,-4.046 -4,-10.592 0.046,-14.613l0.079,-0.075Z" style="fill:#fff;fill-rule:nonzero;"/><path d="M1357.85,1618.35l34.704,-31.117c3.884,-3.483 9.854,-3.158 13.338,0.725c3.462,3.854 3.158,9.779 -0.65,13.271l-34.371,31.483c-3.95,3.617 -10.075,3.346 -13.692,-0.6c-3.616,-3.945 -3.346,-10.079 0.6,-13.691l0.071,-0.071Z" style="fill:#fff;fill-rule:nonzero;"/><path d="M1449.24,1538.25l35.804,-29.858c3.733,-3.117 9.287,-2.613 12.404,1.125c3.092,3.708 2.613,9.212 -1.054,12.341l-35.483,30.229c-3.809,3.246 -9.521,2.788 -12.763,-1.016c-3.242,-3.805 -2.787,-9.517 1.017,-12.759l0.075,-0.062Z" style="fill:#fff;fill-rule:nonzero;"/><path d="M1543.36,1461.39l36.771,-28.674c3.559,-2.775 8.688,-2.142 11.463,1.416c2.754,3.534 2.141,8.621 -1.35,11.409l-36.467,29.062c-3.633,2.892 -8.925,2.296 -11.821,-1.338c-2.896,-3.633 -2.3,-8.924 1.334,-11.82l0.07,-0.055Z" style="fill:#fff;fill-rule:nonzero;"/><path d="M1639.83,1387.62l37.642,-27.538c3.358,-2.454 8.067,-1.725 10.521,1.63c2.437,3.333 1.729,8.004 -1.567,10.471l-37.354,27.937c-3.433,2.571 -8.304,1.867 -10.875,-1.571c-2.575,-3.437 -1.871,-8.308 1.567,-10.879l0.066,-0.05Z" style="fill:#fff;fill-rule:nonzero;"/><path d="M1738.49,1316.83l38.454,-26.408c3.137,-2.154 7.425,-1.358 9.575,1.779c2.142,3.113 1.367,7.367 -1.717,9.534l-38.175,26.812c-3.225,2.262 -7.675,1.487 -9.937,-1.738c-2.263,-3.225 -1.488,-7.67 1.737,-9.933l0.063,-0.046Z" style="fill:#fff;fill-rule:nonzero;"/><path d="M1839.22,1249.03l39.237,-25.233c2.904,-1.863 6.771,-1.021 8.634,1.879c1.854,2.879 1.037,6.716 -1.821,8.596l-38.971,25.646c-2.996,1.966 -7.025,1.137 -8.996,-1.859c-1.967,-2.996 -1.137,-7.021 1.858,-8.992l0.059,-0.037Z" style="fill:#fff;fill-rule:nonzero;"/><path d="M1941.99,1184.37l40.037,-23.9c2.659,-1.583 6.1,-0.717 7.688,1.942c1.579,2.641 0.729,6.058 -1.892,7.658l-39.779,24.321c-2.758,1.687 -6.363,0.816 -8.046,-1.942c-1.687,-2.754 -0.821,-6.358 1.942,-8.046l0.05,-0.033Z" style="fill:#fff;fill-rule:nonzero;"/><path d="M2148.89,932.175l19.741,145.067l89.759,-75.738l-109.5,-69.329Z" style="fill:#7d97f4;fill-rule:nonzero;"/><path d="M2789.89,760.125l-344.996,396.954c-6.6,7.6 -16.017,12.184 -26.071,12.696c-10.058,0.517 -19.887,-3.083 -27.233,-9.971l-385.504,-361.396c-4.417,-4.137 -5.88,-10.537 -3.7,-16.183c2.179,-5.642 7.566,-9.4 13.612,-9.5l773.892,-12.6Z" style="fill:#91b3fa;fill-rule:nonzero;"/><path d="M2148.93,932.188l640.959,-172.063l-578.925,230.579l3.762,40.463l-65.796,-98.979Z" style="fill:#7d97f4;fill-rule:nonzero;"/><path d="M2248.01,1025.12l-79.379,52.121l42.338,-86.538l37.041,34.417Z" style="fill:#7d97f4;fill-rule:nonzero;"/></g></g><defs><linearGradient id="_Linear1" x1="0" y1="0" x2="1" y2="0" gradientUnits="userSpaceOnUse" gradientTransform="matrix(-9102.04,1.11468e-12,-1.11468e-12,-9102.04,9102.07,2476.11)"><stop offset="0" style="stop-color:#dae2fd;stop-opacity:1"/><stop offset="1" style="stop-color:#e8effd;stop-opacity:1"/></linearGradient><linearGradient id="_Linear2" x1="0" y1="0" x2="1" y2="0" gradientUnits="userSpaceOnUse" gradientTransform="matrix(235.306,-1150.39,1150.39,235.306,7889.11,5940.23)"><stop offset="0" style="stop-color:#3f42e2;stop-opacity:1"/><stop offset="1" style="stop-color:#4f52ff;stop-opacity:1"/></linearGradient><linearGradient id="_Linear3" x1="0" y1="0" x2="1" y2="0" gradientUnits="userSpaceOnUse" gradientTransform="matrix(554.604,-1062.6,1062.6,554.604,5294.95,2423.55)"><stop offset="0" style="stop-color:#08005d;stop-opacity:1"/><stop offset="1" style="stop-color:#1a0e90;stop-opacity:1"/></linearGradient><linearGradient id="_Linear4" x1="0" y1="0" x2="1" y2="0" gradientUnits="userSpaceOnUse" gradientTransform="matrix(-401.41,-634.8,634.8,-401.41,3535.07,1995.68)"><stop offset="0" style="stop-color:#08005d;stop-opacity:1"/><stop offset="1" style="stop-color:#1a0e90;stop-opacity:1"/></linearGradient><linearGradient id="_Linear5" x1="0" y1="0" x2="1" y2="0" gradientUnits="userSpaceOnUse" gradientTransform="matrix(-599.142,960.221,-960.221,-599.142,4054.57,1960.4)"><stop offset="0" style="stop-color:#ff918e;stop-opacity:1"/><stop offset="1" style="stop-color:#fdb3b1;stop-opacity:1"/></linearGradient><linearGradient id="_Linear6" x1="0" y1="0" x2="1" y2="0" gradientUnits="userSpaceOnUse" gradientTransform="matrix(-1744.58,1823.46,-1823.46,-1744.58,-9610.35,16345.7)"><stop offset="0" style="stop-color:#fd7062;stop-opacity:1"/><stop offset="1" style="stop-color:#ff918e;stop-opacity:1"/></linearGradient><linearGradient id="_Linear7" x1="0" y1="0" x2="1" y2="0" gradientUnits="userSpaceOnUse" gradientTransform="matrix(-112.33,249.467,-249.467,-112.33,3316.66,2624.63)"><stop offset="0" style="stop-color:#ff918e;stop-opacity:1"/><stop offset="1" style="stop-color:#fdb3b1;stop-opacity:1"/></linearGradient><linearGradient id="_Linear8" x1="0" y1="0" x2="1" y2="0" gradientUnits="userSpaceOnUse" gradientTransform="matrix(-330.706,-431.5,431.5,-330.706,3373.36,2137.05)"><stop offset="0" style="stop-color:#ff918e;stop-opacity:1"/><stop offset="1" style="stop-color:#fdb3b1;stop-opacity:1"/></linearGradient><linearGradient id="_Linear9" x1="0" y1="0" x2="1" y2="0" gradientUnits="userSpaceOnUse" gradientTransform="matrix(-401.41,-634.8,634.8,-401.41,3366.65,1889.19)"><stop offset="0" style="stop-color:#08005d;stop-opacity:1"/><stop offset="1" style="stop-color:#1a0e90;stop-opacity:1"/></linearGradient><linearGradient id="_Linear10" x1="0" y1="0" x2="1" y2="0" gradientUnits="userSpaceOnUse" gradientTransform="matrix(-330.703,-431.496,431.496,-330.703,3279.62,2065.18)"><stop offset="0" style="stop-color:#ff918e;stop-opacity:1"/><stop offset="1" style="stop-color:#fdb3b1;stop-opacity:1"/></linearGradient><linearGradient id="_Linear11" x1="0" y1="0" x2="1" y2="0" gradientUnits="userSpaceOnUse" gradientTransform="matrix(-1416.67,675,-675,-1416.67,3173.23,4746.64)"><stop offset="0" style="stop-color:#ff918e;stop-opacity:1"/><stop offset="1" style="stop-color:#fdb3b1;stop-opacity:1"/></linearGradient><linearGradient id="_Linear12" x1="0" y1="0" x2="1" y2="0" gradientUnits="userSpaceOnUse" gradientTransform="matrix(248.798,-2.36358,2.36358,248.798,2866.83,5198.31)"><stop offset="0" style="stop-color:#08005d;stop-opacity:1"/><stop offset="1" style="stop-color:#1a0e90;stop-opacity:1"/></linearGradient><linearGradient id="_Linear13" x1="0" y1="0" x2="1" y2="0" gradientUnits="userSpaceOnUse" gradientTransform="matrix(-658.337,725.004,-725.004,-658.337,3930.36,3970.89)"><stop offset="0" style="stop-color:#ff918e;stop-opacity:1"/><stop offset="1" style="stop-color:#fdb3b1;stop-opacity:1"/></linearGradient><linearGradient id="_Linear14" x1="0" y1="0" x2="1" y2="0" gradientUnits="userSpaceOnUse" gradientTransform="matrix(296.594,-2.81764,2.81764,296.594,3097.93,5241.06)"><stop offset="0" style="stop-color:#08005d;stop-opacity:1"/><stop offset="1" style="stop-color:#1a0e90;stop-opacity:1"/></linearGradient><linearGradient id="_Linear15" x1="0" y1="0" x2="1" y2="0" gradientUnits="userSpaceOnUse" gradientTransform="matrix(-1943.21,1610.27,-1610.27,-1943.21,-8542.47,13540.2)"><stop offset="0" style="stop-color:#fd7062;stop-opacity:1"/><stop offset="1" style="stop-color:#ff918e;stop-opacity:1"/></linearGradient><linearGradient id="_Linear16" x1="0" y1="0" x2="1" y2="0" gradientUnits="userSpaceOnUse" gradientTransform="matrix(1199.58,-1778.59,1778.59,1199.58,2766.7,3400.77)"><stop offset="0" style="stop-color:#ff918e;stop-opacity:1"/><stop offset="1" style="stop-color:#fdb3b1;stop-opacity:1"/></linearGradient><linearGradient id="_Linear17" x1="0" y1="0" x2="1" y2="0" gradientUnits="userSpaceOnUse" gradientTransform="matrix(-147.057,1.80093e-14,-1.80093e-14,-147.057,3086.56,3836.6)"><stop offset="0" style="stop-color:#08005d;stop-opacity:1"/><stop offset="1" style="stop-color:#1a0e90;stop-opacity:1"/></linearGradient><linearGradient id="_Linear18" x1="0" y1="0" x2="1" y2="0" gradientUnits="userSpaceOnUse" gradientTransform="matrix(-270.311,3.31035e-14,-3.31035e-14,-270.311,3327.34,3846.02)"><stop offset="0" style="stop-color:#08005d;stop-opacity:1"/><stop offset="1" style="stop-color:#1a0e90;stop-opacity:1"/></linearGradient><linearGradient id="_Linear19" x1="0" y1="0" x2="1" y2="0" gradientUnits="userSpaceOnUse" gradientTransform="matrix(330.463,0,0,330.463,3000.53,3943.31)"><stop offset="0" style="stop-color:#ff918e;stop-opacity:1"/><stop offset="1" style="stop-color:#fdb3b1;stop-opacity:1"/></linearGradient><linearGradient id="_Linear20" x1="0" y1="0" x2="1" y2="0" gradientUnits="userSpaceOnUse" gradientTransform="matrix(-121.01,836.071,-836.071,-121.01,2933.3,4485.73)"><stop offset="0" style="stop-color:#3f42e2;stop-opacity:1"/><stop offset="1" style="stop-color:#4f52ff;stop-opacity:1"/></linearGradient><linearGradient id="_Linear21" x1="0" y1="0" x2="1" y2="0" gradientUnits="userSpaceOnUse" gradientTransform="matrix(119.835,0,0,119.835,2614.19,5203.89)"><stop offset="0" style="stop-color:#ff918e;stop-opacity:1"/><stop offset="1" style="stop-color:#fdb3b1;stop-opacity:1"/></linearGradient><linearGradient id="_Linear22" x1="0" y1="0" x2="1" y2="0" gradientUnits="userSpaceOnUse" gradientTransform="matrix(-121.01,836.075,-836.075,-121.01,3532.7,4572.48)"><stop offset="0" style="stop-color:#3f42e2;stop-opacity:1"/><stop offset="1" style="stop-color:#4f52ff;stop-opacity:1"/></linearGradient><linearGradient id="_Linear23" x1="0" y1="0" x2="1" y2="0" gradientUnits="userSpaceOnUse" gradientTransform="matrix(-499.979,968.704,-968.704,-499.979,2682.51,4091.56)"><stop offset="0" style="stop-color:#08005d;stop-opacity:1"/><stop offset="1" style="stop-color:#1a0e90;stop-opacity:1"/></linearGradient><linearGradient id="_Linear24" x1="0" y1="0" x2="1" y2="0" gradientUnits="userSpaceOnUse" gradientTransform="matrix(143.065,0,0,143.065,3181.78,5213.98)"><stop offset="0" style="stop-color:#ff918e;stop-opacity:1"/><stop offset="1" style="stop-color:#fdb3b1;stop-opacity:1"/></linearGradient><linearGradient id="_Linear25" x1="0" y1="0" x2="1" y2="0" gradientUnits="userSpaceOnUse" gradientTransform="matrix(-74.9963,418.729,-418.729,-74.9963,2646.5,3725.43)"><stop offset="0" style="stop-color:#08005d;stop-opacity:1"/><stop offset="1" style="stop-color:#1a0e90;stop-opacity:1"/></linearGradient><linearGradient id="_Linear26" x1="0" y1="0" x2="1" y2="0" gradientUnits="userSpaceOnUse" gradientTransform="matrix(-431.229,487.475,-487.475,-431.229,2552.72,2967.93)"><stop offset="0" style="stop-color:#ff918e;stop-opacity:1"/><stop offset="1" style="stop-color:#fdb3b1;stop-opacity:1"/></linearGradient><linearGradient id="_Linear27" x1="0" y1="0" x2="1" y2="0" gradientUnits="userSpaceOnUse" gradientTransform="matrix(776.842,1275.32,-1275.32,776.842,2248.36,3853.35)"><stop offset="0" style="stop-color:#fd7062;stop-opacity:1"/><stop offset="1" style="stop-color:#ff918e;stop-opacity:1"/></linearGradient><linearGradient id="_Linear28" x1="0" y1="0" x2="1" y2="0" gradientUnits="userSpaceOnUse" gradientTransform="matrix(105.219,0,0,105.219,2326.31,3517.39)"><stop offset="0" style="stop-color:#e1463d;stop-opacity:1"/><stop offset="1" style="stop-color:#e86059;stop-opacity:1"/></linearGradient><linearGradient id="_Linear29" x1="0" y1="0" x2="1" y2="0" gradientUnits="userSpaceOnUse" gradientTransform="matrix(186.767,460.763,-460.763,186.767,882.471,-1115.17)"><stop offset="0" style="stop-color:#ff918e;stop-opacity:1"/><stop offset="1" style="stop-color:#fdb3b1;stop-opacity:1"/></linearGradient><linearGradient id="_Linear30" x1="0" y1="0" x2="1" y2="0" gradientUnits="userSpaceOnUse" gradientTransform="matrix(362.92,467.258,-467.258,362.92,2368.49,2614.81)"><stop offset="0" style="stop-color:#e1463d;stop-opacity:1"/><stop offset="1" style="stop-color:#e86059;stop-opacity:1"/></linearGradient><linearGradient id="_Linear31" x1="0" y1="0" x2="1" y2="0" gradientUnits="userSpaceOnUse" gradientTransform="matrix(186.768,460.762,-460.762,186.768,771.996,-1070.42)"><stop offset="0" style="stop-color:#ff918e;stop-opacity:1"/><stop offset="1" style="stop-color:#fdb3b1;stop-opacity:1"/></linearGradient><linearGradient id="_Linear32" x1="0" y1="0" x2="1" y2="0" gradientUnits="userSpaceOnUse" gradientTransform="matrix(65.2475,0,0,65.2475,2567.97,2620.78)"><stop offset="0" style="stop-color:#ff918e;stop-opacity:1"/><stop offset="1" style="stop-color:#fdb3b1;stop-opacity:1"/></linearGradient><linearGradient id="_Linear33" x1="0" y1="0" x2="1" y2="0" gradientUnits="userSpaceOnUse" gradientTransform="matrix(495.15,0,0,495.15,4720.15,4707.31)"><stop offset="0" style="stop-color:#ff918e;stop-opacity:1"/><stop offset="1" style="stop-color:#fdb3b1;stop-opacity:1"/></linearGradient><linearGradient id="_Linear34" x1="0" y1="0" x2="1" y2="0" gradientUnits="userSpaceOnUse" gradientTransform="matrix(-72.8292,1116.71,-1116.71,-72.8292,5023.15,5029.98)"><stop offset="0" style="stop-color:#3f42e2;stop-opacity:1"/><stop offset="1" style="stop-color:#4f52ff;stop-opacity:1"/></linearGradient><linearGradient id="_Linear35" x1="0" y1="0" x2="1" y2="0" gradientUnits="userSpaceOnUse" gradientTransform="matrix(1044.87,0,0,1044.87,4138.78,4741.14)"><stop offset="0" style="stop-color:#ff918e;stop-opacity:1"/><stop offset="1" style="stop-color:#fdb3b1;stop-opacity:1"/></linearGradient><linearGradient id="_Linear36" x1="0" y1="0" x2="1" y2="0" gradientUnits="userSpaceOnUse" gradientTransform="matrix(1170.55,0,0,1170.55,4783.49,4196.06)"><stop offset="0" style="stop-color:#3f42e2;stop-opacity:1"/><stop offset="1" style="stop-color:#4f52ff;stop-opacity:1"/></linearGradient><linearGradient id="_Linear37" x1="0" y1="0" x2="1" y2="0" gradientUnits="userSpaceOnUse" gradientTransform="matrix(-72.8288,1116.71,-1116.71,-72.8288,4320.36,4984.14)"><stop offset="0" style="stop-color:#3f42e2;stop-opacity:1"/><stop offset="1" style="stop-color:#4f52ff;stop-opacity:1"/></linearGradient><linearGradient id="_Linear38" x1="0" y1="0" x2="1" y2="0" gradientUnits="userSpaceOnUse" gradientTransform="matrix(555.204,1208.38,-1208.38,555.204,5560.36,3795.68)"><stop offset="0" style="stop-color:#fd7062;stop-opacity:1"/><stop offset="1" style="stop-color:#ff918e;stop-opacity:1"/></linearGradient><linearGradient id="_Linear39" x1="0" y1="0" x2="1" y2="0" gradientUnits="userSpaceOnUse" gradientTransform="matrix(-70.5317,-452.575,452.575,-70.5317,5322.78,3373.89)"><stop offset="0" style="stop-color:#ff918e;stop-opacity:1"/><stop offset="1" style="stop-color:#fdb3b1;stop-opacity:1"/></linearGradient><linearGradient id="_Linear40" x1="0" y1="0" x2="1" y2="0" gradientUnits="userSpaceOnUse" gradientTransform="matrix(-526.233,1076.9,-1076.9,-526.233,-9342.01,-26982.7)"><stop offset="0" style="stop-color:#ff918e;stop-opacity:1"/><stop offset="1" style="stop-color:#fdb3b1;stop-opacity:1"/></linearGradient><linearGradient id="_Linear41" x1="0" y1="0" x2="1" y2="0" gradientUnits="userSpaceOnUse" gradientTransform="matrix(-526.229,1076.88,-1076.88,-526.229,-9363.64,-26971.7)"><stop offset="0" style="stop-color:#08005d;stop-opacity:1"/><stop offset="1" style="stop-color:#1a0e90;stop-opacity:1"/></linearGradient><linearGradient id="_Linear42" x1="0" y1="0" x2="1" y2="0" gradientUnits="userSpaceOnUse" gradientTransform="matrix(-526.233,1076.9,-1076.9,-526.233,-9458.72,-26925.6)"><stop offset="0" style="stop-color:#ff918e;stop-opacity:1"/><stop offset="1" style="stop-color:#fdb3b1;stop-opacity:1"/></linearGradient><linearGradient id="_Linear43" x1="0" y1="0" x2="1" y2="0" gradientUnits="userSpaceOnUse" gradientTransform="matrix(981.529,0,0,981.529,5612.45,3887.72)"><stop offset="0" style="stop-color:#ff918e;stop-opacity:1"/><stop offset="1" style="stop-color:#fdb3b1;stop-opacity:1"/></linearGradient><linearGradient id="_Linear44" x1="0" y1="0" x2="1" y2="0" gradientUnits="userSpaceOnUse" gradientTransform="matrix(-6.06267,-642.654,642.654,-6.06267,6229.57,5946.48)"><stop offset="0" style="stop-color:#08005d;stop-opacity:1"/><stop offset="1" style="stop-color:#1a0e90;stop-opacity:1"/></linearGradient><linearGradient id="_Linear45" x1="0" y1="0" x2="1" y2="0" gradientUnits="userSpaceOnUse" gradientTransform="matrix(33.3452,260.697,-260.697,33.3452,6384.45,5228.77)"><stop offset="0" style="stop-color:#ff918e;stop-opacity:1"/><stop offset="1" style="stop-color:#fdb3b1;stop-opacity:1"/></linearGradient><linearGradient id="_Linear46" x1="0" y1="0" x2="1" y2="0" gradientUnits="userSpaceOnUse" gradientTransform="matrix(-6.06263,-642.65,642.65,-6.06263,7097.82,5954.64)"><stop offset="0" style="stop-color:#08005d;stop-opacity:1"/><stop offset="1" style="stop-color:#1a0e90;stop-opacity:1"/></linearGradient><linearGradient id="_Linear47" x1="0" y1="0" x2="1" y2="0" gradientUnits="userSpaceOnUse" gradientTransform="matrix(32.4943,254.045,-254.045,32.4943,7113.28,5318.14)"><stop offset="0" style="stop-color:#ff918e;stop-opacity:1"/><stop offset="1" style="stop-color:#fdb3b1;stop-opacity:1"/></linearGradient><linearGradient id="_Linear48" x1="0" y1="0" x2="1" y2="0" gradientUnits="userSpaceOnUse" gradientTransform="matrix(-1000.16,1.22485e-13,-1.22485e-13,-1000.16,7340.36,4352.81)"><stop offset="0" style="stop-color:#08005d;stop-opacity:1"/><stop offset="1" style="stop-color:#1a0e90;stop-opacity:1"/></linearGradient><linearGradient id="_Linear49" x1="0" y1="0" x2="1" y2="0" gradientUnits="userSpaceOnUse" gradientTransform="matrix(-36.3765,72.7529,-72.7529,-36.3765,7132.9,4199.35)"><stop offset="0" style="stop-color:#52d8ff;stop-opacity:1"/><stop offset="1" style="stop-color:#383ff6;stop-opacity:1"/></linearGradient><linearGradient id="_Linear50" x1="0" y1="0" x2="1" y2="0" gradientUnits="userSpaceOnUse" gradientTransform="matrix(-941.671,925.004,-925.004,-941.671,6371.74,3578.52)"><stop offset="0" style="stop-color:#fd7062;stop-opacity:1"/><stop offset="1" style="stop-color:#ff918e;stop-opacity:1"/></linearGradient><linearGradient id="_Linear51" x1="0" y1="0" x2="1" y2="0" gradientUnits="userSpaceOnUse" gradientTransform="matrix(-221.291,-236.448,236.448,-221.291,6393.07,3082.42)"><stop offset="0" style="stop-color:#e1463d;stop-opacity:1"/><stop offset="1" style="stop-color:#e86059;stop-opacity:1"/></linearGradient><linearGradient id="_Linear52" x1="0" y1="0" x2="1" y2="0" gradientUnits="userSpaceOnUse" gradientTransform="matrix(-455.421,5.5773e-14,-5.5773e-14,-455.421,6867.7,3649.6)"><stop offset="0" style="stop-color:#ff918e;stop-opacity:1"/><stop offset="1" style="stop-color:#fdb3b1;stop-opacity:1"/></linearGradient><linearGradient id="_Linear53" x1="0" y1="0" x2="1" y2="0" gradientUnits="userSpaceOnUse" gradientTransform="matrix(-850.475,1.04153e-13,-1.04153e-13,-850.475,6447.99,3078.7)"><stop offset="0" style="stop-color:#ff918e;stop-opacity:1"/><stop offset="1" style="stop-color:#fdb3b1;stop-opacity:1"/></linearGradient><linearGradient id="_Linear54" x1="0" y1="0" x2="1" y2="0" gradientUnits="userSpaceOnUse" gradientTransform="matrix(-295.985,303.673,-303.673,-295.985,6754.2,2601.7)"><stop offset="0" style="stop-color:#ff918e;stop-opacity:1"/><stop offset="1" style="stop-color:#fdb3b1;stop-opacity:1"/></linearGradient><linearGradient id="_Linear55" x1="0" y1="0" x2="1" y2="0" gradientUnits="userSpaceOnUse" gradientTransform="matrix(21.9728,-657.354,657.354,21.9728,6472.53,2043.96)"><stop offset="0" style="stop-color:#ff918e;stop-opacity:1"/><stop offset="1" style="stop-color:#fdb3b1;stop-opacity:1"/></linearGradient><linearGradient id="_Linear56" x1="0" y1="0" x2="1" y2="0" gradientUnits="userSpaceOnUse" gradientTransform="matrix(-387.264,272.894,-272.894,-387.264,6647.24,2321.9)"><stop offset="0" style="stop-color:#08005d;stop-opacity:1"/><stop offset="1" style="stop-color:#1a0e90;stop-opacity:1"/></linearGradient><linearGradient id="_Linear57" x1="0" y1="0" x2="1" y2="0" gradientUnits="userSpaceOnUse" gradientTransform="matrix(-72.0354,450.025,-450.025,-72.0354,6707.99,2718.21)"><stop offset="0" style="stop-color:#ff918e;stop-opacity:1"/><stop offset="1" style="stop-color:#fdb3b1;stop-opacity:1"/></linearGradient><linearGradient id="_Linear58" x1="0" y1="0" x2="1" y2="0" gradientUnits="userSpaceOnUse" gradientTransform="matrix(170.515,-502.45,502.45,170.515,6900.45,3259.94)"><stop offset="0" style="stop-color:#e1463d;stop-opacity:1"/><stop offset="1" style="stop-color:#e86059;stop-opacity:1"/></linearGradient><linearGradient id="_Linear59" x1="0" y1="0" x2="1" y2="0" gradientUnits="userSpaceOnUse" gradientTransform="matrix(3.23488,194.101,-194.101,3.23488,6392.65,4356.73)"><stop offset="0" style="stop-color:#fd7062;stop-opacity:1"/><stop offset="1" style="stop-color:#ff918e;stop-opacity:1"/></linearGradient><linearGradient id="_Linear60" x1="0" y1="0" x2="1" y2="0" gradientUnits="userSpaceOnUse" gradientTransform="matrix(147.056,0,0,147.056,5019.45,3836.6)"><stop offset="0" style="stop-color:#3f42e2;stop-opacity:1"/><stop offset="1" style="stop-color:#4f52ff;stop-opacity:1"/></linearGradient><linearGradient id="_Linear61" x1="0" y1="0" x2="1" y2="0" gradientUnits="userSpaceOnUse" gradientTransform="matrix(270.999,0,0,270.999,4772.11,3846.02)"><stop offset="0" style="stop-color:#3f42e2;stop-opacity:1"/><stop offset="1" style="stop-color:#4f52ff;stop-opacity:1"/></linearGradient><linearGradient id="_Linear62" x1="0" y1="0" x2="1" y2="0" gradientUnits="userSpaceOnUse" gradientTransform="matrix(147.057,0,0,147.057,3787.74,3836.6)"><stop offset="0" style="stop-color:#3f42e2;stop-opacity:1"/><stop offset="1" style="stop-color:#4f52ff;stop-opacity:1"/></linearGradient><linearGradient id="_Linear63" x1="0" y1="0" x2="1" y2="0" gradientUnits="userSpaceOnUse" gradientTransform="matrix(270.311,0,0,270.311,3905.24,3846.02)"><stop offset="0" style="stop-color:#3f42e2;stop-opacity:1"/><stop offset="1" style="stop-color:#4f52ff;stop-opacity:1"/></linearGradient><linearGradient id="_Linear64" x1="0" y1="0" x2="1" y2="0" gradientUnits="userSpaceOnUse" gradientTransform="matrix(147.056,0,0,147.056,6259.15,3836.6)"><stop offset="0" style="stop-color:#08005d;stop-opacity:1"/><stop offset="1" style="stop-color:#1a0e90;stop-opacity:1"/></linearGradient><linearGradient id="_Linear65" x1="0" y1="0" x2="1" y2="0" gradientUnits="userSpaceOnUse" gradientTransform="matrix(270.999,0,0,270.999,6011.82,3846.02)"><stop offset="0" style="stop-color:#08005d;stop-opacity:1"/><stop offset="1" style="stop-color:#1a0e90;stop-opacity:1"/></linearGradient><linearGradient id="_Linear66" x1="0" y1="0" x2="1" y2="0" gradientUnits="userSpaceOnUse" gradientTransform="matrix(554.604,-1062.6,1062.6,554.604,5294.95,2423.55)"><stop offset="0" style="stop-color:#677cca;stop-opacity:1"/><stop offset="1" style="stop-color:#6d80da;stop-opacity:1"/></linearGradient><linearGradient id="_Linear67" x1="0" y1="0" x2="1" y2="0" gradientUnits="userSpaceOnUse" gradientTransform="matrix(-526.229,1076.88,-1076.88,-526.229,-9363.64,-26971.7)"><stop offset="0" style="stop-color:#677cca;stop-opacity:1"/><stop offset="1" style="stop-color:#6d80da;stop-opacity:1"/></linearGradient><linearGradient id="_Linear68" x1="0" y1="0" x2="1" y2="0" gradientUnits="userSpaceOnUse" gradientTransform="matrix(554.604,-1062.6,1062.6,554.604,5294.95,2423.55)"><stop offset="0" style="stop-color:#677cca;stop-opacity:1"/><stop offset="1" style="stop-color:#6d80da;stop-opacity:1"/></linearGradient></defs></svg>