<?xml version="1.0" encoding="UTF-8" standalone="no"?><!DOCTYPE svg PUBLIC "-//W3C//DTD SVG 1.1//EN" "http://www.w3.org/Graphics/SVG/1.1/DTD/svg11.dtd"><svg width="100%" height="100%" viewBox="0 0 11636 11624" version="1.1" xmlns="http://www.w3.org/2000/svg" xmlns:xlink="http://www.w3.org/1999/xlink" xml:space="preserve" xmlns:serif="http://www.serif.com/" style="fill-rule:evenodd;clip-rule:evenodd;stroke-linejoin:round;stroke-miterlimit:2;"><g><path d="M5970.11,11613.6c-701,0 -1236.54,-98 -1450.12,-141.375c-563.5,-114.458 -1509.5,-306.625 -2400,-892.958l2420.75,-149.375l2781.46,190.292l2491.88,-260.542c-77.209,59.458 -149.625,111.417 -215.542,158.75c-1236.58,887.25 -2607.75,1095.21 -3628.42,1095.21Zm-4210.82,-1297.5c-206.408,-166.583 -406.187,-357.875 -593.629,-578.291c-986.787,-1160.46 -1286.4,-2723.42 -1090.8,-4220.54c14.008,34.542 30.004,68.917 48.058,102.917c43.796,82.458 96.209,156.291 154.484,220.125c185.971,203.708 292.837,468.916 288.866,744.75c-3.55,246.458 58.521,512.125 192.042,763.583c199.138,375.042 513.45,636.125 840.413,737.25c55.208,17.083 108.937,38.583 160.566,64.25l0,2165.96Zm8340.91,-199.041l-0,-712.917c4.916,-1.625 9.833,-3.25 14.791,-4.833c314.709,-101.334 620.125,-336.834 834.459,-676.959c211.958,-336.416 293.166,-709.041 251.916,-1034.17c-36.916,-290.625 37.834,-585.75 213.5,-820.209c18.459,-24.625 36.167,-50.333 53,-77.041c34.834,-55.292 64.125,-112.042 88,-169.334c-103.958,1338.25 -573.041,2574.21 -1317.96,3358.42c-46.458,48.958 -92.458,94.5 -137.708,137.042Zm1476.83,-4170.5c-43.167,-97.75 -110.083,-179.625 -199.917,-236.25c-83.75,-52.792 -178.708,-78.084 -277.708,-78.667c72.292,-295.25 76.917,-587.792 19.333,-849.25c-69.791,-316.958 -31.875,-648.375 109.667,-937.875c226.25,680.333 338.25,1396.92 348.625,2102.04Zm-10381.4,-961.875c-166.367,-277.25 -432.271,-443.875 -677.675,-443.875c-81.096,-0 -159.904,18.166 -232.209,56.583c-10.879,5.75 -21.441,11.917 -31.725,18.417c129.325,-482.25 309.088,-946.834 532.146,-1376.38c1.996,6.416 4.046,12.875 6.125,19.291c45.217,139.459 106.167,267.834 178.925,382.375c232.209,365.584 324.992,804.792 243.146,1230.29c-7.179,37.333 -13.429,75.083 -18.733,113.292Zm6126.52,-1354.54l-2781.46,-288.25l-1464.96,171.667c-182.667,-205.459 -314.458,-453.542 -378.75,-725.084c-10.667,-44.958 -23.25,-90 -37.833,-135.041c-148.625,-458.367 -467.08,-797.221 -816.45,-919.442c644.366,-692.238 1680.28,-1491.17 3164.99,-1685.25c247.625,-32.367 502.209,-48.729 760,-48.729c1314.25,-0 2718.71,424.529 3784.17,1317.17c348.458,291.929 648.125,622.454 902.125,981.083c-223.5,108.5 -430.75,311.083 -568.208,581.542c-55.917,110 -95.959,222.708 -120.792,334.166c-21.5,96.584 -52.375,190.334 -91.875,279.75l-1120.25,65c364.417,-638.5 738.958,-1382.34 738.958,-1740.46c0,-672.417 -594.166,-1217.53 -1327.08,-1217.53c-13.125,0 -26.208,0.179 -39.25,0.525c-13,-0.346 -26.125,-0.525 -39.208,-0.525c-732.959,0 -1327.12,545.108 -1327.12,1217.53c-0,371.358 402.791,1157.58 779.375,1810.92l-16.375,0.958Z" style="fill:url(#_Linear1);"/><path d="M4387.61,5104.25c-183.875,-567.125 -535.5,-1018.29 -950.208,-1282.67c-370.75,-236.375 -639.167,-605.708 -740.375,-1033.12c-10.667,-44.958 -23.25,-90 -37.833,-135.041c-221.125,-682.042 -818.317,-1099.47 -1333.83,-932.329c-515.512,167.137 -754.158,855.537 -533.025,1537.62c45.217,139.459 106.167,267.834 178.925,382.375c232.209,365.584 324.992,804.792 243.146,1230.29c-73.142,380.25 -49.879,807.958 87.975,1233.17c205.592,634.125 620.892,1123.29 1099.69,1368.5c181.125,92.791 344.666,217.791 480.458,369.125c225.583,251.5 542,368.875 831.458,275.041c312.209,-101.208 505.625,-419.916 517.292,-790.916c6.625,-209.959 54.5,-415.917 133.375,-610.75c186.292,-459.917 208.833,-1037.92 22.958,-1611.29Z" style="fill:#91b3fa;fill-rule:nonzero;"/><path d="M1741.12,2388.12c213.491,428.958 413.029,864.417 608.033,1301.92c48.792,109.375 95.792,219.5 143.208,329.5l71.042,164.958l69.667,165.583c46.041,110.542 93.583,220.5 138.333,331.584l134.333,333.25c86.709,223.291 175.334,445.833 257.875,670.75c41.459,112.416 85.084,223.958 124.209,337.208l119,339.083c154.125,453.709 296.875,911.5 416.208,1375.62l-19.958,5.334l-102.5,-343.875l-25.417,-85.959l-27.583,-85.375l-55.459,-170.583l-55.166,-170.667c-18.25,-56.916 -38.667,-113.125 -57.875,-169.75c-39.25,-112.958 -77.542,-226.208 -117.5,-338.916c-162.709,-449.834 -331.375,-897.459 -509.292,-1341.58c-90.625,-221.375 -179.375,-443.5 -271.583,-664.25l-68.667,-165.75l-70.083,-165.166c-46.667,-110.167 -93.292,-220.292 -141.084,-330c-93.666,-220.167 -188.883,-439.667 -285.912,-658.375c-95.875,-219.209 -193.85,-437.625 -292.45,-655.584l18.621,-8.958Z" style="fill:#bdd0fb;fill-rule:nonzero;"/><path d="M1268.66,3744.5c-0.454,0 -0.904,0 -1.358,-0.042c-5.008,-0.375 -9.808,-2.916 -12.904,-7.375c-371.275,-531.041 -366.546,-960.875 -297.213,-1227.96c75.329,-290.158 236.696,-451.787 243.529,-458.529c3.384,-3.35 7.792,-5.017 12.2,-5.017c4.488,0 8.98,1.734 12.388,5.184c6.75,6.833 6.679,17.841 -0.15,24.595c-1.613,1.592 -162.175,162.825 -234.746,444.309c-66.954,259.666 -70.558,678.166 292.5,1197.46c5.508,7.917 3.588,18.75 -4.283,24.25c-3.038,2.125 -6.517,3.125 -9.963,3.125Z" style="fill:url(#_Linear2);"/><path d="M2578.48,6382.17c-178.083,-335.417 -448.283,-579.667 -737.275,-699.875c-258.337,-107.459 -467.366,-309.542 -578.221,-566.459c-11.654,-27 -24.545,-53.875 -38.679,-80.5c-214.191,-403.375 -634.379,-599.458 -938.521,-437.958c-304.137,161.458 -377.062,619.417 -162.875,1022.79c43.796,82.458 96.209,156.291 154.484,220.125c185.971,203.708 292.837,468.916 288.866,744.75c-3.55,246.458 58.521,512.125 192.042,763.583c199.138,375.042 513.45,636.125 840.413,737.25c123.67,38.25 239.954,98.667 341.745,178.667c169.167,132.875 380.271,171.708 551.021,81.041c184.209,-97.833 269.875,-318.916 236,-552.875c-19.208,-132.375 -12.125,-266.791 15.667,-397.625c65.5,-308.916 15.417,-673.791 -164.667,-1012.92Z" style="fill:#bdd0fb;fill-rule:nonzero;"/><path d="M1759.28,6752.46c-49.316,-81.666 -99.108,-163.083 -149.421,-244.166c-81.337,-128.834 -161.562,-258.375 -243.795,-386.667l-61.409,-96.375l-62.208,-95.875c-41.438,-63.958 -82.883,-127.875 -124.967,-191.417c-83.079,-127.75 -167.083,-254.958 -252.116,-381.416c-84.367,-126.959 -169.955,-253.125 -255.888,-378.959l10.663,-7.625c181.287,245.459 354.566,496.584 525.229,749.542c42.691,63.208 84.362,127.083 126.241,190.833l62.805,95.667l62.004,96.167c41.087,64.25 83.066,127.958 123.429,192.708l121.108,194.208c39.359,64.917 78.992,129.709 118.325,194.667l0,68.708Z" style="fill:#e3ebfd;fill-rule:nonzero;"/><path d="M558.577,5852.96c-2.821,0 -5.65,-1 -7.908,-3.041c-326.859,-294.459 -389.504,-579.542 -384.504,-766.834c5.429,-203.458 87.445,-335.083 90.933,-340.583c2.246,-3.542 6.067,-5.5 9.975,-5.5c2.162,-0 4.354,0.625 6.317,1.833c5.512,3.5 7.15,10.792 3.666,16.292c-0.821,1.333 -82.371,132.542 -87.308,329.875c-4.558,182 57.104,459.417 376.733,747.375c4.842,4.375 5.234,11.833 0.871,16.667c-1.904,2.125 -4.4,3.416 -7.017,3.791c-0.583,0.084 -1.17,0.125 -1.758,0.125Z" style="fill:#dee8fd;fill-rule:nonzero;"/><path d="M10920.9,6110.62c227.417,-447.333 286.708,-924.792 197.833,-1328.25c-79.416,-360.667 -19.375,-740 174.125,-1055.04c20.334,-33.125 39.584,-67.458 57.667,-103c273.458,-538 167.292,-1140.79 -237.167,-1346.42c-404.458,-205.605 -954.041,63.875 -1227.54,601.875c-55.917,110 -95.959,222.708 -120.792,334.166c-79.25,355.709 -284.75,672.75 -585.542,878.209c-268.833,183.583 -508.708,452.583 -679.208,787.958c-254.25,500.208 -298.375,1038.12 -160.167,1468.08c52.25,162.584 75,334.125 65.667,504.834c-15.5,283.708 102.292,541.166 329.375,656.625c244.958,124.5 548.542,48.875 775.458,-165.584c128.417,-121.375 278.917,-215.958 441.167,-285.458c383.125,-164.125 739.208,-495.708 969.125,-948Z" style="fill:#91b3fa;fill-rule:nonzero;"/><path d="M10964,2922.25c-127.875,382.417 -267.917,760.458 -411.917,1137.04c-35.916,94.166 -73.375,187.75 -110.541,281.458l-55.75,140.542l-56.917,140.083c-38.292,93.208 -75.333,187 -114.708,279.792l-118.042,278.416c-81.042,184.625 -160.542,369.917 -245.042,553.042c-42.083,91.625 -82.416,184.042 -126.375,274.792l-130.583,272.875c-177.792,362 -364.708,719.75 -569.25,1067.38l-15,-8.625l143.208,-265.875l35.917,-66.375l34.292,-67.292l68.291,-134.667l68.542,-134.5c22.958,-44.791 44.208,-90.416 66.375,-135.583c43.792,-90.625 88.25,-180.917 131.417,-271.833c170.375,-364.792 335.916,-731.875 493.916,-1102.25c77.584,-185.792 156.75,-370.917 233.042,-557.25l57.625,-139.625l56.458,-140.084c37.667,-93.333 75.334,-186.708 112.084,-280.458c75.083,-186.833 148.875,-374.25 221.083,-562.25c73.25,-187.625 144.708,-375.958 215.583,-564.458l16.292,5.708Z" style="fill:#bdd0fb;fill-rule:nonzero;"/><path d="M10949.4,8722.33c211.958,-336.416 293.166,-709.041 251.916,-1034.17c-36.916,-290.625 37.834,-585.75 213.5,-820.209c18.459,-24.625 36.167,-50.333 53,-77.041c254.917,-404.625 214.292,-888.417 -90.75,-1080.62c-305.083,-192.209 -759.041,-20.042 -1013.96,384.583c-52.125,82.708 -91.875,168.75 -119.542,254.917c-88.25,275 -273.541,510.166 -526.166,650.166c-225.75,125.125 -434.75,319.834 -593.667,572.042c-237.042,376.167 -310.583,797.667 -232.208,1147.33c29.666,132.25 35.291,269.334 15.666,403.459c-32.666,222.875 42,434.875 213.25,542.791c184.792,116.417 430.25,79.084 625.125,-73.5c110.25,-86.333 236.042,-149.875 369.375,-192.791c314.709,-101.334 620.125,-336.834 834.459,-676.959Z" style="fill:#bdd0fb;fill-rule:nonzero;"/><path d="M10100.2,8398.25l-0,-73.125c78,-138.292 154.875,-277.292 230.333,-417.042c74.667,-141 150.583,-281.291 224.333,-422.791l55.584,-106l54.708,-106.417c36.5,-70.958 73,-141.875 108.792,-213.167c72.833,-142 144.625,-284.541 215.25,-427.625c71.375,-142.75 141.416,-286.166 211,-429.791l12.5,5.708c-128.625,292.542 -266.542,580.667 -407.417,867.417c-35.208,71.666 -71.542,142.791 -107.667,214.041l-54.166,106.834l-55.084,106.416c-37,70.792 -73.041,142.084 -110.833,212.459l-113.333,211.125c-77.375,139.791 -153.542,280.25 -233.542,418.583c-10.208,17.75 -20.333,35.542 -30.458,53.375Z" style="fill:#e3ebfd;fill-rule:nonzero;"/><path d="M7322.19,3630.12l-2781.46,-288.25l-2781.45,325.958l0,6933.67l2781.45,-171.625l2781.46,190.292l2778,-290.459l-0,-6860.75l-2778,161.167Z" style="fill:#fff;fill-rule:nonzero;"/><path d="M1957.69,10434.6l-0,-2029.62l1020.67,1007.25l9.542,-13.125l1552.71,719.125l0,155.375l29.917,0l-2612.83,161Zm2582.92,-455.708l-1537.75,-712.167l-660.375,-651.708l914.667,-1435.96l1139.21,-94.166l144.25,-1161.5l0,2756.88l-480.625,260.416l-96.458,-52.25l-46.875,117.375l623.958,337.959l0,635.125Zm-2283.12,-1447.75l-299.791,-295.875l-0,-2709.29l16.091,61.958l217.667,-76.666l1394.62,441l23.333,-99.917l-1257.38,-397.625l1079,-379.875l1006.62,772.917l-138.542,1115.38l-1100.83,91l-940.792,1477Zm2283.12,-2759.42l-1083.88,-832.25l10.5,0.958l1073.38,409.959l0,421.333Zm-2582.92,-313.375l-0,-1601.33l2582.92,-302.209l0,934.959l-1074,-258.417l-46.291,704.917l16.125,1.416l-1478.75,520.667Z" style="fill:url(#_Linear3);"/><path d="M7243.19,10452.3l-10.75,-0.709l10.75,-0.708l-0,1.417Zm-21.834,-1.459l-2620.92,-179.041l-0,-148.625l580.541,-945.167c23.875,-38.833 -5.75,-85.792 -47.375,-85.792c-5.041,0 -10.291,0.667 -15.625,2.167l-2.25,0.625l-41.541,-314.417l-473.75,-109.583l-0,-5123.17l2620.92,271.209l0,3966.5l-514.083,-1473.62l-103.042,48.708l361.334,1035.71l-1696.62,607.334l-6.834,-10.042l-22.041,20.333l-29.167,10.459l3.5,13.25l-22,20.291l44.75,65.75l6.458,24.459l8.167,-2.959l579.792,851.959l2.083,3.083l1136.46,1229.88l-146.75,184.958l143.584,9.792l254.416,-320.542l0,346.5Zm-695.541,-6185.08l273.041,811.542l223.417,890.291l106.75,-36.291l-224.125,-893.084l-305.042,-907.25l-1302.88,90.167l6.584,129.208l1222.25,-84.583Zm504.666,5888.33l-1131.29,-1224.29l-556.167,-817.25l1664.54,-595.834l213.791,612.875l0,1784l-190.875,240.5Zm-2430.04,-253.458l-0,-529.292l392.083,-109l-392.083,638.292Z" style="fill:url(#_Linear4);"/><path d="M7243.19,10452.3l-0,-1.417l37.916,-2.542l-37.916,3.959Zm38,-3.959l-0,-419.375l944.416,-1190l-81.666,-87.833l-862.75,1087.04l-0,-1537.04l9.791,28.083l103.042,-48.708l-112.833,-323.417l-0,-4138l162.666,-9.416c101.584,172.208 198.042,330.25 280.417,462.791l-48.208,65.292l512.833,477.042l-31.875,29.666l55.5,80.917l554.542,-515.583l-478.667,-401.084c49.083,-81.25 100.375,-167.375 152.792,-256.833l1441.46,-83.5l-0,6508.42l-2601.46,271.541Zm2134.42,-1503.88l12.459,52.625l445.458,-143.125l4.917,20.167l-0,-476.792l-608.834,-2512.58l-107,35.167l556.834,2298l-520.875,260.083l35.083,95.167l9.75,-4.875l128.375,390.25l43.833,-14.084Zm-951.5,-544.333l-257.5,326.042l81.834,87.625l654.458,-828.667l-81.875,-87.625l-334.333,423.375l-660.417,-1508.75l-79.25,47l675.042,1542.21l2.041,-1.208Zm-69.75,-3224.08l64.542,105.416c10.125,-8.375 21.583,-17.916 436.917,-602.416c150,-211.042 299.708,-422.709 368.583,-520.125l614.042,722l-0,-184l-621.709,-731l-39.125,55.416c-313.375,443.792 -792.333,1118.54 -827.875,1159.08l-0.041,0.041l0.041,-0.041c0.25,-0.292 1.959,-2.167 4.625,-4.375Z" style="fill:url(#_Linear5);"/><rect x="4540.61" y="3547.83" width="59.833" height="6725.79" style="fill:#bdd0fb;"/><path d="M7221.36,10452.3l59.834,-3.959l-0,-6633.17l-59.834,-0l0,6637.12Z" style="fill:#bdd0fb;fill-rule:nonzero;"/><g><g><clipPath id="_clip6"><path d="M7238.98,3812.46l-2642.75,-273.458l-2642.75,309.208l0,6577.58l2642.75,-162.834l2642.75,180.5l2639.46,-275.5l-0,-6508.42l-2639.46,152.916Z"/></clipPath><g clip-path="url(#_clip6)"><path d="M8188.9,4814.79l-512.833,-477.042l48.208,-65.292c5.458,8.709 10.833,17.417 16.167,25.917c31.208,50.083 85.791,80.708 144.75,81.083l1.083,0c125.25,0 192.875,-30.583 224.292,-80.958c39.041,-62.625 81.583,-131.5 126.5,-205.208l382.833,320.791l-431,400.709Z" style="fill:url(#_Linear7);"/><path d="M4540.61,5350.42l-1073.38,-409.959l41.792,3.709l38.583,-587.542l993,238.917l0,754.875Z" style="fill:url(#_Linear8);"/><path d="M4570.52,5361.83l-29.917,-11.416l0,-754.875l20.917,5.041l9,-50.708l-0,811.958Z" style="fill:#9fbcfa;fill-rule:nonzero;"/><path d="M9371.77,8958.54l-128.375,-390.25l490.708,-245.042l60,448.792l-389.708,125.208l11.208,47.208l-43.833,14.084Z" style="fill:url(#_Linear9);"/><path d="M4540.61,9201l-480.625,-260.292l480.625,-260.416l0,520.708Z" style="fill:url(#_Linear10);"/><path d="M4606.36,9236.62l-5.916,-3.208l-0,-562.417l473.75,109.583l41.541,314.417l-509.375,141.625Z" style="fill:url(#_Linear11);"/><path d="M4600.44,9233.42l-59.834,-32.417l0,-520.708l29.917,-16.209l29.917,6.917l-0,562.417Z" style="fill:#9fbcfa;fill-rule:nonzero;"/><path d="M1957.69,5526l-4.209,-16.208l0,-49.917l4.209,-1.5l-0,67.625Z" style="fill:#d1dffc;fill-rule:nonzero;"/><path d="M2342.48,8615.04l-85,-83.875l940.792,-1477l1100.83,-91l138.542,-1115.38l-1006.62,-772.917l-1079,379.875l1257.38,397.625l-23.333,99.917l-1394.62,-441l-217.667,76.666l-16.091,-61.958l-0,-67.625l1478.75,-520.667l20.291,1.792l1083.88,832.25l0,151.667l-144.25,1161.5l-1139.21,94.166l-914.667,1435.96Z" style="fill:url(#_Linear12);"/><path d="M4540.61,5923.42l0,-151.667l17.209,13.208l-17.209,138.459Z" style="fill:#bdd0fb;fill-rule:nonzero;"/><path d="M1957.69,8405l-4.209,-4.167l0,-169.666l4.209,4.125l-0,169.708Z" style="fill:#d1dffc;fill-rule:nonzero;"/><path d="M2978.36,9412.25l-1020.67,-1007.25l-0,-169.708l299.791,295.875l85,83.875l660.375,651.708l-8.458,-3.917l-41.083,120.292l34.583,16l-9.542,13.125Z" style="fill:url(#_Linear13);"/><path d="M7290.98,8329.21l-9.791,-28.083l-0,-344.042l112.833,323.417l-103.042,48.708Z" style="fill:url(#_Linear14);"/><path d="M7221.36,8129.58l-213.791,-612.875l-1664.54,595.834l-74.083,-108.875l1696.62,-607.334l-361.334,-1035.71l103.042,-48.708l514.083,1473.62l0,344.041Z" style="fill:url(#_Linear15);"/><path d="M7281.19,8301.12l-59.834,-171.542l0,-344.041l59.834,171.541l-0,344.042Z" style="fill:#bdd0fb;fill-rule:nonzero;"/><path d="M5243.61,8148.17l-6.458,-24.459l14.625,21.5l-8.167,2.959Zm-29.208,-110.5l-3.5,-13.25l29.167,-10.459l-25.667,23.709Z" style="fill:url(#_Linear16);"/><path d="M8288.44,8813.79l-81.834,-87.625l257.5,-326.042l-2.041,1.208l-675.042,-1542.21l79.25,-47l660.417,1508.75l334.333,-423.375l81.875,87.625l-654.458,828.667Z" style="fill:url(#_Linear17);"/><path d="M8458.9,5281.46l-64.542,-105.416c-2.666,2.208 -4.375,4.083 -4.625,4.375c35.542,-40.542 514.5,-715.292 827.875,-1159.08l39.125,-55.416l621.709,731l-0,184l-614.042,-722c-68.875,97.416 -218.583,309.083 -368.583,520.125c-415.334,584.5 -426.792,594.041 -436.917,602.416Zm-69.208,-101l0.041,-0.041l-0.041,0.041Z" style="fill:url(#_Linear18);"/><path d="M7022.27,5967.58l-223.417,-890.291l-273.041,-811.542l-1222.25,84.583l-6.584,-129.208l1302.88,-90.167l305.042,907.25l224.125,893.084l-106.75,36.291Z" style="fill:url(#_Linear19);"/><path d="M3509.02,4944.17l-41.792,-3.709l-10.5,-0.958l-20.291,-1.792l-16.125,-1.416l46.291,-704.917l1074,258.417l0,105.75l-993,-238.917l-38.583,587.542Z" style="fill:url(#_Linear20);"/><path d="M4561.52,4600.58l-20.917,-5.041l0,-105.75l38.917,9.375l-18,101.416Z" style="fill:#bdd0fb;fill-rule:nonzero;"/><path d="M8212.52,4925.38l-55.5,-80.917l31.875,-29.666l431,-400.709l-382.833,-320.791c16.791,-27.584 33.916,-55.75 51.333,-84.584l478.667,401.084l-554.542,515.583Z" style="fill:url(#_Linear21);"/><path d="M9428.07,8997.08l-12.459,-52.625l-11.208,-47.208l389.708,-125.208l-60,-448.792l-490.708,245.042l-9.75,4.875l-35.083,-95.167l520.875,-260.083l-556.834,-2298l107,-35.167l608.834,2512.58l-0,476.792l-4.917,-20.167l-445.458,143.125Z" style="fill:url(#_Linear22);"/><path d="M4540.61,10118.2l-1552.71,-719.125l-34.583,-16l41.083,-120.292l8.458,3.917l1537.75,712.167l0,139.333Zm0,-774.458l-623.958,-337.959l46.875,-117.375l96.458,52.25l480.625,260.292l0,142.792Z" style="fill:url(#_Linear23);"/><path d="M4600.44,10123.2l-0,-222.542l392.083,-638.292l-392.083,109l-0,-137.916l5.916,3.208l509.375,-141.625l2.25,-0.625c5.334,-1.5 10.584,-2.167 15.625,-2.167c41.625,0 71.25,46.959 47.375,85.792l-580.541,945.167Z" style="fill:url(#_Linear24);"/><path d="M4589.57,10140.9l-48.959,-22.667l0,-139.333l9.125,4.25l50.709,-82.542l-0,222.542l-10.875,17.75Zm4.958,-767.917l-53.917,-29.208l0,-142.792l59.834,32.417l-0,137.916l-5.917,1.667Z" style="fill:#bdd0fb;fill-rule:nonzero;"/><path d="M6966.94,10424.9l-143.584,-9.792l146.75,-184.958l-1136.46,-1229.88l-2.083,-3.083l-579.792,-851.959l-14.625,-21.5l-44.75,-65.75l22,-20.291l25.667,-23.709l22.041,-20.333l6.834,10.042l74.083,108.875l556.167,817.25l1131.29,1224.29l190.875,-240.5l0,190.75l-254.416,320.542Z" style="fill:url(#_Linear25);"/><path d="M7281.19,10029l-0,-190.791l862.75,-1087.04l81.666,87.833l-944.416,1190Z" style="fill:url(#_Linear26);"/><path d="M7221.36,10104.3l0,-190.75l59.834,-75.416l-0,190.791l-59.834,75.375Z" style="fill:#bdd0fb;fill-rule:nonzero;"/><path d="M4930.52,5912.17l-388.625,-500.292c-870.833,-357.417 -1862.71,-726.875 -2632.13,-769.292l4.737,-116.416c785.896,43.375 1792.06,419 2672.69,780.75l11.958,4.875l405.583,522.25l-74.208,78.125Z" style="fill:#91b3fa;fill-rule:nonzero;"/><path d="M9817.94,9898.17c-848.292,-606.25 -1807.83,-1273.54 -2474.5,-1531.62l-2167.04,931.166l-34.667,-109.291l2199.75,-945.209l16.542,6.292c677.625,257.25 1652.08,934.667 2512.29,1549.38l-52.375,99.292Z" style="fill:#91b3fa;fill-rule:nonzero;"/><path d="M5586.52,5494.42l-665.292,-1917.29l92.792,-43.625l665.292,1917.29l-92.792,43.625Z" style="fill:#91b3fa;fill-rule:nonzero;"/><path d="M8601.4,6025.17c-172.083,-777.167 -503.625,-1312.42 -1013.54,-1636.29l47.917,-102.292c281.333,178.709 514.625,422.459 693.417,724.5c162.375,274.334 283.083,596.5 369.125,984.959l-96.917,29.125Z" style="fill:#91b3fa;fill-rule:nonzero;"/><path d="M3406.36,9219.62l-83.5,-65.208l983.125,-1761.88l83.542,65.208l-983.167,1761.88Z" style="fill:#91b3fa;fill-rule:nonzero;"/><path d="M8877.52,6091.33l-2888.25,-134.041l4,-116.417l2866.46,133.042l1051.5,-501.834l37.959,107.792l-1071.67,511.458Z" style="fill:#91b3fa;fill-rule:nonzero;"/><path d="M1975.7,9891.67l-36.017,-108.667l2623.93,-1178.25l515.542,59.625l-9.917,115.917l-491.833,-56.875l-2601.7,1168.25Z" style="fill:#91b3fa;fill-rule:nonzero;"/><path d="M5357.19,7526.54c-1126.58,-13.917 -2182.38,-80.542 -2720.88,-734.667l72.25,-80.625c511.583,621.458 1545.29,685.167 2649.71,698.792l-1.083,116.5Z" style="fill:#91b3fa;fill-rule:nonzero;"/><path d="M5258.36,10283.3l-235.5,-1633.04l3.584,-13.333l678.291,-2517.38l304.042,-599.167l1203.12,-756.958l802.542,-1028.12l74.083,78.333l-814.042,1042.88l-1193.71,751l-284,559.75l-671.25,2491.25l231.5,1605.5l-98.667,19.292Z" style="fill:#91b3fa;fill-rule:nonzero;"/><path d="M9933.94,10158.2l-1405.79,-2961.33l-2598.83,-1108.33l-462.584,-128.458l-1678.83,-147.709l-1853.75,1581.38l-59.154,-94l1883.58,-1606.79l18.458,1.625l1705.21,150.041l476,132.167l2.75,1.167l2636.71,1124.46l9.041,19.042l1414.83,2980.38l-87.625,56.375Z" style="fill:#91b3fa;fill-rule:nonzero;"/></g></g></g><path d="M6086.44,5808c-0,185.25 -150.292,335.417 -335.667,335.417c-185.417,-0 -335.708,-150.167 -335.708,-335.417c-0,-185.25 150.291,-335.375 335.708,-335.375c185.375,0 335.667,150.125 335.667,335.375Z" style="fill:#bdd0fb;fill-rule:nonzero;"/><path d="M5991.27,5808c-0,132.75 -107.667,240.333 -240.5,240.333c-132.875,0 -240.542,-107.583 -240.542,-240.333c0,-132.708 107.667,-240.333 240.542,-240.333c132.833,-0 240.5,107.625 240.5,240.333Z" style="fill:#91b3fa;fill-rule:nonzero;"/><g><path d="M10567.8,6163.92c-0.837,889.31 -7.631,3956.61 -60.853,5042.48c-5.634,114.937 -86.556,205.595 -185.024,207.269c-487.042,7.774 -2272.01,15.548 -3067.09,-41.143c-165.601,-11.84 -293.969,-171.867 -293.108,-365.981c4.114,-933.371 25.714,-3558.15 139.061,-4758.35c13.586,-143.809 112.76,-256.366 236.01,-268.027c531.33,-50.293 2326.29,-162.228 3012.78,-94.809c123.811,12.164 218.356,133.153 218.225,278.565Z" style="fill:url(#_Linear27);"/></g><g><path d="M10344.6,6431.78c10.31,718.089 40.091,3106.65 -5.681,3988.6c-6.686,128.931 -95.909,231.31 -206.217,236.333c-454.188,21.05 -2002.96,55.256 -2666.76,-21.767c-119.541,-13.874 -211.025,-129.29 -214.374,-269.822c-17.509,-732.679 -65.087,-2957.15 -20.631,-3829.29c7.093,-139.097 101.781,-250.805 220.653,-260.612c491.766,-40.665 2138.62,-126.874 2703.07,-78.22c105.967,9.09 188.157,110.512 189.939,234.778Z" style="fill:url(#_Linear28);"/></g><g><path d="M9181.39,6029.7c-0.598,27.269 -19.268,49.371 -42.578,50.28c-115.093,4.497 -439.321,17.247 -584.23,23.861c-28.573,1.303 -50.305,-29.183 -44.169,-61.894l1.052,-5.586c4.187,-22.317 20.44,-38.822 39.9,-40.473c98.049,-8.324 393.836,-30.857 589.193,-18.359c23.466,1.507 41.442,24.674 40.832,52.171Z" style="fill:url(#_Linear29);"/></g><g><path d="M9929.22,8434.15c-0,630.181 -510.867,1141 -1141.05,1141c-630.181,0 -1141.05,-510.818 -1141.05,-1141c0,-630.301 510.867,-1141.12 1141.05,-1141.12c630.181,0 1141.05,510.819 1141.05,1141.12Z" style="fill:url(#_Linear30);"/></g><g><path d="M9490.05,8732.32c-17.222,-60.878 -61.87,-110.393 -120.762,-133.715l-82.07,-32.532c-66.068,-26.193 -141.465,-4.903 -184.043,52.027l-73.089,97.595c-114.758,3.349 -247.216,-39.469 -364.725,-127.376c-110.404,-82.645 -186.399,-189.09 -219.373,-293.622c-0.467,-1.555 0.083,-3.11 1.363,-4.066c1.28,-0.838 2.99,-0.838 4.21,0.119l65.889,-88.027c49,-65.422 47.649,-155.721 -3.289,-219.708l-54.539,-68.651c-39.696,-49.874 -100.286,-78.579 -164.046,-77.622c-63.759,0.957 -123.488,31.455 -161.689,82.525c-19.806,26.432 -34.29,56.213 -43.284,88.386c-60.458,213.848 111.696,537.012 429.43,774.78c317.435,237.648 675.989,311.801 864.122,193.754c28.465,-17.82 53.079,-39.947 72.993,-66.618c37.961,-50.711 50.125,-116.253 32.902,-177.249Z" style="fill:url(#_Linear31);"/></g><g><path d="M7430.14,11214.5c-192.08,-0 -350.995,-156.32 -350.995,-348.4l-0,-595.258c-0,-7.056 5.274,-12.677 12.271,-12.677c6.997,-0 12.259,5.621 12.259,12.677l0,595.258c0,178.206 147.959,323.044 326.058,323.044c6.997,-0 12.869,5.741 12.869,12.678c0,7.056 -5.465,12.678 -12.462,12.678Z" style="fill:url(#_Linear32);"/></g><path d="M1994.7,6110.79c-0,-0 -123.263,59.958 -145.929,128.833c-18.188,55.25 -154.484,62.375 -167.95,171.042c-6.95,56.125 -48.475,101.083 -104.371,109.625c-139.208,21.375 -353.738,93.625 -388.063,335.333c-26.2,184.5 67.85,254.458 166.546,278.667c72.492,17.75 120.667,88.291 106.004,161.458c-14.062,70.208 6.909,151.333 128.521,215.542c272.521,143.791 544.684,-340.709 544.684,-340.709l55.775,-845.916l-195.217,-213.875Z" style="fill:url(#_Linear33);"/><path d="M3477.57,5910.25c-0,0 -544.125,860.625 -1191.17,1026.88c-0,0 126.083,359.083 223.417,400.208c-0,0 796.041,-664.208 1000.58,-1304.79l-32.833,-122.292Z" style="fill:url(#_Linear34);"/><path d="M874.515,11415l-17.638,144.958c-3.346,27.5 -24.996,49.25 -52.525,52.375c-46.475,5.333 -121.054,10.75 -194.025,3.042c-32.033,-3.375 -52.821,-35.792 -43.067,-66.5c17.788,-55.959 50.33,-140 97.25,-189.417l160.825,0c29.734,0 52.771,26 49.18,55.542Z" style="fill:url(#_Linear35);"/><path d="M2134.14,9716.71l27.141,159.709c0,-0 -90.9,920.75 -107.066,1289.04c-2.538,57.75 12.4,114.792 42.708,164.042l158.058,256.667l-401.708,-237.042l-7.996,-49.042l65.758,-90.416l-86.137,-1031.46c-5.058,-60.625 7.446,-121.375 36.017,-175.041l83.091,-156.125l190.134,-130.334Z" style="fill:url(#_Linear36);"/><path d="M2281.44,11623.3l-128.196,0c-23.996,0 -46.621,-11 -61.263,-30.041c-39.962,-51.917 -122.758,-153.209 -162.354,-155.875c-53.296,-3.542 -46.479,185.916 -46.479,185.916l-29.875,0l-37.846,-235.458c-9.521,-59.208 19.942,-117.917 73.138,-145.667c-0,0 12.183,90.084 78.245,129.959c66.063,39.833 268.838,182.583 268.838,182.583c-0,-0 24.833,-3.542 52.083,1.375c40.459,7.333 34.792,67.208 -6.291,67.208Z" style="fill:url(#_Linear37);"/><path d="M1583.92,9792.54c-0,-0 -532.529,1010.17 -617.179,1240.79c-84.65,230.667 -114.309,423.042 -115.442,441.292c-1.775,28.458 -37.183,55.75 -134.792,55.75c-50.37,0 -75.041,-20.167 -87.12,-39.75c-10.305,-16.667 -10.838,-37.5 -2.155,-55.083c30.805,-62.334 128.559,-261.584 164.767,-351.959c43.225,-107.875 136.208,-596.791 187.2,-766.791c50.996,-169.959 108.638,-354.375 330.704,-524.25c0,-0 152.442,-149.292 274.017,-0Z" style="fill:url(#_Linear38);"/><path d="M1920.33,8137.38c137.367,-582.083 -210.625,-911.292 -210.625,-911.292c219.575,-210.791 619.65,-306.708 619.65,-306.708c0,0 282.511,238.704 268.115,492.262c-13.837,243.695 -199.99,772.238 -199.99,772.238c0,0 -223.583,105.792 -477.15,-46.5Z" style="fill:url(#_Linear39);"/><path d="M1647.44,8459.76c90.964,-152.364 272.891,-322.382 272.891,-322.382c253.567,152.292 477.15,46.5 477.15,46.5c0,0 50.125,191.625 15.542,369.75c-34.625,178.125 -318.114,2116.24 -318.114,2116.24c-342.117,69.292 -1141.07,-273.177 -1141.07,-273.177c137.792,-421.137 602.389,-1784.15 693.598,-1936.93Z" style="fill:url(#_Linear40);"/><path d="M2079.78,6534.75l-111.683,501.625c-10.692,44.208 29.592,36.958 74.267,28.542c73.158,-13.792 167.45,-42.209 198.991,-99.125c3.209,-5.792 4.792,-12.334 5.709,-18.917l47.958,-347.833c3.833,-27.625 -11.083,-54.417 -36.583,-65.709l-92.575,-41.041c-35.65,-15.792 -76.913,4.541 -86.084,42.458Z" style="fill:url(#_Linear41);"/><path d="M2293.69,6077.42c-0,-0 118.916,80.5 170,285.458c51.083,204.958 -31.959,278.5 -117.042,273.958c-85.125,-4.5 -208.517,-30.791 -315.433,-177.833c-106.921,-147.042 106.679,-479.917 262.475,-381.583Z" style="fill:url(#_Linear42);"/><path d="M2139.03,6376.29c0,-0 -43.562,-293.667 200.28,-248.75l49.291,51.333c0,0 119.375,-134.417 -12.708,-236.042c-132.083,-101.583 -315.379,-75.583 -416.783,109.417c-101.409,184.958 -138.213,314.958 -53.217,429.875c84.996,114.958 148.929,16.375 148.929,16.375c0,0 -38.979,-99.5 -6.633,-142.167c32.341,-42.708 74.075,24.834 74.075,24.834l16.766,-4.875Z" style="fill:url(#_Linear43);"/><path d="M2105.71,6401.46c0,0 -21.504,-151.083 -98.679,-107.916c-77.171,43.208 27.813,141.166 69.908,174.5l28.771,-66.584Z" style="fill:url(#_Linear44);"/><path d="M3473.86,6087.42c1.625,17.75 -64.375,30 -85.416,-45.667c5.791,-32.875 16.041,-176.75 41.25,-199.125c134.166,-119.042 373.458,-253 373.458,-253c26.75,40.875 -8.333,67.792 -8.333,67.792l-119.459,80.583c12.459,41.292 30.667,77.75 32.709,124.875c1.583,35.708 -11.625,70.625 -35.292,97.667c-23.792,27.166 -55.792,62.25 -84.625,88.875c-54.583,50.375 -114.292,38 -114.292,38Z" style="fill:url(#_Linear45);"/><path d="M3538.15,6028.5l-17.083,-7c2.416,-5.917 59.708,-145.083 87.375,-173.958c10.625,-11.167 15.791,-20.75 15.333,-28.5c-0.292,-4.417 -2.5,-8.709 -6.667,-13.084l-97.291,52l-42.75,67l-15.542,-9.916l45.375,-71.084l112.667,-60.208l4.75,3.875c11.333,9.208 17.166,19.125 17.833,30.25c0.833,13.333 -5.833,27.167 -20.417,42.375c-20.958,21.917 -67.458,128.875 -83.583,168.25Z" style="fill:url(#_Linear46);"/><path d="M1709.71,7226.08c0,0 -618.279,1269.42 -842.191,1380.42c-0,0 -227.342,23.75 -366.467,65.833c-35.004,10.584 -33.829,60.292 1.446,69.917c96.891,26.417 257.421,48.5 404.533,-31.375c0,0 -79.025,118.458 -32.925,164.625c0,0 105.371,-125.125 144.883,-164.625c34.788,-34.792 667.942,-725.083 934.13,-1141.38c21.504,-33.625 6.583,-133.583 -8.355,-170.583c-34.379,-85.209 -110.675,-221.25 -235.054,-172.834Z" style="fill:url(#_Linear47);"/><path d="M8196.69,4811.92c-0,149.75 -121.417,271.166 -271.167,271.166c-149.75,0 -271.125,-121.416 -271.125,-271.166c-0,-149.75 121.375,-271.125 271.125,-271.125c149.75,-0 271.167,121.375 271.167,271.125Z" style="fill:url(#_Linear48);"/><path d="M7886.27,4379.46c59.333,-0.041 114.417,-30.625 145.833,-80.958c404.584,-648.958 1181.29,-1964.58 1181.29,-2480.25c-0,-660.392 -573.083,-1197.98 -1287.88,-1217c13.042,-0.346 26.125,-0.525 39.25,-0.525c732.917,-0 1327.08,545.108 1327.08,1217.53c0,358.121 -374.541,1101.96 -738.958,1740.46c-37.458,65.667 -74.875,130.292 -111.708,193.167c-52.417,89.458 -103.709,175.583 -152.792,256.833c-17.417,28.834 -34.542,57 -51.333,84.584c-44.917,73.708 -87.459,142.583 -126.5,205.208c-31.417,50.375 -99.042,80.958 -224.292,80.958Zm-0.167,0l-0.5,0l0.5,0Zm-0.833,0l-0.083,0l0.083,0Z" style="fill:url(#_Linear49);"/><path d="M7886.27,4379.46l-1.083,0c-58.959,-0.375 -113.542,-31 -144.75,-81.083c-5.334,-8.5 -10.709,-17.208 -16.167,-25.917c-82.375,-132.541 -178.833,-290.583 -280.417,-462.791c-34.625,-58.667 -69.875,-119.042 -105.291,-180.5c-376.584,-653.334 -779.375,-1439.56 -779.375,-1810.92c-0,-672.417 594.166,-1217.53 1327.12,-1217.53c13.083,-0 26.208,0.179 39.208,0.525c714.792,19.017 1287.88,556.608 1287.88,1217c-0,515.667 -776.708,1831.29 -1181.29,2480.25c-31.416,50.333 -86.5,80.917 -145.833,80.958Zm32.417,-3315.19c-447.334,-0 -810,362.637 -810,809.971c-0,447.345 362.666,809.97 810,809.97c447.333,0 809.958,-362.625 809.958,-809.97c-0,-447.334 -362.625,-809.971 -809.958,-809.971Z" style="fill:url(#_Linear50);"/><path d="M7918.69,2684.21c-447.334,0 -810,-362.625 -810,-809.97c-0,-447.334 362.666,-809.971 810,-809.971c447.333,-0 809.958,362.637 809.958,809.971c-0,447.345 -362.625,809.97 -809.958,809.97Zm-78.5,-1478.49c-325.25,-0 -588.917,263.667 -588.917,588.912c-0,325.242 263.667,588.909 588.917,588.909c325.208,-0 588.875,-263.667 588.875,-588.909c-0,-325.245 -263.667,-588.912 -588.875,-588.912Z" style="fill:url(#_Linear51);"/><path d="M7840.19,2383.54c-325.25,-0 -588.917,-263.667 -588.917,-588.909c-0,-325.245 263.667,-588.912 588.917,-588.912c325.208,-0 588.875,263.667 588.875,588.912c-0,325.242 -263.667,588.909 -588.875,588.909Z" style="fill:url(#_Linear52);"/><path d="M7886.27,2901.54c-542.833,-0 -984.458,-441.667 -984.458,-984.5c-0,-9.742 7.875,-17.642 17.625,-17.642c9.75,0 17.666,7.9 17.666,17.642c0,523.375 425.792,949.208 949.167,949.208c523.417,0 949.208,-425.833 949.208,-949.208c0,-523.396 -425.791,-949.205 -949.208,-949.205c-302.625,0 -580.125,139.317 -761.333,382.226c-5.834,7.808 -16.875,9.416 -24.667,3.595c-7.792,-5.825 -9.417,-16.879 -3.583,-24.683c187.916,-251.925 475.708,-396.417 789.583,-396.417c542.875,0 984.5,441.642 984.5,984.484c-0,542.833 -441.625,984.5 -984.5,984.5Z" style="fill:#fff;fill-rule:nonzero;"/></g><defs><linearGradient id="_Linear1" x1="0" y1="0" x2="1" y2="0" gradientUnits="userSpaceOnUse" gradientTransform="matrix(-10333.9,-12834.1,12834.1,-10333.9,13080.9,15041.3)"><stop offset="0" style="stop-color:#dae2fd;stop-opacity:1"/><stop offset="1" style="stop-color:#e8effd;stop-opacity:1"/></linearGradient><linearGradient id="_Linear2" x1="0" y1="0" x2="1" y2="0" gradientUnits="userSpaceOnUse" gradientTransform="matrix(365.443,0,0,365.443,920.602,2895.04)"><stop offset="0" style="stop-color:#b5cafb;stop-opacity:1"/><stop offset="1" style="stop-color:#bcd1fb;stop-opacity:1"/></linearGradient><linearGradient id="_Linear3" x1="0" y1="0" x2="1" y2="0" gradientUnits="userSpaceOnUse" gradientTransform="matrix(-3135.46,895.846,-895.846,-3135.46,199.556,7944.29)"><stop offset="0" style="stop-color:#4f52ff;stop-opacity:1"/><stop offset="1" style="stop-color:#3f42e2;stop-opacity:1"/></linearGradient><linearGradient id="_Linear4" x1="0" y1="0" x2="1" y2="0" gradientUnits="userSpaceOnUse" gradientTransform="matrix(2642.75,0,0,2642.75,4600.44,7000.08)"><stop offset="0" style="stop-color:#4f52ff;stop-opacity:1"/><stop offset="1" style="stop-color:#3f42e2;stop-opacity:1"/></linearGradient><linearGradient id="_Linear5" x1="0" y1="0" x2="1" y2="0" gradientUnits="userSpaceOnUse" gradientTransform="matrix(5689.71,-1070.75,1070.75,5689.71,13208.1,6124.83)"><stop offset="0" style="stop-color:#4f52ff;stop-opacity:1"/><stop offset="1" style="stop-color:#3f42e2;stop-opacity:1"/></linearGradient><linearGradient id="_Linear7" x1="0" y1="0" x2="1" y2="0" gradientUnits="userSpaceOnUse" gradientTransform="matrix(5689.71,-1070.75,1070.75,5689.71,13208.1,6124.83)"><stop offset="0" style="stop-color:#7c95fb;stop-opacity:1"/><stop offset="1" style="stop-color:#7790f2;stop-opacity:1"/></linearGradient><linearGradient id="_Linear8" x1="0" y1="0" x2="1" y2="0" gradientUnits="userSpaceOnUse" gradientTransform="matrix(-3135.46,895.846,-895.846,-3135.46,199.556,7944.29)"><stop offset="0" style="stop-color:#7c95fb;stop-opacity:1"/><stop offset="1" style="stop-color:#7790f2;stop-opacity:1"/></linearGradient><linearGradient id="_Linear9" x1="0" y1="0" x2="1" y2="0" gradientUnits="userSpaceOnUse" gradientTransform="matrix(5689.71,-1070.75,1070.75,5689.71,13208.1,6124.83)"><stop offset="0" style="stop-color:#7c95fb;stop-opacity:1"/><stop offset="1" style="stop-color:#7790f2;stop-opacity:1"/></linearGradient><linearGradient id="_Linear10" x1="0" y1="0" x2="1" y2="0" gradientUnits="userSpaceOnUse" gradientTransform="matrix(-3135.46,895.846,-895.846,-3135.46,199.556,7944.29)"><stop offset="0" style="stop-color:#7c95fb;stop-opacity:1"/><stop offset="1" style="stop-color:#7790f2;stop-opacity:1"/></linearGradient><linearGradient id="_Linear11" x1="0" y1="0" x2="1" y2="0" gradientUnits="userSpaceOnUse" gradientTransform="matrix(2642.75,0,0,2642.75,4600.44,7000.08)"><stop offset="0" style="stop-color:#7c95fb;stop-opacity:1"/><stop offset="1" style="stop-color:#7790f2;stop-opacity:1"/></linearGradient><linearGradient id="_Linear12" x1="0" y1="0" x2="1" y2="0" gradientUnits="userSpaceOnUse" gradientTransform="matrix(-3135.46,895.846,-895.846,-3135.46,199.556,7944.29)"><stop offset="0" style="stop-color:#9aa8fb;stop-opacity:1"/><stop offset="1" style="stop-color:#95a3f2;stop-opacity:1"/></linearGradient><linearGradient id="_Linear13" x1="0" y1="0" x2="1" y2="0" gradientUnits="userSpaceOnUse" gradientTransform="matrix(-3135.46,895.846,-895.846,-3135.46,199.556,7944.29)"><stop offset="0" style="stop-color:#9aa8fb;stop-opacity:1"/><stop offset="1" style="stop-color:#95a3f2;stop-opacity:1"/></linearGradient><linearGradient id="_Linear14" x1="0" y1="0" x2="1" y2="0" gradientUnits="userSpaceOnUse" gradientTransform="matrix(5689.71,-1070.75,1070.75,5689.71,13208.1,6124.83)"><stop offset="0" style="stop-color:#9aa8fb;stop-opacity:1"/><stop offset="1" style="stop-color:#95a3f2;stop-opacity:1"/></linearGradient><linearGradient id="_Linear15" x1="0" y1="0" x2="1" y2="0" gradientUnits="userSpaceOnUse" gradientTransform="matrix(2642.75,0,0,2642.75,4600.44,7000.08)"><stop offset="0" style="stop-color:#9aa8fb;stop-opacity:1"/><stop offset="1" style="stop-color:#95a3f2;stop-opacity:1"/></linearGradient><linearGradient id="_Linear16" x1="0" y1="0" x2="1" y2="0" gradientUnits="userSpaceOnUse" gradientTransform="matrix(2642.75,0,0,2642.75,4600.44,7000.08)"><stop offset="0" style="stop-color:#9aa8fb;stop-opacity:1"/><stop offset="1" style="stop-color:#95a3f2;stop-opacity:1"/></linearGradient><linearGradient id="_Linear17" x1="0" y1="0" x2="1" y2="0" gradientUnits="userSpaceOnUse" gradientTransform="matrix(5689.71,-1070.75,1070.75,5689.71,13208.1,6124.83)"><stop offset="0" style="stop-color:#9aa8fb;stop-opacity:1"/><stop offset="1" style="stop-color:#95a3f2;stop-opacity:1"/></linearGradient><linearGradient id="_Linear18" x1="0" y1="0" x2="1" y2="0" gradientUnits="userSpaceOnUse" gradientTransform="matrix(5689.71,-1070.75,1070.75,5689.71,13208.1,6124.83)"><stop offset="0" style="stop-color:#9aa8fb;stop-opacity:1"/><stop offset="1" style="stop-color:#95a3f2;stop-opacity:1"/></linearGradient><linearGradient id="_Linear19" x1="0" y1="0" x2="1" y2="0" gradientUnits="userSpaceOnUse" gradientTransform="matrix(2642.75,0,0,2642.75,4600.44,7000.08)"><stop offset="0" style="stop-color:#9aa8fb;stop-opacity:1"/><stop offset="1" style="stop-color:#95a3f2;stop-opacity:1"/></linearGradient><linearGradient id="_Linear20" x1="0" y1="0" x2="1" y2="0" gradientUnits="userSpaceOnUse" gradientTransform="matrix(-3135.46,895.846,-895.846,-3135.46,199.556,7944.29)"><stop offset="0" style="stop-color:#9aa8fb;stop-opacity:1"/><stop offset="1" style="stop-color:#95a3f2;stop-opacity:1"/></linearGradient><linearGradient id="_Linear21" x1="0" y1="0" x2="1" y2="0" gradientUnits="userSpaceOnUse" gradientTransform="matrix(5689.71,-1070.75,1070.75,5689.71,13208.1,6124.83)"><stop offset="0" style="stop-color:#9aa8fb;stop-opacity:1"/><stop offset="1" style="stop-color:#95a3f2;stop-opacity:1"/></linearGradient><linearGradient id="_Linear22" x1="0" y1="0" x2="1" y2="0" gradientUnits="userSpaceOnUse" gradientTransform="matrix(5689.71,-1070.75,1070.75,5689.71,13208.1,6124.83)"><stop offset="0" style="stop-color:#9aa8fb;stop-opacity:1"/><stop offset="1" style="stop-color:#95a3f2;stop-opacity:1"/></linearGradient><linearGradient id="_Linear23" x1="0" y1="0" x2="1" y2="0" gradientUnits="userSpaceOnUse" gradientTransform="matrix(-3135.46,895.846,-895.846,-3135.46,199.556,7944.29)"><stop offset="0" style="stop-color:#9aa8fb;stop-opacity:1"/><stop offset="1" style="stop-color:#95a3f2;stop-opacity:1"/></linearGradient><linearGradient id="_Linear24" x1="0" y1="0" x2="1" y2="0" gradientUnits="userSpaceOnUse" gradientTransform="matrix(2642.75,0,0,2642.75,4600.44,7000.08)"><stop offset="0" style="stop-color:#9aa8fb;stop-opacity:1"/><stop offset="1" style="stop-color:#95a3f2;stop-opacity:1"/></linearGradient><linearGradient id="_Linear25" x1="0" y1="0" x2="1" y2="0" gradientUnits="userSpaceOnUse" gradientTransform="matrix(2642.75,0,0,2642.75,4600.44,7000.08)"><stop offset="0" style="stop-color:#9aa8fb;stop-opacity:1"/><stop offset="1" style="stop-color:#95a3f2;stop-opacity:1"/></linearGradient><linearGradient id="_Linear26" x1="0" y1="0" x2="1" y2="0" gradientUnits="userSpaceOnUse" gradientTransform="matrix(5689.71,-1070.75,1070.75,5689.71,13208.1,6124.83)"><stop offset="0" style="stop-color:#9aa8fb;stop-opacity:1"/><stop offset="1" style="stop-color:#95a3f2;stop-opacity:1"/></linearGradient><linearGradient id="_Linear27" x1="0" y1="0" x2="1" y2="0" gradientUnits="userSpaceOnUse" gradientTransform="matrix(23.9254,6291.04,-6291.04,23.9254,8752.33,5319.69)"><stop offset="0" style="stop-color:#08005d;stop-opacity:1"/><stop offset="1" style="stop-color:#1a0e90;stop-opacity:1"/></linearGradient><linearGradient id="_Linear28" x1="0" y1="0" x2="1" y2="0" gradientUnits="userSpaceOnUse" gradientTransform="matrix(7160.03,-9588.85,9588.85,7160.03,7890.07,7188.02)"><stop offset="0" style="stop-color:#3f42e2;stop-opacity:1"/><stop offset="1" style="stop-color:#4f52ff;stop-opacity:1"/></linearGradient><linearGradient id="_Linear29" x1="0" y1="0" x2="1" y2="0" gradientUnits="userSpaceOnUse" gradientTransform="matrix(672.041,0,0,672.041,8509.38,6038.86)"><stop offset="0" style="stop-color:#3f42e2;stop-opacity:1"/><stop offset="1" style="stop-color:#4f52ff;stop-opacity:1"/></linearGradient><linearGradient id="_Linear30" x1="0" y1="0" x2="1" y2="0" gradientUnits="userSpaceOnUse" gradientTransform="matrix(2282.1,0,0,2282.1,7647.12,8434.15)"><stop offset="0" style="stop-color:#dae2fd;stop-opacity:1"/><stop offset="1" style="stop-color:#e8effd;stop-opacity:1"/></linearGradient><linearGradient id="_Linear31" x1="0" y1="0" x2="1" y2="0" gradientUnits="userSpaceOnUse" gradientTransform="matrix(1419.1,0,0,1419.1,8078.62,8434.15)"><stop offset="0" style="stop-color:#3f42e2;stop-opacity:1"/><stop offset="1" style="stop-color:#4f52ff;stop-opacity:1"/></linearGradient><linearGradient id="_Linear32" x1="0" y1="0" x2="1" y2="0" gradientUnits="userSpaceOnUse" gradientTransform="matrix(363.456,0,0,363.456,7079.14,10736.4)"><stop offset="0" style="stop-color:#3f42e2;stop-opacity:1"/><stop offset="1" style="stop-color:#4f52ff;stop-opacity:1"/></linearGradient><linearGradient id="_Linear33" x1="0" y1="0" x2="1" y2="0" gradientUnits="userSpaceOnUse" gradientTransform="matrix(-365.638,-917.196,917.196,-365.638,2211.48,5617.42)"><stop offset="0" style="stop-color:#08005d;stop-opacity:1"/><stop offset="1" style="stop-color:#1a0e90;stop-opacity:1"/></linearGradient><linearGradient id="_Linear34" x1="0" y1="0" x2="1" y2="0" gradientUnits="userSpaceOnUse" gradientTransform="matrix(-984.021,-1360.2,1360.2,-984.021,3071.27,6316.42)"><stop offset="0" style="stop-color:#fdbaba;stop-opacity:1"/><stop offset="1" style="stop-color:#ff918e;stop-opacity:1"/></linearGradient><linearGradient id="_Linear35" x1="0" y1="0" x2="1" y2="0" gradientUnits="userSpaceOnUse" gradientTransform="matrix(-310.046,3.79697e-14,-3.79697e-14,-310.046,874.885,11489.4)"><stop offset="0" style="stop-color:#08005d;stop-opacity:1"/><stop offset="1" style="stop-color:#1a0e90;stop-opacity:1"/></linearGradient><linearGradient id="_Linear36" x1="0" y1="0" x2="1" y2="0" gradientUnits="userSpaceOnUse" gradientTransform="matrix(-446.179,5214.75,-5214.75,-446.179,2184.99,12712)"><stop offset="0" style="stop-color:#fdbaba;stop-opacity:1"/><stop offset="1" style="stop-color:#ff918e;stop-opacity:1"/></linearGradient><linearGradient id="_Linear37" x1="0" y1="0" x2="1" y2="0" gradientUnits="userSpaceOnUse" gradientTransform="matrix(-501.679,6.1438e-14,-6.1438e-14,-501.679,2315.36,11432.8)"><stop offset="0" style="stop-color:#08005d;stop-opacity:1"/><stop offset="1" style="stop-color:#1a0e90;stop-opacity:1"/></linearGradient><linearGradient id="_Linear38" x1="0" y1="0" x2="1" y2="0" gradientUnits="userSpaceOnUse" gradientTransform="matrix(-446.296,5216.12,-5216.12,-446.296,1287.47,12789.6)"><stop offset="0" style="stop-color:#fdbaba;stop-opacity:1"/><stop offset="1" style="stop-color:#ff918e;stop-opacity:1"/></linearGradient><linearGradient id="_Linear39" x1="0" y1="0" x2="1" y2="0" gradientUnits="userSpaceOnUse" gradientTransform="matrix(5837.58,-9491.29,9491.29,5837.58,-4390.22,18182)"><stop offset="0" style="stop-color:#ff918e;stop-opacity:1"/><stop offset="1" style="stop-color:#fd7062;stop-opacity:1"/></linearGradient><linearGradient id="_Linear40" x1="0" y1="0" x2="1" y2="0" gradientUnits="userSpaceOnUse" gradientTransform="matrix(3275.44,-4031.31,4031.31,3275.44,1065.91,10148.8)"><stop offset="0" style="stop-color:#08005d;stop-opacity:1"/><stop offset="1" style="stop-color:#1a0e90;stop-opacity:1"/></linearGradient><linearGradient id="_Linear41" x1="0" y1="0" x2="1" y2="0" gradientUnits="userSpaceOnUse" gradientTransform="matrix(-83.8133,613.158,-613.158,-83.8133,2233.94,7571.88)"><stop offset="0" style="stop-color:#fdbaba;stop-opacity:1"/><stop offset="1" style="stop-color:#ff918e;stop-opacity:1"/></linearGradient><linearGradient id="_Linear42" x1="0" y1="0" x2="1" y2="0" gradientUnits="userSpaceOnUse" gradientTransform="matrix(-464.463,1418.72,-1418.72,-464.463,2383.15,6833.46)"><stop offset="0" style="stop-color:#fdbaba;stop-opacity:1"/><stop offset="1" style="stop-color:#ff918e;stop-opacity:1"/></linearGradient><linearGradient id="_Linear43" x1="0" y1="0" x2="1" y2="0" gradientUnits="userSpaceOnUse" gradientTransform="matrix(-536.888,-828.667,828.667,-536.888,2449.11,5691.17)"><stop offset="0" style="stop-color:#08005d;stop-opacity:1"/><stop offset="1" style="stop-color:#1a0e90;stop-opacity:1"/></linearGradient><linearGradient id="_Linear44" x1="0" y1="0" x2="1" y2="0" gradientUnits="userSpaceOnUse" gradientTransform="matrix(-464.458,1418.71,-1418.71,-464.458,2213.48,6889)"><stop offset="0" style="stop-color:#fdbaba;stop-opacity:1"/><stop offset="1" style="stop-color:#ff918e;stop-opacity:1"/></linearGradient><linearGradient id="_Linear45" x1="0" y1="0" x2="1" y2="0" gradientUnits="userSpaceOnUse" gradientTransform="matrix(-984.025,-1360.2,1360.2,-984.025,3189.4,6401.88)"><stop offset="0" style="stop-color:#fdbaba;stop-opacity:1"/><stop offset="1" style="stop-color:#ff918e;stop-opacity:1"/></linearGradient><linearGradient id="_Linear46" x1="0" y1="0" x2="1" y2="0" gradientUnits="userSpaceOnUse" gradientTransform="matrix(180.683,0,0,180.683,3461.52,5906.12)"><stop offset="0" style="stop-color:#fdbaba;stop-opacity:1"/><stop offset="1" style="stop-color:#ff918e;stop-opacity:1"/></linearGradient><linearGradient id="_Linear47" x1="0" y1="0" x2="1" y2="0" gradientUnits="userSpaceOnUse" gradientTransform="matrix(1488.47,0,0,1488.47,475.406,8045.71)"><stop offset="0" style="stop-color:#fdbaba;stop-opacity:1"/><stop offset="1" style="stop-color:#ff918e;stop-opacity:1"/></linearGradient><linearGradient id="_Linear48" x1="0" y1="0" x2="1" y2="0" gradientUnits="userSpaceOnUse" gradientTransform="matrix(3476.71,-5010.54,5010.54,3476.71,5296.86,8600.33)"><stop offset="0" style="stop-color:#ff918e;stop-opacity:1"/><stop offset="1" style="stop-color:#fd7062;stop-opacity:1"/></linearGradient><linearGradient id="_Linear49" x1="0" y1="0" x2="1" y2="0" gradientUnits="userSpaceOnUse" gradientTransform="matrix(3674.19,-251.945,251.945,3674.19,4729.11,2708.38)"><stop offset="0" style="stop-color:#ff918e;stop-opacity:1"/><stop offset="1" style="stop-color:#fd7062;stop-opacity:1"/></linearGradient><linearGradient id="_Linear50" x1="0" y1="0" x2="1" y2="0" gradientUnits="userSpaceOnUse" gradientTransform="matrix(692.846,-4304.04,4304.04,692.846,7419.9,4695.75)"><stop offset="0" style="stop-color:#ff918e;stop-opacity:1"/><stop offset="1" style="stop-color:#fd7062;stop-opacity:1"/></linearGradient><linearGradient id="_Linear51" x1="0" y1="0" x2="1" y2="0" gradientUnits="userSpaceOnUse" gradientTransform="matrix(692.846,-4304.04,4304.04,692.846,7419.9,4695.75)"><stop offset="0" style="stop-color:#ffb8b6;stop-opacity:1"/><stop offset="1" style="stop-color:#fda39a;stop-opacity:1"/></linearGradient><linearGradient id="_Linear52" x1="0" y1="0" x2="1" y2="0" gradientUnits="userSpaceOnUse" gradientTransform="matrix(692.846,-4304.04,4304.04,692.846,7419.9,4695.75)"><stop offset="0" style="stop-color:#ffd1d1;stop-opacity:1"/><stop offset="1" style="stop-color:#fdc4bf;stop-opacity:1"/></linearGradient></defs></svg>