<?xml version="1.0" encoding="UTF-8" standalone="no"?>
<!DOCTYPE svg PUBLIC "-//W3C//DTD SVG 1.1//EN" "http://www.w3.org/Graphics/SVG/1.1/DTD/svg11.dtd">
<svg width="100%" height="100%" viewBox="0 0 2809 2811" version="1.1" xmlns="http://www.w3.org/2000/svg" xmlns:xlink="http://www.w3.org/1999/xlink" xml:space="preserve" xmlns:serif="http://www.serif.com/" style="fill-rule:evenodd;clip-rule:evenodd;stroke-linejoin:round;stroke-miterlimit:2;">
    <g transform="matrix(1,0,0,1,-450.896,-437.209)">
        <path d="M1902.42,3247.58C1732.83,3247.58 1603.27,3223.87 1551.6,3213.37C1426.95,3188.06 1224.93,3147.02 1026.55,3031.74L1026.55,2398.63C1044.35,2395.55 1059.76,2391.86 1072.8,2388.11C1129.8,2450.05 1188.98,2501.16 1242.49,2541.77C1268.8,2579.21 1295.69,2612.05 1311.32,2631.9C1315.62,2637.36 1314.42,2645.31 1308.7,2649.26L1283.78,2666.48C1310.37,2707.52 1344.66,2737.44 1386.38,2756.61L1379.7,2734.46C1379.33,2734.22 1346.66,2655.52 1346.3,2655.28C1343.65,2639.18 1340.67,2623.28 1337.42,2607.65C1394.7,2643.84 1432.71,2661.57 1432.71,2661.57C1420.27,2650.17 1407.97,2638.45 1395.85,2626.41C1420.29,2643.03 1446.86,2654.59 1475.53,2661.22L1464.51,2640.87C1464.23,2640.76 1358.48,2455.69 1284.39,2331.27L3205.59,2331.27C3151.88,2538.5 3059.3,2721.45 2934.94,2852.37C2877.51,2912.83 2823.18,2951.81 2780.25,2982.62C2481.09,3197.27 2149.35,3247.58 1902.42,3247.58ZM890.624,2939.22C838.251,2897.64 787.512,2849.54 740.086,2793.77C343.871,2327.83 390.059,1533.13 697.389,1048.56C700.546,1043.58 704.633,1037.31 709.651,1029.9C701.267,1131.33 695.1,1242.31 698.208,1359.6C595.112,1494.44 484.163,1688.06 477.727,1902.45C466.944,2261.67 811.977,2462.65 890.624,2503.73L890.624,2939.22ZM1360.61,2589.74C1347.79,2575.75 1335.23,2561.26 1323.01,2546.25C1318.54,2529.11 1313.82,2512.42 1308.96,2496.3C1335.87,2520.51 1360.93,2540.91 1376.79,2554.27C1382.11,2558.75 1382.54,2566.78 1377.74,2571.8L1360.61,2589.74ZM3235.85,2188.09L1148.34,2188.09C1109.61,2026.54 1100.92,1821.96 1139.01,1553.77C1174.8,1301.85 1113.5,1083.06 1026.55,910.796L1026.55,716.42L1003.72,716.42C1177.36,578.399 1422.12,449.216 1735.9,438.556C1761.96,437.67 1788,437.209 1813.94,437.209C2154.33,437.209 2482.47,516.536 2768.97,756.569C3189.64,1109.01 3317.42,1695.15 3235.85,2188.09Z" style="fill:url(#_Linear1);"/>
        <path d="M728.223,552.005C724.511,537.079 745.518,532.547 758.586,545.375C891.278,675.646 1210.87,1047.9 1139.01,1553.77C1048.86,2188.47 1220.74,2467.06 1432.71,2661.57C1432.71,2661.57 1143.33,2526.56 958.659,2241.52C505.254,1541.67 794.231,817.37 728.223,552.005Z" style="fill:rgb(189,208,251);fill-rule:nonzero;"/>
        <path d="M1037.2,2188.09L1026.55,2188.09L1026.55,2154.18C1030,2165.52 1033.55,2176.82 1037.2,2188.09ZM890.624,952.827L887.32,939.429L884.464,927.845L881.203,916.377L874.658,893.434C872.489,885.779 869.841,878.284 867.455,870.696C865.02,863.125 862.618,855.538 859.815,848.102C857.053,840.652 854.553,833.085 851.572,825.723C845.808,810.949 839.826,796.093 832.841,782.028L832.775,781.894C832.023,780.38 832.641,778.543 834.154,777.792C834.591,777.575 835.054,777.472 835.511,777.472C836.609,777.472 837.667,778.066 838.216,779.091C853.467,807.662 865.506,837.389 876.406,867.614C879.052,875.191 881.965,882.688 884.394,890.336L890.624,909.834L890.624,952.827Z" style="fill:rgb(220,230,253);fill-rule:nonzero;"/>
        <path d="M906.421,2511.64C906.421,2511.64 1066.83,2341.62 1002.98,2122.67C943.737,1919.52 775.669,1443.12 852.966,1214.63C856.391,1204.5 835.632,1203.41 825.877,1213.22C721.237,1318.47 487.162,1588.13 477.727,1902.45C465.559,2307.78 906.421,2511.64 906.421,2511.64Z" style="fill:rgb(145,179,250);fill-rule:nonzero;"/>
        <path d="M873.574,2467.94C873.507,2467.94 873.439,2467.93 873.37,2467.93C872.489,2467.82 871.855,2467.03 871.923,2466.16L871.927,2466.12C872.841,2454.76 872.659,2443.35 871.643,2432.02C870.703,2422.56 869.183,2413.17 867.267,2403.85C868.265,2403.94 869.277,2404.03 870.299,2404.11C871.232,2404.19 872.148,2404.26 873.076,2404.34C874.616,2413.38 875.81,2422.49 876.356,2431.66C876.92,2443.29 876.622,2454.95 875.211,2466.49C875.108,2467.32 874.396,2467.94 873.574,2467.94ZM824.473,2282.99C813.41,2257.46 801.818,2232.11 790.347,2206.7C752.029,2122.99 716.428,2037.69 686.796,1950.27C683.118,1939.33 679.42,1928.43 675.917,1917.39L670.89,1900.7C670.062,1897.91 669.192,1895.14 668.431,1892.34L666.327,1883.87L662.118,1866.95L658.642,1849.86L656.92,1841.32C656.366,1838.46 655.995,1835.58 655.523,1832.71L652.841,1815.48C646.72,1769.37 646.329,1722.52 651.692,1676.38C654.545,1653.34 658.717,1630.47 664.269,1607.96C669.836,1585.45 676.901,1563.33 685.223,1541.74C693.57,1520.14 703.423,1499.17 714.373,1478.84C725.427,1458.58 737.543,1438.83 751.944,1420.8L752.231,1420.77L752.265,1421.06C726.173,1458.95 706.546,1500.88 691.417,1544.01C676.321,1587.22 666.484,1632.14 661.938,1677.5C659.627,1700.19 658.955,1723 659.356,1745.76L659.964,1762.83C660.28,1768.52 660.819,1774.19 661.234,1779.86L661.882,1788.38L662.883,1796.86C663.569,1802.51 664.169,1808.17 664.923,1813.81L667.666,1830.66C668.146,1833.47 668.526,1836.29 669.089,1839.08L670.835,1847.44L674.348,1864.15L678.585,1880.69L680.701,1888.96C681.462,1891.71 682.346,1894.42 683.145,1897.15L688.058,1913.51C691.504,1924.4 695.193,1935.3 698.836,1946.17C713.666,1989.61 729.663,2032.64 746.68,2075.29C755.161,2096.63 763.952,2117.85 772.925,2139C781.788,2160.2 790.838,2181.33 799.963,2202.45C809.075,2223.58 818.244,2244.69 827.185,2265.94C828.164,2268.28 829.141,2270.62 830.118,2272.97C828.243,2276.23 826.351,2279.58 824.473,2282.99Z" style="fill:rgb(195,213,252);fill-rule:nonzero;"/>
        <path d="M1282.61,1323.14L1282.61,812.271C1282.61,800.7 1289.89,790.28 1300.84,786.543C1356.68,767.483 1412.53,770.118 1468.37,794.45C1480.37,799.678 1487.9,811.761 1487.01,824.82L1453.03,1322.01L1282.61,1323.14Z" style="fill:url(#_Linear2);"/>
        <path d="M1314.66,833.76L1314.66,958.188C1314.66,968.268 1322.52,976.603 1332.58,977.204L1423.03,982.597C1433.21,983.204 1442.06,975.687 1443.11,965.543L1456.35,837.575C1457.43,827.177 1449.94,817.849 1439.56,816.686C1412.73,813.683 1363.01,809.48 1330.54,814.966C1321.37,816.516 1314.66,824.458 1314.66,833.76Z" style="fill:rgb(125,151,244);fill-rule:nonzero;"/>
        <path d="M1493.65,840.263L1463.52,1322.01L1644.09,1322.01L1644.09,853.714C1644.09,840.244 1635.49,828.315 1622.75,823.959C1598.85,815.792 1558.23,805.601 1518.33,812.687C1504.73,815.102 1494.51,826.475 1493.65,840.263Z" style="fill:url(#_Linear3);"/>
        <path d="M1494.13,1143.65L1488.01,1277.98C1487.51,1289.11 1496.39,1298.42 1507.54,1298.42L1598.76,1298.42C1609.55,1298.42 1618.3,1289.67 1618.3,1278.87L1618.3,1144.54C1618.3,1133.75 1609.55,1125 1598.76,1125L1513.66,1125C1503.21,1125 1494.6,1133.21 1494.13,1143.65Z" style="fill:rgb(125,151,244);fill-rule:nonzero;"/>
        <path d="M1817.95,1322.01L1817.95,824.027C1817.95,811.602 1809.89,800.538 1798,796.907C1744.84,780.663 1698.6,789.759 1674.32,797.303C1663.56,800.646 1656.22,810.559 1656.22,821.824L1656.22,1322.01L1817.95,1322.01Z" style="fill:rgb(125,151,244);fill-rule:nonzero;"/>
        <path d="M1672.22,832.347L1676.15,905.861C1676.64,915.022 1684.21,922.2 1693.38,922.2L1779.98,922.2C1789.3,922.2 1796.93,914.811 1797.23,905.502L1799.59,832.964C1799.86,824.648 1794.18,817.3 1786.04,815.546C1765.01,811.01 1723.62,804.757 1685.31,814.665C1677.3,816.738 1671.78,824.079 1672.22,832.347Z" style="fill:rgb(145,179,250);fill-rule:nonzero;"/>
        <path d="M1678.95,953.882C1679.58,962.929 1687.1,969.949 1696.17,969.949L1779.08,969.949C1788.75,969.949 1796.53,962.009 1796.34,952.343C1796.15,942.949 1788.48,935.433 1779.08,935.433L1696.17,935.433C1686.17,935.433 1678.26,943.905 1678.95,953.882Z" style="fill:rgb(145,179,250);fill-rule:nonzero;"/>
        <path d="M2380.71,840.288C2380.71,840.288 2365.97,748.591 2410.99,718.931C2412.99,717.612 2415.67,719.111 2415.67,721.509L2415.67,738.941C2415.67,743.107 2420.63,745.254 2423.66,742.397C2433.35,733.263 2450.69,719.391 2469.08,716.5C2473.98,715.729 2477.81,720.624 2475.7,725.121C2464.43,749.231 2434.89,816.799 2436.03,861.063L2380.71,840.288Z" style="fill:rgb(125,151,244);fill-rule:nonzero;"/>
        <path d="M2332.91,840.263L2302.78,1322.01L2483.35,1322.01L2483.35,853.714C2483.35,840.244 2474.75,828.315 2462.01,823.959C2438.11,815.792 2397.49,805.601 2357.59,812.687C2343.99,815.102 2333.78,826.475 2332.91,840.263Z" style="fill:url(#_Linear4);"/>
        <path d="M2333.39,1143.65L2327.27,1277.98C2326.77,1289.11 2335.66,1298.42 2346.8,1298.42L2438.02,1298.42C2448.81,1298.42 2457.57,1289.67 2457.57,1278.87L2457.57,1144.54C2457.57,1133.75 2448.81,1125 2438.02,1125L2352.92,1125C2342.47,1125 2333.87,1133.21 2333.39,1143.65Z" style="fill:rgb(125,151,244);fill-rule:nonzero;"/>
        <path d="M1151.93,812.687C1138.33,815.102 1128.11,826.475 1127.25,840.263L1097.12,1322.01L1277.69,1322.01L1277.69,853.714C1277.69,840.244 1269.09,828.315 1256.35,823.959C1232.45,815.792 1191.83,805.601 1151.93,812.687Z" style="fill:url(#_Linear5);"/>
        <path d="M1127.73,1143.65L1121.61,1277.98C1121.11,1289.11 1130,1298.42 1141.14,1298.42L1232.36,1298.42C1243.15,1298.42 1251.9,1289.67 1251.9,1278.87L1251.9,1144.54C1251.9,1133.75 1243.15,1125 1232.36,1125L1147.26,1125C1136.81,1125 1128.21,1133.21 1127.73,1143.65Z" style="fill:rgb(125,151,244);fill-rule:nonzero;"/>
        <path d="M2657.21,1322.01L2657.21,824.027C2657.21,811.602 2649.15,800.538 2637.27,796.907C2584.1,780.663 2537.86,789.759 2513.58,797.303C2502.83,800.646 2495.48,810.559 2495.48,821.824L2495.48,1322.01L2657.21,1322.01Z" style="fill:url(#_Linear6);"/>
        <path d="M2511.49,832.347L2515.41,905.861C2515.9,915.022 2523.47,922.2 2532.64,922.2L2619.25,922.2C2628.56,922.2 2636.19,914.811 2636.5,905.502L2638.85,832.964C2639.12,824.648 2633.44,817.3 2625.3,815.546C2604.27,811.01 2562.88,804.757 2524.57,814.665C2516.56,816.738 2511.04,824.079 2511.49,832.347Z" style="fill:rgb(125,151,244);fill-rule:nonzero;"/>
        <path d="M2518.21,953.882C2518.84,962.929 2526.36,969.949 2535.43,969.949L2618.34,969.949C2628.01,969.949 2635.79,962.009 2635.6,952.343C2635.41,942.949 2627.74,935.433 2618.34,935.433L2535.43,935.433C2525.43,935.433 2517.52,943.905 2518.21,953.882Z" style="fill:rgb(125,151,244);fill-rule:nonzero;"/>
        <path d="M1831.34,827.384L1824.93,1324.37L2113.71,1324.37L2092.09,840.612C2091.46,826.647 2082.45,814.486 2069.28,809.78C2033.4,796.953 1955.24,778.148 1849.41,804.571C1838.91,807.192 1831.48,816.564 1831.34,827.384Z" style="fill:url(#_Linear7);"/>
        <path d="M2106.8,837.935L2126.83,1321.53L2297.87,1321.53L2310.84,832.526C2311.19,819.086 2302.61,806.923 2289.73,803.057C2234.11,786.359 2178.87,784.722 2124.28,809.661C2113.26,814.697 2106.29,825.826 2106.8,837.935Z" style="fill:rgb(125,151,244);fill-rule:nonzero;"/>
        <path d="M2122.37,856.084L2124.41,882.378C2125.03,890.344 2131.91,896.35 2139.88,895.886L2279.63,887.755C2286.96,887.328 2292.85,881.538 2293.4,874.209L2294.76,856.046C2295.39,847.54 2288.66,840.288 2280.13,840.288L2136.99,840.288C2128.45,840.288 2121.71,847.564 2122.37,856.084Z" style="fill:rgb(145,179,250);fill-rule:nonzero;"/>
        <path d="M2128.14,918.918L2128.14,928.516C2128.14,935.926 2134.31,941.845 2141.72,941.536L2275.58,935.954C2282.56,935.662 2288.07,929.919 2288.07,922.933L2288.07,912.753C2288.07,905.321 2281.86,899.394 2274.44,899.735L2140.57,905.901C2133.62,906.221 2128.14,911.955 2128.14,918.918Z" style="fill:rgb(145,179,250);fill-rule:nonzero;"/>
        <path d="M2863.1,830.386L2883.13,1313.98L3054.18,1313.98L3067.14,824.977C3067.5,811.537 3058.91,799.374 3046.03,795.508C2990.41,778.811 2935.17,777.172 2880.58,802.112C2869.56,807.148 2862.6,818.277 2863.1,830.386Z" style="fill:url(#_Linear8);"/>
        <path d="M2878.68,848.535L2880.71,874.83C2881.33,882.795 2888.21,888.801 2896.18,888.337L3035.93,880.207C3043.27,879.779 3049.15,873.989 3049.7,866.661L3051.06,848.497C3051.7,839.991 3044.97,832.739 3036.44,832.739L2893.3,832.739C2884.75,832.739 2878.02,840.016 2878.68,848.535Z" style="fill:rgb(125,151,244);fill-rule:nonzero;"/>
        <path d="M2884.44,911.37L2884.44,920.967C2884.44,928.377 2890.62,934.296 2898.02,933.987L3031.89,928.404C3038.87,928.113 3044.37,922.37 3044.37,915.384L3044.37,905.204C3044.37,897.772 3038.17,891.845 3030.74,892.187L2896.88,898.352C2889.92,898.672 2884.44,904.406 2884.44,911.37Z" style="fill:rgb(125,151,244);fill-rule:nonzero;"/>
        <path d="M2696.29,834.816L2666.16,1316.56L2846.73,1316.56L2846.73,848.267C2846.73,834.797 2838.13,822.868 2825.39,818.512C2801.49,810.345 2760.87,800.154 2720.97,807.239C2707.37,809.655 2697.15,821.027 2696.29,834.816Z" style="fill:rgb(125,151,244);fill-rule:nonzero;"/>
        <path d="M2703.06,1138.21L2696.94,1272.53C2696.43,1283.67 2705.32,1292.97 2716.46,1292.97L2807.68,1292.97C2818.48,1292.97 2827.23,1284.22 2827.23,1273.42L2827.23,1139.1C2827.23,1128.3 2818.48,1119.55 2807.68,1119.55L2722.58,1119.55C2712.13,1119.55 2703.53,1127.77 2703.06,1138.21Z" style="fill:rgb(145,179,250);fill-rule:nonzero;"/>
        <path d="M3091.63,2920.64L3091.63,2432.16C3091.63,2421.09 3084.67,2411.13 3074.2,2407.56C3020.81,2389.33 2967.41,2391.85 2914.01,2415.12C2902.54,2420.12 2895.33,2431.67 2896.19,2444.16L2928.68,2919.56L3091.63,2920.64Z" style="fill:url(#_Linear9);"/>
        <path d="M3060.98,2452.71L3060.98,2571.68C3060.98,2581.32 3053.47,2589.29 3043.85,2589.87L2957.37,2595.02C2947.63,2595.6 2939.17,2588.42 2938.16,2578.72L2925.5,2456.35C2924.47,2446.41 2931.63,2437.49 2941.56,2436.38C2967.21,2433.51 3014.76,2429.49 3045.8,2434.74C3054.57,2436.22 3060.98,2443.81 3060.98,2452.71Z" style="fill:rgb(125,151,244);fill-rule:nonzero;"/>
        <path d="M2889.84,2458.92L2918.65,2919.56L2745.99,2919.56L2745.99,2471.79C2745.99,2458.91 2754.21,2447.5 2766.4,2443.33C2789.25,2435.53 2828.09,2425.78 2866.24,2432.56C2879.25,2434.87 2889.01,2445.74 2889.84,2458.92Z" style="fill:rgb(125,151,244);fill-rule:nonzero;"/>
        <path d="M2889.38,2749.02L2895.23,2877.47C2895.71,2888.11 2887.21,2897.01 2876.56,2897.01L2789.34,2897.01C2779.01,2897.01 2770.65,2888.64 2770.65,2878.32L2770.65,2749.87C2770.65,2739.55 2779.01,2731.18 2789.34,2731.18L2870.71,2731.18C2880.7,2731.18 2888.92,2739.04 2889.38,2749.02Z" style="fill:rgb(145,179,250);fill-rule:nonzero;"/>
        <path d="M2579.74,2919.56L2579.74,2443.4C2579.74,2431.52 2587.46,2420.94 2598.82,2417.47C2649.65,2401.93 2693.87,2410.63 2717.08,2417.85C2727.37,2421.04 2734.39,2430.52 2734.39,2441.29L2734.39,2919.56L2579.74,2919.56Z" style="fill:rgb(145,179,250);fill-rule:nonzero;"/>
        <path d="M2719.09,2451.36L2715.34,2521.65C2714.87,2530.41 2707.63,2537.27 2698.86,2537.27L2616.05,2537.27C2607.14,2537.27 2599.84,2530.21 2599.55,2521.31L2597.3,2451.95C2597.04,2443.99 2602.48,2436.97 2610.26,2435.29C2630.37,2430.95 2669.95,2424.97 2706.57,2434.45C2714.24,2436.43 2719.51,2443.45 2719.09,2451.36Z" style="fill:url(#_Linear10);"/>
        <path d="M2712.65,2567.57C2712.06,2576.22 2704.86,2582.93 2696.19,2582.93L2616.91,2582.93C2607.67,2582.93 2600.23,2575.34 2600.41,2566.09C2600.59,2557.11 2607.93,2549.92 2616.91,2549.92L2696.19,2549.92C2705.75,2549.92 2713.31,2558.03 2712.65,2567.57Z" style="fill:url(#_Linear11);"/>
        <path d="M2041.64,2458.95C2041.64,2458.95 2055.74,2371.27 2012.69,2342.91C2010.78,2341.65 2008.22,2343.08 2008.22,2345.37L2008.22,2362.04C2008.22,2366.03 2003.47,2368.08 2000.57,2365.35C1991.31,2356.61 1974.73,2343.35 1957.15,2340.58C1952.46,2339.85 1948.8,2344.53 1950.81,2348.83C1961.59,2371.88 1989.83,2436.49 1988.75,2478.81L2041.64,2458.95Z" style="fill:rgb(125,151,244);fill-rule:nonzero;"/>
        <path d="M2087.34,2458.92L2116.16,2919.56L1943.5,2919.56L1943.5,2471.79C1943.5,2458.91 1951.72,2447.5 1963.91,2443.33C1986.75,2435.53 2025.6,2425.78 2063.75,2432.56C2076.75,2434.87 2086.52,2445.74 2087.34,2458.92Z" style="fill:url(#_Linear12);"/>
        <path d="M2086.89,2749.02L2092.74,2877.47C2093.22,2888.11 2084.72,2897.01 2074.07,2897.01L1986.84,2897.01C1976.52,2897.01 1968.15,2888.64 1968.15,2878.32L1968.15,2749.87C1968.15,2739.55 1976.52,2731.18 1986.84,2731.18L2068.22,2731.18C2078.21,2731.18 2086.43,2739.04 2086.89,2749.02Z" style="fill:rgb(125,151,244);fill-rule:nonzero;"/>
        <path d="M1777.25,2919.56L1777.25,2443.4C1777.25,2431.52 1784.96,2420.94 1796.33,2417.47C1847.16,2401.93 1891.38,2410.63 1914.59,2417.85C1924.88,2421.04 1931.9,2430.52 1931.9,2441.29L1931.9,2919.56L1777.25,2919.56Z" style="fill:url(#_Linear13);"/>
        <path d="M1916.6,2451.36L1912.84,2521.65C1912.38,2530.41 1905.14,2537.27 1896.37,2537.27L1813.56,2537.27C1804.65,2537.27 1797.35,2530.21 1797.06,2521.31L1794.81,2451.95C1794.55,2443.99 1799.99,2436.97 1807.76,2435.29C1827.88,2430.95 1867.45,2424.97 1904.08,2434.45C1911.75,2436.43 1917.02,2443.45 1916.6,2451.36Z" style="fill:rgb(125,151,244);fill-rule:nonzero;"/>
        <path d="M1910.16,2567.57C1909.56,2576.22 1902.37,2582.93 1893.7,2582.93L1814.42,2582.93C1805.18,2582.93 1797.73,2575.34 1797.92,2566.09C1798.1,2557.11 1805.43,2549.92 1814.42,2549.92L1893.7,2549.92C1903.26,2549.92 1910.82,2558.03 1910.16,2567.57Z" style="fill:rgb(125,151,244);fill-rule:nonzero;"/>
        <path d="M2566.94,2446.61L2573.08,2921.82L2296.95,2921.82L2317.62,2459.26C2318.22,2445.91 2326.84,2434.28 2339.43,2429.78C2373.74,2417.51 2448.47,2399.53 2549.67,2424.8C2559.71,2427.3 2566.81,2436.26 2566.94,2446.61Z" style="fill:url(#_Linear14);"/>
        <path d="M2303.55,2456.7L2284.4,2919.11L2120.85,2919.11L2108.45,2451.53C2108.11,2438.67 2116.32,2427.04 2128.64,2423.35C2181.82,2407.38 2234.64,2405.82 2286.84,2429.66C2297.38,2434.48 2304.03,2445.12 2303.55,2456.7Z" style="fill:rgb(125,151,244);fill-rule:nonzero;"/>
        <path d="M2288.66,2474.05L2286.71,2499.2C2286.12,2506.81 2279.54,2512.55 2271.92,2512.11L2138.3,2504.34C2131.28,2503.93 2125.65,2498.39 2125.13,2491.38L2123.83,2474.02C2123.22,2465.88 2129.66,2458.95 2137.81,2458.95L2274.68,2458.95C2282.85,2458.95 2289.29,2465.91 2288.66,2474.05Z" style="fill:rgb(145,179,250);fill-rule:nonzero;"/>
        <path d="M2283.14,2534.13L2283.14,2543.31C2283.14,2550.4 2277.24,2556.06 2270.17,2555.76L2142.16,2550.42C2135.49,2550.14 2130.22,2544.65 2130.22,2537.97L2130.22,2528.24C2130.22,2521.13 2136.16,2515.46 2143.26,2515.79L2271.26,2521.69C2277.91,2521.99 2283.14,2527.48 2283.14,2534.13Z" style="fill:rgb(145,179,250);fill-rule:nonzero;"/>
        <path d="M1597.58,2914.32L1597.58,2425.83C1597.58,2414.77 1590.62,2404.81 1580.15,2401.23C1526.75,2383.01 1473.36,2385.53 1419.96,2408.79C1408.48,2413.79 1401.28,2425.35 1402.14,2437.83L1434.63,2913.24L1597.58,2914.32Z" style="fill:url(#_Linear15);"/>
        <path d="M1566.93,2446.38L1566.93,2565.36C1566.93,2575 1559.42,2582.97 1549.8,2583.54L1463.31,2588.7C1453.58,2589.28 1445.12,2582.09 1444.11,2572.39L1431.45,2450.03C1430.42,2440.09 1437.58,2431.17 1447.51,2430.05C1473.16,2427.18 1520.7,2423.17 1551.75,2428.41C1560.52,2429.89 1566.93,2437.49 1566.93,2446.38Z" style="fill:rgb(125,151,244);fill-rule:nonzero;"/>
        <path d="M1395.79,2452.6L1424.6,2913.24L1251.94,2913.24L1251.94,2465.46C1251.94,2452.58 1260.16,2441.17 1272.35,2437.01C1295.19,2429.2 1334.04,2419.46 1372.19,2426.23C1385.2,2428.54 1394.96,2439.41 1395.79,2452.6Z" style="fill:rgb(125,151,244);fill-rule:nonzero;"/>
        <path d="M1395.33,2742.7L1401.18,2871.14C1401.66,2881.79 1393.16,2890.68 1382.51,2890.68L1295.28,2890.68C1284.96,2890.68 1276.59,2882.31 1276.59,2871.99L1276.59,2743.55C1276.59,2733.22 1284.96,2724.86 1295.28,2724.86L1376.66,2724.86C1386.65,2724.86 1394.87,2732.71 1395.33,2742.7Z" style="fill:rgb(145,179,250);fill-rule:nonzero;"/>
        <path d="M1085.69,2913.24L1085.69,2437.07C1085.69,2425.19 1093.4,2414.61 1104.77,2411.14C1155.6,2395.61 1199.82,2404.31 1223.03,2411.52C1233.32,2414.72 1240.34,2424.2 1240.34,2434.97L1240.34,2913.24L1085.69,2913.24Z" style="fill:url(#_Linear16);"/>
        <path d="M1225.04,2445.03L1221.28,2515.32C1220.82,2524.08 1213.58,2530.95 1204.81,2530.95L1122,2530.95C1113.09,2530.95 1105.79,2523.88 1105.5,2514.98L1103.25,2445.62C1102.99,2437.67 1108.43,2430.64 1116.2,2428.96C1136.32,2424.63 1175.89,2418.65 1212.52,2428.12C1220.19,2430.1 1225.46,2437.12 1225.04,2445.03Z" style="fill:url(#_Linear17);"/>
        <path d="M1218.6,2561.24C1218,2569.89 1210.81,2576.6 1202.14,2576.6L1122.86,2576.6C1113.62,2576.6 1106.17,2569.01 1106.36,2559.77C1106.54,2550.79 1113.88,2543.6 1122.86,2543.6L1202.14,2543.6C1211.7,2543.6 1219.26,2551.7 1218.6,2561.24Z" style="fill:url(#_Linear18);"/>
        <path d="M1722.53,2426.23C1735.54,2428.54 1745.31,2439.41 1746.13,2452.6L1774.94,2913.24L1602.29,2913.24L1602.29,2465.46C1602.29,2452.58 1610.5,2441.17 1622.69,2437.01C1645.54,2429.2 1684.39,2419.46 1722.53,2426.23Z" style="fill:rgb(125,151,244);fill-rule:nonzero;"/>
        <path d="M1745.67,2742.7L1751.52,2871.14C1752.01,2881.79 1743.51,2890.68 1732.85,2890.68L1645.63,2890.68C1635.31,2890.68 1626.94,2882.31 1626.94,2871.99L1626.94,2743.55C1626.94,2733.22 1635.31,2724.86 1645.63,2724.86L1727,2724.86C1736.99,2724.86 1745.22,2732.71 1745.67,2742.7Z" style="fill:rgb(145,179,250);fill-rule:nonzero;"/>
        <path d="M1403.81,1697.72L1397.4,2194.71L1686.18,2194.71L1664.56,1710.95C1663.94,1696.99 1654.92,1684.83 1641.76,1680.12C1605.87,1667.29 1527.72,1648.49 1421.88,1674.91C1411.39,1677.53 1403.95,1686.9 1403.81,1697.72Z" style="fill:url(#_Linear19);"/>
        <path d="M2654.14,1705.63L2674.17,2189.23L2845.21,2189.23L2858.18,1700.22C2858.54,1686.78 2849.95,1674.62 2837.07,1670.75C2781.45,1654.05 2726.21,1652.42 2671.62,1677.36C2660.6,1682.39 2653.64,1693.52 2654.14,1705.63Z" style="fill:url(#_Linear20);"/>
        <path d="M2669.71,1723.78L2671.75,1750.07C2672.37,1758.04 2679.25,1764.05 2687.22,1763.58L2826.97,1755.45C2834.3,1755.02 2840.19,1749.23 2840.74,1741.9L2842.1,1723.74C2842.74,1715.24 2836,1707.98 2827.47,1707.98L2684.33,1707.98C2675.79,1707.98 2669.05,1715.26 2669.71,1723.78Z" style="fill:rgb(125,151,244);fill-rule:nonzero;"/>
        <path d="M2675.48,1786.61L2675.48,1796.21C2675.48,1803.62 2681.65,1809.54 2689.06,1809.23L2822.92,1803.65C2829.9,1803.36 2835.41,1797.61 2835.41,1790.63L2835.41,1780.45C2835.41,1773.02 2829.21,1767.09 2821.78,1767.43L2687.92,1773.6C2680.96,1773.92 2675.48,1779.65 2675.48,1786.61Z" style="fill:rgb(125,151,244);fill-rule:nonzero;"/>
        <path d="M2945.16,1620.7C2945.16,1620.7 2929.77,1524.98 2976.76,1494.02C2978.85,1492.65 2981.65,1494.21 2981.65,1496.71L2981.65,1514.91C2981.65,1519.26 2986.83,1521.5 2989.99,1518.52C3000.11,1508.98 3018.21,1494.5 3037.4,1491.49C3042.52,1490.68 3046.51,1495.79 3044.32,1500.48C3032.54,1525.65 3001.72,1596.18 3002.9,1642.38L2945.16,1620.7Z" style="fill:rgb(125,151,244);fill-rule:nonzero;"/>
        <path d="M2895.27,1620.67L2863.81,2192.42L3052.29,2192.42L3052.29,1634.71C3052.29,1620.65 3043.33,1608.2 3030.02,1603.65C3005.08,1595.13 2962.67,1584.49 2921.03,1591.89C2906.83,1594.41 2896.17,1606.28 2895.27,1620.67Z" style="fill:url(#_Linear21);"/>
        <path d="M2895.77,1937.36L2889.38,2146.46C2888.85,2158.08 2898.13,2167.8 2909.76,2167.8L3004.98,2167.8C3016.25,2167.8 3025.38,2158.66 3025.38,2147.39L3025.38,1938.29C3025.38,1927.02 3016.25,1917.88 3004.98,1917.88L2916.15,1917.88C2905.24,1917.88 2896.26,1926.46 2895.77,1937.36Z" style="fill:rgb(125,151,244);fill-rule:nonzero;"/>
        <path d="M1095.34,1600.44L1088.65,2188.09L1390.09,2188.09L1367.52,1614.25C1366.86,1599.67 1357.45,1586.97 1343.71,1582.06C1306.25,1568.67 1224.67,1549.04 1114.2,1576.63C1103.24,1579.36 1095.49,1589.14 1095.34,1600.44Z" style="fill:url(#_Linear22);"/>
        <rect x="998.895" y="2188.09" width="2252.01" height="143.18" style="fill:rgb(145,179,250);fill-rule:nonzero;"/>
        <rect x="981.223" y="2913.49" width="2252" height="143.18" style="fill:rgb(145,179,250);fill-rule:nonzero;"/>
        <rect x="1020.57" y="1311.6" width="2188.85" height="143.18" style="fill:rgb(145,179,250);fill-rule:nonzero;"/>
        <rect x="890.624" y="716.42" width="135.926" height="2412.46" style="fill:rgb(125,151,244);fill-rule:nonzero;"/>
        <rect x="3121.26" y="737.052" width="135.93" height="2412.46" style="fill:rgb(125,151,244);fill-rule:nonzero;"/>
        <path d="M1689.85,2187.99L1629.66,1460.96C1628.38,1445.61 1639.78,1432.12 1655.13,1430.9C1709.48,1426.57 1849.14,1428.08 2119.66,1503.69L2154.92,2197.54L1689.85,2187.99Z" style="fill:url(#_Linear23);"/>
        <path d="M1735.45,2188.93L1672.28,1418.76C1671.25,1406.26 1681.04,1395.54 1693.58,1395.38C1769.23,1394.43 2010.42,1399.94 2119.66,1503.69L2154.92,2197.54L1735.45,2188.93Z" style="fill:rgb(145,179,250);fill-rule:nonzero;"/>
        <path d="M1762.38,2177.67C1752.47,2177.46 1744.33,2169.8 1743.53,2159.92L1684.48,1430.21C1683.5,1418.09 1692.89,1407.69 1704.92,1407.53C1776.12,1406.61 2000.12,1411.69 2107.6,1506.8C2111.53,1510.28 2113.93,1515.17 2114.19,1520.41L2146.46,2164.88C2147.02,2176.06 2137.97,2185.38 2126.77,2185.15L1762.38,2177.67Z" style="fill:white;fill-rule:nonzero;"/>
        <path d="M1718.62,1460.45L1755.11,1877.48C1756.46,1892.94 1769.33,1904.86 1784.85,1905.02L2067.56,1908.04C2084.76,1908.23 2098.63,1894.02 2098.04,1876.83L2086.06,1529.39C2085.67,1518.06 2078.98,1507.9 2068.71,1503.1C2021.9,1481.24 1884.04,1423.21 1747.8,1427.63C1730.46,1428.19 1717.11,1443.16 1718.62,1460.45Z" style="fill:rgb(189,208,251);fill-rule:nonzero;"/>
        <path d="M1763.73,1968.73L1765.78,1979.35C1767.07,1986.03 1772.86,1990.89 1779.66,1991.01L2078.73,1996.38C2087.5,1996.54 2094.37,1988.89 2093.28,1980.19L2091.3,1966C2090.4,1958.83 2084.55,1953.67 2077.33,1953.62L1777.97,1951.59C1768.88,1951.53 1762,1959.8 1763.73,1968.73Z" style="fill:rgb(189,208,251);fill-rule:nonzero;"/>
        <path d="M1770.28,2046.41L1771.39,2060.75C1771.97,2068.37 1778.4,2074.2 1786.04,2074.05L2078.43,2068.14C2086.89,2067.97 2093.38,2060.59 2092.46,2052.18L2092.24,2051.95C2091.46,2044.8 2085.75,2039.55 2078.56,2039.34L1785.06,2030.91C1776.51,2030.66 1769.63,2037.88 1770.28,2046.41Z" style="fill:rgb(189,208,251);fill-rule:nonzero;"/>
        <path d="M1773.54,2126.54L1775.13,2138.89C1775.79,2143.97 1780.13,2147.76 1785.25,2147.71L2093.67,2144.96C2100.21,2144.9 2104.97,2138.75 2103.39,2132.4L2098,2110.81C2096.86,2106.2 2092.66,2103.01 2087.91,2103.15L1786.32,2111.59C1778.47,2111.81 1772.53,2118.76 1773.54,2126.54Z" style="fill:rgb(189,208,251);fill-rule:nonzero;"/>
        <path d="M2135.23,1501.94C2135.23,1501.94 2342,1357.02 2605.62,1432.6C2621.4,1437.12 2632.29,1451.55 2632.4,1467.96L2637.39,2192.42L2154.92,2197.54L2135.23,1501.94Z" style="fill:url(#_Linear24);"/>
        <path d="M2590.04,1425.28L2605.48,2194.05L2154.92,2197.54L2119.66,1503.69C2119.66,1503.69 2338.36,1360.22 2552.2,1383.52C2573.48,1385.84 2589.6,1403.88 2590.04,1425.28Z" style="fill:rgb(145,179,250);fill-rule:nonzero;"/>
        <path d="M2582.53,1437.37L2597.29,2172.2C2597.53,2184.54 2587.46,2194.6 2575.13,2194.35L2182.09,2186.28C2170.1,2186.04 2160.34,2176.57 2159.73,2164.59L2126.64,1513.37C2126.64,1513.37 2338.6,1374.32 2545.86,1396.9C2566.49,1399.15 2582.11,1416.63 2582.53,1437.37Z" style="fill:white;fill-rule:nonzero;"/>
        <path d="M2214.36,1511.04C2191.78,1517.37 2176.75,1538.63 2178.31,1562.03C2184.71,1657.65 2200.86,1897.32 2207.26,1974.91C2208.41,1988.95 2220.25,1999.67 2234.34,1999.47L2525.88,1995.22C2543.03,1994.97 2556.73,1980.85 2556.45,1963.69L2548.42,1470.87C2548.16,1455.05 2535.55,1442.21 2519.73,1441.71C2472.79,1440.24 2294.03,1488.69 2214.36,1511.04Z" style="fill:rgb(189,208,251);fill-rule:nonzero;"/>
        <path d="M2221.76,2049.86L2540.76,2056.41C2548.38,2056.56 2554.43,2062.87 2554.28,2070.49L2554.27,2070.68C2554.12,2078.3 2547.81,2084.36 2540.19,2084.2L2221.19,2077.65C2213.56,2077.5 2207.51,2071.19 2207.67,2063.57L2207.67,2063.38C2207.83,2055.76 2214.13,2049.7 2221.76,2049.86Z" style="fill:rgb(189,208,251);fill-rule:nonzero;"/>
        <path d="M2206.08,2126.96L2206.24,2135.58C2206.37,2142.99 2212.32,2148.97 2219.72,2149.14L2538.97,2156.52C2546.81,2156.7 2553.23,2150.32 2553.09,2142.47C2552.97,2135.21 2547.23,2129.29 2539.98,2128.93L2220.58,2112.92C2212.6,2112.52 2205.94,2118.96 2206.08,2126.96Z" style="fill:rgb(189,208,251);fill-rule:nonzero;"/>
        <path d="M2587.3,3164.02C2587.3,3164.02 2591.96,3190.42 2594.25,3216.55C2595.14,3226.76 2587.27,3235.63 2577.02,3236.06C2542.22,3237.51 2467.79,3240.33 2441.08,3239.13C2437.06,3238.95 2434.44,3234.84 2435.92,3231.11C2437.17,3227.98 2439.57,3225.45 2442.63,3224.04L2565.58,3167.53L2587.3,3164.02Z" style="fill:url(#_Linear25);"/>
        <path d="M2591.12,3148.51L2587.37,3180.09C2587.37,3180.09 2565.83,3190.11 2551.12,3178.82L2560.04,3143.64L2591.12,3148.51Z" style="fill:url(#_Linear26);"/>
        <path d="M2588.3,2554.89C2589.92,2563.14 2596.99,2966.37 2553.88,3147.07C2553.18,3150.02 2554.68,3153.06 2557.48,3154.21C2564.09,3156.91 2577.05,3160.82 2592.58,3161.34C2597.4,3161.5 2601.71,3158.37 2603.07,3153.76C2615.39,3111.83 2674.42,2901.77 2682.13,2701.11C2690.73,2476.89 2682.13,2693.48 2682.13,2693.48L2677.08,2554.88L2588.3,2554.89Z" style="fill:url(#_Linear27);"/>
        <path d="M2728.73,3177.79C2728.73,3177.79 2736.16,3191.12 2743.34,3226.53C2744.64,3232.93 2740.17,3239.05 2733.68,3239.69C2722.19,3240.82 2704.5,3242.27 2690.33,3242.17C2683.8,3242.13 2678.7,3236.44 2679.49,3229.96C2681.06,3217.03 2685.94,3195.82 2701.05,3179.29L2728.73,3177.79Z" style="fill:url(#_Linear28);"/>
        <path d="M2735.25,3137.18L2726.5,3184.93C2726.5,3184.93 2717.84,3191.37 2700.72,3186.7L2704.9,3135.33L2735.25,3137.18Z" style="fill:url(#_Linear29);"/>
        <path d="M2758.9,2567.27C2794.15,2780.01 2751.25,3093.09 2736.79,3154.37C2735.9,3158.12 2732.87,3160.99 2729.07,3161.62C2722.61,3162.69 2711.98,3163.57 2701.5,3160.52C2697.89,3159.47 2695.35,3156.22 2695.2,3152.46C2693.26,3102.92 2696.75,2798.79 2663.91,2678.6C2662.24,2672.5 2658.52,2667.19 2653.38,2663.53L2589.62,2618.21L2584.74,2544.95L2758.9,2567.27Z" style="fill:url(#_Linear30);"/>
        <path d="M2534.27,2164.15C2639.92,2162.41 2756.48,2191.89 2756.48,2191.89C2787.97,2375.63 2761.99,2587.57 2761.99,2587.57C2680.2,2609.02 2587.94,2574.46 2587.94,2574.46C2574.35,2497.66 2510.93,2281.51 2510.93,2281.51C2459.31,2275.11 2416.79,2260.21 2381.77,2240.53C2408.48,2209.57 2421.07,2170.17 2426.54,2146.88C2463.89,2158.49 2501.69,2164.69 2534.27,2164.15Z" style="fill:url(#_Linear31);"/>
        <path d="M2222.22,2008.54C2232.6,1996.01 2245.74,2001.94 2245.74,2001.94C2261.28,2067.61 2342.8,2120.85 2426.54,2146.88C2421.07,2170.17 2408.48,2209.57 2381.77,2240.53C2242.79,2162.38 2222.22,2008.54 2222.22,2008.54Z" style="fill:url(#_Linear32);"/>
        <path d="M2224.74,2011.73C2223.66,2015.18 2236.23,2020.44 2243.63,2006.32C2243.89,1999.55 2248.01,1970.57 2243.97,1965.05C2222.43,1935.69 2180.68,1898.89 2180.68,1898.89C2173.62,1905.85 2179.44,1912.69 2179.44,1912.69L2199.69,1933.79C2195.45,1941.45 2190.29,1947.91 2187.86,1957.17C2186.03,1964.18 2187.15,1971.68 2190.69,1978.06C2194.25,1984.46 2199.1,1992.79 2203.69,1999.31C2212.37,2011.64 2224.74,2011.73 2224.74,2011.73Z" style="fill:url(#_Linear33);"/>
        <path d="M2208.55,1947.48L2227.01,1963.13L2232.8,1978.71L2216.34,1996.96C2216.34,1996.96 2210.81,1966.05 2206.7,1959.36C2202.59,1952.67 2204.72,1949.44 2208.55,1947.48Z" style="fill:url(#_Linear34);"/>
        <path d="M2715.96,2294.18L2756.48,2191.89C2756.48,2191.89 2855.16,2258.94 2871.39,2343.94C2852.74,2345.32 2818.82,2350.17 2785.61,2366.93C2778.31,2326.8 2715.96,2294.18 2715.96,2294.18Z" style="fill:url(#_Linear35);"/>
        <path d="M2629.73,2390.44C2629.73,2390.44 2740.52,2453.05 2777.9,2399.59C2785.66,2388.49 2787.52,2377.45 2785.61,2366.93C2818.82,2350.17 2852.74,2345.32 2871.39,2343.94C2876.28,2369.57 2873.69,2396.83 2858.64,2424.37C2793.16,2544.16 2615.07,2417.75 2615.07,2417.75L2629.73,2390.44Z" style="fill:url(#_Linear36);"/>
        <path d="M2643.04,2469.65L2582.58,2258.49C2581.89,2256.1 2579.85,2254.35 2577.37,2254.06C2566.42,2252.78 2534.67,2249.19 2498.02,2246.09C2453.87,2242.36 2402.6,2239.33 2371.97,2241.91C2367.61,2242.27 2364.98,2246.88 2366.92,2250.8C2384.34,2286.04 2456,2429.42 2491.89,2476.39C2493.08,2477.94 2494.91,2478.85 2496.87,2478.83L2637.16,2477.53C2641.24,2477.49 2644.17,2473.57 2643.04,2469.65Z" style="fill:url(#_Linear37);"/>
        <path d="M2491.75,2227.79L2447.91,2220.48C2445.58,2220.09 2443.66,2222.33 2444.4,2224.57L2448.74,2237.72C2449.12,2238.87 2450.12,2239.7 2451.32,2239.86L2493.5,2245.49C2495.68,2245.78 2497.48,2243.8 2496.98,2241.65L2494.29,2230.17C2494,2228.94 2493,2228 2491.75,2227.79Z" style="fill:rgb(125,151,244);fill-rule:nonzero;"/>
        <path d="M2524.57,2264.9L2520.96,2246.09C2520.6,2244.2 2519.04,2242.78 2517.13,2242.58L2428.59,2233.6C2425.61,2233.29 2423.22,2236.03 2423.92,2238.94L2429.55,2262.38C2430,2264.25 2431.63,2265.61 2433.56,2265.71L2520.08,2270.06C2522.9,2270.2 2525.1,2267.67 2524.57,2264.9Z" style="fill:rgb(125,151,244);fill-rule:nonzero;"/>
        <path d="M2628.43,2418.63C2628.43,2418.63 2636.86,2384 2633.46,2371.71C2630.06,2359.43 2623.48,2343.63 2601.54,2347.14C2579.59,2350.65 2553.71,2359.89 2553.71,2359.89C2553.71,2359.89 2555.02,2375.9 2571.7,2370.73L2561.35,2378.74C2561.35,2378.74 2562.83,2391.55 2576.92,2384.7L2567.3,2395.32C2567.3,2395.32 2573.35,2405.84 2583.71,2399.09C2594.08,2392.34 2599.04,2422.81 2628.43,2418.63Z" style="fill:url(#_Linear38);"/>
        <path d="M2641.28,2078.38L2674.9,2175.59C2675.45,2177.21 2674.79,2178.99 2673.3,2179.81C2664.14,2184.88 2631.13,2199.52 2591.34,2174.3C2587.2,2171.67 2584.38,2167.39 2583.75,2162.52L2572.86,2078.38L2641.28,2078.38Z" style="fill:url(#_Linear39);"/>
        <path d="M2568.14,1988.37C2568.14,1988.37 2531.23,2057.85 2535.96,2085.92C2540.69,2113.98 2586.44,2111.97 2626.39,2089.17L2654.3,2014.15L2568.14,1988.37Z" style="fill:url(#_Linear40);"/>
        <path d="M2624.62,2052.33C2623,2051.61 2622.4,2049.62 2623.37,2048.14C2626.33,2043.62 2631.87,2034.4 2633.64,2026.33C2633.64,2026.33 2640.28,2022.08 2616.75,2016.45C2593.23,2010.82 2558.15,2002.08 2550.77,1982.06C2543.58,1962.54 2562.47,1913.44 2592.61,1952.56C2593.76,1954.05 2596,1954.08 2597.15,1952.59C2602.09,1946.16 2615.08,1932.81 2633.11,1940.9C2649.98,1948.48 2651.88,1960.84 2651.65,1967.07C2651.58,1968.91 2653.22,1970.33 2655.03,1969.99C2663.56,1968.36 2684.03,1966.96 2693.59,1987.97C2701.46,2005.27 2696.34,2015.06 2691.68,2019.85C2690.17,2021.4 2690.84,2023.96 2692.91,2024.59C2698.51,2026.31 2705.75,2031.06 2705.03,2044.2C2704.03,2062.36 2683.72,2060.76 2677.94,2059.93C2676.99,2059.8 2676.04,2060.12 2675.4,2060.83C2670.44,2066.32 2648.11,2089.61 2623.93,2092.42C2621.84,2092.66 2620.22,2090.59 2620.9,2088.6L2631.37,2058.19C2631.85,2056.78 2631.18,2055.23 2629.81,2054.63L2624.62,2052.33Z" style="fill:url(#_Linear41);"/>
        <path d="M2620.42,2056.64C2620.42,2056.64 2646.7,2038.61 2648.62,2053.8C2650.54,2068.98 2624.95,2075.79 2612.28,2070.13L2620.42,2056.64Z" style="fill:url(#_Linear42);"/>
        <path d="M485.455,3087.71L1309.07,3087.72L1309.07,2849.04L485.455,2849.04C503.083,2849.04 503.083,3087.71 485.455,3087.71Z" style="fill:rgb(145,179,250);fill-rule:nonzero;"/>
        <path d="M1309.07,3027.99L1309.07,2918.76C1309.07,2880.25 1292.8,2849.04 1272.72,2849.04L488.927,2849.04C473.138,2849.04 460.339,2830.5 460.339,2807.64C460.339,2800.7 464.228,2795.07 469.025,2795.07L1325.65,2795.07C1345.29,2795.07 1376.48,2839.79 1376.48,2894.95L1376.48,3047.51C1376.48,3099.52 1346.2,3141.68 1327.68,3141.68L473.531,3141.68C466.245,3141.68 460.339,3133.13 460.339,3122.58C460.339,3103.33 471.12,3087.71 484.42,3087.71L1277.93,3087.71C1295.13,3087.71 1309.07,3060.97 1309.07,3027.99Z" style="fill:url(#_Linear43);"/>
        <path d="M1286.23,2900.64L513.977,2900.64C512.52,2900.64 511.341,2899.47 511.341,2898.01C511.341,2896.55 512.52,2895.37 513.977,2895.37L1286.23,2895.37C1287.69,2895.37 1288.87,2896.55 1288.87,2898.01C1288.87,2899.47 1287.69,2900.64 1286.23,2900.64Z" style="fill:white;fill-rule:nonzero;"/>
        <path d="M1286.23,2936.07L513.977,2936.07C512.52,2936.07 511.341,2934.89 511.341,2933.44C511.341,2931.98 512.52,2930.8 513.977,2930.8L1286.23,2930.8C1287.69,2930.8 1288.87,2931.98 1288.87,2933.44C1288.87,2934.89 1287.69,2936.07 1286.23,2936.07Z" style="fill:white;fill-rule:nonzero;"/>
        <path d="M1286.23,2971.5L513.977,2971.5C512.52,2971.5 511.341,2970.32 511.341,2968.86C511.341,2967.41 512.52,2966.23 513.977,2966.23L1286.23,2966.23C1287.69,2966.23 1288.87,2967.41 1288.87,2968.86C1288.87,2970.32 1287.69,2971.5 1286.23,2971.5Z" style="fill:white;fill-rule:nonzero;"/>
        <path d="M1286.23,3006.93L513.977,3006.93C512.52,3006.93 511.341,3005.75 511.341,3004.29C511.341,3002.84 512.52,3001.66 513.977,3001.66L1286.23,3001.66C1287.69,3001.66 1288.87,3002.84 1288.87,3004.29C1288.87,3005.75 1287.69,3006.93 1286.23,3006.93Z" style="fill:white;fill-rule:nonzero;"/>
        <path d="M1286.23,3042.36L513.977,3042.36C512.52,3042.36 511.341,3041.18 511.341,3039.72C511.341,3038.26 512.52,3037.09 513.977,3037.09L1286.23,3037.09C1287.69,3037.09 1288.87,3038.26 1288.87,3039.72C1288.87,3041.18 1287.69,3042.36 1286.23,3042.36Z" style="fill:white;fill-rule:nonzero;"/>
        <path d="M1417.66,2540.87L522.601,2540.87C515.987,2540.87 510.627,2535.51 510.627,2528.9L510.627,2366.26C510.627,2359.65 515.987,2354.29 522.601,2354.29L1417.66,2354.29C1424.28,2354.29 1429.64,2359.65 1429.64,2366.26L1429.64,2528.9C1429.64,2535.51 1424.28,2540.87 1417.66,2540.87Z" style="fill:url(#_Linear44);"/>
        <path d="M697.854,2519.43L639.086,2519.43C625.501,2519.43 614.489,2508.41 614.489,2494.83L614.489,2400.33C614.489,2386.74 625.501,2375.73 639.086,2375.73L697.854,2375.73C711.438,2375.73 722.452,2386.74 722.452,2400.33L722.452,2494.83C722.452,2508.41 711.438,2519.43 697.854,2519.43Z" style="fill:rgb(125,151,244);fill-rule:nonzero;"/>
        <path d="M1377.04,2797.87L465.692,2797.87C457.521,2797.87 450.896,2791.25 450.896,2783.08L450.896,2554.57C450.896,2546.4 457.521,2539.78 465.692,2539.78L1377.04,2539.78C1385.21,2539.78 1391.83,2546.4 1391.83,2554.57L1391.83,2783.08C1391.83,2791.25 1385.21,2797.87 1377.04,2797.87Z" style="fill:url(#_Linear45);"/>
        <path d="M1475.53,2661.22C1446.86,2654.59 1420.29,2643.03 1395.85,2626.41C1382.17,2617.1 1369.15,2606.21 1356.82,2593.71L1360.61,2589.74L1377.74,2571.8C1382.54,2566.78 1382.11,2558.75 1376.79,2554.27C1360.93,2540.91 1335.87,2520.51 1308.96,2496.3C1276.09,2387.36 1236.61,2304.03 1221.72,2275.64C1220.12,2272.6 1217.9,2270.02 1215.25,2268.02L1232.09,2245.59C1244.88,2265.52 1263.35,2295.94 1284.39,2331.27C1358.48,2455.69 1464.23,2640.76 1464.51,2640.87L1475.53,2661.22Z" style="fill:url(#_Linear46);"/>
        <path d="M1368.92,2581.89C1368.92,2581.89 1355.57,2586.2 1351.05,2598.09C1348.88,2603.78 1351.22,2610.23 1356.16,2613.77C1378.15,2629.52 1450.68,2680.38 1484.14,2690.34C1486.89,2691.16 1489.5,2688.67 1488.88,2685.88C1487.16,2678.1 1481.61,2662.58 1463.71,2639.85L1465.31,2643.1C1467.35,2647.21 1462.87,2651.49 1458.88,2649.23C1436.49,2636.6 1390.9,2608.94 1368.92,2581.89Z" style="fill:url(#_Linear47);"/>
        <path d="M1386.38,2756.61C1344.66,2737.44 1310.37,2707.52 1283.78,2666.48L1308.7,2649.26C1314.42,2645.31 1315.62,2637.36 1311.32,2631.9C1295.69,2612.05 1268.8,2579.21 1242.49,2541.77C1197.45,2477.69 1154.1,2400.16 1171.77,2351.34L1126.9,2366.39C1133.32,2325.54 1138.77,2301.35 1158.49,2281.13L1195.73,2282.75C1195.97,2282.76 1196.2,2282.76 1196.44,2282.76C1200.41,2282.76 1204.26,2281.32 1207.25,2278.69L1215.25,2268.02C1217.9,2270.02 1220.12,2272.6 1221.72,2275.64C1236.61,2304.03 1276.09,2387.36 1308.96,2496.3C1313.82,2512.42 1318.54,2529.11 1323.01,2546.25C1328.2,2566.13 1333.05,2586.66 1337.42,2607.65C1340.67,2623.28 1343.65,2639.18 1346.3,2655.28C1346.66,2655.52 1379.33,2734.22 1379.7,2734.46L1386.38,2756.61Z" style="fill:url(#_Linear48);"/>
        <path d="M1298.03,2657.35C1298.03,2657.35 1284.08,2658.87 1277.24,2669.6C1273.97,2674.74 1274.95,2681.52 1279.08,2685.99C1297.42,2705.87 1358.16,2770.35 1388.92,2786.88C1391.44,2788.23 1394.49,2786.33 1394.46,2783.47C1394.35,2775.5 1392.05,2759.18 1379.12,2733.3L1380.04,2736.8C1381.19,2741.24 1375.95,2744.52 1372.49,2741.51C1353.13,2724.6 1314.07,2688.29 1298.03,2657.35Z" style="fill:url(#_Linear49);"/>
        <path d="M928.94,2406.59C916.74,2406.59 903.963,2406.25 890.624,2405.52C884.89,2405.2 879.021,2404.81 873.076,2404.34C872.148,2404.26 871.232,2404.19 870.299,2404.11C869.277,2404.03 868.265,2403.94 867.267,2403.85C811.863,2398.87 792.856,2385.73 797.303,2348.97C799.337,2332.15 811.591,2306.33 824.473,2282.99C826.351,2279.58 828.243,2276.23 830.118,2272.97C844.008,2248.8 856.996,2229.48 856.996,2229.48C856.996,2229.48 870.283,2229.05 890.624,2228.55C918.398,2227.87 959.308,2227.06 997.502,2227.06C1005.95,2227.06 1014.26,2227.1 1022.27,2227.19L990.809,2254.36C987.625,2257.11 989.442,2262.34 993.646,2262.52L994.591,2262.56L990.809,2265.83C987.625,2268.58 989.442,2273.81 993.646,2273.99L1158.49,2281.13C1138.77,2301.35 1133.32,2325.54 1126.9,2366.39C1126.87,2366.53 1126.85,2366.68 1126.83,2366.82C1126.83,2366.82 1108.9,2377.72 1072.8,2388.11C1059.76,2391.86 1044.35,2395.55 1026.55,2398.63C999.522,2403.31 967.005,2406.59 928.94,2406.59Z" style="fill:url(#_Linear50);"/>
        <path d="M1238.8,2236.64L1234.4,2236.52L1237.11,2233.46L1277.12,2210.65C1280.24,2207.37 1278.06,2201.95 1273.54,2201.75L1054.95,2191.82L1055.05,2191.65L1277.43,2201.75C1281.94,2201.95 1284.12,2207.37 1281.01,2210.65L1238.8,2236.64Z" style="fill:url(#_Linear51);"/>
        <path d="M1034.48,2221.06L1051.16,2191.65L1273.54,2201.75C1278.06,2201.95 1280.24,2207.37 1277.12,2210.65L1237.11,2233.46L1034.48,2221.06Z" style="fill:rgb(145,179,250);fill-rule:nonzero;"/>
        <path d="M1196.44,2282.76C1196.2,2282.76 1195.97,2282.76 1195.73,2282.75L1158.49,2281.13L993.646,2273.99C989.442,2273.81 987.625,2268.58 990.809,2265.83L994.591,2262.56L1195.73,2271.28C1195.97,2271.29 1196.21,2271.29 1196.44,2271.29C1200.41,2271.29 1204.26,2269.85 1207.25,2267.22L1234.4,2236.52L1238.8,2236.64L1232.09,2245.59L1215.25,2268.02L1207.25,2278.69C1204.26,2281.32 1200.41,2282.76 1196.44,2282.76Z" style="fill:url(#_Linear52);"/>
        <path d="M1035.15,2219.87L1031.02,2219.63L1041.27,2202.27C1042.5,2199.8 1045.65,2197.17 1048.94,2195.56L1035.15,2219.87Z" style="fill:rgb(195,213,252);fill-rule:nonzero;"/>
        <path d="M1235.64,2231.38L1035.15,2219.87L1048.94,2195.56C1050.86,2194.63 1052.82,2194.05 1054.47,2194.05C1054.58,2194.05 1054.68,2194.05 1054.78,2194.06L1272.54,2205.18C1274.68,2205.29 1275.49,2208.03 1273.75,2209.29L1235.64,2231.38Z" style="fill:rgb(195,213,252);fill-rule:nonzero;"/>
        <path d="M993.646,2262.52L1195.73,2271.28C1199.95,2271.46 1204.08,2270.01 1207.25,2267.22L1237.11,2233.46L1031.02,2219.63L990.809,2254.36C987.625,2257.11 989.442,2262.34 993.646,2262.52Z" style="fill:rgb(145,179,250);fill-rule:nonzero;"/>
        <path d="M1198.98,2264.02C1198.76,2264.02 1198.53,2264.01 1198.3,2264L1003.6,2256.48C999.545,2256.32 997.794,2251.83 1000.86,2249.47L1031.02,2219.63L1232.98,2233.99L1209.4,2260.52C1206.52,2262.78 1202.81,2264.02 1198.98,2264.02Z" style="fill:rgb(195,213,252);fill-rule:nonzero;"/>
        <path d="M1076.98,1769.77C1076.98,1769.77 1038.56,1724.31 997.711,1780.08C990.313,1790.19 961.896,1781.85 951.479,1803C946.101,1813.91 934.483,1820.12 922.515,1817.91C892.707,1812.41 843.985,1811.95 819.93,1858.66C801.568,1894.31 815.745,1915.18 834.099,1927.08C847.58,1935.81 852.392,1953.55 844.24,1967.39C836.42,1980.67 834.951,1998.65 855.14,2020.29C900.383,2068.78 989.944,1989.52 989.944,1989.52L1061.06,1821.48L1076.98,1769.77Z" style="fill:url(#_Linear53);"/>
        <path d="M1006.19,2218.62C1006.19,2218.62 1070.43,2157.45 1102.05,2116.93C1119.15,2095.03 1124.52,2066.2 1116.61,2039.57C1102.17,1990.92 1076.52,1940.55 1074.18,1932.71C1070.59,1920.69 998.557,1921.19 998.557,1921.19C998.557,1921.19 856.813,2013.18 801.121,2169.01L863.666,2188.48C863.666,2188.48 900.676,2126.39 937.243,2086.92C937.243,2086.92 873.968,2170.51 871.74,2204.73L1006.19,2218.62Z" style="fill:url(#_Linear54);"/>
        <path d="M1128.59,2242.76L1080.32,2190.24L1024.57,2205.25C1024.57,2205.25 959.578,2215.32 922.379,2205.25L885.181,2195.18L801.121,2169.01L787.918,2206.32C784.566,2215.8 787.935,2226.31 796.125,2232.13C803.398,2237.3 811.922,2242.98 817.356,2245.36C828.426,2250.2 1072.36,2246.89 1072.36,2246.89L1128.59,2242.76Z" style="fill:url(#_Linear55);"/>
        <path d="M1048.06,1834.58L999.65,1924.61C1002.85,1944.26 1052.34,1944.81 1059.99,1933.08C1060.77,1931.88 1061.21,1930.5 1061.51,1929.11L1090.47,1868.96C1091.71,1863.09 1075.63,1843.33 1070.34,1840.51L1051.09,1830.27C1043.69,1826.32 1074.6,1826.01 1048.06,1834.58Z" style="fill:url(#_Linear56);"/>
        <path d="M1146.04,1813.45C1146.04,1813.45 1151.51,1843.87 1127.6,1882.54C1103.7,1921.21 1079.89,1919.47 1067.79,1905.67C1055.7,1891.88 1041.21,1868.91 1047.81,1830.34C1054.4,1791.77 1137.78,1774.67 1146.04,1813.45Z" style="fill:url(#_Linear57);"/>
        <path d="M1076.75,1834.53C1076.75,1834.53 1115.45,1783.69 1145.17,1828.01L1144.67,1843.32C1144.67,1843.32 1183.32,1841.52 1179.13,1805.9C1174.94,1770.28 1143.39,1745.94 1099.65,1758.11C1055.91,1770.28 1030.35,1784.14 1025.41,1814.51C1020.47,1844.88 1045.27,1839.92 1045.27,1839.92C1045.27,1839.92 1054.74,1818.96 1066.17,1817.53C1077.61,1816.1 1073.48,1832.68 1073.48,1832.68L1076.75,1834.53Z" style="fill:url(#_Linear58);"/>
        <path d="M1067.86,1833.18C1067.86,1833.18 1087.91,1807.16 1069.66,1801.76C1051.41,1796.36 1052.09,1827.25 1053.28,1838.75L1067.86,1833.18Z" style="fill:url(#_Linear59);"/>
    </g>
    <defs>
        <linearGradient id="_Linear1" x1="0" y1="0" x2="1" y2="0" gradientUnits="userSpaceOnUse" gradientTransform="matrix(-2528.3,-3139.98,3139.98,-2528.3,3632.49,4088.95)"><stop offset="0" style="stop-color:rgb(218,226,253);stop-opacity:1"/><stop offset="1" style="stop-color:rgb(232,239,253);stop-opacity:1"/></linearGradient>
        <linearGradient id="_Linear2" x1="0" y1="0" x2="1" y2="0" gradientUnits="userSpaceOnUse" gradientTransform="matrix(204.467,0,0,204.467,1282.61,1048.56)"><stop offset="0" style="stop-color:rgb(79,82,255);stop-opacity:1"/><stop offset="1" style="stop-color:rgb(63,66,226);stop-opacity:1"/></linearGradient>
        <linearGradient id="_Linear3" x1="0" y1="0" x2="1" y2="0" gradientUnits="userSpaceOnUse" gradientTransform="matrix(180.568,0,0,180.568,1463.52,1066.16)"><stop offset="0" style="stop-color:rgb(79,82,255);stop-opacity:1"/><stop offset="1" style="stop-color:rgb(63,66,226);stop-opacity:1"/></linearGradient>
        <linearGradient id="_Linear4" x1="0" y1="0" x2="1" y2="0" gradientUnits="userSpaceOnUse" gradientTransform="matrix(180.568,0,0,180.568,2302.78,1066.16)"><stop offset="0" style="stop-color:rgb(79,82,255);stop-opacity:1"/><stop offset="1" style="stop-color:rgb(63,66,226);stop-opacity:1"/></linearGradient>
        <linearGradient id="_Linear5" x1="0" y1="0" x2="1" y2="0" gradientUnits="userSpaceOnUse" gradientTransform="matrix(180.568,0,0,180.568,1097.12,1066.16)"><stop offset="0" style="stop-color:rgb(79,82,255);stop-opacity:1"/><stop offset="1" style="stop-color:rgb(63,66,226);stop-opacity:1"/></linearGradient>
        <linearGradient id="_Linear6" x1="0" y1="0" x2="1" y2="0" gradientUnits="userSpaceOnUse" gradientTransform="matrix(161.734,0,0,161.734,2495.48,1054.93)"><stop offset="0" style="stop-color:rgb(79,82,255);stop-opacity:1"/><stop offset="1" style="stop-color:rgb(63,66,226);stop-opacity:1"/></linearGradient>
        <linearGradient id="_Linear7" x1="0" y1="0" x2="1" y2="0" gradientUnits="userSpaceOnUse" gradientTransform="matrix(288.781,0,0,288.781,1824.93,1057.8)"><stop offset="0" style="stop-color:rgb(79,82,255);stop-opacity:1"/><stop offset="1" style="stop-color:rgb(63,66,226);stop-opacity:1"/></linearGradient>
        <linearGradient id="_Linear8" x1="0" y1="0" x2="1" y2="0" gradientUnits="userSpaceOnUse" gradientTransform="matrix(204.077,0,0,204.077,2863.07,1048.56)"><stop offset="0" style="stop-color:rgb(79,82,255);stop-opacity:1"/><stop offset="1" style="stop-color:rgb(63,66,226);stop-opacity:1"/></linearGradient>
        <linearGradient id="_Linear9" x1="0" y1="0" x2="1" y2="0" gradientUnits="userSpaceOnUse" gradientTransform="matrix(195.509,0,0,195.509,2896.12,2658.1)"><stop offset="0" style="stop-color:rgb(79,82,255);stop-opacity:1"/><stop offset="1" style="stop-color:rgb(63,66,226);stop-opacity:1"/></linearGradient>
        <linearGradient id="_Linear10" x1="0" y1="0" x2="1" y2="0" gradientUnits="userSpaceOnUse" gradientTransform="matrix(182.245,-333.068,-333.068,-182.245,2536.86,2261.82)"><stop offset="0" style="stop-color:rgb(253,244,63);stop-opacity:1"/><stop offset="1" style="stop-color:rgb(216,59,100);stop-opacity:1"/></linearGradient>
        <linearGradient id="_Linear11" x1="0" y1="0" x2="1" y2="0" gradientUnits="userSpaceOnUse" gradientTransform="matrix(182.244,-333.067,-333.067,-182.244,2500.7,2281.6)"><stop offset="0" style="stop-color:rgb(253,244,63);stop-opacity:1"/><stop offset="1" style="stop-color:rgb(216,59,100);stop-opacity:1"/></linearGradient>
        <linearGradient id="_Linear12" x1="0" y1="0" x2="1" y2="0" gradientUnits="userSpaceOnUse" gradientTransform="matrix(172.657,0,0,172.657,1943.5,2674.92)"><stop offset="0" style="stop-color:rgb(79,82,255);stop-opacity:1"/><stop offset="1" style="stop-color:rgb(63,66,226);stop-opacity:1"/></linearGradient>
        <linearGradient id="_Linear13" x1="0" y1="0" x2="1" y2="0" gradientUnits="userSpaceOnUse" gradientTransform="matrix(154.648,0,0,154.648,1777.25,2664.19)"><stop offset="0" style="stop-color:rgb(79,82,255);stop-opacity:1"/><stop offset="1" style="stop-color:rgb(63,66,226);stop-opacity:1"/></linearGradient>
        <linearGradient id="_Linear14" x1="0" y1="0" x2="1" y2="0" gradientUnits="userSpaceOnUse" gradientTransform="matrix(276.129,0,0,276.129,2296.95,2666.93)"><stop offset="0" style="stop-color:rgb(79,82,255);stop-opacity:1"/><stop offset="1" style="stop-color:rgb(63,66,226);stop-opacity:1"/></linearGradient>
        <linearGradient id="_Linear15" x1="0" y1="0" x2="1" y2="0" gradientUnits="userSpaceOnUse" gradientTransform="matrix(195.509,0,0,195.509,1402.07,2651.77)"><stop offset="0" style="stop-color:rgb(79,82,255);stop-opacity:1"/><stop offset="1" style="stop-color:rgb(63,66,226);stop-opacity:1"/></linearGradient>
        <linearGradient id="_Linear16" x1="0" y1="0" x2="1" y2="0" gradientUnits="userSpaceOnUse" gradientTransform="matrix(104.411,-180.194,-180.194,-104.411,989.433,2371.24)"><stop offset="0" style="stop-color:rgb(253,244,63);stop-opacity:1"/><stop offset="1" style="stop-color:rgb(216,59,100);stop-opacity:1"/></linearGradient>
        <linearGradient id="_Linear17" x1="0" y1="0" x2="1" y2="0" gradientUnits="userSpaceOnUse" gradientTransform="matrix(-182.245,377.058,-377.058,-182.245,1251.86,2294.4)"><stop offset="0" style="stop-color:rgb(253,244,63);stop-opacity:1"/><stop offset="1" style="stop-color:rgb(216,59,100);stop-opacity:1"/></linearGradient>
        <linearGradient id="_Linear18" x1="0" y1="0" x2="1" y2="0" gradientUnits="userSpaceOnUse" gradientTransform="matrix(-182.245,377.058,-377.058,-182.245,1283.52,2309.7)"><stop offset="0" style="stop-color:rgb(253,244,63);stop-opacity:1"/><stop offset="1" style="stop-color:rgb(216,59,100);stop-opacity:1"/></linearGradient>
        <linearGradient id="_Linear19" x1="0" y1="0" x2="1" y2="0" gradientUnits="userSpaceOnUse" gradientTransform="matrix(288.782,0,0,288.782,1397.4,1928.13)"><stop offset="0" style="stop-color:rgb(79,82,255);stop-opacity:1"/><stop offset="1" style="stop-color:rgb(63,66,226);stop-opacity:1"/></linearGradient>
        <linearGradient id="_Linear20" x1="0" y1="0" x2="1" y2="0" gradientUnits="userSpaceOnUse" gradientTransform="matrix(204.077,0,0,204.077,2654.11,1923.81)"><stop offset="0" style="stop-color:rgb(79,82,255);stop-opacity:1"/><stop offset="1" style="stop-color:rgb(63,66,226);stop-opacity:1"/></linearGradient>
        <linearGradient id="_Linear21" x1="0" y1="0" x2="1" y2="0" gradientUnits="userSpaceOnUse" gradientTransform="matrix(188.482,0,0,188.482,2863.81,1890.91)"><stop offset="0" style="stop-color:rgb(79,82,255);stop-opacity:1"/><stop offset="1" style="stop-color:rgb(63,66,226);stop-opacity:1"/></linearGradient>
        <linearGradient id="_Linear22" x1="0" y1="0" x2="1" y2="0" gradientUnits="userSpaceOnUse" gradientTransform="matrix(301.438,0,0,301.438,1088.65,1875.39)"><stop offset="0" style="stop-color:rgb(79,82,255);stop-opacity:1"/><stop offset="1" style="stop-color:rgb(63,66,226);stop-opacity:1"/></linearGradient>
        <linearGradient id="_Linear23" x1="0" y1="0" x2="1" y2="0" gradientUnits="userSpaceOnUse" gradientTransform="matrix(576.549,764.655,-764.655,576.549,1553.34,1379.78)"><stop offset="0" style="stop-color:rgb(255,145,142);stop-opacity:1"/><stop offset="1" style="stop-color:rgb(253,112,98);stop-opacity:1"/></linearGradient>
        <linearGradient id="_Linear24" x1="0" y1="0" x2="1" y2="0" gradientUnits="userSpaceOnUse" gradientTransform="matrix(-359.245,59.5543,-59.5543,-359.245,2812.93,1753.1)"><stop offset="0" style="stop-color:rgb(255,145,142);stop-opacity:1"/><stop offset="1" style="stop-color:rgb(253,112,98);stop-opacity:1"/></linearGradient>
        <linearGradient id="_Linear25" x1="0" y1="0" x2="1" y2="0" gradientUnits="userSpaceOnUse" gradientTransform="matrix(450.252,-489.748,-489.748,-450.252,2444.97,3127.54)"><stop offset="0" style="stop-color:rgb(8,0,93);stop-opacity:1"/><stop offset="1" style="stop-color:rgb(26,14,144);stop-opacity:1"/></linearGradient>
        <linearGradient id="_Linear26" x1="0" y1="0" x2="1" y2="0" gradientUnits="userSpaceOnUse" gradientTransform="matrix(-39.9936,0,0,39.9936,2591.12,3163.91)"><stop offset="0" style="stop-color:rgb(253,186,186);stop-opacity:1"/><stop offset="1" style="stop-color:rgb(255,145,142);stop-opacity:1"/></linearGradient>
        <linearGradient id="_Linear27" x1="0" y1="0" x2="1" y2="0" gradientUnits="userSpaceOnUse" gradientTransform="matrix(-971.44,1637.19,-1637.19,-971.44,2898.41,2344.45)"><stop offset="0" style="stop-color:rgb(8,0,93);stop-opacity:1"/><stop offset="1" style="stop-color:rgb(26,14,144);stop-opacity:1"/></linearGradient>
        <linearGradient id="_Linear28" x1="0" y1="0" x2="1" y2="0" gradientUnits="userSpaceOnUse" gradientTransform="matrix(450.252,-489.748,-489.748,-450.252,2545.98,3034.68)"><stop offset="0" style="stop-color:rgb(8,0,93);stop-opacity:1"/><stop offset="1" style="stop-color:rgb(26,14,144);stop-opacity:1"/></linearGradient>
        <linearGradient id="_Linear29" x1="0" y1="0" x2="1" y2="0" gradientUnits="userSpaceOnUse" gradientTransform="matrix(-34.5308,0,0,34.5308,2735.25,3161.86)"><stop offset="0" style="stop-color:rgb(253,186,186);stop-opacity:1"/><stop offset="1" style="stop-color:rgb(255,145,142);stop-opacity:1"/></linearGradient>
        <linearGradient id="_Linear30" x1="0" y1="0" x2="1" y2="0" gradientUnits="userSpaceOnUse" gradientTransform="matrix(-971.439,1637.18,-1637.18,-971.439,2944.55,2371.82)"><stop offset="0" style="stop-color:rgb(8,0,93);stop-opacity:1"/><stop offset="1" style="stop-color:rgb(26,14,144);stop-opacity:1"/></linearGradient>
        <linearGradient id="_Linear31" x1="0" y1="0" x2="1" y2="0" gradientUnits="userSpaceOnUse" gradientTransform="matrix(215.121,-258.145,-258.145,-215.121,-10256,-13130.7)"><stop offset="0" style="stop-color:rgb(255,145,142);stop-opacity:1"/><stop offset="1" style="stop-color:rgb(253,112,98);stop-opacity:1"/></linearGradient>
        <linearGradient id="_Linear32" x1="0" y1="0" x2="1" y2="0" gradientUnits="userSpaceOnUse" gradientTransform="matrix(-204.32,0,0,204.32,2426.54,2120.53)"><stop offset="0" style="stop-color:rgb(253,186,186);stop-opacity:1"/><stop offset="1" style="stop-color:rgb(255,145,142);stop-opacity:1"/></linearGradient>
        <linearGradient id="_Linear33" x1="0" y1="0" x2="1" y2="0" gradientUnits="userSpaceOnUse" gradientTransform="matrix(137.104,311.942,-311.942,137.104,2267.74,2086.28)"><stop offset="0" style="stop-color:rgb(253,186,186);stop-opacity:1"/><stop offset="1" style="stop-color:rgb(255,145,142);stop-opacity:1"/></linearGradient>
        <linearGradient id="_Linear34" x1="0" y1="0" x2="1" y2="0" gradientUnits="userSpaceOnUse" gradientTransform="matrix(-57.2076,87.9568,87.9568,57.2076,2223.2,1982.4)"><stop offset="0" style="stop-color:rgb(253,186,186);stop-opacity:1"/><stop offset="1" style="stop-color:rgb(255,145,142);stop-opacity:1"/></linearGradient>
        <linearGradient id="_Linear35" x1="0" y1="0" x2="1" y2="0" gradientUnits="userSpaceOnUse" gradientTransform="matrix(215.122,-258.146,-258.146,-215.122,-10144.6,-13223.5)"><stop offset="0" style="stop-color:rgb(255,145,142);stop-opacity:1"/><stop offset="1" style="stop-color:rgb(253,112,98);stop-opacity:1"/></linearGradient>
        <linearGradient id="_Linear36" x1="0" y1="0" x2="1" y2="0" gradientUnits="userSpaceOnUse" gradientTransform="matrix(-258.569,0,0,258.569,2873.64,2409.95)"><stop offset="0" style="stop-color:rgb(253,186,186);stop-opacity:1"/><stop offset="1" style="stop-color:rgb(255,145,142);stop-opacity:1"/></linearGradient>
        <linearGradient id="_Linear37" x1="0" y1="0" x2="1" y2="0" gradientUnits="userSpaceOnUse" gradientTransform="matrix(-142.178,-592.408,-592.408,142.178,2536.84,2226.11)"><stop offset="0" style="stop-color:rgb(8,0,93);stop-opacity:1"/><stop offset="1" style="stop-color:rgb(26,14,144);stop-opacity:1"/></linearGradient>
        <linearGradient id="_Linear38" x1="0" y1="0" x2="1" y2="0" gradientUnits="userSpaceOnUse" gradientTransform="matrix(-80.5548,0,0,80.5548,2634.27,2382.83)"><stop offset="0" style="stop-color:rgb(253,186,186);stop-opacity:1"/><stop offset="1" style="stop-color:rgb(255,145,142);stop-opacity:1"/></linearGradient>
        <linearGradient id="_Linear39" x1="0" y1="0" x2="1" y2="0" gradientUnits="userSpaceOnUse" gradientTransform="matrix(-102.229,0,0,102.229,2675.09,2133.52)"><stop offset="0" style="stop-color:rgb(253,186,186);stop-opacity:1"/><stop offset="1" style="stop-color:rgb(255,145,142);stop-opacity:1"/></linearGradient>
        <linearGradient id="_Linear40" x1="0" y1="0" x2="1" y2="0" gradientUnits="userSpaceOnUse" gradientTransform="matrix(112.402,68.5569,68.5569,-112.402,2548.55,2068.48)"><stop offset="0" style="stop-color:rgb(253,186,186);stop-opacity:1"/><stop offset="1" style="stop-color:rgb(255,145,142);stop-opacity:1"/></linearGradient>
        <linearGradient id="_Linear41" x1="0" y1="0" x2="1" y2="0" gradientUnits="userSpaceOnUse" gradientTransform="matrix(-145.21,-114.691,-114.691,145.21,2720.45,1927.66)"><stop offset="0" style="stop-color:rgb(8,0,93);stop-opacity:1"/><stop offset="1" style="stop-color:rgb(26,14,144);stop-opacity:1"/></linearGradient>
        <linearGradient id="_Linear42" x1="0" y1="0" x2="1" y2="0" gradientUnits="userSpaceOnUse" gradientTransform="matrix(101.129,61.6815,61.6815,-101.129,2578.07,2094.05)"><stop offset="0" style="stop-color:rgb(253,186,186);stop-opacity:1"/><stop offset="1" style="stop-color:rgb(255,145,142);stop-opacity:1"/></linearGradient>
        <linearGradient id="_Linear43" x1="0" y1="0" x2="1" y2="0" gradientUnits="userSpaceOnUse" gradientTransform="matrix(-221.914,314.756,-314.756,-221.914,1768.79,1740.05)"><stop offset="0" style="stop-color:rgb(8,0,93);stop-opacity:1"/><stop offset="1" style="stop-color:rgb(26,14,144);stop-opacity:1"/></linearGradient>
        <linearGradient id="_Linear44" x1="0" y1="0" x2="1" y2="0" gradientUnits="userSpaceOnUse" gradientTransform="matrix(-220.264,1069.86,-1069.86,-220.264,1328.78,705.569)"><stop offset="0" style="stop-color:rgb(8,0,93);stop-opacity:1"/><stop offset="1" style="stop-color:rgb(26,14,144);stop-opacity:1"/></linearGradient>
        <linearGradient id="_Linear45" x1="0" y1="0" x2="1" y2="0" gradientUnits="userSpaceOnUse" gradientTransform="matrix(1212.99,-283.833,-283.833,-1212.99,-410.522,2357.17)"><stop offset="0" style="stop-color:rgb(79,82,255);stop-opacity:1"/><stop offset="1" style="stop-color:rgb(63,66,226);stop-opacity:1"/></linearGradient>
        <linearGradient id="_Linear46" x1="0" y1="0" x2="1" y2="0" gradientUnits="userSpaceOnUse" gradientTransform="matrix(-343.28,195.939,-195.939,-343.28,1516.7,2321.44)"><stop offset="0" style="stop-color:rgb(253,186,186);stop-opacity:1"/><stop offset="1" style="stop-color:rgb(255,145,142);stop-opacity:1"/></linearGradient>
        <linearGradient id="_Linear47" x1="0" y1="0" x2="1" y2="0" gradientUnits="userSpaceOnUse" gradientTransform="matrix(-154.626,-374.237,-374.237,154.626,1471.82,2517.36)"><stop offset="0" style="stop-color:rgb(8,0,93);stop-opacity:1"/><stop offset="1" style="stop-color:rgb(26,14,144);stop-opacity:1"/></linearGradient>
        <linearGradient id="_Linear48" x1="0" y1="0" x2="1" y2="0" gradientUnits="userSpaceOnUse" gradientTransform="matrix(1174.53,-735.275,735.275,1174.53,1483.49,2370.31)"><stop offset="0" style="stop-color:rgb(253,186,186);stop-opacity:1"/><stop offset="1" style="stop-color:rgb(255,145,142);stop-opacity:1"/></linearGradient>
        <linearGradient id="_Linear49" x1="0" y1="0" x2="1" y2="0" gradientUnits="userSpaceOnUse" gradientTransform="matrix(-227.157,-335.162,-335.162,227.157,1411.85,2614.99)"><stop offset="0" style="stop-color:rgb(8,0,93);stop-opacity:1"/><stop offset="1" style="stop-color:rgb(26,14,144);stop-opacity:1"/></linearGradient>
        <linearGradient id="_Linear50" x1="0" y1="0" x2="1" y2="0" gradientUnits="userSpaceOnUse" gradientTransform="matrix(687.788,-1013.85,1013.85,687.788,-15050.5,25965.6)"><stop offset="0" style="stop-color:rgb(255,145,142);stop-opacity:1"/><stop offset="1" style="stop-color:rgb(253,112,98);stop-opacity:1"/></linearGradient>
        <linearGradient id="_Linear51" x1="0" y1="0" x2="1" y2="0" gradientUnits="userSpaceOnUse" gradientTransform="matrix(-53.2142,19.8138,-19.8138,-53.2142,1357.38,2135.99)"><stop offset="0" style="stop-color:rgb(8,0,93);stop-opacity:1"/><stop offset="1" style="stop-color:rgb(26,14,144);stop-opacity:1"/></linearGradient>
        <linearGradient id="_Linear52" x1="0" y1="0" x2="1" y2="0" gradientUnits="userSpaceOnUse" gradientTransform="matrix(0.849189,59.7246,-59.7246,0.849189,1112.57,2152.7)"><stop offset="0" style="stop-color:rgb(8,0,93);stop-opacity:1"/><stop offset="1" style="stop-color:rgb(26,14,144);stop-opacity:1"/></linearGradient>
        <linearGradient id="_Linear53" x1="0" y1="0" x2="1" y2="0" gradientUnits="userSpaceOnUse" gradientTransform="matrix(-149.254,-172.305,-172.305,149.254,1135.81,1655.68)"><stop offset="0" style="stop-color:rgb(8,0,93);stop-opacity:1"/><stop offset="1" style="stop-color:rgb(26,14,144);stop-opacity:1"/></linearGradient>
        <linearGradient id="_Linear54" x1="0" y1="0" x2="1" y2="0" gradientUnits="userSpaceOnUse" gradientTransform="matrix(-384.953,212.857,-212.857,-384.953,1860.54,1595.39)"><stop offset="0" style="stop-color:rgb(255,145,142);stop-opacity:1"/><stop offset="1" style="stop-color:rgb(253,112,98);stop-opacity:1"/></linearGradient>
        <linearGradient id="_Linear55" x1="0" y1="0" x2="1" y2="0" gradientUnits="userSpaceOnUse" gradientTransform="matrix(-341.958,0,0,341.958,915.456,2208.5)"><stop offset="0" style="stop-color:rgb(253,186,186);stop-opacity:1"/><stop offset="1" style="stop-color:rgb(255,145,142);stop-opacity:1"/></linearGradient>
        <linearGradient id="_Linear56" x1="0" y1="0" x2="1" y2="0" gradientUnits="userSpaceOnUse" gradientTransform="matrix(-7.90447,123.173,123.173,7.90447,1054.64,2045.07)"><stop offset="0" style="stop-color:rgb(253,186,186);stop-opacity:1"/><stop offset="1" style="stop-color:rgb(255,145,142);stop-opacity:1"/></linearGradient>
        <linearGradient id="_Linear57" x1="0" y1="0" x2="1" y2="0" gradientUnits="userSpaceOnUse" gradientTransform="matrix(148.797,284.763,284.763,-148.797,1043,1940.85)"><stop offset="0" style="stop-color:rgb(253,186,186);stop-opacity:1"/><stop offset="1" style="stop-color:rgb(255,145,142);stop-opacity:1"/></linearGradient>
        <linearGradient id="_Linear58" x1="0" y1="0" x2="1" y2="0" gradientUnits="userSpaceOnUse" gradientTransform="matrix(-208.36,-41.8056,-41.8056,208.36,1228.91,1779.35)"><stop offset="0" style="stop-color:rgb(8,0,93);stop-opacity:1"/><stop offset="1" style="stop-color:rgb(26,14,144);stop-opacity:1"/></linearGradient>
        <linearGradient id="_Linear59" x1="0" y1="0" x2="1" y2="0" gradientUnits="userSpaceOnUse" gradientTransform="matrix(148.796,284.761,284.761,-148.796,1008.94,1923.05)"><stop offset="0" style="stop-color:rgb(253,186,186);stop-opacity:1"/><stop offset="1" style="stop-color:rgb(255,145,142);stop-opacity:1"/></linearGradient>
    </defs>
</svg>
