<?xml version="1.0" encoding="UTF-8" standalone="no"?><!DOCTYPE svg PUBLIC "-//W3C//DTD SVG 1.1//EN" "http://www.w3.org/Graphics/SVG/1.1/DTD/svg11.dtd"><svg width="100%" height="100%" viewBox="0 0 11701 11710" version="1.1" xmlns="http://www.w3.org/2000/svg" xmlns:xlink="http://www.w3.org/1999/xlink" xml:space="preserve" xmlns:serif="http://www.serif.com/" style="fill-rule:evenodd;clip-rule:evenodd;stroke-linejoin:round;stroke-miterlimit:2;"><g><path d="M6048.02,11709.9c-706.625,0 -1246.46,-98.791 -1461.75,-142.541c-519.375,-105.459 -1361.12,-276.459 -2187.71,-756.792l0,-2637.96c74.167,-12.833 138.375,-28.208 192.709,-43.833c237.5,258.083 484.083,471.042 707.041,640.25c109.625,156 221.667,292.833 286.792,375.542c17.917,22.75 12.917,55.875 -10.917,72.333l-103.833,71.75c110.792,171 253.667,295.667 427.5,375.542l-27.833,-92.292c-1.542,-1 -137.667,-328.917 -139.167,-329.917c-11.042,-67.083 -23.458,-133.333 -37,-198.458c238.667,150.792 397.042,224.667 397.042,224.667c-51.834,-47.5 -103.084,-96.334 -153.584,-146.5c101.834,69.25 212.542,117.416 332,145.041l-45.916,-84.791c-1.167,-0.459 -441.792,-771.584 -750.5,-1290l8005,-0c-223.792,863.458 -609.542,1625.75 -1127.71,2171.25c-239.291,251.916 -465.666,414.333 -644.541,542.708c-1246.5,894.375 -2628.75,1104 -3657.62,1104Zm-4215.82,-1284.83c-218.221,-173.25 -429.633,-373.667 -627.242,-606.042c-1650.9,-1941.42 -1458.44,-5252.67 -177.904,-7271.71c13.154,-20.75 30.184,-46.875 51.092,-77.75c-34.933,422.625 -60.629,885.041 -47.679,1373.75c-429.567,561.833 -891.854,1368.58 -918.671,2261.88c-44.929,1496.75 1392.71,2334.17 1720.4,2505.33l0,1814.54Zm1958.28,-1456.17c-53.417,-58.292 -105.75,-118.667 -156.667,-181.208c-18.625,-71.417 -38.291,-140.959 -58.541,-208.125c112.125,100.875 216.541,185.875 282.625,241.541c22.166,18.667 23.958,52.126 3.958,73.042l-71.375,74.75Zm7813.5,-1673.54l-8697.96,-0c-161.375,-673.125 -197.584,-1525.54 -38.875,-2643c149.125,-1049.67 -106.292,-1961.29 -468.584,-2679.06l0,-809.9l-95.125,0c723.5,-575.087 1743.33,-1113.35 3050.75,-1157.77c108.584,-3.691 217.084,-5.612 325.167,-5.612c1418.29,-0 2785.54,330.529 3979.29,1330.67c1752.79,1468.5 2285.21,3910.75 1945.33,5964.67Z" style="fill:url(#_Linear1);"/><path d="M1155.53,478.317c-15.466,-62.192 72.063,-81.075 126.513,-27.625c552.883,542.795 1884.52,2093.85 1585.1,4201.65c-375.625,2644.58 340.541,3805.38 1223.75,4615.83c-0,-0 -1205.75,-562.542 -1975.21,-1750.21c-1889.19,-2916.04 -685.117,-5933.96 -960.15,-7039.65Z" style="fill:#bdd0fb;fill-rule:nonzero;"/><path d="M2442.93,7295.34l-44.375,-0l0,-141.292c14.375,47.25 29.167,94.333 44.375,141.292Zm-610.733,-5146.93l-13.767,-55.825l-11.9,-48.266l-13.587,-47.784l-27.271,-95.595c-9.037,-31.896 -20.071,-63.125 -30.012,-94.742c-10.146,-31.546 -20.155,-63.158 -31.834,-94.142c-11.508,-31.041 -21.925,-62.571 -34.346,-93.246c-24.016,-61.558 -48.941,-123.458 -78.045,-182.062l-0.275,-0.558c-3.134,-6.309 -0.559,-13.963 5.745,-17.092c1.821,-0.904 3.75,-1.333 5.655,-1.333c4.575,-0 8.983,2.475 11.27,6.745c63.546,119.046 113.709,242.909 159.125,368.846c11.025,31.571 23.163,62.809 33.284,94.675l25.958,81.242l0,179.137Z" style="fill:#dce6fd;fill-rule:nonzero;"/><path d="M1898.02,8643.46c-0,-0.001 668.371,-708.417 402.329,-1620.71c-246.846,-846.458 -947.129,-2831.46 -625.058,-3783.5c14.271,-42.208 -72.225,-46.75 -112.871,-5.875c-436,438.542 -1411.31,1562.12 -1450.62,2871.79c-50.7,1688.88 1786.23,2538.29 1786.23,2538.29Z" style="fill:#91b3fa;fill-rule:nonzero;"/><path d="M1761.16,8461.38c-0.279,0 -0.562,-0.042 -0.85,-0.042c-3.67,-0.458 -6.312,-3.749 -6.029,-7.375l0.017,-0.166c3.808,-47.334 3.05,-94.875 -1.184,-142.084c-3.916,-39.416 -10.25,-78.541 -18.233,-117.374c4.158,0.374 8.375,0.749 12.633,1.083c3.888,0.333 7.705,0.625 11.571,0.958c6.417,37.667 11.392,75.625 13.667,113.833c2.35,48.459 1.108,97.042 -4.771,145.125c-0.429,3.459 -3.396,6.042 -6.821,6.042Zm-204.587,-770.625c-46.096,-106.375 -94.396,-212 -142.192,-317.875c-159.658,-348.792 -307.996,-704.208 -431.462,-1068.46c-15.325,-45.584 -30.734,-91 -45.33,-137l-20.945,-69.542c-3.45,-11.625 -7.075,-23.167 -10.246,-34.833l-8.767,-35.292l-17.537,-70.5l-14.484,-71.208l-7.175,-35.584c-2.308,-11.916 -3.854,-23.916 -5.821,-35.875l-11.175,-71.791c-25.504,-192.125 -27.133,-387.334 -4.787,-579.584c11.887,-96 29.271,-191.291 52.404,-285.083c23.196,-93.792 52.633,-185.958 87.308,-275.917c34.78,-90 75.834,-177.375 121.459,-262.083c46.058,-84.417 96.542,-166.708 156.546,-241.833l1.195,-0.125l0.142,1.208c-108.717,157.875 -190.496,332.583 -253.533,512.292c-62.9,180.041 -103.888,367.208 -122.829,556.208c-9.63,94.542 -12.43,189.583 -10.759,284.417l2.534,71.125c1.316,23.708 3.562,47.333 5.291,70.958l2.7,35.5l4.171,35.333c2.858,23.542 5.358,47.125 8.5,70.625l11.429,70.209c2,11.708 3.584,23.458 5.93,35.083l7.274,34.833l14.638,69.626l17.654,68.916l8.817,34.458c3.171,11.459 6.854,22.751 10.183,34.126l20.471,68.166c14.358,45.375 29.729,90.792 44.908,136.083c61.792,181 128.446,360.292 199.35,538.001c35.338,88.916 71.967,177.333 109.354,265.458c36.93,88.333 74.638,176.375 112.659,264.375c37.967,88.042 76.171,176 113.425,264.542c4.079,9.749 8.15,19.499 12.221,29.291c-7.813,13.583 -15.696,27.542 -23.521,41.75Z" style="fill:#c3d5fc;fill-rule:nonzero;"/><path d="M3465.47,3691.38l-0,-2128.62c-0,-48.212 30.333,-91.629 75.958,-107.2c232.667,-79.416 465.375,-68.437 698.042,32.946c50,21.784 81.375,72.129 77.667,126.542l-141.584,2071.62l-710.083,4.708Z" style="fill:url(#_Linear2);"/><path d="M3599.02,1652.3l-0,518.45c-0,42 32.75,76.729 74.666,79.233l376.875,22.471c42.417,2.529 79.292,-28.792 83.667,-71.058l55.167,-533.2c4.5,-43.325 -26.709,-82.192 -69.959,-87.038c-111.791,-12.512 -318.958,-30.025 -454.25,-7.167c-38.208,6.459 -66.166,39.55 -66.166,78.309Z" style="fill:#7d97f4;fill-rule:nonzero;"/><path d="M4344.81,1679.39l-125.541,2007.28l752.375,-0l-0,-1951.23c-0,-56.126 -35.834,-105.83 -88.917,-123.98c-99.583,-34.029 -268.833,-76.491 -435.083,-46.966c-56.667,10.062 -99.25,57.45 -102.834,114.9Z" style="fill:url(#_Linear3);"/><path d="M4346.81,2943.5l-25.5,559.709c-2.083,46.375 34.917,85.166 81.375,85.166l380.084,0c44.958,0 81.416,-36.458 81.416,-81.458l0,-559.708c0,-44.959 -36.458,-81.417 -81.416,-81.417l-354.584,-0c-43.541,-0 -79.416,34.208 -81.375,77.708Z" style="fill:#7d97f4;fill-rule:nonzero;"/><path d="M5696.06,3686.67l0,-2074.93c0,-51.771 -33.583,-97.871 -83.125,-113c-221.5,-67.684 -414.166,-29.784 -515.333,1.65c-44.833,13.929 -75.417,55.233 -75.417,102.17l0,2084.11l673.875,-0Z" style="fill:#7d97f4;fill-rule:nonzero;"/><path d="M5088.85,1646.41l16.375,306.309c2.042,38.171 33.583,68.079 71.792,68.079l360.833,-0c38.833,-0 70.625,-30.788 71.875,-69.575l9.833,-302.242c1.125,-34.65 -22.541,-65.267 -56.458,-72.575c-87.625,-18.9 -260.083,-44.954 -419.708,-3.671c-33.375,8.638 -56.375,39.225 -54.542,73.675Z" style="fill:#91b3fa;fill-rule:nonzero;"/><path d="M5116.89,2152.8c2.625,37.696 33.958,66.946 71.75,66.946l345.458,0c40.292,0 72.708,-33.083 71.917,-73.358c-0.792,-39.142 -32.75,-70.459 -71.917,-70.459l-345.458,0c-41.667,0 -74.625,35.3 -71.75,76.871Z" style="fill:#91b3fa;fill-rule:nonzero;"/><path d="M8040.89,1679.5c-0,-0 -61.417,-382.071 126.166,-505.654c8.334,-5.496 19.5,0.75 19.5,10.741l0,72.634c0,17.358 20.667,26.304 33.292,14.4c40.375,-38.059 112.625,-95.859 189.25,-107.905c20.417,-3.212 36.375,17.184 27.583,35.921c-46.958,100.459 -170.041,381.992 -165.291,566.425l-230.5,-86.562Z" style="fill:#7d97f4;fill-rule:nonzero;"/><path d="M7841.73,1679.39l-125.542,2007.28l752.375,-0l0,-1951.23c0,-56.126 -35.833,-105.83 -88.916,-123.98c-99.584,-34.029 -268.834,-76.491 -435.084,-46.966c-56.666,10.062 -99.208,57.45 -102.833,114.9Z" style="fill:url(#_Linear4);"/><path d="M7843.73,2943.5l-25.5,559.709c-2.083,46.375 34.958,85.166 81.375,85.166l380.083,0c44.959,0 81.459,-36.458 81.459,-81.458l-0,-559.708c-0,-44.959 -36.5,-81.417 -81.459,-81.417l-354.583,-0c-43.542,-0 -79.375,34.208 -81.375,77.708Z" style="fill:#7d97f4;fill-rule:nonzero;"/><path d="M2920.97,1564.49c-56.667,10.062 -99.25,57.45 -102.833,114.9l-125.542,2007.28l752.375,-0l0,-1951.23c0,-56.126 -35.833,-105.83 -88.917,-123.98c-99.583,-34.029 -268.833,-76.491 -435.083,-46.966Z" style="fill:url(#_Linear5);"/><path d="M2820.14,2943.5l-25.5,559.709c-2.084,46.375 34.958,85.166 81.375,85.166l380.083,0c44.958,0 81.417,-36.458 81.417,-81.458l-0,-559.708c-0,-44.959 -36.459,-81.417 -81.417,-81.417l-354.583,-0c-43.542,-0 -79.375,34.208 -81.375,77.708Z" style="fill:#7d97f4;fill-rule:nonzero;"/><path d="M9192.98,3686.67l0,-2074.93c0,-51.771 -33.583,-97.871 -83.083,-113c-221.542,-67.684 -414.209,-29.784 -515.375,1.65c-44.792,13.929 -75.417,55.233 -75.417,102.17l0,2084.11l673.875,-0Z" style="fill:url(#_Linear6);"/><path d="M8585.81,1646.41l16.334,306.309c2.041,38.171 33.583,68.079 71.791,68.079l360.875,-0c38.792,-0 70.584,-30.788 71.875,-69.575l9.792,-302.242c1.125,-34.65 -22.542,-65.267 -56.458,-72.575c-87.625,-18.9 -260.084,-44.954 -419.709,-3.671c-33.375,8.638 -56.375,39.225 -54.5,73.675Z" style="fill:#7d97f4;fill-rule:nonzero;"/><path d="M8613.81,2152.8c2.625,37.696 33.959,66.946 71.75,66.946l345.459,0c40.291,0 72.708,-33.083 71.916,-73.358c-0.791,-39.142 -32.75,-70.459 -71.916,-70.459l-345.459,0c-41.666,0 -74.625,35.3 -71.75,76.871Z" style="fill:#7d97f4;fill-rule:nonzero;"/><path d="M5751.85,1625.73l-26.708,2070.78l1203.25,0l-90.084,-2015.66c-2.625,-58.188 -40.166,-108.858 -95.041,-128.467c-149.5,-53.446 -475.167,-131.8 -916.125,-21.704c-43.75,10.921 -74.709,49.971 -75.292,95.054Z" style="fill:url(#_Linear7);"/><path d="M6899.6,1669.69l83.458,2014.98l712.667,-0l54.042,-2037.52c1.458,-56 -34.292,-106.679 -87.959,-122.787c-231.75,-69.575 -461.916,-76.396 -689.375,27.516c-45.916,20.984 -74.958,67.354 -72.833,117.809Z" style="fill:#7d97f4;fill-rule:nonzero;"/><path d="M6964.48,1745.31l8.5,109.558c2.583,33.192 31.25,58.216 64.458,56.283l582.292,-33.879c30.542,-1.779 55.083,-25.904 57.375,-56.442l5.667,-75.679c2.625,-35.441 -25.417,-65.658 -60.959,-65.658l-596.416,-0c-35.584,-0 -63.667,30.316 -60.917,65.816Z" style="fill:#91b3fa;fill-rule:nonzero;"/><path d="M6988.52,2007.12l-0,39.991c-0,30.876 25.708,55.538 56.583,54.25l557.75,-23.258c29.083,-1.216 52.042,-25.146 52.042,-54.254l-0,-42.417c-0,-30.966 -25.875,-55.662 -56.792,-54.241l-557.792,25.691c-28.958,1.334 -51.791,25.225 -51.791,54.238Z" style="fill:#91b3fa;fill-rule:nonzero;"/><path d="M10050.9,1638.24l83.458,2014.98l712.709,-0.001l54,-2037.51c1.5,-56 -34.292,-106.679 -87.959,-122.787c-231.75,-69.571 -461.916,-76.4 -689.375,27.516c-45.916,20.983 -74.916,67.354 -72.833,117.808Z" style="fill:url(#_Linear8);"/><path d="M10115.8,1713.86l8.458,109.563c2.583,33.187 31.25,58.212 64.458,56.279l582.292,-33.875c30.583,-1.783 55.083,-25.908 57.375,-56.442l5.667,-75.683c2.666,-35.442 -25.375,-65.658 -60.917,-65.658l-596.417,-0c-35.625,-0 -63.666,30.32 -60.916,65.816Z" style="fill:#7d97f4;fill-rule:nonzero;"/><path d="M10139.8,1975.67l-0,39.987c-0,30.875 25.75,55.538 56.583,54.25l557.792,-23.262c29.083,-1.213 52,-25.142 52,-54.25l-0,-42.417c-0,-30.967 -25.834,-55.662 -56.792,-54.237l-557.75,25.687c-29,1.333 -51.833,25.225 -51.833,54.242Z" style="fill:#7d97f4;fill-rule:nonzero;"/><path d="M9355.81,1656.7l-125.541,2007.27l752.375,-0.001l-0,-1951.22c-0,-56.125 -35.834,-105.829 -88.917,-123.98c-99.583,-34.029 -268.833,-76.491 -435.083,-46.97c-56.667,10.066 -99.25,57.45 -102.834,114.904Z" style="fill:#7d97f4;fill-rule:nonzero;"/><path d="M9384.02,2920.84l-25.5,559.666c-2.125,46.417 34.916,85.167 81.333,85.167l380.083,-0c45,-0 81.459,-36.459 81.459,-81.459l-0,-559.666c-0,-45 -36.459,-81.459 -81.459,-81.459l-354.583,0c-43.542,0 -79.375,34.25 -81.333,77.75Z" style="fill:#91b3fa;fill-rule:nonzero;"/><path d="M11003.1,10347.6l0,-2035.33c0,-46.125 -29,-87.625 -72.625,-102.5c-222.458,-75.958 -444.958,-65.458 -667.458,31.5c-47.792,20.833 -77.833,68.958 -74.25,121l135.375,1980.83l678.958,4.5Z" style="fill:url(#_Linear9);"/><path d="M10875.4,8397.92l0,495.708c0,40.167 -31.292,73.375 -71.375,75.792l-360.333,21.458c-40.584,2.417 -75.834,-27.5 -80.042,-67.917l-52.75,-509.874c-4.292,-41.417 25.542,-78.584 66.917,-83.209c106.875,-11.958 305,-28.708 434.333,-6.833c36.542,6.166 63.25,37.792 63.25,74.875Z" style="fill:#7d97f4;fill-rule:nonzero;"/><path d="M10162.3,8423.8l120.041,1919.33l-719.416,0l-0,-1865.71c-0,-53.667 34.25,-101.208 85.041,-118.583c95.209,-32.5 257.042,-73.125 416,-44.875c54.209,9.624 94.875,54.916 98.334,109.833Z" style="fill:#7d97f4;fill-rule:nonzero;"/><path d="M10160.4,9632.55l24.375,535.208c2,44.334 -33.417,81.417 -77.792,81.417l-363.416,-0c-43.042,-0 -77.875,-34.875 -77.875,-77.875l-0,-535.208c-0,-43 34.833,-77.876 77.875,-77.876l339.041,0.001c41.625,-0.001 75.875,32.75 77.792,74.333Z" style="fill:#91b3fa;fill-rule:nonzero;"/><path d="M8870.18,10343.1l0,-1984c0,-49.5 32.167,-93.583 79.5,-108.042c211.792,-64.75 396.042,-28.499 492.75,1.584c42.875,13.291 72.125,52.791 72.125,97.666l0,1992.79l-644.375,0Z" style="fill:#91b3fa;fill-rule:nonzero;"/><path d="M9450.81,8392.3l-15.625,292.875c-1.958,36.5 -32.125,65.083 -68.666,65.083l-345.042,0c-37.125,0 -67.542,-29.416 -68.75,-66.5l-9.375,-289c-1.083,-33.167 21.583,-62.417 54,-69.416c83.792,-18.084 248.708,-43.001 401.292,-3.501c31.958,8.25 53.916,37.5 52.166,70.459Z" style="fill:url(#_Linear10);"/><path d="M9423.98,8876.5c-2.458,36.042 -32.458,64 -68.583,64l-330.334,0c-38.5,0 -69.5,-31.625 -68.75,-70.166c0.75,-37.417 31.334,-67.376 68.75,-67.376l330.334,0.001c39.833,-0.001 71.333,33.791 68.583,73.541Z" style="fill:url(#_Linear11);"/><path d="M6628.1,8423.92c0,-0 58.75,-365.333 -120.625,-483.5c-7.958,-5.25 -18.625,0.708 -18.625,10.25l0,69.458c0,16.625 -19.792,25.167 -31.875,13.792c-38.583,-36.417 -107.667,-91.667 -180.917,-103.208c-19.541,-3.042 -34.791,16.458 -26.416,34.375c44.916,96.041 162.583,365.249 158.083,541.583l220.375,-82.75Z" style="fill:#7d97f4;fill-rule:nonzero;"/><path d="M6818.52,8423.8l120.083,1919.33l-719.417,0l0,-1865.71c0,-53.667 34.25,-101.208 85.042,-118.583c95.167,-32.5 257.042,-73.125 416,-44.875c54.167,9.624 94.875,54.916 98.292,109.833Z" style="fill:url(#_Linear12);"/><path d="M6816.64,9632.55l24.375,535.208c2,44.334 -33.417,81.417 -77.792,81.417l-363.458,-0c-43,-0 -77.875,-34.875 -77.875,-77.875l-0,-535.208c-0,-43 34.875,-77.876 77.875,-77.876l339.083,0.001c41.625,-0.001 75.875,32.75 77.792,74.333Z" style="fill:#7d97f4;fill-rule:nonzero;"/><path d="M5526.48,10343.1l0,-1984c0,-49.5 32.125,-93.583 79.5,-108.042c211.792,-64.75 396.042,-28.499 492.75,1.584c42.875,13.291 72.125,52.791 72.125,97.666l0,1992.79l-644.375,0Z" style="fill:url(#_Linear13);"/><path d="M6107.1,8392.3l-15.667,292.875c-1.916,36.5 -32.083,65.083 -68.625,65.083l-345.041,0c-37.125,0 -67.542,-29.416 -68.75,-66.5l-9.375,-289c-1.084,-33.167 21.583,-62.417 53.958,-69.416c83.833,-18.084 248.708,-43.001 401.333,-3.501c31.959,8.25 53.917,37.5 52.167,70.459Z" style="fill:#7d97f4;fill-rule:nonzero;"/><path d="M6080.27,8876.5c-2.5,36.042 -32.459,64 -68.584,64l-330.333,0c-38.5,0 -69.542,-31.625 -68.75,-70.166c0.75,-37.417 31.292,-67.376 68.75,-67.376l330.333,0.001c39.834,-0.001 71.334,33.791 68.584,73.541Z" style="fill:#7d97f4;fill-rule:nonzero;"/><path d="M8816.85,8372.5l25.583,1980.04l-1150.54,-0l86.125,-1927.33c2.5,-55.626 38.416,-104.084 90.875,-122.834c142.958,-51.125 454.333,-126.041 876,-20.75c41.833,10.417 71.416,47.75 71.958,90.875Z" style="fill:url(#_Linear14);"/><path d="M7719.39,8414.55l-79.792,1926.71l-681.458,0l-51.667,-1948.25c-1.417,-53.583 32.792,-102.041 84.125,-117.416c221.583,-66.542 441.667,-73.042 659.167,26.291c43.916,20.084 71.625,64.417 69.625,112.667Z" style="fill:#7d97f4;fill-rule:nonzero;"/><path d="M7657.35,8486.84l-8.125,104.791c-2.458,31.709 -29.875,55.625 -61.625,53.792l-556.75,-32.375c-29.25,-1.708 -52.708,-24.792 -54.875,-54l-5.417,-72.333c-2.541,-33.917 24.292,-62.792 58.25,-62.792l570.292,-0c34.042,-0 60.875,29 58.25,62.917Z" style="fill:#91b3fa;fill-rule:nonzero;"/><path d="M7634.35,8737.17l0,38.25c0,29.542 -24.583,53.125 -54.042,51.875l-533.375,-22.25c-27.791,-1.167 -49.75,-24.042 -49.75,-51.875l0,-40.542c0,-29.625 24.75,-53.25 54.334,-51.875l533.333,24.584c27.708,1.249 49.5,24.124 49.5,51.833Z" style="fill:#91b3fa;fill-rule:nonzero;"/><path d="M4777.85,10321.3l0,-2035.38c0,-46.083 -29,-87.583 -72.625,-102.5c-222.5,-75.917 -444.958,-65.417 -667.458,31.5c-47.834,20.833 -77.834,69 -74.25,121l135.375,1980.88l678.958,4.5Z" style="fill:url(#_Linear15);"/><path d="M4650.14,8371.55l-0,495.75c-0,40.167 -31.292,73.375 -71.375,75.75l-360.375,21.5c-40.542,2.417 -75.792,-27.542 -80,-67.959l-52.75,-509.833c-4.292,-41.416 25.541,-78.583 66.916,-83.25c106.875,-11.958 304.959,-28.666 434.334,-6.833c36.541,6.167 63.25,37.833 63.25,74.875Z" style="fill:#7d97f4;fill-rule:nonzero;"/><path d="M3937.06,8397.46l120.042,1919.33l-719.417,-0l0,-1865.75c0,-53.667 34.25,-101.208 85.042,-118.542c95.167,-32.542 257.042,-73.125 416,-44.916c54.208,9.624 94.875,54.916 98.333,109.874Z" style="fill:#7d97f4;fill-rule:nonzero;"/><path d="M3935.14,9606.21l24.375,535.166c2,44.375 -33.417,81.417 -77.792,81.417l-363.458,-0c-43,-0 -77.875,-34.875 -77.875,-77.875l-0,-535.167c-0,-43.041 34.875,-77.875 77.875,-77.875l339.083,0c41.625,0 75.875,32.709 77.792,74.334Z" style="fill:#91b3fa;fill-rule:nonzero;"/><path d="M2644.97,10316.8l0,-1984.04c0,-49.5 32.125,-93.583 79.5,-108.042c211.792,-64.708 396.042,-28.458 492.75,1.584c42.875,13.333 72.125,52.833 72.125,97.708l-0,1992.79l-644.375,-0Z" style="fill:url(#_Linear16);"/><path d="M3225.6,8365.92l-15.667,292.875c-1.916,36.5 -32.083,65.125 -68.625,65.125l-345.041,-0c-37.125,-0 -67.542,-29.458 -68.75,-66.542l-9.375,-289c-1.084,-33.125 21.583,-62.417 53.958,-69.416c83.833,-18.042 248.708,-42.959 401.333,-3.501c31.959,8.251 53.917,37.5 52.167,70.459Z" style="fill:url(#_Linear17);"/><path d="M3198.77,8850.13c-2.5,36.042 -32.459,64 -68.584,64l-330.333,0c-38.5,0 -69.542,-31.625 -68.75,-70.125c0.75,-37.416 31.333,-67.375 68.75,-67.375l330.333,0c39.834,0 71.334,33.75 68.584,73.5Z" style="fill:url(#_Linear18);"/><path d="M5298.48,8287.59c54.208,9.625 94.917,54.916 98.333,109.875l120.042,1919.33l-719.375,-0l0,-1865.75c0,-53.667 34.208,-101.208 85,-118.542c95.208,-32.542 257.083,-73.125 416,-44.916Z" style="fill:#7d97f4;fill-rule:nonzero;"/><path d="M5394.89,9606.21l24.375,535.166c2.041,44.375 -33.375,81.417 -77.792,81.417l-363.417,-0c-43,-0 -77.875,-34.875 -77.875,-77.875l0,-535.167c0,-43.041 34.875,-77.875 77.875,-77.875l339.042,0c41.625,0 75.917,32.709 77.792,74.334Z" style="fill:#91b3fa;fill-rule:nonzero;"/><path d="M3970.47,5252.13l-26.708,2070.79l1203.25,-0l-90.084,-2015.67c-2.583,-58.167 -40.166,-108.833 -95,-128.458c-149.541,-53.459 -475.166,-131.792 -916.166,-21.708c-43.709,10.916 -74.709,49.958 -75.292,95.041Z" style="fill:url(#_Linear19);"/><path d="M9180.18,5285.09l83.459,2015l712.666,-0l54.042,-2037.54c1.5,-56 -34.292,-106.667 -87.958,-122.792c-231.75,-69.583 -461.917,-76.375 -689.375,27.542c-45.917,20.958 -74.917,67.333 -72.834,117.792Z" style="fill:url(#_Linear20);"/><path d="M9245.06,5360.71l8.5,109.542c2.584,33.208 31.25,58.25 64.459,56.292l582.291,-33.875c30.542,-1.792 55.084,-25.917 57.375,-56.458l5.667,-75.667c2.667,-35.417 -25.417,-65.667 -60.958,-65.667l-596.417,0c-35.583,0 -63.667,30.333 -60.917,65.833Z" style="fill:#7d97f4;fill-rule:nonzero;"/><path d="M9269.1,5622.5l0,40c0,30.875 25.708,55.542 56.583,54.25l557.75,-23.25c29.084,-1.208 52.042,-25.167 52.042,-54.25l0,-42.417c0,-30.958 -25.833,-55.666 -56.792,-54.249l-557.75,25.708c-29,1.333 -51.833,25.208 -51.833,54.208Z" style="fill:#7d97f4;fill-rule:nonzero;"/><path d="M10392.8,4931.21c-0,0 -64.125,-398.833 131.666,-527.833c8.709,-5.708 20.375,0.792 20.375,11.208l0,75.834c0,18.125 21.584,27.458 34.75,15.041c42.167,-39.75 117.584,-100.083 197.542,-112.625c21.333,-3.375 37.958,17.917 28.833,37.459c-49.083,104.875 -177.5,398.75 -172.583,591.25l-240.583,-90.334Z" style="fill:#7d97f4;fill-rule:nonzero;"/><path d="M10184.9,4931.09l-131.084,2382.29l785.334,0l-0,-2323.79c-0,-58.583 -37.334,-110.458 -92.792,-129.416c-103.917,-35.5 -280.625,-79.833 -454.125,-49c-59.167,10.5 -103.583,59.958 -107.333,119.917Z" style="fill:url(#_Linear21);"/><path d="M10187,6250.63l-26.625,871.25c-2.208,48.417 36.458,88.917 84.917,88.917l396.75,-0c46.958,-0 85,-38.084 85,-85.042l-0,-871.25c-0,-46.958 -38.042,-85.041 -85,-85.041l-370.125,-0c-45.459,-0 -82.875,35.749 -84.917,81.166Z" style="fill:#7d97f4;fill-rule:nonzero;"/><path d="M2685.18,4846.8l-27.875,2448.54l1256,-0l-94.041,-2391c-2.75,-60.749 -41.959,-113.666 -99.209,-134.124c-156.083,-55.792 -496,-137.584 -956.291,-22.625c-45.667,11.374 -77.959,52.125 -78.584,99.208Z" style="fill:url(#_Linear22);"/><rect x="2283.33" y="7295.34" width="9383.38" height="596.583" style="fill:#91b3fa;"/><rect x="2209.7" y="10317.8" width="9383.33" height="596.583" style="fill:#91b3fa;"/><rect x="2373.64" y="3643.3" width="9120.21" height="596.583" style="fill:#91b3fa;"/><rect x="1832.2" y="1163.38" width="566.358" height="10051.9" style="fill:#7d97f4;"/><rect x="11126.5" y="1249.35" width="566.375" height="10051.9" style="fill:#7d97f4;"/><path d="M5162.31,7294.92l-250.791,-3029.29c-5.334,-63.958 42.166,-120.167 106.125,-125.25c226.458,-18.042 808.375,-11.75 1935.54,303.292l146.917,2891.04l-1937.79,-39.792Z" style="fill:url(#_Linear23);"/><path d="M5352.31,7298.84l-263.208,-3209.04c-4.292,-52.084 36.5,-96.75 88.75,-97.417c315.208,-3.958 1320.17,19 1775.33,451.292l146.917,2891.04l-1747.79,-35.876Z" style="fill:#91b3fa;fill-rule:nonzero;"/><path d="M5464.52,7251.92c-41.292,-0.875 -75.209,-32.792 -78.542,-73.958l-246.042,-3040.46c-4.083,-50.5 35.042,-93.833 85.167,-94.5c296.667,-3.833 1230,17.333 1677.83,413.625c16.375,14.5 26.375,34.875 27.459,56.709l134.458,2685.29c2.333,46.584 -35.375,85.417 -82.042,84.459l-1518.29,-31.167Z" style="fill:#fff;fill-rule:nonzero;"/><path d="M5282.18,4263.5l152.042,1737.62c5.625,64.417 59.25,114.083 123.917,114.75l1177.96,12.583c71.667,0.792 129.458,-58.416 127,-130.041l-49.917,-1447.67c-1.625,-47.208 -29.5,-89.541 -72.291,-109.541c-195.042,-91.084 -769.459,-332.875 -1337.12,-314.459c-72.25,2.334 -127.875,64.709 -121.584,136.75Z" style="fill:#bdd0fb;fill-rule:nonzero;"/><path d="M5470.14,6381.34l8.541,44.249c5.375,27.834 29.5,48.084 57.834,48.584l1246.12,22.375c36.541,0.667 65.166,-31.208 60.625,-67.458l-8.25,-59.126c-3.75,-29.874 -28.125,-51.374 -58.209,-51.583l-1247.33,-8.458c-37.875,-0.25 -66.542,34.208 -59.333,71.417Z" style="fill:#bdd0fb;fill-rule:nonzero;"/><path d="M5497.43,6705l4.625,59.75c2.417,31.75 29.209,56.042 61.042,55.417l1218.29,-24.625c35.25,-0.709 62.291,-31.458 58.458,-66.5l-0.917,-0.959c-3.25,-29.791 -27.041,-51.666 -57,-52.541l-1222.92,-35.125c-35.625,-1.042 -64.292,29.042 -61.584,64.583Z" style="fill:#bdd0fb;fill-rule:nonzero;"/><path d="M5511.02,7038.88l6.625,51.458c2.75,21.167 20.833,36.959 42.166,36.751l1285.08,-11.459c27.25,-0.25 47.083,-25.875 40.5,-52.333l-22.459,-89.958c-4.75,-19.209 -22.25,-32.5 -42.041,-31.917l-1256.62,35.167c-32.709,0.916 -57.459,29.875 -53.25,62.291Z" style="fill:#bdd0fb;fill-rule:nonzero;"/><path d="M7018.06,4436.38c0,0 861.542,-603.833 1959.96,-288.917c65.75,18.834 111.125,78.959 111.583,147.334l20.792,3018.58l-2010.29,21.334l-82.042,-2898.33Z" style="fill:url(#_Linear24);"/><path d="M8913.1,4116.96l64.333,3203.21l-1877.33,14.542l-146.917,-2891.04c0,-0 911.25,-597.792 1802.25,-500.709c88.667,9.667 155.834,84.834 157.667,174Z" style="fill:#91b3fa;fill-rule:nonzero;"/><path d="M8881.81,4167.34l61.5,3061.79c1,51.417 -40.958,93.333 -92.333,92.292l-1637.67,-33.625c-49.958,-1 -90.625,-40.458 -93.166,-90.375l-137.875,-2713.42c-0,0 883.166,-579.375 1746.75,-485.291c85.958,9.375 151.041,82.208 152.791,168.624Z" style="fill:#fff;fill-rule:nonzero;"/><path d="M7347.77,4474.3c-94.084,26.375 -156.709,114.958 -150.209,212.458c26.667,398.417 93.959,1397.04 120.625,1720.33c4.792,58.5 54.125,103.166 112.834,102.333l1214.75,-17.708c71.458,-1.042 128.541,-59.876 127.375,-131.375l-33.459,-2053.42c-1.083,-65.917 -53.625,-119.417 -119.541,-121.5c-195.584,-6.125 -940.417,195.75 -1272.38,288.875Z" style="fill:#bdd0fb;fill-rule:nonzero;"/><path d="M7378.6,6719.38l1329.17,27.292c31.75,0.625 56.958,26.916 56.333,58.666l-0.042,0.792c-0.625,31.75 -26.916,57 -58.666,56.333l-1329.17,-27.291c-31.792,-0.625 -57,-26.917 -56.333,-58.667l-0,-0.791c0.666,-31.75 26.916,-57.001 58.708,-56.334Z" style="fill:#bdd0fb;fill-rule:nonzero;"/><path d="M7313.27,7040.63l0.666,35.917c0.542,30.875 25.334,55.791 56.167,56.5l1330.21,30.75c32.667,0.75 59.417,-25.833 58.834,-58.542c-0.5,-30.25 -24.417,-54.916 -54.625,-56.417l-1330.83,-66.708c-33.25,-1.666 -61,25.167 -60.416,58.5Z" style="fill:#bdd0fb;fill-rule:nonzero;"/><path d="M8901.68,11361.7c0,-0 19.417,110 28.959,218.875c3.708,42.541 -29.084,79.5 -71.792,81.291c-145,6.042 -455.125,17.792 -566.417,12.792c-16.75,-0.75 -27.666,-17.875 -21.5,-33.417c5.209,-13.041 15.209,-23.583 27.959,-29.458l512.291,-235.458l90.5,-14.625Z" style="fill:url(#_Linear25);"/><path d="M8917.6,11297.1l-15.625,131.583c0,-0 -89.75,41.75 -151.042,-5.292l37.167,-146.583l129.5,20.292Z" style="fill:url(#_Linear26);"/><path d="M8905.85,8823.67c6.75,34.375 36.208,1714.5 -143.417,2467.42c-2.916,12.291 3.334,24.958 15,29.75c27.542,11.25 81.542,27.541 146.25,29.708c20.084,0.667 38.042,-12.375 43.709,-31.583c51.333,-174.709 297.291,-1049.96 329.416,-1886.04c35.834,-934.25 0,-31.792 0,-31.792l-21.041,-577.5l-369.917,0.042Z" style="fill:url(#_Linear27);"/><path d="M9490.98,11419.1c0,-0 30.958,55.541 60.875,203.083c5.417,26.666 -13.208,52.167 -40.25,54.833c-47.875,4.709 -121.583,10.75 -180.625,10.334c-27.208,-0.167 -48.458,-23.876 -45.167,-50.876c6.542,-53.874 26.875,-142.249 89.834,-211.124l115.333,-6.251Z" style="fill:url(#_Linear28);"/><path d="M9518.14,11249.9l-36.459,198.958c0,0 -36.083,26.834 -107.416,7.375l17.416,-214.041l126.459,7.708Z" style="fill:url(#_Linear29);"/><path d="M9616.68,8875.25c146.875,886.417 -31.875,2190.92 -92.125,2446.25c-3.708,15.625 -16.333,27.583 -32.166,30.209c-26.917,4.458 -71.209,8.124 -114.875,-4.584c-15.042,-4.375 -25.625,-17.917 -26.25,-33.583c-8.084,-206.417 6.458,-1473.62 -130.375,-1974.42c-6.959,-25.416 -22.459,-47.541 -43.875,-62.791l-265.667,-188.834l-20.333,-305.25l725.666,93Z" style="fill:url(#_Linear30);"/><path d="M8680.73,7195.59c440.208,-7.251 925.875,115.583 925.875,115.583c131.208,765.583 22.958,1648.67 22.958,1648.67c-340.791,89.375 -725.208,-54.625 -725.208,-54.625c-56.625,-320.001 -320.875,-1220.62 -320.875,-1220.62c-215.083,-26.667 -392.25,-88.75 -538.167,-170.75c111.292,-129 163.75,-293.167 186.542,-390.209c155.625,48.375 313.125,74.209 448.875,71.959Z" style="fill:url(#_Linear31);"/><path d="M7380.52,6547.21c43.25,-52.209 98,-27.5 98,-27.5c64.75,273.625 404.416,495.458 753.333,603.916c-22.792,97.042 -75.25,261.209 -186.542,390.209c-579.083,-325.625 -664.791,-966.625 -664.791,-966.625Z" style="fill:url(#_Linear32);"/><path d="M7391.02,6560.5c-4.5,14.375 47.875,36.292 78.708,-22.541c1.083,-28.209 18.25,-148.959 1.417,-171.959c-89.75,-122.333 -263.709,-275.666 -263.709,-275.666c-29.416,28.999 -5.166,57.5 -5.166,57.5l84.375,87.916c-17.667,31.917 -39.167,58.834 -49.292,97.417c-7.625,29.208 -2.958,60.458 11.792,87.042c14.833,26.666 35.041,61.375 54.166,88.541c36.167,51.375 87.709,51.75 87.709,51.75Z" style="fill:url(#_Linear33);"/><path d="M7323.56,6292.8l76.917,65.208l24.125,64.917l-68.583,76.042c-0,-0 -23.042,-128.792 -40.167,-156.667c-17.125,-27.875 -8.25,-41.333 7.708,-49.5Z" style="fill:url(#_Linear34);"/><path d="M9437.77,7737.38l168.833,-426.208c0,-0 411.167,279.375 478.792,633.542c-77.709,5.75 -219.042,25.958 -357.417,95.791c-30.417,-167.208 -290.208,-303.125 -290.208,-303.125Z" style="fill:url(#_Linear35);"/><path d="M9078.48,8138.46c0,-0 461.625,260.875 617.375,38.125c32.333,-46.251 40.083,-92.251 32.125,-136.084c138.375,-69.833 279.708,-90.041 357.417,-95.791c20.375,106.791 9.583,220.375 -53.125,335.124c-272.834,499.126 -1014.88,-27.583 -1014.88,-27.583l61.083,-113.791Z" style="fill:url(#_Linear36);"/><path d="M9133.93,8468.5l-251.916,-879.833c-2.875,-9.959 -11.375,-17.25 -21.709,-18.458c-45.625,-5.334 -177.916,-20.292 -330.625,-33.209c-183.958,-15.542 -397.583,-28.167 -525.208,-17.417c-18.167,1.501 -29.125,20.709 -21.042,37.042c72.584,146.833 371.167,744.25 520.709,939.958c4.958,6.459 12.583,10.251 20.75,10.167l584.541,-5.416c17,-0.167 29.209,-16.501 24.5,-32.834Z" style="fill:url(#_Linear37);"/><path d="M8503.56,7460.75l-182.666,-30.458c-9.709,-1.625 -17.709,7.708 -14.625,17.042l18.083,54.791c1.583,4.792 5.75,8.25 10.75,8.917l175.75,23.458c9.083,1.209 16.583,-7.041 14.5,-16l-11.208,-47.833c-1.209,-5.125 -5.375,-9.042 -10.584,-9.917Z" style="fill:#7d97f4;fill-rule:nonzero;"/><path d="M8640.31,7615.38l-15.041,-78.375c-1.5,-7.875 -8,-13.791 -15.959,-14.625l-368.916,-37.417c-12.417,-1.291 -22.375,10.126 -19.459,22.251l23.459,97.666c1.875,7.792 8.666,13.459 16.708,13.875l360.5,18.125c11.75,0.583 20.917,-9.958 18.708,-21.5Z" style="fill:#7d97f4;fill-rule:nonzero;"/><path d="M9073.06,8255.92c0,-0 35.125,-144.292 20.959,-195.5c-14.167,-51.167 -41.584,-117 -133,-102.375c-91.459,14.625 -199.292,53.125 -199.292,53.125c-0,-0 5.458,66.708 74.958,45.167l-43.125,33.374c0,0 6.167,53.376 64.875,24.834l-40.083,44.25c0,-0 25.208,43.833 68.375,15.708c43.208,-28.125 63.875,98.834 186.333,81.417Z" style="fill:url(#_Linear38);"/><path d="M9126.6,6838.21l140.083,405.041c2.292,6.75 -0.458,14.167 -6.666,17.584c-38.167,21.125 -175.709,82.125 -341.5,-22.959c-17.25,-10.958 -29,-28.792 -31.625,-49.083l-45.375,-350.583l285.083,-0Z" style="fill:url(#_Linear39);"/><path d="M8821.85,6463.17c0,-0 -153.792,289.5 -134.083,406.458c19.708,116.917 210.333,108.542 376.791,13.542l116.292,-312.583l-359,-107.417Z" style="fill:url(#_Linear40);"/><path d="M9057.18,6729.67c-6.75,-3 -9.25,-11.292 -5.208,-17.459c12.333,-18.833 35.417,-57.249 42.792,-90.875c-0,0 27.666,-17.708 -70.375,-41.166c-98,-23.458 -244.167,-59.875 -274.917,-143.292c-29.958,-81.333 48.75,-285.916 174.333,-122.917c4.792,6.209 14.125,6.334 18.917,0.126c20.583,-26.792 74.708,-82.417 149.833,-48.709c70.292,31.583 78.209,83.083 77.25,109.042c-0.291,7.667 6.542,13.583 14.084,12.167c35.541,-6.792 120.833,-12.625 160.666,74.916c32.792,72.084 11.459,112.875 -7.958,132.833c-6.292,6.459 -3.5,17.126 5.125,19.75c23.333,7.167 53.5,26.959 50.5,81.709c-4.167,75.667 -88.792,69 -112.875,65.541c-3.958,-0.541 -7.917,0.792 -10.583,3.751c-20.667,22.875 -113.709,119.916 -214.459,131.625c-8.708,0.999 -15.458,-7.625 -12.625,-15.917l43.625,-126.708c2,-5.875 -0.791,-12.334 -6.5,-14.834l-21.625,-9.583Z" style="fill:url(#_Linear41);"/><path d="M9039.68,6747.63c0,0 109.5,-75.125 117.5,-11.833c8,63.25 -98.625,91.625 -151.416,68.042l33.916,-56.209Z" style="fill:url(#_Linear42);"/><path d="M143.996,11043.8l3431.73,0.042l-0,-994.5l-3431.73,-0c73.45,-0 73.45,994.458 -0,994.458Z" style="fill:#91b3fa;fill-rule:nonzero;"/><path d="M3575.72,10794.9l-0,-455.125c-0,-160.458 -67.792,-290.5 -151.458,-290.5l-3265.8,-0c-65.788,-0 -119.117,-77.25 -119.117,-172.5c-0,-28.917 16.204,-52.375 36.192,-52.375l3569.27,-0c81.834,-0 211.792,186.333 211.792,416.166l0,635.667c0,216.709 -126.167,392.375 -203.333,392.375l-3558.95,0c-30.359,0 -54.967,-35.625 -54.967,-79.583c-0,-80.208 44.921,-145.292 100.337,-145.292l3306.29,0c71.667,0 129.75,-111.416 129.75,-248.833Z" style="fill:url(#_Linear43);"/><path d="M3480.56,10264.3l-3217.72,-0c-6.07,-0 -10.983,-4.875 -10.983,-10.958c0,-6.084 4.913,-11 10.983,-11l3217.72,-0c6.084,-0 11,4.916 11,11c0,6.083 -4.916,10.958 -11,10.958Z" style="fill:#fff;fill-rule:nonzero;"/><path d="M3480.56,10411.9l-3217.72,-0c-6.07,-0 -10.983,-4.917 -10.983,-10.958c0,-6.084 4.913,-11 10.983,-11l3217.72,-0c6.084,-0 11,4.916 11,11c0,6.041 -4.916,10.958 -11,10.958Z" style="fill:#fff;fill-rule:nonzero;"/><path d="M3480.56,10559.5l-3217.72,-0c-6.07,-0 -10.983,-4.917 -10.983,-11c0,-6.042 4.913,-10.958 10.983,-10.958l3217.72,-0c6.084,-0 11,4.916 11,10.958c0,6.083 -4.916,11 -11,11Z" style="fill:#fff;fill-rule:nonzero;"/><path d="M3480.56,10707.2l-3217.72,-0c-6.07,-0 -10.983,-4.917 -10.983,-11c0,-6.042 4.913,-10.959 10.983,-10.959l3217.72,0.001c6.084,-0.001 11,4.916 11,10.958c0,6.083 -4.916,11 -11,11Z" style="fill:#fff;fill-rule:nonzero;"/><path d="M3480.56,10854.8l-3217.72,-0c-6.07,-0 -10.983,-4.917 -10.983,-11c0,-6.083 4.913,-10.958 10.983,-10.958l3217.72,-0c6.084,-0 11,4.875 11,10.958c0,6.083 -4.916,11 -11,11Z" style="fill:#fff;fill-rule:nonzero;"/><path d="M4028.18,8765.25l-3729.41,0c-27.559,0 -49.892,-22.333 -49.892,-49.875l0,-677.666c0,-27.542 22.333,-49.875 49.892,-49.875l3729.41,-0c27.584,-0 49.917,22.333 49.917,49.875l0,677.666c0,27.542 -22.333,49.875 -49.917,49.875Z" style="fill:url(#_Linear44);"/><path d="M1028.99,8675.92l-244.867,-0c-56.604,-0 -102.487,-45.917 -102.487,-102.5l-0,-393.75c-0,-56.625 45.883,-102.5 102.487,-102.5l244.867,-0c56.6,-0 102.491,45.875 102.491,102.5l0,393.75c0,56.583 -45.891,102.5 -102.491,102.5Z" style="fill:#7d97f4;fill-rule:nonzero;"/><path d="M3858.93,9836.09l-3797.28,-0c-34.046,-0 -61.65,-27.584 -61.65,-61.625l-0,-952.125c-0,-34.042 27.604,-61.625 61.65,-61.625l3797.28,-0c34.042,-0 61.625,27.583 61.625,61.625l0,952.125c0,34.041 -27.583,61.625 -61.625,61.625Z" style="fill:url(#_Linear45);"/><path d="M4269.31,9266.71c-119.458,-27.625 -230.166,-75.792 -332,-145.042c-57,-38.792 -111.25,-84.167 -162.625,-136.25l15.792,-16.542l71.375,-74.75c20,-20.916 18.208,-54.375 -3.958,-73.041c-66.084,-55.667 -170.5,-140.667 -282.625,-241.542c-136.959,-453.917 -301.459,-801.125 -363.5,-919.417c-6.667,-12.667 -15.917,-23.417 -26.959,-31.75l70.167,-93.458c53.292,83.041 130.25,209.791 217.917,357c308.708,518.416 749.333,1289.54 750.5,1290l45.916,84.791Z" style="fill:url(#_Linear46);"/><path d="M3825.1,8936.17c0,-0 -55.625,17.958 -74.458,67.5c-9.042,23.708 0.708,50.583 21.291,65.333c91.625,65.625 393.834,277.542 533.25,319.042c11.459,3.416 22.334,-6.958 19.75,-18.583c-7.166,-32.417 -30.291,-97.084 -104.875,-191.792l6.667,13.542c8.5,17.125 -10.167,34.958 -26.792,25.541c-93.291,-52.625 -283.25,-167.875 -374.833,-280.583Z" style="fill:url(#_Linear47);"/><path d="M3897.85,9664.17c-173.833,-79.875 -316.708,-204.542 -427.5,-375.542l103.833,-71.75c23.834,-16.458 28.834,-49.583 10.917,-72.333c-65.125,-82.708 -177.167,-219.542 -286.792,-375.542c-187.666,-267 -368.291,-590.042 -294.666,-793.458l-186.959,62.708c26.75,-170.208 49.459,-271 131.625,-355.25l155.167,6.75c1,0.042 1.958,0.042 2.958,0.042c16.542,-0 32.584,-6 45.042,-16.958l33.333,-44.459c11.042,8.333 20.292,19.083 26.959,31.75c62.041,118.292 226.541,465.5 363.5,919.417c20.25,67.166 39.916,136.708 58.541,208.125c21.625,82.833 41.834,168.375 60.042,255.833c13.542,65.125 25.958,131.375 37,198.458c1.5,1 137.625,328.917 139.167,329.917l27.833,92.292Z" style="fill:url(#_Linear48);"/><path d="M3529.72,9250.59c0,-0 -58.125,6.333 -86.625,51.041c-13.625,21.417 -9.542,49.667 7.667,68.292c76.416,82.833 329.5,351.5 457.666,420.375c10.5,5.625 23.209,-2.292 23.084,-14.208c-0.459,-33.209 -10.042,-101.209 -63.917,-209.042l3.833,14.583c4.792,18.5 -17.041,32.167 -31.458,19.625c-80.667,-70.458 -243.417,-221.75 -310.25,-350.666Z" style="fill:url(#_Linear49);"/><path d="M1991.85,8205.75c-50.833,0 -104.071,-1.416 -159.65,-4.458c-23.892,-1.334 -48.346,-2.958 -73.117,-4.917c-3.866,-0.333 -7.683,-0.625 -11.571,-0.958c-4.258,-0.333 -8.475,-0.708 -12.633,-1.083c-230.85,-20.751 -310.046,-75.5 -291.516,-228.667c8.475,-70.083 59.533,-177.667 113.208,-274.917c7.825,-14.208 15.708,-28.166 23.521,-41.75c57.875,-100.708 111.991,-181.208 111.991,-181.208c0,-0 55.363,-1.792 140.117,-3.875c115.725,-2.833 286.183,-6.208 445.325,-6.208c35.2,-0 69.825,0.166 103.2,0.541l-131.088,113.209c-13.266,11.458 -5.695,33.25 11.821,34l3.938,0.166l-15.758,13.625c-13.267,11.459 998.515,-88.276 1016.03,-87.526c0,0 392.708,636.539 456.863,740.529c6.082,9.857 8.824,21.413 7.818,32.953c-11.486,128.869 -104.821,225.723 -158.626,261.211c-71.166,46.939 -413.042,228.407 -413.125,228.99c-0,-0 -416.916,-709.948 -567.332,-666.657c-54.334,15.625 -118.542,31 -192.709,43.834c-112.616,19.5 -248.104,33.166 -406.708,33.166Z" style="fill:url(#_Linear50);"/><path d="M3282.93,7497.63l-18.333,-0.5l11.292,-12.75l166.708,-95.041c13,-13.667 3.917,-36.251 -14.917,-37.084l-910.791,-41.375l0.416,-0.708l926.584,42.083c18.791,0.833 27.875,23.417 14.916,37.084l-175.875,108.291Z" style="fill:url(#_Linear51);"/><path d="M2431.6,7432.71l69.5,-122.542l926.583,42.083c18.834,0.834 27.917,23.417 14.917,37.084l-166.708,95.041l-844.292,-51.666Z" style="fill:#91b3fa;fill-rule:nonzero;"/><path d="M3106.43,7689.8c-1,-0 -1.958,-0 -2.958,-0.042l-155.167,-6.75l-686.85,-29.75c-17.516,-0.75 -25.087,-22.541 -11.821,-34l15.759,-13.625l838.079,36.334c1,0.041 2,0.041 2.958,0.041c16.542,0 32.584,-6 45.042,-16.958l113.125,-127.917l18.333,0.5l-27.958,37.292l-70.167,93.458l-33.333,44.459c-12.458,10.958 -28.5,16.958 -45.042,16.958Z" style="fill:url(#_Linear52);"/><path d="M2434.39,7427.75l-17.209,-1l42.709,-72.333c5.125,-10.292 18.25,-21.25 31.958,-27.958l-57.458,101.291Z" style="fill:#c3d5fc;fill-rule:nonzero;"/><path d="M3269.77,7475.71l-835.375,-47.959l57.458,-101.291c8,-3.875 16.167,-6.292 23.042,-6.292c0.458,-0 0.875,-0 1.291,0.042l907.334,46.333c8.916,0.458 12.291,11.875 5.041,17.125l-158.791,92.042Z" style="fill:#c3d5fc;fill-rule:nonzero;"/><path d="M2261.46,7605.46l842.017,36.5c17.583,0.75 34.792,-5.292 48,-16.917l124.417,-140.667l-858.709,-57.625l-167.546,144.709c-13.266,11.458 -5.695,33.25 11.821,34Z" style="fill:#91b3fa;fill-rule:nonzero;"/><path d="M3117.02,7611.71c-0.917,-0 -1.875,-0.042 -2.834,-0.084l-811.25,-31.333c-16.896,-0.667 -24.191,-19.375 -11.416,-29.209l125.666,-124.333l841.5,59.833l-98.25,110.542c-12,9.417 -27.458,14.584 -43.416,14.584Z" style="fill:#c3d5fc;fill-rule:nonzero;"/><path d="M2608.68,5552.34c0,0 -160.083,-189.416 -330.287,42.959c-30.825,42.125 -149.229,7.375 -192.633,95.5c-22.409,45.458 -70.817,71.333 -120.684,62.125c-124.2,-22.917 -327.208,-24.834 -427.437,169.792c-76.509,148.541 -17.438,235.5 59.037,285.083c56.171,36.375 76.221,110.291 42.254,167.958c-32.583,55.334 -38.704,130.25 45.417,220.417c188.513,202.042 561.683,-128.208 561.683,-128.208l296.317,-700.167l66.333,-215.459Z" style="fill:url(#_Linear53);"/><path d="M2313.72,7422.55c0,-0 252.191,-263.611 373.162,-435.629c41.282,-58.701 80.482,-207.619 54.806,-312.65c-41.089,-168.083 -134.926,-410.346 -144.676,-443.013c-14.959,-50.083 -315.096,-48 -315.096,-48c-0,0 -590.6,383.292 -822.65,1032.58l260.604,81.125c0,-0 154.208,-258.709 306.571,-423.167c-0,-0 -263.646,348.292 -272.929,490.875l560.208,57.875Z" style="fill:url(#_Linear54);"/><path d="M2823.72,7523.13l-201.125,-218.833l-232.292,62.542c0,-0 -270.8,41.958 -425.795,-0l-154.992,-41.959l-350.25,-109.041l-55.013,155.458c-13.966,39.5 0.071,83.292 34.196,107.542c30.304,21.541 65.821,45.208 88.463,55.125c46.125,20.166 1062.52,6.374 1062.52,6.374l234.292,-17.208Z" style="fill:url(#_Linear55);"/><path d="M2488.18,5822.38l-201.708,375.125c13.333,81.875 219.542,84.167 251.417,35.292c3.25,-5 5.083,-10.75 6.333,-16.542l120.667,-250.625c5.166,-24.458 -61.834,-106.792 -83.875,-118.542l-80.209,-42.666c-30.833,-16.458 97.959,-17.75 -12.625,17.958Z" style="fill:url(#_Linear56);"/><path d="M2896.43,5734.34c0,0 22.792,126.75 -76.833,287.875c-99.583,161.125 -198.792,153.875 -249.208,96.376c-50.375,-57.459 -110.75,-153.167 -83.25,-313.876c27.458,-160.708 374.875,-231.958 409.291,-70.375Z" style="fill:url(#_Linear57);"/><path d="M2607.72,5822.17c0,-0 161.25,-211.834 285.083,-27.167l-2.083,63.792c0,-0 161.042,-7.5 143.583,-155.917c-17.458,-148.417 -148.916,-249.833 -331.166,-199.125c-182.25,50.708 -288.75,108.459 -309.334,235c-20.583,126.542 82.75,105.875 82.75,105.875c0,0 39.459,-87.333 87.084,-93.292c47.666,-5.958 30.458,63.126 30.458,63.126l13.625,7.708Z" style="fill:url(#_Linear58);"/><path d="M2570.68,5816.55c0,-0 83.542,-108.417 7.5,-130.917c-76.041,-22.5 -73.208,106.208 -68.25,154.125l60.75,-23.208Z" style="fill:url(#_Linear59);"/></g><defs><linearGradient id="_Linear1" x1="0" y1="0" x2="1" y2="0" gradientUnits="userSpaceOnUse" gradientTransform="matrix(-10534.6,-13083.2,13083.2,-10534.6,13256.6,15215.6)"><stop offset="0" style="stop-color:#dae2fd;stop-opacity:1"/><stop offset="1" style="stop-color:#e8effd;stop-opacity:1"/></linearGradient><linearGradient id="_Linear2" x1="0" y1="0" x2="1" y2="0" gradientUnits="userSpaceOnUse" gradientTransform="matrix(851.946,0,0,851.946,3465.47,2547.3)"><stop offset="0" style="stop-color:#4f52ff;stop-opacity:1"/><stop offset="1" style="stop-color:#3f42e2;stop-opacity:1"/></linearGradient><linearGradient id="_Linear3" x1="0" y1="0" x2="1" y2="0" gradientUnits="userSpaceOnUse" gradientTransform="matrix(752.367,0,0,752.367,4219.27,2620.63)"><stop offset="0" style="stop-color:#4f52ff;stop-opacity:1"/><stop offset="1" style="stop-color:#3f42e2;stop-opacity:1"/></linearGradient><linearGradient id="_Linear4" x1="0" y1="0" x2="1" y2="0" gradientUnits="userSpaceOnUse" gradientTransform="matrix(752.367,0,0,752.367,7716.18,2620.63)"><stop offset="0" style="stop-color:#4f52ff;stop-opacity:1"/><stop offset="1" style="stop-color:#3f42e2;stop-opacity:1"/></linearGradient><linearGradient id="_Linear5" x1="0" y1="0" x2="1" y2="0" gradientUnits="userSpaceOnUse" gradientTransform="matrix(752.367,0,0,752.367,2692.6,2620.63)"><stop offset="0" style="stop-color:#4f52ff;stop-opacity:1"/><stop offset="1" style="stop-color:#3f42e2;stop-opacity:1"/></linearGradient><linearGradient id="_Linear6" x1="0" y1="0" x2="1" y2="0" gradientUnits="userSpaceOnUse" gradientTransform="matrix(673.892,0,0,673.892,8519.1,2573.84)"><stop offset="0" style="stop-color:#4f52ff;stop-opacity:1"/><stop offset="1" style="stop-color:#3f42e2;stop-opacity:1"/></linearGradient><linearGradient id="_Linear7" x1="0" y1="0" x2="1" y2="0" gradientUnits="userSpaceOnUse" gradientTransform="matrix(1203.25,0,0,1203.25,5725.14,2585.8)"><stop offset="0" style="stop-color:#4f52ff;stop-opacity:1"/><stop offset="1" style="stop-color:#3f42e2;stop-opacity:1"/></linearGradient><linearGradient id="_Linear8" x1="0" y1="0" x2="1" y2="0" gradientUnits="userSpaceOnUse" gradientTransform="matrix(850.321,0,0,850.321,10050.7,2547.3)"><stop offset="0" style="stop-color:#4f52ff;stop-opacity:1"/><stop offset="1" style="stop-color:#3f42e2;stop-opacity:1"/></linearGradient><linearGradient id="_Linear9" x1="0" y1="0" x2="1" y2="0" gradientUnits="userSpaceOnUse" gradientTransform="matrix(814.621,0,0,814.621,10188.4,9253.71)"><stop offset="0" style="stop-color:#4f52ff;stop-opacity:1"/><stop offset="1" style="stop-color:#3f42e2;stop-opacity:1"/></linearGradient><linearGradient id="_Linear10" x1="0" y1="0" x2="1" y2="0" gradientUnits="userSpaceOnUse" gradientTransform="matrix(759.354,-1387.78,1387.78,759.354,8691.52,7602.55)"><stop offset="0" style="stop-color:#fdf43f;stop-opacity:1"/><stop offset="1" style="stop-color:#d83b64;stop-opacity:1"/></linearGradient><linearGradient id="_Linear11" x1="0" y1="0" x2="1" y2="0" gradientUnits="userSpaceOnUse" gradientTransform="matrix(759.35,-1387.78,1387.78,759.35,8540.85,7684.96)"><stop offset="0" style="stop-color:#fdf43f;stop-opacity:1"/><stop offset="1" style="stop-color:#d83b64;stop-opacity:1"/></linearGradient><linearGradient id="_Linear12" x1="0" y1="0" x2="1" y2="0" gradientUnits="userSpaceOnUse" gradientTransform="matrix(719.404,0,0,719.404,6219.18,9323.8)"><stop offset="0" style="stop-color:#4f52ff;stop-opacity:1"/><stop offset="1" style="stop-color:#3f42e2;stop-opacity:1"/></linearGradient><linearGradient id="_Linear13" x1="0" y1="0" x2="1" y2="0" gradientUnits="userSpaceOnUse" gradientTransform="matrix(644.367,0,0,644.367,5526.48,9279.09)"><stop offset="0" style="stop-color:#4f52ff;stop-opacity:1"/><stop offset="1" style="stop-color:#3f42e2;stop-opacity:1"/></linearGradient><linearGradient id="_Linear14" x1="0" y1="0" x2="1" y2="0" gradientUnits="userSpaceOnUse" gradientTransform="matrix(1150.54,0,0,1150.54,7691.89,9290.5)"><stop offset="0" style="stop-color:#4f52ff;stop-opacity:1"/><stop offset="1" style="stop-color:#3f42e2;stop-opacity:1"/></linearGradient><linearGradient id="_Linear15" x1="0" y1="0" x2="1" y2="0" gradientUnits="userSpaceOnUse" gradientTransform="matrix(814.621,0,0,814.621,3963.22,9227.34)"><stop offset="0" style="stop-color:#4f52ff;stop-opacity:1"/><stop offset="1" style="stop-color:#3f42e2;stop-opacity:1"/></linearGradient><linearGradient id="_Linear16" x1="0" y1="0" x2="1" y2="0" gradientUnits="userSpaceOnUse" gradientTransform="matrix(435.046,-750.808,750.808,435.046,2243.9,8058.46)"><stop offset="0" style="stop-color:#fdf43f;stop-opacity:1"/><stop offset="1" style="stop-color:#d83b64;stop-opacity:1"/></linearGradient><linearGradient id="_Linear17" x1="0" y1="0" x2="1" y2="0" gradientUnits="userSpaceOnUse" gradientTransform="matrix(-759.354,1571.08,-1571.08,-759.354,3337.35,7738.3)"><stop offset="0" style="stop-color:#fdf43f;stop-opacity:1"/><stop offset="1" style="stop-color:#d83b64;stop-opacity:1"/></linearGradient><linearGradient id="_Linear18" x1="0" y1="0" x2="1" y2="0" gradientUnits="userSpaceOnUse" gradientTransform="matrix(-759.354,1571.08,-1571.08,-759.354,3469.27,7802.05)"><stop offset="0" style="stop-color:#fdf43f;stop-opacity:1"/><stop offset="1" style="stop-color:#d83b64;stop-opacity:1"/></linearGradient><linearGradient id="_Linear19" x1="0" y1="0" x2="1" y2="0" gradientUnits="userSpaceOnUse" gradientTransform="matrix(1203.26,0,0,1203.26,3943.77,6212.17)"><stop offset="0" style="stop-color:#4f52ff;stop-opacity:1"/><stop offset="1" style="stop-color:#3f42e2;stop-opacity:1"/></linearGradient><linearGradient id="_Linear20" x1="0" y1="0" x2="1" y2="0" gradientUnits="userSpaceOnUse" gradientTransform="matrix(850.321,0,0,850.321,9180.06,6194.17)"><stop offset="0" style="stop-color:#4f52ff;stop-opacity:1"/><stop offset="1" style="stop-color:#3f42e2;stop-opacity:1"/></linearGradient><linearGradient id="_Linear21" x1="0" y1="0" x2="1" y2="0" gradientUnits="userSpaceOnUse" gradientTransform="matrix(785.342,0,0,785.342,10053.8,6057.09)"><stop offset="0" style="stop-color:#4f52ff;stop-opacity:1"/><stop offset="1" style="stop-color:#3f42e2;stop-opacity:1"/></linearGradient><linearGradient id="_Linear22" x1="0" y1="0" x2="1" y2="0" gradientUnits="userSpaceOnUse" gradientTransform="matrix(1255.99,0,0,1255.99,2657.31,5992.42)"><stop offset="0" style="stop-color:#4f52ff;stop-opacity:1"/><stop offset="1" style="stop-color:#3f42e2;stop-opacity:1"/></linearGradient><linearGradient id="_Linear23" x1="0" y1="0" x2="1" y2="0" gradientUnits="userSpaceOnUse" gradientTransform="matrix(2402.29,3186.06,-3186.06,2402.29,4593.52,3927.38)"><stop offset="0" style="stop-color:#ff918e;stop-opacity:1"/><stop offset="1" style="stop-color:#fd7062;stop-opacity:1"/></linearGradient><linearGradient id="_Linear24" x1="0" y1="0" x2="1" y2="0" gradientUnits="userSpaceOnUse" gradientTransform="matrix(-1496.85,248.143,-248.143,-1496.85,9841.81,5482.88)"><stop offset="0" style="stop-color:#ff918e;stop-opacity:1"/><stop offset="1" style="stop-color:#fd7062;stop-opacity:1"/></linearGradient><linearGradient id="_Linear25" x1="0" y1="0" x2="1" y2="0" gradientUnits="userSpaceOnUse" gradientTransform="matrix(1876.05,-2040.62,2040.62,1876.05,8308.64,11209.7)"><stop offset="0" style="stop-color:#08005d;stop-opacity:1"/><stop offset="1" style="stop-color:#1a0e90;stop-opacity:1"/></linearGradient><linearGradient id="_Linear26" x1="0" y1="0" x2="1" y2="0" gradientUnits="userSpaceOnUse" gradientTransform="matrix(-166.64,2.04075e-14,-2.04075e-14,-166.64,8917.6,11361.3)"><stop offset="0" style="stop-color:#fdbaba;stop-opacity:1"/><stop offset="1" style="stop-color:#ff918e;stop-opacity:1"/></linearGradient><linearGradient id="_Linear27" x1="0" y1="0" x2="1" y2="0" gradientUnits="userSpaceOnUse" gradientTransform="matrix(-4047.67,6821.63,-6821.63,-4047.67,10198,7946.84)"><stop offset="0" style="stop-color:#08005d;stop-opacity:1"/><stop offset="1" style="stop-color:#1a0e90;stop-opacity:1"/></linearGradient><linearGradient id="_Linear28" x1="0" y1="0" x2="1" y2="0" gradientUnits="userSpaceOnUse" gradientTransform="matrix(1876.05,-2040.62,2040.62,1876.05,8729.52,10822.8)"><stop offset="0" style="stop-color:#08005d;stop-opacity:1"/><stop offset="1" style="stop-color:#1a0e90;stop-opacity:1"/></linearGradient><linearGradient id="_Linear29" x1="0" y1="0" x2="1" y2="0" gradientUnits="userSpaceOnUse" gradientTransform="matrix(-143.878,1.762e-14,-1.762e-14,-143.878,9518.14,11352.7)"><stop offset="0" style="stop-color:#fdbaba;stop-opacity:1"/><stop offset="1" style="stop-color:#ff918e;stop-opacity:1"/></linearGradient><linearGradient id="_Linear30" x1="0" y1="0" x2="1" y2="0" gradientUnits="userSpaceOnUse" gradientTransform="matrix(-4047.66,6821.58,-6821.58,-4047.66,10390.2,8060.88)"><stop offset="0" style="stop-color:#08005d;stop-opacity:1"/><stop offset="1" style="stop-color:#1a0e90;stop-opacity:1"/></linearGradient><linearGradient id="_Linear31" x1="0" y1="0" x2="1" y2="0" gradientUnits="userSpaceOnUse" gradientTransform="matrix(896.337,-1075.6,1075.6,896.337,-44612.1,-56533)"><stop offset="0" style="stop-color:#ff918e;stop-opacity:1"/><stop offset="1" style="stop-color:#fd7062;stop-opacity:1"/></linearGradient><linearGradient id="_Linear32" x1="0" y1="0" x2="1" y2="0" gradientUnits="userSpaceOnUse" gradientTransform="matrix(-851.333,1.04258e-13,-1.04258e-13,-851.333,8231.85,7013.84)"><stop offset="0" style="stop-color:#fdbaba;stop-opacity:1"/><stop offset="1" style="stop-color:#ff918e;stop-opacity:1"/></linearGradient><linearGradient id="_Linear33" x1="0" y1="0" x2="1" y2="0" gradientUnits="userSpaceOnUse" gradientTransform="matrix(571.267,1299.76,-1299.76,571.267,7570.18,6871.13)"><stop offset="0" style="stop-color:#fdbaba;stop-opacity:1"/><stop offset="1" style="stop-color:#ff918e;stop-opacity:1"/></linearGradient><linearGradient id="_Linear34" x1="0" y1="0" x2="1" y2="0" gradientUnits="userSpaceOnUse" gradientTransform="matrix(-238.365,366.487,-366.487,-238.365,7384.6,6438.3)"><stop offset="0" style="stop-color:#fdbaba;stop-opacity:1"/><stop offset="1" style="stop-color:#ff918e;stop-opacity:1"/></linearGradient><linearGradient id="_Linear35" x1="0" y1="0" x2="1" y2="0" gradientUnits="userSpaceOnUse" gradientTransform="matrix(896.342,-1075.61,1075.61,896.342,-44147.9,-56919.6)"><stop offset="0" style="stop-color:#ff918e;stop-opacity:1"/><stop offset="1" style="stop-color:#fd7062;stop-opacity:1"/></linearGradient><linearGradient id="_Linear36" x1="0" y1="0" x2="1" y2="0" gradientUnits="userSpaceOnUse" gradientTransform="matrix(-1077.37,1.3194e-13,-1.3194e-13,-1077.37,10094.8,8219.75)"><stop offset="0" style="stop-color:#fdbaba;stop-opacity:1"/><stop offset="1" style="stop-color:#ff918e;stop-opacity:1"/></linearGradient><linearGradient id="_Linear37" x1="0" y1="0" x2="1" y2="0" gradientUnits="userSpaceOnUse" gradientTransform="matrix(-592.408,-2468.37,2468.37,-592.408,8691.43,7453.75)"><stop offset="0" style="stop-color:#08005d;stop-opacity:1"/><stop offset="1" style="stop-color:#1a0e90;stop-opacity:1"/></linearGradient><linearGradient id="_Linear38" x1="0" y1="0" x2="1" y2="0" gradientUnits="userSpaceOnUse" gradientTransform="matrix(-335.645,4.11047e-14,-4.11047e-14,-335.645,9097.39,8106.75)"><stop offset="0" style="stop-color:#fdbaba;stop-opacity:1"/><stop offset="1" style="stop-color:#ff918e;stop-opacity:1"/></linearGradient><linearGradient id="_Linear39" x1="0" y1="0" x2="1" y2="0" gradientUnits="userSpaceOnUse" gradientTransform="matrix(-425.954,5.21643e-14,-5.21643e-14,-425.954,9267.48,7067.96)"><stop offset="0" style="stop-color:#fdbaba;stop-opacity:1"/><stop offset="1" style="stop-color:#ff918e;stop-opacity:1"/></linearGradient><linearGradient id="_Linear40" x1="0" y1="0" x2="1" y2="0" gradientUnits="userSpaceOnUse" gradientTransform="matrix(468.342,285.654,-285.654,468.342,8740.23,6796.96)"><stop offset="0" style="stop-color:#fdbaba;stop-opacity:1"/><stop offset="1" style="stop-color:#ff918e;stop-opacity:1"/></linearGradient><linearGradient id="_Linear41" x1="0" y1="0" x2="1" y2="0" gradientUnits="userSpaceOnUse" gradientTransform="matrix(-605.042,-477.879,477.879,-605.042,9456.48,6210.21)"><stop offset="0" style="stop-color:#08005d;stop-opacity:1"/><stop offset="1" style="stop-color:#1a0e90;stop-opacity:1"/></linearGradient><linearGradient id="_Linear42" x1="0" y1="0" x2="1" y2="0" gradientUnits="userSpaceOnUse" gradientTransform="matrix(421.371,257.006,-257.006,421.371,8863.23,6903.5)"><stop offset="0" style="stop-color:#fdbaba;stop-opacity:1"/><stop offset="1" style="stop-color:#ff918e;stop-opacity:1"/></linearGradient><linearGradient id="_Linear43" x1="0" y1="0" x2="1" y2="0" gradientUnits="userSpaceOnUse" gradientTransform="matrix(-924.642,1311.48,-1311.48,-924.642,5491.23,5428.5)"><stop offset="0" style="stop-color:#08005d;stop-opacity:1"/><stop offset="1" style="stop-color:#1a0e90;stop-opacity:1"/></linearGradient><linearGradient id="_Linear44" x1="0" y1="0" x2="1" y2="0" gradientUnits="userSpaceOnUse" gradientTransform="matrix(-917.767,4457.75,-4457.75,-917.767,3657.85,1118.17)"><stop offset="0" style="stop-color:#08005d;stop-opacity:1"/><stop offset="1" style="stop-color:#1a0e90;stop-opacity:1"/></linearGradient><linearGradient id="_Linear45" x1="0" y1="0" x2="1" y2="0" gradientUnits="userSpaceOnUse" gradientTransform="matrix(5054.13,-1182.64,1182.64,5054.13,-3589.24,7999.84)"><stop offset="0" style="stop-color:#4f52ff;stop-opacity:1"/><stop offset="1" style="stop-color:#3f42e2;stop-opacity:1"/></linearGradient><linearGradient id="_Linear46" x1="0" y1="0" x2="1" y2="0" gradientUnits="userSpaceOnUse" gradientTransform="matrix(-1430.33,816.412,-816.412,-1430.33,4440.85,7850.96)"><stop offset="0" style="stop-color:#fdbaba;stop-opacity:1"/><stop offset="1" style="stop-color:#ff918e;stop-opacity:1"/></linearGradient><linearGradient id="_Linear47" x1="0" y1="0" x2="1" y2="0" gradientUnits="userSpaceOnUse" gradientTransform="matrix(-644.275,-1559.32,1559.32,-644.275,4253.85,8667.3)"><stop offset="0" style="stop-color:#08005d;stop-opacity:1"/><stop offset="1" style="stop-color:#1a0e90;stop-opacity:1"/></linearGradient><linearGradient id="_Linear48" x1="0" y1="0" x2="1" y2="0" gradientUnits="userSpaceOnUse" gradientTransform="matrix(4893.88,-3063.65,3063.65,4893.88,4302.48,8054.59)"><stop offset="0" style="stop-color:#fdbaba;stop-opacity:1"/><stop offset="1" style="stop-color:#ff918e;stop-opacity:1"/></linearGradient><linearGradient id="_Linear49" x1="0" y1="0" x2="1" y2="0" gradientUnits="userSpaceOnUse" gradientTransform="matrix(-946.487,-1396.51,1396.51,-946.487,4003.97,9074.09)"><stop offset="0" style="stop-color:#08005d;stop-opacity:1"/><stop offset="1" style="stop-color:#1a0e90;stop-opacity:1"/></linearGradient><linearGradient id="_Linear50" x1="0" y1="0" x2="1" y2="0" gradientUnits="userSpaceOnUse" gradientTransform="matrix(2865.78,-4224.37,4224.37,2865.78,-64589.2,106368)"><stop offset="0" style="stop-color:#ff918e;stop-opacity:1"/><stop offset="1" style="stop-color:#fd7062;stop-opacity:1"/></linearGradient><linearGradient id="_Linear51" x1="0" y1="0" x2="1" y2="0" gradientUnits="userSpaceOnUse" gradientTransform="matrix(-221.726,82.5575,-82.5575,-221.726,3777.02,7078.25)"><stop offset="0" style="stop-color:#08005d;stop-opacity:1"/><stop offset="1" style="stop-color:#1a0e90;stop-opacity:1"/></linearGradient><linearGradient id="_Linear52" x1="0" y1="0" x2="1" y2="0" gradientUnits="userSpaceOnUse" gradientTransform="matrix(3.53829,248.853,-248.853,3.53829,2756.97,7147.88)"><stop offset="0" style="stop-color:#08005d;stop-opacity:1"/><stop offset="1" style="stop-color:#1a0e90;stop-opacity:1"/></linearGradient><linearGradient id="_Linear53" x1="0" y1="0" x2="1" y2="0" gradientUnits="userSpaceOnUse" gradientTransform="matrix(-621.892,-717.938,717.938,-621.892,2853.81,5076.96)"><stop offset="0" style="stop-color:#08005d;stop-opacity:1"/><stop offset="1" style="stop-color:#1a0e90;stop-opacity:1"/></linearGradient><linearGradient id="_Linear54" x1="0" y1="0" x2="1" y2="0" gradientUnits="userSpaceOnUse" gradientTransform="matrix(-1603.97,886.904,-886.904,-1603.97,5873.52,4825.75)"><stop offset="0" style="stop-color:#ff918e;stop-opacity:1"/><stop offset="1" style="stop-color:#fd7062;stop-opacity:1"/></linearGradient><linearGradient id="_Linear55" x1="0" y1="0" x2="1" y2="0" gradientUnits="userSpaceOnUse" gradientTransform="matrix(-1424.83,1.74491e-13,-1.74491e-13,-1424.83,1935.67,7380.38)"><stop offset="0" style="stop-color:#fdbaba;stop-opacity:1"/><stop offset="1" style="stop-color:#ff918e;stop-opacity:1"/></linearGradient><linearGradient id="_Linear56" x1="0" y1="0" x2="1" y2="0" gradientUnits="userSpaceOnUse" gradientTransform="matrix(-32.9353,513.221,-513.221,-32.9353,2515.6,6699.42)"><stop offset="0" style="stop-color:#fdbaba;stop-opacity:1"/><stop offset="1" style="stop-color:#ff918e;stop-opacity:1"/></linearGradient><linearGradient id="_Linear57" x1="0" y1="0" x2="1" y2="0" gradientUnits="userSpaceOnUse" gradientTransform="matrix(619.988,1186.51,-1186.51,619.988,2467.1,6265.17)"><stop offset="0" style="stop-color:#fdbaba;stop-opacity:1"/><stop offset="1" style="stop-color:#ff918e;stop-opacity:1"/></linearGradient><linearGradient id="_Linear58" x1="0" y1="0" x2="1" y2="0" gradientUnits="userSpaceOnUse" gradientTransform="matrix(-868.167,-174.19,174.19,-868.167,3241.73,5592.25)"><stop offset="0" style="stop-color:#08005d;stop-opacity:1"/><stop offset="1" style="stop-color:#1a0e90;stop-opacity:1"/></linearGradient><linearGradient id="_Linear59" x1="0" y1="0" x2="1" y2="0" gradientUnits="userSpaceOnUse" gradientTransform="matrix(619.983,1186.5,-1186.5,619.983,2325.18,6191)"><stop offset="0" style="stop-color:#fdbaba;stop-opacity:1"/><stop offset="1" style="stop-color:#ff918e;stop-opacity:1"/></linearGradient></defs></svg>