<?xml version="1.0" encoding="UTF-8" standalone="no"?>
<!DOCTYPE svg PUBLIC "-//W3C//DTD SVG 1.1//EN" "http://www.w3.org/Graphics/SVG/1.1/DTD/svg11.dtd">
<svg width="100%" height="100%" viewBox="0 0 2757 2800" version="1.1" xmlns="http://www.w3.org/2000/svg" xmlns:xlink="http://www.w3.org/1999/xlink" xml:space="preserve" xmlns:serif="http://www.serif.com/" style="fill-rule:evenodd;clip-rule:evenodd;stroke-linejoin:round;stroke-miterlimit:2;">
    <g transform="matrix(1,0,0,1,-470.483,-455)">
        <path d="M1890,3255C1722.81,3255 1595.09,3231.62 1544.15,3221.28C1359.41,3183.75 1002.31,3111.23 744.132,2807.62C353.531,2348.28 414.353,1624.6 717.329,1146.9C741.044,1109.5 808.232,999.29 923.947,879.348C924.738,881.105 926.19,882.567 928.124,883.325C935.754,886.316 943.364,889.679 950.746,893.324C951.833,893.86 952.985,894.115 954.12,894.115C956.648,894.115 959.089,892.853 960.525,890.644C960.688,890.394 960.837,890.131 960.974,889.856C962.841,886.074 961.288,881.493 957.507,879.626C949.79,875.818 941.835,872.3 933.863,869.169C1041.17,760.066 1188.39,644.452 1379.39,569.157C1304.9,614.131 1236.91,673.215 1182.59,741.798C1181.38,742.413 1180.46,743.541 1180.13,744.919C1076.05,877.904 1023.36,1046.06 1073.77,1216.28C1078.36,1231.77 1083.91,1247.89 1090.41,1264.24C1089.93,1265.4 1089.44,1266.55 1088.94,1267.7C1087.27,1271.58 1089.06,1276.07 1092.93,1277.74C1093.92,1278.16 1094.94,1278.36 1095.95,1278.36L1096.23,1278.36C1130.83,1359.17 1187.92,1442.06 1263.82,1475.17C1271.55,1478.54 1279.46,1481.38 1287.52,1483.7C1292.54,1486.69 1297.93,1489.45 1303.73,1491.98C1338.89,1507.32 1415.17,1518.44 1477.33,1518.44C1506.78,1518.44 1533.04,1515.95 1550.29,1510.22C1692.88,1462.88 1786.6,1333.32 1709.05,1189.63C1684.22,1143.62 1652.07,1101.59 1630.63,1053.9C1609.18,1006.21 1599.41,949.611 1621.27,902.111C1662.38,812.819 1794.89,781.854 1887.24,781.854C1891.32,781.854 1895.3,781.914 1899.21,782.032C1904,782.177 1908.76,782.419 1913.5,782.757C1966.56,808.259 2012.25,848.101 2045.25,900.137C2118.44,1015.53 2136.98,1155.89 2126.27,1289.84C2114.8,1433.18 2054.37,1542.63 1963.8,1652.59C1885.82,1747.25 1799.95,1838.12 1748.13,1949.28C1700.55,2051.33 1685,2164.4 1682.85,2276.04C1682.43,2297.68 1689.72,2523.64 1690.18,2585.94C1690.25,2594.74 1697.33,2601.85 1706.12,2601.95C1735.6,2613.85 1819.58,2633.63 1826.82,2633.71C1872.75,2634.23 2002.84,2635.68 2050.72,2636.22L2050.92,2636.22C2060.68,2636.22 2068.68,2628.39 2068.79,2618.61C2072.2,2315.51 2165.43,2026.55 2401.43,1822.99C2487.3,1748.92 2579.78,1688.6 2646.55,1595.11C2695.21,1526.98 2731.27,1459.4 2753.08,1387.64L3098.85,1370.86C3110.48,1370.29 3120.92,1365.42 3128.65,1357.82C3302.44,1831.25 3237.26,2389.82 3008.78,2737.32C3005.87,2737.42 3002.94,2737.47 3000.01,2737.47C2951.49,2737.47 2901.2,2724.86 2848.66,2712.26C2796.11,2699.65 2741.29,2687.04 2683.69,2687.04C2645.67,2687.04 2606.43,2692.54 2565.83,2707.15C2353.84,2783.46 2383.06,3071.21 2394.96,3148.22C2396.64,3159.07 2404.98,3167.56 2415.66,3169.6C2226.66,3235.65 2042.01,3255 1890,3255ZM1818.34,3228.14C1819.36,3228.52 1820.39,3228.9 1821.43,3229.28C1846.75,3238.43 1939.71,3238.67 1975.19,3238.67L1980.71,3238.67C2120.09,3238.67 2197.34,3115.36 2197.34,2975.99C2197.34,2839.16 2055.07,2737.58 1917.99,2733.92C1898.03,2728.84 1877.13,2726.14 1855.59,2726.14C1716.21,2726.14 1603.23,2839.13 1603.23,2978.5C1603.23,3105.22 1696.63,3210.13 1818.34,3228.14ZM3012.66,1537.45C3000.14,1537.45 2987.69,1545.99 2986.13,1561.14C2962.87,1786.93 2788.02,1865.83 2402.28,2250.11C1995.95,2654.91 2301.26,3097.76 2343.25,3154.35C2346.13,3158.23 2350.42,3160.76 2355.21,3161.41C2356.06,3161.53 2356.89,3161.58 2357.71,3161.58C2369.17,3161.58 2377.94,3150.69 2374.96,3139.15C2350.86,3045.65 2310,2716.64 2808.51,2416.5C3260.43,2144.41 3123.87,1729.87 3036.22,1552.22C3031.23,1542.11 3021.93,1537.45 3012.66,1537.45ZM866.075,1439.86C865.704,1439.86 865.328,1439.89 864.949,1439.94C856.94,1441.13 848.795,1441.99 840.737,1442.5C836.529,1442.76 833.332,1446.39 833.599,1450.6C833.856,1454.65 837.214,1457.76 841.213,1457.76C841.375,1457.76 841.539,1457.75 841.703,1457.74C850.183,1457.2 858.757,1456.3 867.184,1455.05C869.44,1454.72 871.32,1453.43 872.471,1451.66C873.45,1450.15 873.904,1448.3 873.62,1446.38C873.06,1442.59 869.799,1439.86 866.075,1439.86ZM775.808,1439.38C772.12,1439.38 768.872,1442.06 768.273,1445.82C767.608,1449.98 770.446,1453.9 774.612,1454.56C783.011,1455.9 791.578,1456.9 800.073,1457.52C800.263,1457.54 800.453,1457.55 800.641,1457.55C803.294,1457.55 805.672,1456.17 807.042,1454.06C807.721,1453.02 808.152,1451.8 808.251,1450.47C808.561,1446.26 805.404,1442.6 801.197,1442.29C793.127,1441.7 784.993,1440.75 777.019,1439.48C776.612,1439.41 776.208,1439.38 775.808,1439.38ZM929.388,1423.24C928.478,1423.24 927.554,1423.4 926.654,1423.75C919.102,1426.64 911.338,1429.26 903.583,1431.51C899.531,1432.68 897.201,1436.92 898.379,1440.98C899.35,1444.32 902.399,1446.48 905.711,1446.48C906.416,1446.48 907.134,1446.38 907.845,1446.18C916.008,1443.81 924.176,1441.06 932.124,1438.01C933.688,1437.41 934.941,1436.35 935.789,1435.05C937.076,1433.07 937.429,1430.52 936.52,1428.14C935.354,1425.11 932.459,1423.24 929.388,1423.24ZM712.701,1421.96C709.666,1421.96 706.793,1423.78 705.601,1426.76C704.034,1430.68 705.942,1435.12 709.858,1436.69C717.767,1439.85 725.896,1442.71 734.024,1445.18C734.767,1445.41 735.517,1445.52 736.255,1445.52C738.829,1445.52 741.252,1444.21 742.657,1442.04C743.037,1441.46 743.343,1440.81 743.557,1440.11C744.787,1436.07 742.513,1431.8 738.479,1430.57C730.759,1428.22 723.039,1425.51 715.526,1422.5C714.599,1422.13 713.642,1421.96 712.701,1421.96ZM987.538,1393.24C986.086,1393.24 984.618,1393.65 983.318,1394.51C976.603,1398.98 969.6,1403.22 962.506,1407.12C958.809,1409.15 957.457,1413.79 959.491,1417.49C960.881,1420.02 963.493,1421.45 966.189,1421.45C967.432,1421.45 968.693,1421.14 969.86,1420.5C977.329,1416.4 984.701,1411.94 991.773,1407.23C992.668,1406.64 993.399,1405.89 993.949,1405.04C995.559,1402.56 995.646,1399.27 993.907,1396.65C992.436,1394.43 990.011,1393.24 987.538,1393.24ZM654.921,1391.18C652.48,1391.18 650.081,1392.35 648.604,1394.52C646.131,1398.01 647.13,1402.76 650.614,1405.13C652.476,1406.4 654.354,1407.65 656.252,1408.88C661.492,1412.29 666.914,1415.58 672.362,1418.67C673.55,1419.34 674.843,1419.66 676.118,1419.66C678.631,1419.66 681.077,1418.42 682.524,1416.19C682.61,1416.06 682.691,1415.92 682.769,1415.79C684.848,1412.12 683.558,1407.46 679.888,1405.38C674.708,1402.44 669.558,1399.32 664.575,1396.08C662.771,1394.91 660.983,1393.71 659.215,1392.51C657.898,1391.61 656.402,1391.18 654.921,1391.18ZM1037.69,1351.22C1035.68,1351.22 1033.67,1352.01 1032.17,1353.59C1026.6,1359.42 1020.7,1365.1 1014.63,1370.46C1011.48,1373.25 1011.18,1378.08 1013.97,1381.24C1015.48,1382.94 1017.58,1383.82 1019.7,1383.82C1021.49,1383.82 1023.3,1383.18 1024.75,1381.9C1031.14,1376.26 1037.35,1370.28 1043.22,1364.13C1043.55,1363.78 1043.85,1363.41 1044.1,1363.01C1046.06,1359.99 1045.67,1355.91 1042.97,1353.34C1041.49,1351.92 1039.59,1351.22 1037.69,1351.22ZM614.128,1357.71C612.15,1357.71 610.175,1358.48 608.679,1360C605.712,1363.02 605.769,1367.84 608.776,1370.8C611.752,1373.72 614.82,1376.61 617.895,1379.39C619.356,1380.71 621.188,1381.37 623.014,1381.37C625.099,1381.37 627.175,1380.52 628.683,1378.85C628.961,1378.54 629.208,1378.22 629.426,1377.88C631.435,1374.79 630.961,1370.61 628.14,1368.06C625.22,1365.42 622.304,1362.68 619.479,1359.9C617.992,1358.44 616.059,1357.71 614.128,1357.71ZM1077.41,1299.18C1074.81,1299.18 1072.28,1300.5 1070.86,1302.88C1066.64,1309.88 1062.14,1316.69 1057.44,1323.2C1054.98,1326.62 1055.75,1331.39 1059.16,1333.86C1060.52,1334.84 1062.08,1335.31 1063.63,1335.31C1066,1335.31 1068.34,1334.21 1069.83,1332.14C1072.74,1328.11 1075.6,1323.94 1078.33,1319.73C1080.24,1316.79 1082.11,1313.8 1083.94,1310.76C1086.12,1307.15 1084.96,1302.46 1081.35,1300.28C1080.11,1299.54 1078.75,1299.18 1077.41,1299.18ZM989.776,899.57C987.328,899.57 984.923,900.745 983.447,902.924L983.366,903.05C981.105,906.529 982.036,911.194 985.487,913.531C992.309,918.151 998.995,923.108 1005.36,928.264C1006.78,929.409 1008.48,929.967 1010.17,929.967C1012.39,929.967 1014.6,928.999 1016.11,927.134C1016.28,926.924 1016.43,926.706 1016.58,926.483C1018.68,923.247 1018.04,918.877 1014.98,916.395C1008.27,910.966 1001.23,905.749 994.054,900.886C992.741,899.997 991.251,899.57 989.776,899.57ZM999.912,840.489C998.273,840.489 996.682,841.329 995.861,842.852C995.311,843.809 994.766,844.765 994.234,845.735C990.7,852.095 987.476,858.697 984.665,865.338C983.649,867.738 984.769,870.504 987.169,871.52C987.769,871.774 988.392,871.895 989.006,871.895C990.576,871.895 992.081,871.106 992.96,869.752C993.108,869.523 993.241,869.277 993.35,869.016C996.032,862.683 999.107,856.387 1002.49,850.299C1003,849.374 1003.51,848.471 1004.03,847.579C1005.33,845.321 1004.56,842.437 1002.31,841.133C1001.56,840.698 1000.73,840.489 999.912,840.489ZM1029.41,801.388C1028.18,801.388 1026.95,801.868 1026.02,802.823C1020.23,808.8 1014.74,815.22 1009.7,821.903C1008.16,824.014 1008.55,826.945 1010.63,828.511C1011.48,829.153 1012.48,829.462 1013.46,829.462C1014.89,829.462 1016.31,828.814 1017.24,827.586C1022.04,821.207 1027.28,815.084 1032.8,809.385C1033.01,809.161 1033.2,808.921 1033.37,808.67C1034.57,806.816 1034.34,804.311 1032.69,802.717C1031.78,801.83 1030.59,801.388 1029.41,801.388ZM1067.55,770.715C1066.7,770.715 1065.85,770.942 1065.07,771.418C1057.97,775.806 1051.07,780.679 1044.58,785.903C1042.55,787.547 1042.23,790.506 1043.86,792.537C1044.79,793.695 1046.16,794.297 1047.54,794.297C1048.58,794.297 1049.62,793.956 1050.49,793.256C1056.69,788.273 1063.26,783.628 1070.03,779.446C1070.65,779.068 1071.14,778.57 1071.51,778.003C1072.47,776.522 1072.55,774.556 1071.56,772.952C1070.67,771.509 1069.13,770.715 1067.55,770.715ZM1112.04,750.297C1111.57,750.297 1111.09,750.368 1110.62,750.519C1102.66,753.05 1094.78,756.094 1087.2,759.57C1084.83,760.653 1083.8,763.455 1084.88,765.824C1085.68,767.555 1087.39,768.576 1089.17,768.576C1089.83,768.576 1090.5,768.438 1091.13,768.146C1098.37,764.83 1105.88,761.925 1113.47,759.512C1114.55,759.167 1115.43,758.47 1116,757.587C1116.74,756.444 1116.98,754.987 1116.54,753.584C1115.9,751.578 1114.05,750.297 1112.04,750.297ZM1160.19,741.296C1160.09,741.296 1159.99,741.299 1159.89,741.305C1151.55,741.824 1143.16,742.864 1134.97,744.4C1132.41,744.882 1130.73,747.352 1131.2,749.906C1131.63,752.172 1133.61,753.754 1135.83,753.754C1136.12,753.754 1136.42,753.728 1136.71,753.673C1144.52,752.207 1152.52,751.215 1160.47,750.722C1162.03,750.626 1163.35,749.791 1164.14,748.58C1164.67,747.761 1164.95,746.771 1164.89,745.723C1164.74,743.223 1162.66,741.296 1160.19,741.296ZM2436.96,3161.97C2440.57,3157.54 2442.47,3151.69 2441.58,3145.43C2435.76,3104.4 2464.02,3070.45 2698.76,3032.22C2612.64,3087.45 2524.41,3129.82 2436.96,3161.97ZM2738.07,976.353C2711.65,893.824 2671.47,816.013 2615.39,749.268C2576.93,703.491 2531.96,663.996 2482.55,630.659C2575.7,675.949 2664.03,732.057 2744.27,799.281C2806.77,851.647 2862.7,909.23 2912.37,970.959L2738.07,976.353Z" style="fill:url(#_Linear1);"/>
        <path d="M2355.21,3161.41C2350.42,3160.76 2346.13,3158.23 2343.25,3154.35C2301.26,3097.76 1995.95,2654.91 2402.28,2250.11C2788.02,1865.83 2962.87,1786.93 2986.13,1561.14C2988.84,1534.78 3024.49,1528.45 3036.22,1552.22C3123.87,1729.87 3260.43,2144.41 2808.51,2416.5C2310,2716.64 2350.86,3045.65 2374.96,3139.15C2378.15,3151.51 2367.86,3163.13 2355.21,3161.41Z" style="fill:rgb(145,179,250);fill-rule:nonzero;"/>
        <path d="M2417.04,3169.83C2405.7,3168.28 2396.71,3159.53 2394.96,3148.22C2383.06,3071.21 2353.84,2783.46 2565.83,2707.15C2667.93,2670.4 2761.42,2691.33 2848.66,2712.26C2960.83,2739.16 3062.66,2766.07 3159.16,2670.38C3168.18,2661.43 3183.36,2669.23 3181.21,2681.76C3165.93,2770.62 3097.93,2976.45 2795.35,3017.86C2471.49,3062.19 2435.04,3099.34 2441.58,3145.43C2443.6,3159.64 2431.26,3171.76 2417.04,3169.83Z" style="fill:rgb(145,179,250);fill-rule:nonzero;"/>
        <path d="M2323.72,3088.78C2321.33,3088.78 2319.06,3087.41 2317.98,3085.17C2289.74,3025.23 2268.65,2961.51 2256.97,2895.72C2251,2862.86 2247.47,2829.48 2246.46,2795.98C2245.66,2762.48 2247.07,2728.84 2251.29,2695.5C2259.4,2628.77 2278.23,2563.4 2305.34,2501.86C2332.53,2440.29 2368.45,2382.78 2410.41,2330.32C2452.36,2277.79 2501.02,2230.79 2554.23,2189.73C2580.89,2169.25 2608.76,2150.3 2637.86,2133.27C2666.34,2116.93 2693.38,2100.32 2719.58,2081.42C2771.85,2044.08 2820.16,2000.97 2861.73,1951.77C2882.77,1927.39 2901.82,1901.29 2919.23,1874.09C2936.29,1846.83 2952.24,1818.07 2963.71,1788.33L2963.86,1787.94C2964.74,1785.66 2966.93,1784.25 2969.24,1784.25C2969.93,1784.25 2970.63,1784.38 2971.31,1784.64C2974.03,1785.69 2975.5,1788.58 2974.85,1791.34C2970.89,1808.09 2965.63,1823.81 2959.35,1839.41C2953.19,1855 2946.09,1870.2 2938.35,1885.07C2923.03,1914.91 2904.65,1943.14 2884.51,1970.03C2843.98,2023.68 2794.94,2070.81 2740.89,2110.78C2713.93,2130.65 2685.11,2148.91 2656.63,2165.41C2628.89,2181.5 2602.2,2199.5 2576.64,2218.99C2525.47,2257.97 2479.08,2303.2 2438.12,2352.79C2356.5,2452.06 2298.58,2571.85 2279.51,2699.39C2269.78,2763.02 2269.66,2828.16 2278.43,2892.32C2287.09,2956.56 2305.4,3019.46 2329.54,3080.11C2330.85,3083.35 2329.29,3087.02 2326.05,3088.33C2325.29,3088.64 2324.5,3088.78 2323.72,3088.78Z" style="fill:rgb(197,215,252);fill-rule:nonzero;"/>
        <path d="M2408.07,3124.05C2406.34,3124.05 2404.68,3123.11 2403.83,3121.47C2403.2,3120.25 2403.14,3118.89 2403.56,3117.69L2403.6,3117.6C2404.59,3114.81 2404.28,3112.22 2404.19,3109.56L2403.94,3101.62L2403.76,3085.76C2403.77,3075.18 2404,3064.61 2404.46,3054.05C2405.41,3032.92 2407.2,3011.81 2410.03,2990.82C2415.79,2948.89 2425.3,2907.08 2442.22,2867.71C2458.96,2828.6 2484.3,2791.23 2521.09,2766.82C2539.41,2754.83 2560.08,2746.3 2581.5,2741.96C2595.63,2738.99 2610.01,2737.68 2624.34,2737.68C2631.73,2737.68 2639.09,2738.03 2646.41,2738.67C2730.72,2748.45 2813.35,2764.61 2896.2,2777.74C2925.47,2782.1 2955.03,2786.13 2984.2,2786.13C2996.16,2786.13 3008.05,2785.45 3019.84,2783.84C3029.91,2782.37 3039.83,2780.17 3049.46,2777.07C3059,2773.74 3068.37,2769.85 3077.12,2764.72C3094.74,2754.66 3110.23,2740.9 3124.08,2725.64L3124.12,2725.59C3125.13,2724.48 3126.53,2723.91 3127.93,2723.91C3129.16,2723.91 3130.39,2724.35 3131.38,2725.24C3133.45,2727.12 3133.63,2730.31 3131.81,2732.42C3117.78,2748.57 3101.75,2763.5 3083.01,2774.74C3073.71,2780.46 3063.67,2784.92 3053.44,2788.72C3043.11,2792.29 3032.49,2794.88 3021.78,2796.68C3007.98,2798.7 2994.21,2799.52 2980.51,2799.52C2951.37,2799.52 2922.5,2795.79 2894.11,2791.9C2852.25,2785.94 2810.91,2778.18 2769.43,2771.47C2728.08,2764.74 2686.24,2758.23 2645.06,2753.4C2637.5,2752.67 2629.91,2752.28 2622.34,2752.28C2609.55,2752.28 2596.81,2753.4 2584.36,2755.91C2564.51,2759.75 2545.53,2767.41 2528.55,2778.28C2494.32,2800.08 2469.49,2834.76 2452.63,2872.31C2435.57,2910.04 2425.43,2950.89 2419,2992.11C2415.83,3012.76 2413.67,3033.58 2412.36,3054.47C2411.71,3064.91 2411.29,3075.36 2411.08,3085.83L2410.97,3101.52L2411.07,3109.35C2411.14,3111.95 2411.02,3114.61 2412.3,3117.08C2413.51,3119.42 2412.6,3122.3 2410.26,3123.51C2409.56,3123.87 2408.81,3124.05 2408.07,3124.05Z" style="fill:rgb(197,215,252);fill-rule:nonzero;"/>
        <path d="M2050.92,2636.22L2050.72,2636.22C2002.84,2635.68 1872.75,2634.23 1826.82,2633.71C1819.58,2633.63 1735.6,2613.85 1706.12,2601.95L1706.14,2601.95C1752.06,2602.47 1882.15,2603.92 1930.03,2604.45C1930.1,2604.46 1930.16,2604.46 1930.23,2604.46C1939.99,2604.46 1947.99,2596.63 1948.1,2586.85C1951.51,2283.76 2044.74,1994.79 2280.74,1791.23C2366.61,1717.16 2459.09,1656.84 2525.86,1563.35C2565.79,1507.45 2597.24,1451.91 2619.28,1394.13L2753.08,1387.64C2731.27,1459.4 2695.21,1526.98 2646.55,1595.11C2579.78,1688.6 2487.3,1748.92 2401.43,1822.99C2165.43,2026.55 2072.2,2315.51 2068.79,2618.61C2068.68,2628.39 2060.68,2636.22 2050.92,2636.22ZM1477.33,1518.44C1415.17,1518.44 1338.89,1507.32 1303.73,1491.98C1297.93,1489.45 1292.54,1486.69 1287.52,1483.7C1307.07,1489.34 1327.44,1491.98 1347.91,1491.98C1375.55,1491.98 1403.37,1487.17 1429.6,1478.46C1572.19,1431.12 1665.91,1301.55 1588.36,1157.87C1563.53,1111.86 1531.38,1069.83 1509.94,1022.14C1488.5,974.453 1478.72,917.851 1500.58,870.351C1541.69,781.058 1674.2,750.093 1766.55,750.093C1770.63,750.093 1774.61,750.153 1778.52,750.272C1826.32,751.718 1872.14,762.883 1913.5,782.757C1908.76,782.419 1904,782.177 1899.21,782.032C1895.3,781.914 1891.32,781.854 1887.24,781.854C1794.89,781.854 1662.38,812.819 1621.27,902.111C1599.41,949.611 1609.18,1006.21 1630.63,1053.9C1652.07,1101.59 1684.22,1143.62 1709.05,1189.63C1786.6,1333.32 1692.88,1462.88 1550.29,1510.22C1533.04,1515.95 1506.78,1518.44 1477.33,1518.44ZM2627.74,979.767C2601.97,884.23 2558.68,793.663 2494.7,717.508C2412.12,619.212 2299.49,549.883 2177.47,508.281C2183.71,509.489 2189.91,510.745 2196.09,512.047C2297.66,533.465 2396.78,572.782 2482.55,630.659C2531.96,663.996 2576.93,703.491 2615.39,749.268C2671.47,816.013 2711.65,893.824 2738.07,976.353L2627.74,979.767Z" style="fill:url(#_Linear2);"/>
        <path d="M1975.19,3238.67C1939.71,3238.67 1846.75,3238.43 1821.43,3229.28C1820.39,3228.9 1819.36,3228.52 1818.34,3228.14C1830.5,3229.94 1842.93,3230.87 1855.59,3230.87C1994.97,3230.87 2107.95,3117.88 2107.95,2978.5C2107.95,2860.67 2027.19,2761.69 1917.99,2733.92C2055.07,2737.58 2197.34,2839.16 2197.34,2975.99C2197.34,3115.36 2120.09,3238.67 1980.71,3238.67L1975.19,3238.67Z" style="fill:url(#_Linear3);"/>
        <path d="M1930.23,2604.46C1930.16,2604.46 1930.1,2604.46 1930.03,2604.45C1882.15,2603.92 1752.06,2602.47 1706.14,2601.95L1706.12,2601.95C1697.33,2601.85 1690.25,2594.74 1690.18,2585.94C1689.72,2523.64 1682.43,2297.68 1682.85,2276.04C1685,2164.4 1700.55,2051.33 1748.13,1949.28C1799.95,1838.12 1885.82,1747.25 1963.8,1652.59C2054.37,1542.63 2114.8,1433.18 2126.27,1289.84C2136.98,1155.89 2118.44,1015.53 2045.25,900.137C2012.25,848.101 1966.56,808.259 1913.5,782.757C1872.14,762.883 1826.32,751.718 1778.52,750.272C1774.61,750.153 1770.63,750.093 1766.55,750.093C1674.2,750.093 1541.69,781.058 1500.58,870.351C1478.72,917.851 1488.5,974.453 1509.94,1022.14C1531.38,1069.83 1563.53,1111.86 1588.36,1157.87C1665.91,1301.55 1572.19,1431.12 1429.6,1478.46C1403.37,1487.17 1375.55,1491.98 1347.91,1491.98C1327.44,1491.98 1307.07,1489.34 1287.52,1483.7C1279.46,1481.38 1271.55,1478.54 1263.82,1475.17C1187.92,1442.06 1130.83,1359.17 1096.23,1278.36C1098.67,1278.27 1100.98,1277 1102.35,1274.89C1102.59,1274.54 1102.79,1274.15 1102.97,1273.75C1106.34,1265.92 1109.42,1257.87 1112.12,1249.81C1113.46,1245.81 1111.3,1241.48 1107.3,1240.14C1106.5,1239.87 1105.68,1239.74 1104.88,1239.74C1101.68,1239.74 1098.69,1241.76 1097.64,1244.96C1095.47,1251.43 1093.04,1257.9 1090.41,1264.24C1083.91,1247.89 1078.36,1231.77 1073.77,1216.28C1023.36,1046.06 1076.05,877.904 1180.13,744.919C1180.07,745.177 1180.03,745.445 1180.01,745.719C1179.85,748.318 1181.83,750.556 1184.43,750.717C1192.38,751.209 1200.38,752.202 1208.2,753.673C1208.5,753.728 1208.79,753.754 1209.08,753.754C1210.69,753.754 1212.17,752.924 1213.03,751.605C1213.36,751.103 1213.59,750.53 1213.71,749.908C1214.19,747.347 1212.5,744.882 1209.94,744.4C1201.74,742.86 1193.35,741.814 1185.01,741.301C1184.91,741.294 1184.81,741.291 1184.71,741.291C1183.95,741.291 1183.23,741.473 1182.59,741.798C1236.91,673.215 1304.9,614.131 1379.39,569.157C1409.97,550.692 1441.66,534.599 1473.94,521.208C1584.61,475.287 1709.36,455 1833.42,455C1836.42,455 1839.42,455.012 1842.42,455.036C1921.81,455.662 2000.76,464.546 2075.4,480.287C2109.85,487.551 2144.01,496.873 2177.47,508.281C2299.49,549.883 2412.12,619.212 2494.7,717.508C2558.68,793.663 2601.97,884.23 2627.74,979.767L2345.17,988.511C2310.34,989.589 2282.65,1018.14 2282.65,1052.99L2282.65,1312.78L2145.48,1453.09L2310.02,1409.14L2309.64,1407.79C2312.23,1408.4 2314.93,1408.72 2317.7,1408.72C2318.27,1408.72 2318.85,1408.71 2319.43,1408.68L2619.28,1394.13C2597.24,1451.91 2565.79,1507.45 2525.86,1563.35C2459.09,1656.84 2366.61,1717.16 2280.74,1791.23C2044.74,1994.79 1951.51,2283.76 1948.1,2586.85C1947.99,2596.63 1939.99,2604.46 1930.23,2604.46ZM1174.93,1239.62C1174.55,1239.62 1174.16,1239.69 1173.78,1239.83C1172.1,1240.47 1171.27,1242.34 1171.91,1244.01C1188.82,1288.27 1207.01,1313.4 1207.77,1314.44C1208.41,1315.31 1209.39,1315.77 1210.39,1315.77C1211.05,1315.77 1211.72,1315.57 1212.3,1315.15C1213.74,1314.09 1214.06,1312.07 1213,1310.62C1212.82,1310.37 1194.54,1285.08 1177.96,1241.7C1177.47,1240.41 1176.23,1239.62 1174.93,1239.62ZM1118.64,1175.74C1114.77,1175.74 1111.46,1178.67 1111.06,1182.61C1110.24,1190.65 1109.07,1198.75 1107.58,1206.7C1106.8,1210.84 1109.53,1214.83 1113.68,1215.61C1114.16,1215.7 1114.63,1215.74 1115.1,1215.74C1117.71,1215.74 1120.11,1214.4 1121.5,1212.27C1122.02,1211.45 1122.4,1210.53 1122.59,1209.51C1124.16,1201.15 1125.39,1192.61 1126.25,1184.15C1126.68,1179.95 1123.62,1176.21 1119.43,1175.78C1119.16,1175.75 1118.9,1175.74 1118.64,1175.74ZM1147.52,1146.35C1149.23,1160.09 1151.52,1172.91 1154.15,1184.75C1154.48,1186.26 1155.82,1187.29 1157.3,1187.29C1157.54,1187.29 1157.77,1187.27 1158.01,1187.21C1159.75,1186.83 1160.86,1185.1 1160.47,1183.35C1158.02,1172.3 1155.87,1160.37 1154.21,1147.63C1160.16,1148.16 1166.17,1148.42 1172.16,1148.42C1172.9,1148.42 1173.65,1148.42 1174.4,1148.41C1176.04,1148.39 1177.47,1147.54 1178.3,1146.26C1178.79,1145.51 1179.07,1144.61 1179.06,1143.64C1179.03,1141.05 1176.93,1138.97 1174.34,1138.97L1174.29,1138.97C1173.55,1138.98 1172.82,1138.99 1172.08,1138.99C1165.74,1138.99 1159.37,1138.67 1153.08,1138.05C1144.9,1060.96 1155.74,956.814 1227.43,841.006C1241.56,818.191 1256.65,796.628 1272.65,776.36C1272.86,777.664 1273.61,778.872 1274.82,779.623C1276.01,780.359 1277.19,781.103 1278.35,781.859C1283.86,785.44 1289.25,789.348 1294.37,793.471C1295.25,794.173 1296.29,794.515 1297.33,794.515C1298.71,794.515 1300.07,793.913 1301.01,792.758C1301.11,792.628 1301.2,792.498 1301.29,792.364C1302.59,790.36 1302.19,787.654 1300.29,786.125C1294.92,781.8 1289.27,777.703 1283.49,773.948C1282.27,773.158 1281.04,772.378 1279.8,771.607C1279.06,771.148 1278.24,770.938 1277.43,770.938C1277.27,770.938 1277.12,770.946 1276.96,770.961C1400.76,617.56 1578.63,539.055 1796.9,539.055C1905.53,539.055 2024.18,558.503 2151.13,597.841C2151.45,597.941 2151.77,597.988 2152.08,597.988C2153.46,597.988 2154.75,597.094 2155.18,595.706C2155.71,593.998 2154.75,592.183 2153.04,591.653C2025.05,551.996 1905.73,532.14 1796.13,532.14C1719.27,532.14 1647.19,541.909 1580.28,561.465C1428.45,605.849 1307.88,698.752 1221.93,837.596C1149.11,955.227 1138.28,1061.09 1146.71,1139.36C1146.08,1140.07 1145.66,1140.96 1145.55,1141.97C1145.35,1143.74 1146.16,1145.39 1147.52,1146.35ZM1119.27,1122.8C1119.07,1122.8 1118.87,1122.8 1118.67,1122.82C1114.47,1123.15 1111.32,1126.81 1111.65,1131.02C1111.96,1134.98 1112.18,1138.98 1112.33,1142.9C1112.48,1147.02 1115.86,1150.26 1119.95,1150.26C1120.05,1150.26 1120.14,1150.26 1120.24,1150.25C1122.82,1150.16 1125.06,1148.79 1126.36,1146.78C1127.19,1145.5 1127.65,1143.97 1127.59,1142.34C1127.44,1138.21 1127.2,1134.01 1126.88,1129.84C1126.56,1125.84 1123.22,1122.8 1119.27,1122.8ZM1222.11,1132.63C1221.72,1132.63 1221.33,1132.68 1220.93,1132.78C1213.33,1134.74 1205.55,1136.26 1197.8,1137.29C1195.22,1137.64 1193.4,1140.01 1193.75,1142.59C1194.06,1144.96 1196.09,1146.68 1198.41,1146.68C1198.62,1146.68 1198.83,1146.67 1199.04,1146.64C1207.17,1145.56 1215.33,1143.97 1223.29,1141.91C1224.48,1141.61 1225.44,1140.87 1226.06,1139.92C1226.76,1138.85 1227.02,1137.5 1226.68,1136.17C1226.13,1134.04 1224.21,1132.63 1222.11,1132.63ZM1266.94,1115.04C1266.18,1115.04 1265.42,1115.22 1264.71,1115.6C1257.82,1119.32 1250.63,1122.66 1243.34,1125.51C1240.91,1126.46 1239.71,1129.2 1240.67,1131.62C1241.39,1133.48 1243.18,1134.62 1245.06,1134.62C1245.63,1134.62 1246.21,1134.52 1246.78,1134.3C1254.42,1131.3 1261.96,1127.8 1269.19,1123.91C1269.9,1123.52 1270.48,1122.97 1270.9,1122.33C1271.81,1120.93 1271.94,1119.09 1271.1,1117.52C1270.24,1115.94 1268.62,1115.04 1266.94,1115.04ZM1306.25,1087.22C1305.12,1087.22 1303.98,1087.62 1303.08,1088.44C1297.26,1093.72 1291.09,1098.68 1284.71,1103.2C1282.58,1104.72 1282.08,1107.65 1283.59,1109.78C1284.51,1111.07 1285.96,1111.77 1287.44,1111.77C1288.38,1111.77 1289.34,1111.49 1290.16,1110.9C1296.85,1106.16 1303.33,1100.96 1309.42,1095.43C1309.72,1095.15 1309.99,1094.83 1310.2,1094.5C1311.34,1092.75 1311.21,1090.38 1309.74,1088.76C1308.81,1087.74 1307.53,1087.22 1306.25,1087.22ZM1337.66,1050.71C1336.14,1050.71 1334.65,1051.44 1333.74,1052.81C1329.38,1059.33 1324.59,1065.64 1319.49,1071.56C1317.82,1073.54 1318.02,1076.51 1319.99,1078.21C1320.88,1078.98 1321.98,1079.35 1323.07,1079.35C1324.39,1079.35 1325.71,1078.8 1326.65,1077.71C1331.99,1071.5 1337.01,1064.89 1341.58,1058.05L1341.62,1058C1343.02,1055.84 1342.43,1052.94 1340.28,1051.51C1339.48,1050.97 1338.57,1050.71 1337.66,1050.71ZM1359.46,1007.73C1357.53,1007.73 1355.72,1008.93 1355.02,1010.83C1352.34,1018.19 1349.18,1025.47 1345.64,1032.46C1344.46,1034.78 1345.39,1037.62 1347.71,1038.79C1348.4,1039.14 1349.13,1039.31 1349.84,1039.31C1351.4,1039.31 1352.91,1038.53 1353.8,1037.16C1353.89,1037.02 1353.97,1036.88 1354.05,1036.72C1357.77,1029.4 1361.08,1021.77 1363.88,1014.06C1364.77,1011.61 1363.51,1008.91 1361.06,1008.02C1360.53,1007.82 1359.99,1007.73 1359.46,1007.73ZM1370.27,960.776C1367.89,960.776 1365.84,962.579 1365.58,965.002C1364.77,972.789 1363.46,980.608 1361.7,988.243C1361.12,990.78 1362.7,993.314 1365.24,993.898C1365.6,993.98 1365.95,994.019 1366.3,994.019C1367.9,994.019 1369.39,993.197 1370.25,991.872C1370.55,991.422 1370.77,990.914 1370.9,990.361C1372.74,982.354 1374.11,974.151 1374.96,965.983C1375.24,963.392 1373.35,961.073 1370.76,960.801C1370.6,960.784 1370.44,960.776 1370.27,960.776ZM1370.76,924.673C1370.63,924.673 1370.51,924.678 1370.39,924.687C1367.8,924.896 1365.85,927.16 1366.05,929.758C1366.34,933.531 1366.53,937.397 1366.6,941.25C1366.65,943.824 1368.75,945.877 1371.32,945.878C1371.35,945.878 1371.38,945.877 1371.41,945.877C1373.03,945.844 1374.45,944.996 1375.28,943.727C1375.77,942.964 1376.05,942.051 1376.04,941.072C1375.96,937.036 1375.77,932.984 1375.46,929.026C1375.26,926.554 1373.2,924.673 1370.76,924.673ZM1315.45,801.621C1314.27,801.621 1313.08,802.062 1312.17,802.948C1310.28,804.755 1310.25,807.746 1312.06,809.618C1314.71,812.362 1317.32,815.224 1319.81,818.124C1320.74,819.211 1322.06,819.769 1323.39,819.769C1324.48,819.769 1325.57,819.395 1326.46,818.633C1326.81,818.33 1327.1,817.988 1327.34,817.62C1328.45,815.909 1328.36,813.607 1326.97,811.979C1324.36,808.94 1321.62,805.938 1318.84,803.058C1317.91,802.102 1316.68,801.621 1315.45,801.621ZM1232.87,750.344C1230.87,750.344 1229.02,751.628 1228.38,753.621C1227.58,756.103 1228.94,758.755 1231.43,759.552C1239,761.98 1246.5,764.91 1253.74,768.257C1254.38,768.554 1255.05,768.694 1255.71,768.694C1257.28,768.694 1258.78,767.911 1259.67,766.552C1259.79,766.365 1259.9,766.166 1260,765.96C1261.09,763.593 1260.06,760.79 1257.7,759.696C1250.11,756.184 1242.24,753.114 1234.31,750.57C1233.83,750.417 1233.35,750.344 1232.87,750.344Z" style="fill:url(#_Linear4);"/>
        <path d="M1855.59,3230.87C1842.93,3230.87 1830.5,3229.94 1818.34,3228.14C1696.63,3210.13 1603.23,3105.22 1603.23,2978.5C1603.23,2839.13 1716.21,2726.14 1855.59,2726.14C1877.13,2726.14 1898.03,2728.84 1917.99,2733.92C2027.19,2761.69 2107.95,2860.67 2107.95,2978.5C2107.95,3117.88 1994.97,3230.87 1855.59,3230.87ZM1767.22,2810.51C1766.7,2810.51 1766.17,2810.64 1765.68,2810.9C1703.85,2844.14 1665.43,2908.36 1665.43,2978.5C1665.43,3041.77 1696.77,3100.72 1749.27,3136.19C1749.82,3136.56 1750.45,3136.74 1751.08,3136.74C1752.12,3136.74 1753.14,3136.24 1753.76,3135.32C1754.77,3133.84 1754.37,3131.82 1752.89,3130.82C1702.18,3096.56 1671.9,3039.62 1671.9,2978.5C1671.9,2910.75 1709.01,2848.71 1768.75,2816.6C1770.33,2815.76 1770.92,2813.79 1770.07,2812.22C1769.48,2811.13 1768.37,2810.51 1767.22,2810.51ZM1855.59,2788.34C1853.8,2788.34 1852.35,2789.79 1852.35,2791.58C1852.35,2793.37 1853.8,2794.82 1855.59,2794.82C1884.79,2794.82 1912.71,2801.47 1938.57,2814.59C1939.04,2814.83 1939.54,2814.94 1940.03,2814.94C1941.21,2814.94 1942.35,2814.29 1942.92,2813.16C1943.73,2811.57 1943.1,2809.62 1941.5,2808.81C1914.72,2795.23 1885.82,2788.34 1855.59,2788.34Z" style="fill:url(#_Linear5);"/>
        <path d="M1157.3,1187.29C1155.82,1187.29 1154.48,1186.26 1154.15,1184.75C1151.52,1172.91 1149.23,1160.09 1147.52,1146.35C1148.15,1146.8 1148.9,1147.09 1149.72,1147.18C1151.21,1147.35 1152.71,1147.5 1154.21,1147.63C1155.87,1160.37 1158.02,1172.3 1160.47,1183.35C1160.86,1185.1 1159.75,1186.83 1158.01,1187.21C1157.77,1187.27 1157.54,1187.29 1157.3,1187.29ZM1146.71,1139.36C1138.28,1061.09 1149.11,955.227 1221.93,837.596C1307.88,698.752 1428.45,605.849 1580.28,561.465C1647.19,541.909 1719.27,532.14 1796.13,532.14C1905.73,532.14 2025.05,551.996 2153.04,591.653C2154.75,592.183 2155.71,593.998 2155.18,595.706C2154.75,597.094 2153.46,597.988 2152.08,597.988C2151.77,597.988 2151.45,597.941 2151.13,597.841C2024.18,558.503 1905.53,539.055 1796.9,539.055C1578.63,539.055 1400.76,617.56 1276.96,770.961C1275.51,771.103 1274.13,771.901 1273.3,773.128C1272.68,774.132 1272.48,775.279 1272.65,776.36C1256.65,796.628 1241.56,818.191 1227.43,841.006C1155.74,956.814 1144.9,1060.96 1153.08,1138.05C1152.31,1137.97 1151.53,1137.89 1150.76,1137.8C1150.58,1137.79 1150.41,1137.78 1150.24,1137.78C1148.86,1137.78 1147.58,1138.38 1146.71,1139.36Z" style="fill:url(#_Linear6);"/>
        <path d="M1210.39,1315.77C1209.39,1315.77 1208.41,1315.31 1207.77,1314.44C1207.01,1313.4 1188.82,1288.27 1171.91,1244.01C1171.27,1242.34 1172.1,1240.47 1173.78,1239.83C1174.16,1239.69 1174.55,1239.62 1174.93,1239.62C1176.23,1239.62 1177.47,1240.41 1177.96,1241.7C1194.54,1285.08 1212.82,1310.37 1213,1310.62C1214.06,1312.07 1213.74,1314.09 1212.3,1315.15C1211.72,1315.57 1211.05,1315.77 1210.39,1315.77Z" style="fill:url(#_Linear7);"/>
        <path d="M1940.03,2814.94C1939.54,2814.94 1939.04,2814.83 1938.57,2814.59C1912.71,2801.47 1884.79,2794.82 1855.59,2794.82C1853.8,2794.82 1852.35,2793.37 1852.35,2791.58C1852.35,2789.79 1853.8,2788.34 1855.59,2788.34C1885.82,2788.34 1914.72,2795.23 1941.5,2808.81C1943.1,2809.62 1943.73,2811.57 1942.92,2813.16C1942.35,2814.29 1941.21,2814.94 1940.03,2814.94Z" style="fill:url(#_Linear8);"/>
        <path d="M1751.08,3136.74C1750.45,3136.74 1749.82,3136.56 1749.27,3136.19C1696.77,3100.72 1665.43,3041.77 1665.43,2978.5C1665.43,2908.36 1703.85,2844.14 1765.68,2810.9C1766.17,2810.64 1766.7,2810.51 1767.22,2810.51C1768.37,2810.51 1769.48,2811.13 1770.07,2812.22C1770.92,2813.79 1770.33,2815.76 1768.75,2816.6C1709.01,2848.71 1671.9,2910.75 1671.9,2978.5C1671.9,3039.62 1702.18,3096.56 1752.89,3130.82C1754.37,3131.82 1754.77,3133.84 1753.76,3135.32C1753.14,3136.24 1752.12,3136.74 1751.08,3136.74Z" style="fill:url(#_Linear9);"/>
        <path d="M528.594,1116.44C528.214,1116.44 527.83,1116.41 527.444,1116.35C523.273,1115.72 520.401,1111.83 521.03,1107.66C522.32,1099.12 524.002,1090.51 526.027,1082.09C526.869,1078.59 529.997,1076.24 533.445,1076.24C534.037,1076.24 534.638,1076.31 535.239,1076.45C539.337,1077.44 541.863,1081.56 540.876,1085.66C538.954,1093.66 537.359,1101.83 536.135,1109.94C535.968,1111.05 535.567,1112.07 534.992,1112.96C533.61,1115.08 531.215,1116.44 528.594,1116.44ZM545.867,1052.18C544.935,1052.18 543.988,1052.01 543.069,1051.65C539.146,1050.1 537.219,1045.67 538.765,1041.74C541.936,1033.71 545.495,1025.7 549.339,1017.94C550.66,1015.25 553.366,1013.7 556.178,1013.7C557.321,1013.7 558.482,1013.95 559.575,1014.5C563.352,1016.37 564.897,1020.95 563.024,1024.73C559.369,1032.1 555.987,1039.71 552.976,1047.35C552.784,1047.84 552.545,1048.29 552.27,1048.71C550.851,1050.9 548.417,1052.18 545.867,1052.18ZM576.984,993.363C575.505,993.363 574.011,992.934 572.695,992.039C569.254,989.698 568.328,985.04 570.585,981.566L570.676,981.432C575.542,974.272 580.773,967.246 586.22,960.545C587.731,958.688 589.932,957.725 592.152,957.725C593.846,957.725 595.549,958.285 596.966,959.437C600.022,961.921 600.656,966.284 598.556,969.516C598.409,969.742 598.247,969.964 598.075,970.18C592.899,976.546 587.929,983.219 583.305,990.018C581.828,992.192 579.427,993.363 576.984,993.363ZM620.323,942.896C618.274,942.896 616.23,942.076 614.726,940.456C611.854,937.364 612.049,932.546 615.126,929.662C621.46,923.78 628.129,918.101 634.946,912.785C636.34,911.697 637.995,911.169 639.637,911.169C641.91,911.169 644.158,912.179 645.664,914.109C647.723,916.747 647.775,920.313 646.048,922.969C645.599,923.661 645.026,924.29 644.339,924.827C637.867,929.876 631.534,935.268 625.52,940.855C624.049,942.22 622.184,942.896 620.323,942.896Z" style="fill:rgb(222,232,253);fill-rule:nonzero;"/>
        <path d="M1010.17,929.967C1008.48,929.967 1006.78,929.409 1005.36,928.264C998.995,923.108 992.309,918.151 985.487,913.531C982.036,911.194 981.105,906.529 983.366,903.05L983.447,902.924C984.923,900.745 987.328,899.57 989.776,899.57C991.251,899.57 992.741,899.997 994.054,900.886C1001.23,905.749 1008.27,910.966 1014.98,916.395C1018.04,918.877 1018.68,923.247 1016.58,926.483C1016.43,926.706 1016.28,926.924 1016.11,927.134C1014.6,928.999 1012.39,929.967 1010.17,929.967Z" style="fill:url(#_Linear10);"/>
        <path d="M673.823,903.421C671.182,903.421 668.614,902.05 667.201,899.599C665.093,895.945 666.345,891.275 670,889.167C677.489,884.846 685.258,880.796 693.086,877.127C694.134,876.637 695.236,876.404 696.321,876.404C699.192,876.404 701.942,878.031 703.242,880.803C704.405,883.284 704.116,886.071 702.726,888.211C701.975,889.365 700.906,890.332 699.566,890.959C692.128,894.444 684.75,898.293 677.632,902.398C676.43,903.091 675.118,903.421 673.823,903.421ZM923.947,879.348C923.134,877.541 923.02,875.42 923.8,873.428C924.995,870.411 927.866,868.576 930.911,868.576C931.839,868.576 932.782,868.746 933.7,869.105C933.754,869.127 933.808,869.148 933.863,869.169C930.517,872.571 927.215,875.961 923.947,879.348Z" style="fill:rgb(222,232,253);fill-rule:nonzero;"/>
        <path d="M954.12,894.115C952.985,894.115 951.833,893.86 950.746,893.324C943.364,889.679 935.754,886.316 928.124,883.325C926.19,882.567 924.738,881.105 923.947,879.348C927.215,875.961 930.517,872.571 933.863,869.169C941.835,872.3 949.79,875.818 957.507,879.626C961.288,881.493 962.841,886.074 960.974,889.856C960.837,890.131 960.688,890.394 960.525,890.644C959.089,892.853 956.648,894.115 954.12,894.115Z" style="fill:url(#_Linear11);"/>
        <path d="M734.779,876.809C731.517,876.809 728.498,874.704 727.484,871.425C726.237,867.393 728.496,863.117 732.527,861.874C740.8,859.316 749.272,857.085 757.703,855.243C758.253,855.122 758.802,855.064 759.343,855.064C762.853,855.064 766.014,857.5 766.793,861.072C767.248,863.147 766.811,865.212 765.737,866.864C764.68,868.491 763.009,869.717 760.964,870.163C752.952,871.915 744.901,874.034 737.037,876.467C736.286,876.699 735.526,876.809 734.779,876.809ZM891.573,871.514C890.987,871.514 890.391,871.446 889.795,871.304C881.808,869.399 873.642,867.819 865.517,866.607C861.347,865.986 858.468,862.098 859.091,857.927C859.66,854.14 862.918,851.416 866.639,851.416C867.013,851.416 867.39,851.443 867.771,851.5C876.327,852.776 884.929,854.441 893.339,856.446C897.441,857.425 899.973,861.544 898.997,865.648C898.788,866.522 898.437,867.326 897.973,868.038C896.578,870.184 894.167,871.514 891.573,871.514ZM800.129,864.337C796.177,864.337 792.83,861.292 792.521,857.287C792.2,853.082 795.347,849.413 799.548,849.085C807.33,848.486 815.224,848.183 823.049,848.183C823.894,848.183 824.736,848.186 825.579,848.194C829.797,848.23 833.188,851.678 833.15,855.896C833.137,857.404 832.689,858.807 831.923,859.986C830.559,862.085 828.194,863.469 825.513,863.469L825.451,863.469C824.621,863.462 823.789,863.458 822.957,863.458C815.55,863.458 808.084,863.747 800.723,864.314C800.524,864.329 800.326,864.337 800.129,864.337Z" style="fill:rgb(222,232,253);fill-rule:nonzero;"/>
        <path d="M525.406,1169.97C521.302,1169.97 517.909,1166.71 517.78,1162.58C517.651,1158.43 517.604,1154.22 517.643,1150.06C517.675,1145.86 521.091,1142.49 525.275,1142.49L525.35,1142.49C529.567,1142.53 532.955,1145.98 532.915,1150.2C532.88,1154.16 532.922,1158.16 533.048,1162.1C533.099,1163.72 532.641,1165.23 531.821,1166.49C530.505,1168.52 528.251,1169.89 525.651,1169.97L525.406,1169.97Z" style="fill:rgb(222,232,253);fill-rule:nonzero;"/>
        <path d="M623.014,1381.37C621.188,1381.37 619.356,1380.71 617.895,1379.39C614.82,1376.61 611.752,1373.72 608.776,1370.8C605.769,1367.84 605.712,1363.02 608.679,1360C610.175,1358.48 612.15,1357.71 614.128,1357.71C616.059,1357.71 617.992,1358.44 619.479,1359.9C622.304,1362.68 625.22,1365.42 628.14,1368.06C630.961,1370.61 631.435,1374.79 629.426,1377.88C629.208,1378.22 628.961,1378.54 628.683,1378.85C627.175,1380.52 625.099,1381.37 623.014,1381.37Z" style="fill:url(#_Linear12);"/>
        <path d="M841.213,1457.76C837.214,1457.76 833.856,1454.65 833.599,1450.6C833.332,1446.39 836.529,1442.76 840.737,1442.5C848.795,1441.99 856.94,1441.13 864.949,1439.94C865.328,1439.89 865.704,1439.86 866.075,1439.86C869.799,1439.86 873.06,1442.59 873.62,1446.38C873.904,1448.3 873.45,1450.15 872.471,1451.66C871.32,1453.43 869.44,1454.72 867.184,1455.05C858.757,1456.3 850.183,1457.2 841.703,1457.74C841.539,1457.75 841.375,1457.76 841.213,1457.76ZM800.641,1457.55C800.453,1457.55 800.263,1457.54 800.073,1457.52C791.578,1456.9 783.011,1455.9 774.612,1454.56C770.446,1453.9 767.608,1449.98 768.273,1445.82C768.872,1442.06 772.12,1439.38 775.808,1439.38C776.208,1439.38 776.612,1439.41 777.019,1439.48C784.993,1440.75 793.127,1441.7 801.197,1442.29C805.404,1442.6 808.561,1446.26 808.251,1450.47C808.152,1451.8 807.721,1453.02 807.042,1454.06C805.672,1456.17 803.294,1457.55 800.641,1457.55ZM905.711,1446.48C902.399,1446.48 899.35,1444.32 898.379,1440.98C897.201,1436.92 899.531,1432.68 903.583,1431.51C911.338,1429.26 919.102,1426.64 926.654,1423.75C927.554,1423.4 928.478,1423.24 929.388,1423.24C932.459,1423.24 935.354,1425.11 936.52,1428.14C937.429,1430.52 937.076,1433.07 935.789,1435.05C934.941,1436.35 933.688,1437.41 932.124,1438.01C924.176,1441.06 916.008,1443.81 907.845,1446.18C907.134,1446.38 906.416,1446.48 905.711,1446.48ZM736.255,1445.52C735.517,1445.52 734.767,1445.41 734.024,1445.18C725.896,1442.71 717.767,1439.85 709.858,1436.69C705.942,1435.12 704.034,1430.68 705.601,1426.76C706.793,1423.78 709.666,1421.96 712.701,1421.96C713.642,1421.96 714.599,1422.13 715.526,1422.5C723.039,1425.51 730.759,1428.22 738.479,1430.57C742.513,1431.8 744.787,1436.07 743.557,1440.11C743.343,1440.81 743.037,1441.46 742.657,1442.04C741.252,1444.21 738.829,1445.52 736.255,1445.52ZM966.189,1421.45C963.493,1421.45 960.881,1420.02 959.491,1417.49C957.457,1413.79 958.809,1409.15 962.506,1407.12C969.6,1403.22 976.603,1398.98 983.318,1394.51C984.618,1393.65 986.086,1393.24 987.538,1393.24C990.011,1393.24 992.436,1394.43 993.907,1396.65C995.646,1399.27 995.559,1402.56 993.949,1405.04C993.399,1405.89 992.668,1406.64 991.773,1407.23C984.701,1411.94 977.329,1416.4 969.86,1420.5C968.693,1421.14 967.432,1421.45 966.189,1421.45ZM676.118,1419.66C674.843,1419.66 673.55,1419.34 672.362,1418.67C666.914,1415.58 661.492,1412.29 656.252,1408.88C654.354,1407.65 652.476,1406.4 650.614,1405.13C647.13,1402.76 646.131,1398.01 648.604,1394.52C650.081,1392.35 652.48,1391.18 654.921,1391.18C656.402,1391.18 657.898,1391.61 659.215,1392.51C660.983,1393.71 662.771,1394.91 664.575,1396.08C669.558,1399.32 674.708,1402.44 679.888,1405.38C683.558,1407.46 684.848,1412.12 682.769,1415.79C682.691,1415.92 682.61,1416.06 682.524,1416.19C681.077,1418.42 678.631,1419.66 676.118,1419.66ZM1019.7,1383.82C1017.58,1383.82 1015.48,1382.94 1013.97,1381.24C1011.18,1378.08 1011.48,1373.25 1014.63,1370.46C1020.7,1365.1 1026.6,1359.42 1032.17,1353.59C1033.67,1352.01 1035.68,1351.22 1037.69,1351.22C1039.59,1351.22 1041.49,1351.92 1042.97,1353.34C1045.67,1355.91 1046.06,1359.99 1044.1,1363.01C1043.85,1363.41 1043.55,1363.78 1043.22,1364.13C1037.35,1370.28 1031.14,1376.26 1024.75,1381.9C1023.3,1383.18 1021.49,1383.82 1019.7,1383.82ZM1063.63,1335.31C1062.08,1335.31 1060.52,1334.84 1059.16,1333.86C1055.75,1331.39 1054.98,1326.62 1057.44,1323.2C1062.14,1316.69 1066.64,1309.88 1070.86,1302.88C1072.28,1300.5 1074.81,1299.18 1077.41,1299.18C1078.75,1299.18 1080.11,1299.54 1081.35,1300.28C1084.96,1302.46 1086.12,1307.15 1083.94,1310.76C1082.11,1313.8 1080.24,1316.79 1078.33,1319.73C1075.6,1323.94 1072.74,1328.11 1069.83,1332.14C1068.34,1334.21 1066,1335.31 1063.63,1335.31ZM1095.95,1278.36C1094.94,1278.36 1093.92,1278.16 1092.93,1277.74C1089.06,1276.07 1087.27,1271.58 1088.94,1267.7C1089.44,1266.55 1089.93,1265.4 1090.41,1264.24C1092.27,1268.93 1094.22,1273.64 1096.23,1278.36L1095.95,1278.36Z" style="fill:url(#_Linear13);"/>
        <path d="M1096.23,1278.36C1094.22,1273.64 1092.27,1268.93 1090.41,1264.24C1093.04,1257.9 1095.47,1251.43 1097.64,1244.96C1098.69,1241.76 1101.68,1239.74 1104.88,1239.74C1105.68,1239.74 1106.5,1239.87 1107.3,1240.14C1111.3,1241.48 1113.46,1245.81 1112.12,1249.81C1109.42,1257.87 1106.34,1265.92 1102.97,1273.75C1102.79,1274.15 1102.59,1274.54 1102.35,1274.89C1100.98,1277 1098.67,1278.27 1096.23,1278.36ZM1115.1,1215.74C1114.63,1215.74 1114.16,1215.7 1113.68,1215.61C1109.53,1214.83 1106.8,1210.84 1107.58,1206.7C1109.07,1198.75 1110.24,1190.65 1111.06,1182.61C1111.46,1178.67 1114.77,1175.74 1118.64,1175.74C1118.9,1175.74 1119.16,1175.75 1119.43,1175.78C1123.62,1176.21 1126.68,1179.95 1126.25,1184.15C1125.39,1192.61 1124.16,1201.15 1122.59,1209.51C1122.4,1210.53 1122.02,1211.45 1121.5,1212.27C1120.11,1214.4 1117.71,1215.74 1115.1,1215.74Z" style="fill:url(#_Linear14);"/>
        <path d="M1119.95,1150.26C1115.86,1150.26 1112.48,1147.02 1112.33,1142.9C1112.18,1138.98 1111.96,1134.98 1111.65,1131.02C1111.32,1126.81 1114.47,1123.15 1118.67,1122.82C1118.87,1122.8 1119.07,1122.8 1119.27,1122.8C1123.22,1122.8 1126.56,1125.84 1126.88,1129.84C1127.2,1134.01 1127.44,1138.21 1127.59,1142.34C1127.65,1143.97 1127.19,1145.5 1126.36,1146.78C1125.06,1148.79 1122.82,1150.16 1120.24,1150.25C1120.14,1150.26 1120.05,1150.26 1119.95,1150.26Z" style="fill:url(#_Linear15);"/>
        <path d="M1030.57,1057.53C1030.11,1056.08 1028.77,1055.08 1027.25,1055.05L983.819,1054.09C973.386,1036.69 960.103,1020.83 944.207,1007.3L950.405,964.327C950.622,962.819 949.859,961.34 948.505,960.643L902.172,936.798C900.818,936.1 899.171,936.339 898.071,937.392L866.705,967.41C846.451,962.341 825.824,960.749 805.601,962.371L779.582,927.582C778.67,926.362 777.084,925.856 775.635,926.321L726.01,942.221C724.561,942.686 723.564,944.02 723.531,945.542L722.577,988.975C705.177,999.408 689.316,1012.69 675.78,1028.59L632.81,1022.39C631.302,1022.17 629.823,1022.93 629.126,1024.29L605.28,1070.62C604.583,1071.98 604.822,1073.62 605.875,1074.72L635.893,1106.09C630.824,1126.34 629.232,1146.97 630.854,1167.19L596.065,1193.21C594.846,1194.12 594.338,1195.71 594.804,1197.16L610.704,1246.78C611.168,1248.23 612.503,1249.23 614.024,1249.26L657.458,1250.22C667.891,1267.62 681.174,1283.48 697.07,1297.01L690.872,1339.98C690.654,1341.49 691.417,1342.97 692.771,1343.67L739.105,1367.51C740.459,1368.21 742.106,1367.97 743.206,1366.92L774.572,1336.9C794.826,1341.97 815.454,1343.56 835.677,1341.94L861.695,1376.73C862.607,1377.95 864.192,1378.46 865.643,1377.99L915.267,1362.09C916.717,1361.63 917.712,1360.29 917.746,1358.77L918.7,1315.34C936.1,1304.9 951.96,1291.62 965.498,1275.72L1008.47,1281.92C1009.97,1282.14 1011.45,1281.38 1012.15,1280.02L1036,1233.69C1036.69,1232.33 1036.46,1230.69 1035.4,1229.59L1005.38,1198.22C1010.45,1177.97 1012.04,1157.34 1010.42,1137.12L1045.21,1111.1C1046.43,1110.19 1046.94,1108.6 1046.47,1107.15L1030.57,1057.53Z" style="fill:rgb(145,179,250);fill-rule:nonzero;"/>
        <path d="M780.558,1154.68C781.231,1165.38 786.033,1175.19 794.081,1182.28C810.689,1196.92 836.12,1195.33 850.763,1178.72C865.417,1162.1 863.808,1136.68 847.197,1122.03C830.588,1107.39 805.158,1108.99 790.514,1125.6C789.187,1127.1 787.986,1128.69 786.912,1130.34C782.246,1137.52 780.011,1145.98 780.558,1154.68ZM859.928,1186.8C840.827,1208.46 807.665,1210.55 785.998,1191.44C775.502,1182.19 769.239,1169.41 768.362,1155.44C767.483,1141.48 772.092,1128.01 781.349,1117.52C800.451,1095.85 833.613,1093.77 855.279,1112.87C874.989,1130.25 878.494,1159.26 864.581,1180.67C863.202,1182.79 861.649,1184.84 859.928,1186.8Z" style="fill:rgb(189,208,251);fill-rule:nonzero;"/>
        <path d="M927.433,1222.79C929.823,1219.11 932.041,1215.3 934.076,1211.34C934.716,1210.1 935.336,1208.85 935.937,1207.58C938.896,1201.35 941.354,1194.89 943.273,1188.3L943.353,1188.03C943.426,1187.78 943.499,1187.52 943.569,1187.27C943.71,1186.77 943.846,1186.27 943.981,1185.77C944.335,1184.46 943.78,1183.12 942.7,1182.42C942.437,1182.25 942.143,1182.12 941.825,1182.03C940.196,1181.59 938.524,1182.56 938.083,1184.19C935.826,1192.57 932.65,1200.77 928.643,1208.55C908.755,1247.2 871.037,1270.82 830.658,1274.55C808.199,1276.63 784.916,1272.55 763.417,1261.49C759.646,1259.55 756.001,1257.43 752.496,1255.15C728.894,1239.81 711.432,1217.01 702.728,1189.84C692.727,1158.64 695.479,1125.4 710.474,1096.27C741.45,1036.09 815.554,1012.37 875.7,1043.32C879.409,1045.23 883.007,1047.32 886.48,1049.58C901.535,1059.37 914.281,1072.34 923.758,1087.61C924.003,1088 924.322,1088.32 924.688,1088.56C925.648,1089.18 926.925,1089.24 927.963,1088.59C929.395,1087.7 929.842,1085.82 928.948,1084.38C918.998,1068.35 905.617,1054.73 889.812,1044.46C886.166,1042.09 882.39,1039.89 878.498,1037.89C815.35,1005.39 737.531,1030.34 705.042,1093.47C689.298,1124.06 686.411,1158.94 696.909,1191.71C706.046,1220.23 724.379,1244.16 749.156,1260.27C752.837,1262.66 756.664,1264.88 760.619,1266.92C791.21,1282.67 826.099,1285.55 858.859,1275.06C887.387,1265.92 911.328,1247.58 927.433,1222.79Z" style="fill:rgb(189,208,251);fill-rule:nonzero;"/>
        <path d="M1323.39,819.769C1322.06,819.769 1320.74,819.211 1319.81,818.124C1317.32,815.224 1314.71,812.362 1312.06,809.618C1310.25,807.746 1310.28,804.755 1312.17,802.948C1313.08,802.062 1314.27,801.621 1315.45,801.621C1316.68,801.621 1317.91,802.102 1318.84,803.058C1321.62,805.938 1324.36,808.94 1326.97,811.979C1328.36,813.607 1328.45,815.909 1327.34,817.62C1327.1,817.988 1326.81,818.33 1326.46,818.633C1325.57,819.395 1324.48,819.769 1323.39,819.769Z" style="fill:url(#_Linear16);"/>
        <path d="M989.006,871.895C988.392,871.895 987.769,871.774 987.169,871.52C984.769,870.504 983.649,867.738 984.665,865.338C987.476,858.697 990.7,852.095 994.234,845.735C994.766,844.765 995.311,843.809 995.861,842.852C996.682,841.329 998.273,840.489 999.912,840.489C1000.73,840.489 1001.56,840.698 1002.31,841.133C1004.56,842.437 1005.33,845.321 1004.03,847.579C1003.51,848.471 1003,849.374 1002.49,850.299C999.107,856.387 996.032,862.683 993.35,869.016C993.241,869.277 993.108,869.523 992.96,869.752C992.081,871.106 990.576,871.895 989.006,871.895ZM1013.46,829.462C1012.48,829.462 1011.48,829.153 1010.63,828.511C1008.55,826.945 1008.16,824.014 1009.7,821.903C1014.74,815.22 1020.23,808.8 1026.02,802.823C1026.95,801.868 1028.18,801.388 1029.41,801.388C1030.59,801.388 1031.78,801.83 1032.69,802.717C1034.34,804.311 1034.57,806.816 1033.37,808.67C1033.2,808.921 1033.01,809.161 1032.8,809.385C1027.28,815.084 1022.04,821.207 1017.24,827.586C1016.31,828.814 1014.89,829.462 1013.46,829.462Z" style="fill:url(#_Linear17);"/>
        <path d="M1297.33,794.515C1296.29,794.515 1295.25,794.173 1294.37,793.471C1289.25,789.348 1283.86,785.44 1278.35,781.859C1277.19,781.103 1276.01,780.359 1274.82,779.623C1273.61,778.872 1272.86,777.664 1272.65,776.36C1274.09,774.543 1275.51,772.758 1276.96,770.961C1277.12,770.946 1277.27,770.938 1277.43,770.938C1278.24,770.938 1279.06,771.148 1279.8,771.607C1281.04,772.378 1282.27,773.158 1283.49,773.948C1289.27,777.703 1294.92,781.8 1300.29,786.125C1302.19,787.654 1302.59,790.36 1301.29,792.364C1301.2,792.498 1301.11,792.628 1301.01,792.758C1300.07,793.913 1298.71,794.515 1297.33,794.515Z" style="fill:url(#_Linear18);"/>
        <path d="M1272.65,776.36C1272.48,775.279 1272.68,774.132 1273.3,773.128C1274.13,771.901 1275.51,771.103 1276.96,770.961C1275.51,772.758 1274.09,774.543 1272.65,776.36Z" style="fill:url(#_Linear19);"/>
        <path d="M1047.54,794.297C1046.16,794.297 1044.79,793.695 1043.86,792.537C1042.23,790.506 1042.55,787.547 1044.58,785.903C1051.07,780.679 1057.97,775.806 1065.07,771.418C1065.85,770.942 1066.7,770.715 1067.55,770.715C1069.13,770.715 1070.67,771.509 1071.56,772.952C1072.55,774.556 1072.47,776.522 1071.51,778.003C1071.14,778.57 1070.65,779.068 1070.03,779.446C1063.26,783.628 1056.69,788.273 1050.49,793.256C1049.62,793.956 1048.58,794.297 1047.54,794.297Z" style="fill:url(#_Linear20);"/>
        <path d="M1255.71,768.694C1255.05,768.694 1254.38,768.554 1253.74,768.257C1246.5,764.91 1239,761.98 1231.43,759.552C1228.94,758.755 1227.58,756.103 1228.38,753.621C1229.02,751.628 1230.87,750.344 1232.87,750.344C1233.35,750.344 1233.83,750.417 1234.31,750.57C1242.24,753.114 1250.11,756.184 1257.7,759.696C1260.06,760.79 1261.09,763.593 1260,765.96C1259.9,766.166 1259.79,766.365 1259.67,766.552C1258.78,767.911 1257.28,768.694 1255.71,768.694Z" style="fill:url(#_Linear21);"/>
        <path d="M1089.17,768.576C1087.39,768.576 1085.68,767.555 1084.88,765.824C1083.8,763.455 1084.83,760.653 1087.2,759.57C1094.78,756.094 1102.66,753.05 1110.62,750.519C1111.09,750.368 1111.57,750.297 1112.04,750.297C1114.05,750.297 1115.9,751.578 1116.54,753.584C1116.98,754.987 1116.74,756.444 1116,757.587C1115.43,758.47 1114.55,759.167 1113.47,759.512C1105.88,761.925 1098.37,764.83 1091.13,768.146C1090.5,768.438 1089.83,768.576 1089.17,768.576ZM1180.13,744.919C1180.46,743.541 1181.38,742.413 1182.59,741.798C1181.77,742.837 1180.95,743.875 1180.13,744.919Z" style="fill:url(#_Linear22);"/>
        <path d="M1209.08,753.754C1208.79,753.754 1208.5,753.728 1208.2,753.673C1200.38,752.202 1192.38,751.209 1184.43,750.717C1181.83,750.556 1179.85,748.318 1180.01,745.719C1180.03,745.445 1180.07,745.177 1180.13,744.919C1180.95,743.875 1181.77,742.837 1182.59,741.798C1183.23,741.473 1183.95,741.291 1184.71,741.291C1184.81,741.291 1184.91,741.294 1185.01,741.301C1193.35,741.814 1201.74,742.86 1209.94,744.4C1212.5,744.882 1214.19,747.347 1213.71,749.908C1213.59,750.53 1213.36,751.103 1213.03,751.605C1212.17,752.924 1210.69,753.754 1209.08,753.754Z" style="fill:url(#_Linear23);"/>
        <path d="M1135.83,753.754C1133.61,753.754 1131.63,752.172 1131.2,749.906C1130.73,747.352 1132.41,744.882 1134.97,744.4C1143.16,742.864 1151.55,741.824 1159.89,741.305C1159.99,741.299 1160.09,741.296 1160.19,741.296C1162.66,741.296 1164.74,743.223 1164.89,745.723C1164.95,746.771 1164.67,747.761 1164.14,748.58C1163.35,749.791 1162.03,750.626 1160.47,750.722C1152.52,751.215 1144.52,752.207 1136.71,753.673C1136.42,753.728 1136.12,753.754 1135.83,753.754Z" style="fill:url(#_Linear24);"/>
        <path d="M1172.16,1148.42C1166.17,1148.42 1160.16,1148.16 1154.21,1147.63C1153.81,1144.49 1153.43,1141.29 1153.08,1138.05C1159.37,1138.67 1165.74,1138.99 1172.08,1138.99C1172.82,1138.99 1173.55,1138.98 1174.29,1138.97L1174.34,1138.97C1176.93,1138.97 1179.03,1141.05 1179.06,1143.64C1179.07,1144.61 1178.79,1145.51 1178.3,1146.26C1177.47,1147.54 1176.04,1148.39 1174.4,1148.41C1173.65,1148.42 1172.9,1148.42 1172.16,1148.42ZM1147.52,1146.35C1146.16,1145.39 1145.35,1143.74 1145.55,1141.97C1145.66,1140.96 1146.08,1140.07 1146.71,1139.36C1146.96,1141.71 1147.24,1144.05 1147.52,1146.35Z" style="fill:url(#_Linear25);"/>
        <path d="M1154.21,1147.63C1152.71,1147.5 1151.21,1147.35 1149.72,1147.18C1148.9,1147.09 1148.15,1146.8 1147.52,1146.35C1147.24,1144.05 1146.96,1141.71 1146.71,1139.36C1147.58,1138.38 1148.86,1137.78 1150.24,1137.78C1150.41,1137.78 1150.58,1137.79 1150.76,1137.8C1151.53,1137.89 1152.31,1137.97 1153.08,1138.05C1153.43,1141.29 1153.81,1144.49 1154.21,1147.63Z" style="fill:url(#_Linear26);"/>
        <path d="M1198.41,1146.68C1196.09,1146.68 1194.06,1144.96 1193.75,1142.59C1193.4,1140.01 1195.22,1137.64 1197.8,1137.29C1205.55,1136.26 1213.33,1134.74 1220.93,1132.78C1221.33,1132.68 1221.72,1132.63 1222.11,1132.63C1224.21,1132.63 1226.13,1134.04 1226.68,1136.17C1227.02,1137.5 1226.76,1138.85 1226.06,1139.92C1225.44,1140.87 1224.48,1141.61 1223.29,1141.91C1215.33,1143.97 1207.17,1145.56 1199.04,1146.64C1198.83,1146.67 1198.62,1146.68 1198.41,1146.68ZM1245.06,1134.62C1243.18,1134.62 1241.39,1133.48 1240.67,1131.62C1239.71,1129.2 1240.91,1126.46 1243.34,1125.51C1250.63,1122.66 1257.82,1119.32 1264.71,1115.6C1265.42,1115.22 1266.18,1115.04 1266.94,1115.04C1268.62,1115.04 1270.24,1115.94 1271.1,1117.52C1271.94,1119.09 1271.81,1120.93 1270.9,1122.33C1270.48,1122.97 1269.9,1123.52 1269.19,1123.91C1261.96,1127.8 1254.42,1131.3 1246.78,1134.3C1246.21,1134.52 1245.63,1134.62 1245.06,1134.62ZM1287.44,1111.77C1285.96,1111.77 1284.51,1111.07 1283.59,1109.78C1282.08,1107.65 1282.58,1104.72 1284.71,1103.2C1291.09,1098.68 1297.26,1093.72 1303.08,1088.44C1303.98,1087.62 1305.12,1087.22 1306.25,1087.22C1307.53,1087.22 1308.81,1087.74 1309.74,1088.76C1311.21,1090.38 1311.34,1092.75 1310.2,1094.5C1309.99,1094.83 1309.72,1095.15 1309.42,1095.43C1303.33,1100.96 1296.85,1106.16 1290.16,1110.9C1289.34,1111.49 1288.38,1111.77 1287.44,1111.77ZM1323.07,1079.35C1321.98,1079.35 1320.88,1078.98 1319.99,1078.21C1318.02,1076.51 1317.82,1073.54 1319.49,1071.56C1324.59,1065.64 1329.38,1059.33 1333.74,1052.81C1334.65,1051.44 1336.14,1050.71 1337.66,1050.71C1338.57,1050.71 1339.48,1050.97 1340.28,1051.51C1342.43,1052.94 1343.02,1055.84 1341.62,1058L1341.58,1058.05C1337.01,1064.89 1331.99,1071.5 1326.65,1077.71C1325.71,1078.8 1324.39,1079.35 1323.07,1079.35ZM1349.84,1039.31C1349.13,1039.31 1348.4,1039.14 1347.71,1038.79C1345.39,1037.62 1344.46,1034.78 1345.64,1032.46C1349.18,1025.47 1352.34,1018.19 1355.02,1010.83C1355.72,1008.93 1357.53,1007.73 1359.46,1007.73C1359.99,1007.73 1360.53,1007.82 1361.06,1008.02C1363.51,1008.91 1364.77,1011.61 1363.88,1014.06C1361.08,1021.77 1357.77,1029.4 1354.05,1036.72C1353.97,1036.88 1353.89,1037.02 1353.8,1037.16C1352.91,1038.53 1351.4,1039.31 1349.84,1039.31ZM1366.3,994.019C1365.95,994.019 1365.6,993.98 1365.24,993.898C1362.7,993.314 1361.12,990.78 1361.7,988.243C1363.46,980.608 1364.77,972.789 1365.58,965.002C1365.84,962.579 1367.89,960.776 1370.27,960.776C1370.44,960.776 1370.6,960.784 1370.76,960.801C1373.35,961.073 1375.24,963.392 1374.96,965.983C1374.11,974.151 1372.74,982.354 1370.9,990.361C1370.77,990.914 1370.55,991.422 1370.25,991.872C1369.39,993.197 1367.9,994.019 1366.3,994.019Z" style="fill:url(#_Linear27);"/>
        <path d="M1371.32,945.878C1368.75,945.877 1366.65,943.824 1366.6,941.25C1366.53,937.397 1366.34,933.531 1366.05,929.758C1365.85,927.16 1367.8,924.896 1370.39,924.687C1370.51,924.678 1370.63,924.673 1370.76,924.673C1373.2,924.673 1375.26,926.554 1375.46,929.026C1375.77,932.984 1375.96,937.036 1376.04,941.072C1376.05,942.051 1375.77,942.964 1375.28,943.727C1374.45,944.996 1373.03,945.844 1371.41,945.877C1371.38,945.877 1371.35,945.878 1371.32,945.878Z" style="fill:url(#_Linear28);"/>
        <path d="M1311.41,880.605C1311.09,879.635 1310.2,878.969 1309.18,878.946L1280.12,878.308C1273.14,866.665 1264.25,856.052 1253.61,846.994L1257.76,818.24C1257.91,817.231 1257.4,816.242 1256.49,815.775L1225.49,799.819C1224.58,799.352 1223.48,799.512 1222.74,800.216L1201.75,820.303C1188.2,816.911 1174.4,815.846 1160.86,816.931L1143.45,793.652C1142.84,792.836 1141.78,792.497 1140.81,792.808L1107.61,803.448C1106.64,803.758 1105.97,804.651 1105.95,805.67L1105.31,834.733C1093.67,841.714 1083.05,850.603 1073.99,861.24L1045.24,857.092C1044.23,856.947 1043.24,857.457 1042.78,858.363L1026.82,889.368C1026.35,890.274 1026.51,891.375 1027.22,892.112L1047.3,913.101C1043.91,926.654 1042.85,940.457 1043.93,953.989L1020.65,971.399C1019.84,972.01 1019.5,973.071 1019.81,974.041L1030.45,1007.25C1030.76,1008.22 1031.65,1008.88 1032.67,1008.91L1061.73,1009.54C1068.72,1021.19 1077.6,1031.8 1088.24,1040.86L1084.09,1069.61C1083.95,1070.62 1084.46,1071.61 1085.36,1072.08L1116.37,1088.03C1117.27,1088.5 1118.38,1088.34 1119.11,1087.64L1140.1,1067.55C1153.65,1070.94 1167.46,1072.01 1180.99,1070.92L1198.4,1094.2C1199.01,1095.02 1200.07,1095.36 1201.04,1095.04L1234.25,1084.4C1235.22,1084.09 1235.88,1083.2 1235.91,1082.18L1236.55,1053.12C1248.19,1046.14 1258.8,1037.25 1267.86,1026.61L1296.61,1030.76C1297.62,1030.91 1298.61,1030.4 1299.08,1029.49L1315.03,998.485C1315.5,997.579 1315.34,996.477 1314.64,995.741L1294.55,974.752C1297.94,961.199 1299.01,947.396 1297.92,933.864L1321.2,916.453C1322.02,915.843 1322.36,914.782 1322.05,913.812L1311.41,880.605Z" style="fill:rgb(145,179,250);fill-rule:nonzero;"/>
        <path d="M1153.57,963.612C1158.83,968.25 1165.58,970.561 1172.58,970.121C1179.57,969.681 1185.98,966.541 1190.61,961.283C1195.24,956.019 1197.56,949.275 1197.12,942.276C1196.68,935.282 1193.54,928.875 1188.28,924.24C1177.43,914.67 1160.81,915.714 1151.24,926.566C1150.38,927.547 1149.6,928.572 1148.91,929.637C1141.94,940.365 1143.69,954.907 1153.57,963.612ZM1197.69,967.52C1191.39,974.672 1182.68,978.938 1173.17,979.536C1163.66,980.135 1154.48,976.994 1147.33,970.689C1132.58,957.68 1131.16,935.128 1144.16,920.329C1157.18,905.574 1179.77,904.154 1194.52,917.163C1201.67,923.465 1205.94,932.174 1206.54,941.685C1207.02,949.417 1205.04,956.927 1200.89,963.308C1199.94,964.774 1198.87,966.183 1197.69,967.52Z" style="fill:rgb(189,208,251);fill-rule:nonzero;"/>
        <path d="M1244.68,992.57C1246.3,990.067 1247.81,987.461 1249.21,984.754C1251.98,979.377 1254.21,973.712 1255.83,967.902C1255.9,967.641 1255.97,967.379 1256.04,967.117C1256.59,965.093 1255.73,963.023 1254.06,961.937C1253.66,961.673 1253.2,961.468 1252.71,961.336C1250.2,960.658 1247.62,962.157 1246.93,964.665C1245.47,970.104 1243.41,975.408 1240.82,980.433L1240.82,980.435C1240.68,980.711 1240.53,980.987 1240.39,981.259C1234.15,993.096 1225.2,1002.93 1214.36,1010.16C1208.47,1014.08 1202.01,1017.23 1195.12,1019.51L1194.95,1019.56C1194.78,1019.62 1194.61,1019.67 1194.44,1019.73C1174.24,1026.2 1152.72,1024.42 1133.86,1014.71C1131.42,1013.46 1129.06,1012.09 1126.79,1010.61C1111.51,1000.68 1100.21,985.917 1094.57,968.328C1088.1,948.124 1089.88,926.612 1099.59,907.751C1109.3,888.905 1125.77,874.936 1145.97,868.459C1166.17,861.987 1187.69,863.767 1206.55,873.476C1208.95,874.709 1211.28,876.063 1213.53,877.524C1223.27,883.861 1231.53,892.257 1237.66,902.143C1238.04,902.752 1238.53,903.246 1239.1,903.61C1240.58,904.574 1242.55,904.66 1244.15,903.664C1246.36,902.284 1247.05,899.384 1245.67,897.166C1238.81,886.105 1229.58,876.708 1218.68,869.619C1216.16,867.982 1213.55,866.469 1210.87,865.087C1189.76,854.225 1165.69,852.233 1143.09,859.476C1120.49,866.72 1102.05,882.311 1091.2,903.432C1080.34,924.535 1078.34,948.603 1085.59,971.207C1091.89,990.885 1104.54,1007.4 1121.63,1018.51C1124.17,1020.16 1126.81,1021.69 1129.54,1023.1C1170.4,1044.13 1220.16,1030.3 1244.68,992.57Z" style="fill:rgb(189,208,251);fill-rule:nonzero;"/>
        <path d="M2282.65,1312.78L2145.48,1453.09L2310.02,1409.14L2282.65,1312.78Z" style="fill:rgb(145,179,250);fill-rule:nonzero;"/>
        <path d="M3098.85,1370.86L2319.43,1408.68C2299.41,1409.65 2282.65,1393.69 2282.65,1373.65L2282.65,1052.99C2282.65,1018.14 2310.34,989.589 2345.17,988.511L3047.63,966.774C3099.94,966.774 3142.35,1009.18 3142.35,1061.49L3142.35,1325.2C3142.35,1349.58 3123.21,1369.67 3098.85,1370.86Z" style="fill:rgb(145,179,250);fill-rule:nonzero;"/>
        <path d="M2342.74,1395.81C2330.32,1395.81 2318.61,1391.12 2309.55,1382.49C2299.93,1373.3 2294.63,1360.92 2294.63,1347.61L2294.63,1058.61C2294.63,1024.55 2321.93,997.046 2356.79,995.994L3036.93,975.455C3088.48,975.455 3130.38,1016.36 3130.38,1066.64L3130.38,1315.8C3130.38,1339.78 3111.17,1359.47 3086.65,1360.63L2345.09,1395.75C2344.31,1395.79 2343.52,1395.81 2342.74,1395.81ZM3036.98,978.835L2356.89,999.372C2323.87,1000.37 2298.01,1026.39 2298.01,1058.61L2298.01,1347.61C2298.01,1359.98 2302.93,1371.5 2311.89,1380.04C2320.3,1388.06 2331.16,1392.43 2342.7,1392.43C2343.44,1392.43 2344.19,1392.41 2344.94,1392.37L3086.49,1357.25C3109.21,1356.18 3127,1337.97 3127,1315.8L3127,1066.64C3127,1018.22 3086.62,978.835 3036.98,978.835Z" style="fill:rgb(239,244,254);fill-rule:nonzero;"/>
        <path d="M3034.71,1037.3L2411.47,1060.62C2405.35,1060.85 2400.53,1064.91 2400.74,1069.66L2400.97,1075.14C2401.17,1079.84 2406.22,1083.45 2412.27,1083.23L3035.53,1060.47C3041.66,1060.25 3046.48,1056.19 3046.28,1051.43L3046.02,1045.39C3045.82,1040.68 3040.77,1037.07 3034.71,1037.3Z" style="fill:url(#_Linear29);"/>
        <path d="M2978.93,1195.08L2355.69,1218.28C2349.57,1218.51 2344.76,1222.71 2344.97,1227.63L2345.22,1233.3C2345.42,1238.17 2350.48,1241.92 2356.53,1241.7L2979.8,1219.08C2985.92,1218.86 2990.74,1214.67 2990.53,1209.74L2990.26,1203.48C2990.05,1198.6 2985,1194.85 2978.93,1195.08Z" style="fill:url(#_Linear30);"/>
        <path d="M3051.75,1261.08L2356.97,1287.31C2350.15,1287.57 2344.76,1291.83 2344.98,1296.8L2345.22,1302.53C2345.43,1307.45 2351.05,1311.21 2357.8,1310.96L3052.6,1285.32C3059.43,1285.07 3064.82,1280.81 3064.61,1275.84L3064.34,1269.52C3064.13,1264.59 3058.5,1260.83 3051.75,1261.08Z" style="fill:url(#_Linear31);"/>
        <path d="M2693,1130.32L2353.31,1140.22C2349.98,1140.32 2347.48,1144.9 2347.76,1150.42L2348.07,1156.79C2348.34,1162.26 2351.22,1166.59 2354.52,1166.5L2694.24,1157.26C2697.58,1157.17 2700.08,1152.59 2699.81,1147.06L2699.46,1140.03C2699.19,1134.56 2696.31,1130.22 2693,1130.32Z" style="fill:url(#_Linear32);"/>
        <path d="M3067.3,1118.58L2746.22,1127.78C2743.07,1127.87 2740.73,1132.45 2741,1137.97L2741.32,1144.34C2741.59,1149.81 2744.33,1154.15 2747.45,1154.06L3068.55,1145.52C3071.71,1145.44 3074.05,1140.86 3073.78,1135.33L3073.43,1128.3C3073.16,1122.83 3070.42,1118.49 3067.3,1118.58Z" style="fill:url(#_Linear33);"/>
        <path d="M1099.19,3139.45C1099.19,3139.45 1092.77,3175.82 1089.62,3211.82C1088.38,3225.89 1099.23,3238.11 1113.35,3238.7C1161.29,3240.7 1263.85,3244.58 1300.65,3242.94C1306.18,3242.69 1309.8,3237.03 1307.75,3231.88C1306.03,3227.57 1302.72,3224.08 1298.51,3222.15L1129.1,3144.29L1099.19,3139.45Z" style="fill:url(#_Linear34);"/>
        <path d="M1093.93,3118.08L1099.09,3161.58C1099.09,3161.58 1128.76,3175.4 1149.03,3159.84L1136.74,3111.36L1093.93,3118.08Z" style="fill:url(#_Linear35);"/>
        <path d="M1097.81,2300.2C1095.58,2311.56 1085.84,2867.13 1145.23,3116.09C1146.19,3120.16 1144.13,3124.34 1140.27,3125.92C1131.16,3129.64 1113.3,3135.03 1091.9,3135.75C1085.28,3135.97 1079.33,3131.67 1077.46,3125.31C1060.49,3067.54 979.147,2778.12 968.536,2501.65C956.679,2192.72 968.536,2491.13 968.536,2491.13L975.49,2300.17L1097.81,2300.2Z" style="fill:url(#_Linear36);"/>
        <path d="M904.32,3158.42C904.32,3158.42 894.093,3176.79 884.192,3225.58C882.405,3234.39 888.561,3242.82 897.509,3243.7C913.34,3245.26 937.712,3247.26 957.234,3247.12C966.234,3247.06 973.258,3239.23 972.173,3230.29C970.011,3212.48 963.274,3183.26 942.462,3160.49L904.32,3158.42Z" style="fill:url(#_Linear37);"/>
        <path d="M895.337,3102.47L907.398,3168.26C907.398,3168.26 919.324,3177.13 942.914,3170.7L937.157,3099.91L895.337,3102.47Z" style="fill:url(#_Linear38);"/>
        <path d="M862.756,2317.25C814.186,2610.37 873.292,3041.72 893.225,3126.15C894.445,3131.32 898.617,3135.28 903.856,3136.14C912.754,3137.62 927.403,3138.82 941.846,3134.63C946.821,3133.18 950.317,3128.69 950.52,3123.52C953.194,3055.26 948.381,2636.23 993.637,2470.63C995.93,2462.24 1001.06,2454.92 1008.15,2449.88L1095.98,2387.44L1102.72,2286.5L862.756,2317.25Z" style="fill:url(#_Linear39);"/>
        <path d="M1172.24,1761.84C1026.69,1759.43 866.086,1800.05 866.086,1800.05C822.7,2053.21 858.5,2345.22 858.5,2345.22C971.184,2374.77 1098.3,2327.15 1098.3,2327.15C1117.03,2221.33 1204.41,1923.54 1204.41,1923.54C1275.53,1914.71 1334.11,1894.19 1382.36,1867.06C1345.56,1824.41 1328.21,1770.13 1320.67,1738.04C1269.21,1754.04 1217.14,1762.58 1172.24,1761.84Z" style="fill:url(#_Linear40);"/>
        <path d="M1602.18,1547.44C1587.89,1530.17 1569.79,1538.34 1569.79,1538.34C1548.37,1628.82 1436.06,1702.18 1320.67,1738.04C1328.21,1770.13 1345.56,1824.41 1382.36,1867.06C1573.85,1759.4 1602.18,1547.44 1602.18,1547.44Z" style="fill:url(#_Linear41);"/>
        <path d="M1598.71,1551.83C1600.21,1556.59 1582.88,1563.83 1572.68,1544.38C1572.33,1535.06 1566.66,1495.12 1572.23,1487.52C1601.9,1447.07 1659.42,1396.36 1659.42,1396.36C1669.15,1405.96 1661.14,1415.38 1661.14,1415.38L1633.23,1444.45C1639.07,1455 1646.19,1463.9 1649.52,1476.66C1652.05,1486.32 1650.5,1496.65 1645.62,1505.44C1640.73,1514.27 1634.04,1525.74 1627.73,1534.72C1615.77,1551.71 1598.71,1551.83 1598.71,1551.83Z" style="fill:url(#_Linear42);"/>
        <path d="M1621.02,1463.31L1595.59,1484.87L1587.61,1506.33L1610.28,1531.49C1610.28,1531.49 1617.91,1488.9 1623.57,1479.68C1629.24,1470.47 1626.3,1466.01 1621.02,1463.31Z" style="fill:url(#_Linear43);"/>
        <path d="M921.915,1940.99L866.086,1800.05C866.086,1800.05 730.13,1892.43 707.771,2009.55C733.46,2011.45 780.206,2018.13 825.961,2041.23C836.016,1985.93 921.915,1940.99 921.915,1940.99Z" style="fill:url(#_Linear44);"/>
        <path d="M1040.73,2073.61C1040.73,2073.61 888.082,2159.88 836.577,2086.22C825.883,2070.92 823.327,2055.72 825.961,2041.23C780.206,2018.13 733.46,2011.45 707.771,2009.55C701.03,2044.86 704.595,2082.42 725.343,2120.37C815.561,2285.4 1060.93,2111.25 1060.93,2111.25L1040.73,2073.61Z" style="fill:url(#_Linear45);"/>
        <path d="M1022.38,2182.75L1105.69,1891.82C1106.64,1888.52 1109.45,1886.11 1112.87,1885.71C1127.96,1883.95 1171.7,1879.01 1222.19,1874.74C1283.02,1869.59 1353.66,1865.42 1395.87,1868.97C1401.87,1869.47 1405.5,1875.82 1402.83,1881.22C1378.82,1929.78 1280.09,2127.32 1230.65,2192.03C1229.01,2194.18 1226.47,2195.43 1223.78,2195.4L1030.49,2193.61C1024.86,2193.55 1020.84,2188.16 1022.38,2182.75Z" style="fill:rgb(145,179,250);fill-rule:nonzero;"/>
        <path d="M1230.84,1849.51L1291.24,1839.45C1294.45,1838.91 1297.09,1841.99 1296.06,1845.08L1290.09,1863.2C1289.57,1864.78 1288.19,1865.92 1286.54,1866.14L1228.42,1873.91C1225.42,1874.31 1222.94,1871.57 1223.63,1868.62L1227.33,1852.8C1227.73,1851.1 1229.11,1849.8 1230.84,1849.51Z" style="fill:rgb(189,208,251);fill-rule:nonzero;"/>
        <path d="M1185.61,1900.65L1190.59,1874.73C1191.09,1872.13 1193.23,1870.17 1195.86,1869.9L1317.86,1857.52C1321.96,1857.1 1325.25,1860.87 1324.29,1864.88L1316.53,1897.17C1315.91,1899.76 1313.66,1901.63 1311.01,1901.76L1191.8,1907.76C1187.92,1907.96 1184.88,1904.46 1185.61,1900.65Z" style="fill:rgb(189,208,251);fill-rule:nonzero;"/>
        <path d="M1042.51,2112.46C1042.51,2112.46 1030.91,2064.74 1035.59,2047.81C1040.27,2030.88 1049.34,2009.12 1079.57,2013.95C1109.8,2018.79 1145.46,2031.53 1145.46,2031.53C1145.46,2031.53 1143.66,2053.58 1120.69,2046.46L1134.93,2057.49C1134.93,2057.49 1132.9,2075.14 1113.49,2065.71L1126.74,2080.33C1126.74,2080.33 1118.41,2094.83 1104.13,2085.53C1089.85,2076.23 1083,2118.21 1042.51,2112.46Z" style="fill:url(#_Linear46);"/>
        <path d="M1024.81,1643.67L978.496,1777.6C977.729,1779.82 978.64,1782.28 980.695,1783.42C993.319,1790.4 1038.8,1810.57 1093.61,1775.82C1099.32,1772.2 1103.21,1766.29 1104.08,1759.59L1119.08,1643.67L1024.81,1643.67Z" style="fill:url(#_Linear47);"/>
        <path d="M1125.58,1519.64C1125.58,1519.64 1176.44,1615.37 1169.92,1654.05C1163.4,1692.72 1100.37,1689.94 1045.33,1658.53L1006.87,1555.16L1125.58,1519.64Z" style="fill:url(#_Linear48);"/>
        <path d="M1047.76,1607.77C1050,1606.78 1050.82,1604.04 1049.49,1601.99C1045.41,1595.77 1037.77,1583.07 1035.34,1571.95C1035.34,1571.95 1026.19,1566.1 1058.61,1558.34C1091.02,1550.58 1139.35,1538.54 1149.51,1510.95C1159.42,1484.05 1133.39,1416.41 1091.87,1470.31C1090.29,1472.36 1087.2,1472.4 1085.62,1470.35C1078.81,1461.49 1060.92,1443.1 1036.07,1454.25C1012.82,1464.68 1010.2,1481.72 1010.52,1490.31C1010.62,1492.83 1008.36,1494.8 1005.87,1494.32C994.119,1492.08 965.91,1490.16 952.743,1519.09C941.898,1542.93 948.947,1556.42 955.366,1563.02C957.447,1565.16 956.535,1568.68 953.683,1569.55C945.958,1571.92 935.981,1578.47 936.979,1596.57C938.361,1621.59 966.337,1619.39 974.302,1618.25C975.608,1618.06 976.922,1618.51 977.807,1619.48C984.636,1627.04 1015.41,1659.13 1048.71,1663C1051.6,1663.34 1053.83,1660.49 1052.89,1657.74L1038.47,1615.85C1037.8,1613.9 1038.73,1611.77 1040.62,1610.93L1047.76,1607.77Z" style="fill:url(#_Linear49);"/>
        <path d="M1053.56,1613.71C1053.56,1613.71 1017.35,1588.87 1014.7,1609.79C1012.06,1630.71 1047.31,1640.1 1064.77,1632.3L1053.56,1613.71Z" style="fill:url(#_Linear50);"/>
    </g>
    <defs>
        <linearGradient id="_Linear1" x1="0" y1="0" x2="1" y2="0" gradientUnits="userSpaceOnUse" gradientTransform="matrix(-2464.66,-3060.95,3060.95,-2464.66,3585.93,4072.52)"><stop offset="0" style="stop-color:rgb(218,226,253);stop-opacity:1"/><stop offset="1" style="stop-color:rgb(232,239,253);stop-opacity:1"/></linearGradient>
        <linearGradient id="_Linear2" x1="0" y1="0" x2="1" y2="0" gradientUnits="userSpaceOnUse" gradientTransform="matrix(-5150.62,4390.19,-4390.19,-5150.62,5363.39,-1443.27)"><stop offset="0" style="stop-color:rgb(225,70,61);stop-opacity:1"/><stop offset="1" style="stop-color:rgb(232,96,89);stop-opacity:1"/></linearGradient>
        <linearGradient id="_Linear3" x1="0" y1="0" x2="1" y2="0" gradientUnits="userSpaceOnUse" gradientTransform="matrix(-5150.63,4390.2,-4390.2,-5150.63,6114.62,-561.92)"><stop offset="0" style="stop-color:rgb(225,70,61);stop-opacity:1"/><stop offset="1" style="stop-color:rgb(232,96,89);stop-opacity:1"/></linearGradient>
        <linearGradient id="_Linear4" x1="0" y1="0" x2="1" y2="0" gradientUnits="userSpaceOnUse" gradientTransform="matrix(4471.3,-4734.92,4734.92,4471.3,555.064,2735.66)"><stop offset="0" style="stop-color:rgb(255,145,142);stop-opacity:1"/><stop offset="1" style="stop-color:rgb(253,112,98);stop-opacity:1"/></linearGradient>
        <linearGradient id="_Linear5" x1="0" y1="0" x2="1" y2="0" gradientUnits="userSpaceOnUse" gradientTransform="matrix(-1013.75,1120.19,-1120.19,-1013.75,2373.3,2406.44)"><stop offset="0" style="stop-color:rgb(255,145,142);stop-opacity:1"/><stop offset="1" style="stop-color:rgb(253,112,98);stop-opacity:1"/></linearGradient>
        <linearGradient id="_Linear6" x1="0" y1="0" x2="1" y2="0" gradientUnits="userSpaceOnUse" gradientTransform="matrix(4471.3,-4734.92,4734.92,4471.3,555.064,2735.66)"><stop offset="0" style="stop-color:rgb(255,214,212);stop-opacity:1"/><stop offset="1" style="stop-color:rgb(255,202,196);stop-opacity:1"/></linearGradient>
        <linearGradient id="_Linear7" x1="0" y1="0" x2="1" y2="0" gradientUnits="userSpaceOnUse" gradientTransform="matrix(4471.3,-4734.92,4734.92,4471.3,555.064,2735.66)"><stop offset="0" style="stop-color:rgb(255,214,212);stop-opacity:1"/><stop offset="1" style="stop-color:rgb(255,202,196);stop-opacity:1"/></linearGradient>
        <linearGradient id="_Linear8" x1="0" y1="0" x2="1" y2="0" gradientUnits="userSpaceOnUse" gradientTransform="matrix(-1013.75,1120.19,-1120.19,-1013.75,2373.3,2406.44)"><stop offset="0" style="stop-color:rgb(255,214,212);stop-opacity:1"/><stop offset="1" style="stop-color:rgb(255,202,196);stop-opacity:1"/></linearGradient>
        <linearGradient id="_Linear9" x1="0" y1="0" x2="1" y2="0" gradientUnits="userSpaceOnUse" gradientTransform="matrix(-1013.75,1120.19,-1120.19,-1013.75,2373.3,2406.44)"><stop offset="0" style="stop-color:rgb(255,214,212);stop-opacity:1"/><stop offset="1" style="stop-color:rgb(255,202,196);stop-opacity:1"/></linearGradient>
        <linearGradient id="_Linear10" x1="0" y1="0" x2="1" y2="0" gradientUnits="userSpaceOnUse" gradientTransform="matrix(-2464.66,-3060.95,3060.95,-2464.66,3585.93,4072.52)"><stop offset="0" style="stop-color:rgb(195,212,253);stop-opacity:1"/><stop offset="1" style="stop-color:rgb(205,221,251);stop-opacity:1"/></linearGradient>
        <linearGradient id="_Linear11" x1="0" y1="0" x2="1" y2="0" gradientUnits="userSpaceOnUse" gradientTransform="matrix(-2464.66,-3060.95,3060.95,-2464.66,3585.93,4072.52)"><stop offset="0" style="stop-color:rgb(195,212,253);stop-opacity:1"/><stop offset="1" style="stop-color:rgb(205,221,251);stop-opacity:1"/></linearGradient>
        <linearGradient id="_Linear12" x1="0" y1="0" x2="1" y2="0" gradientUnits="userSpaceOnUse" gradientTransform="matrix(-2464.66,-3060.95,3060.95,-2464.66,3585.93,4072.52)"><stop offset="0" style="stop-color:rgb(195,212,253);stop-opacity:1"/><stop offset="1" style="stop-color:rgb(205,221,251);stop-opacity:1"/></linearGradient>
        <linearGradient id="_Linear13" x1="0" y1="0" x2="1" y2="0" gradientUnits="userSpaceOnUse" gradientTransform="matrix(-2464.66,-3060.95,3060.95,-2464.66,3585.93,4072.52)"><stop offset="0" style="stop-color:rgb(195,212,253);stop-opacity:1"/><stop offset="1" style="stop-color:rgb(205,221,251);stop-opacity:1"/></linearGradient>
        <linearGradient id="_Linear14" x1="0" y1="0" x2="1" y2="0" gradientUnits="userSpaceOnUse" gradientTransform="matrix(4471.3,-4734.92,4734.92,4471.3,555.064,2735.66)"><stop offset="0" style="stop-color:rgb(221,156,174);stop-opacity:1"/><stop offset="1" style="stop-color:rgb(221,131,144);stop-opacity:1"/></linearGradient>
        <linearGradient id="_Linear15" x1="0" y1="0" x2="1" y2="0" gradientUnits="userSpaceOnUse" gradientTransform="matrix(4471.3,-4734.92,4734.92,4471.3,555.064,2735.66)"><stop offset="0" style="stop-color:rgb(221,156,174);stop-opacity:1"/><stop offset="1" style="stop-color:rgb(221,131,144);stop-opacity:1"/></linearGradient>
        <linearGradient id="_Linear16" x1="0" y1="0" x2="1" y2="0" gradientUnits="userSpaceOnUse" gradientTransform="matrix(4471.3,-4734.92,4734.92,4471.3,555.064,2735.66)"><stop offset="0" style="stop-color:rgb(221,156,174);stop-opacity:1"/><stop offset="1" style="stop-color:rgb(221,131,144);stop-opacity:1"/></linearGradient>
        <linearGradient id="_Linear17" x1="0" y1="0" x2="1" y2="0" gradientUnits="userSpaceOnUse" gradientTransform="matrix(-2464.66,-3060.95,3060.95,-2464.66,3585.93,4072.52)"><stop offset="0" style="stop-color:rgb(195,212,253);stop-opacity:1"/><stop offset="1" style="stop-color:rgb(205,221,251);stop-opacity:1"/></linearGradient>
        <linearGradient id="_Linear18" x1="0" y1="0" x2="1" y2="0" gradientUnits="userSpaceOnUse" gradientTransform="matrix(4471.3,-4734.92,4734.92,4471.3,555.064,2735.66)"><stop offset="0" style="stop-color:rgb(221,156,174);stop-opacity:1"/><stop offset="1" style="stop-color:rgb(221,131,144);stop-opacity:1"/></linearGradient>
        <linearGradient id="_Linear19" x1="0" y1="0" x2="1" y2="0" gradientUnits="userSpaceOnUse" gradientTransform="matrix(4471.3,-4734.92,4734.92,4471.3,555.064,2735.66)"><stop offset="0" style="stop-color:rgb(221,204,223);stop-opacity:1"/><stop offset="1" style="stop-color:rgb(221,195,212);stop-opacity:1"/></linearGradient>
        <linearGradient id="_Linear20" x1="0" y1="0" x2="1" y2="0" gradientUnits="userSpaceOnUse" gradientTransform="matrix(-2464.66,-3060.95,3060.95,-2464.66,3585.93,4072.52)"><stop offset="0" style="stop-color:rgb(195,212,253);stop-opacity:1"/><stop offset="1" style="stop-color:rgb(205,221,251);stop-opacity:1"/></linearGradient>
        <linearGradient id="_Linear21" x1="0" y1="0" x2="1" y2="0" gradientUnits="userSpaceOnUse" gradientTransform="matrix(4471.3,-4734.92,4734.92,4471.3,555.064,2735.66)"><stop offset="0" style="stop-color:rgb(221,156,174);stop-opacity:1"/><stop offset="1" style="stop-color:rgb(221,131,144);stop-opacity:1"/></linearGradient>
        <linearGradient id="_Linear22" x1="0" y1="0" x2="1" y2="0" gradientUnits="userSpaceOnUse" gradientTransform="matrix(-2464.66,-3060.95,3060.95,-2464.66,3585.93,4072.52)"><stop offset="0" style="stop-color:rgb(195,212,253);stop-opacity:1"/><stop offset="1" style="stop-color:rgb(205,221,251);stop-opacity:1"/></linearGradient>
        <linearGradient id="_Linear23" x1="0" y1="0" x2="1" y2="0" gradientUnits="userSpaceOnUse" gradientTransform="matrix(4471.3,-4734.92,4734.92,4471.3,555.064,2735.66)"><stop offset="0" style="stop-color:rgb(221,156,174);stop-opacity:1"/><stop offset="1" style="stop-color:rgb(221,131,144);stop-opacity:1"/></linearGradient>
        <linearGradient id="_Linear24" x1="0" y1="0" x2="1" y2="0" gradientUnits="userSpaceOnUse" gradientTransform="matrix(-2464.66,-3060.95,3060.95,-2464.66,3585.93,4072.52)"><stop offset="0" style="stop-color:rgb(195,212,253);stop-opacity:1"/><stop offset="1" style="stop-color:rgb(205,221,251);stop-opacity:1"/></linearGradient>
        <linearGradient id="_Linear25" x1="0" y1="0" x2="1" y2="0" gradientUnits="userSpaceOnUse" gradientTransform="matrix(4471.3,-4734.92,4734.92,4471.3,555.064,2735.66)"><stop offset="0" style="stop-color:rgb(221,156,174);stop-opacity:1"/><stop offset="1" style="stop-color:rgb(221,131,144);stop-opacity:1"/></linearGradient>
        <linearGradient id="_Linear26" x1="0" y1="0" x2="1" y2="0" gradientUnits="userSpaceOnUse" gradientTransform="matrix(4471.3,-4734.92,4734.92,4471.3,555.064,2735.66)"><stop offset="0" style="stop-color:rgb(221,204,223);stop-opacity:1"/><stop offset="1" style="stop-color:rgb(221,195,212);stop-opacity:1"/></linearGradient>
        <linearGradient id="_Linear27" x1="0" y1="0" x2="1" y2="0" gradientUnits="userSpaceOnUse" gradientTransform="matrix(4471.3,-4734.92,4734.92,4471.3,555.064,2735.66)"><stop offset="0" style="stop-color:rgb(221,156,174);stop-opacity:1"/><stop offset="1" style="stop-color:rgb(221,131,144);stop-opacity:1"/></linearGradient>
        <linearGradient id="_Linear28" x1="0" y1="0" x2="1" y2="0" gradientUnits="userSpaceOnUse" gradientTransform="matrix(4471.3,-4734.92,4734.92,4471.3,555.064,2735.66)"><stop offset="0" style="stop-color:rgb(221,156,174);stop-opacity:1"/><stop offset="1" style="stop-color:rgb(221,131,144);stop-opacity:1"/></linearGradient>
        <linearGradient id="_Linear29" x1="0" y1="0" x2="1" y2="0" gradientUnits="userSpaceOnUse" gradientTransform="matrix(645.556,0,0,645.556,2400.73,1060.26)"><stop offset="0" style="stop-color:rgb(218,226,253);stop-opacity:1"/><stop offset="1" style="stop-color:rgb(232,239,253);stop-opacity:1"/></linearGradient>
        <linearGradient id="_Linear30" x1="0" y1="0" x2="1" y2="0" gradientUnits="userSpaceOnUse" gradientTransform="matrix(645.571,0,0,645.571,2344.97,1218.39)"><stop offset="0" style="stop-color:rgb(218,226,253);stop-opacity:1"/><stop offset="1" style="stop-color:rgb(232,239,253);stop-opacity:1"/></linearGradient>
        <linearGradient id="_Linear31" x1="0" y1="0" x2="1" y2="0" gradientUnits="userSpaceOnUse" gradientTransform="matrix(719.642,0,0,719.642,2344.97,1286.02)"><stop offset="0" style="stop-color:rgb(218,226,253);stop-opacity:1"/><stop offset="1" style="stop-color:rgb(232,239,253);stop-opacity:1"/></linearGradient>
        <linearGradient id="_Linear32" x1="0" y1="0" x2="1" y2="0" gradientUnits="userSpaceOnUse" gradientTransform="matrix(352.092,0,0,352.092,2347.74,1148.41)"><stop offset="0" style="stop-color:rgb(218,226,253);stop-opacity:1"/><stop offset="1" style="stop-color:rgb(232,239,253);stop-opacity:1"/></linearGradient>
        <linearGradient id="_Linear33" x1="0" y1="0" x2="1" y2="0" gradientUnits="userSpaceOnUse" gradientTransform="matrix(332.822,0,0,332.822,2740.98,1136.32)"><stop offset="0" style="stop-color:rgb(218,226,253);stop-opacity:1"/><stop offset="1" style="stop-color:rgb(232,239,253);stop-opacity:1"/></linearGradient>
        <linearGradient id="_Linear34" x1="0" y1="0" x2="1" y2="0" gradientUnits="userSpaceOnUse" gradientTransform="matrix(-620.353,674.77,-674.77,-620.353,1295.28,3089.18)"><stop offset="0" style="stop-color:rgb(8,0,93);stop-opacity:1"/><stop offset="1" style="stop-color:rgb(26,14,144);stop-opacity:1"/></linearGradient>
        <linearGradient id="_Linear35" x1="0" y1="0" x2="1" y2="0" gradientUnits="userSpaceOnUse" gradientTransform="matrix(55.1026,0,0,55.1026,1093.93,3139.3)"><stop offset="0" style="stop-color:rgb(253,186,186);stop-opacity:1"/><stop offset="1" style="stop-color:rgb(255,145,142);stop-opacity:1"/></linearGradient>
        <linearGradient id="_Linear36" x1="0" y1="0" x2="1" y2="0" gradientUnits="userSpaceOnUse" gradientTransform="matrix(-527.86,715.447,-715.447,-527.86,1344.13,2326.09)"><stop offset="0" style="stop-color:rgb(8,0,93);stop-opacity:1"/><stop offset="1" style="stop-color:rgb(26,14,144);stop-opacity:1"/></linearGradient>
        <linearGradient id="_Linear37" x1="0" y1="0" x2="1" y2="0" gradientUnits="userSpaceOnUse" gradientTransform="matrix(-620.352,674.77,-674.77,-620.352,1156.12,2961.24)"><stop offset="0" style="stop-color:rgb(8,0,93);stop-opacity:1"/><stop offset="1" style="stop-color:rgb(26,14,144);stop-opacity:1"/></linearGradient>
        <linearGradient id="_Linear38" x1="0" y1="0" x2="1" y2="0" gradientUnits="userSpaceOnUse" gradientTransform="matrix(47.5762,0,0,47.5762,895.337,3136.47)"><stop offset="0" style="stop-color:rgb(253,186,186);stop-opacity:1"/><stop offset="1" style="stop-color:rgb(255,145,142);stop-opacity:1"/></linearGradient>
        <linearGradient id="_Linear39" x1="0" y1="0" x2="1" y2="0" gradientUnits="userSpaceOnUse" gradientTransform="matrix(-527.86,715.447,-715.447,-527.86,1250.05,2256.68)"><stop offset="0" style="stop-color:rgb(8,0,93);stop-opacity:1"/><stop offset="1" style="stop-color:rgb(26,14,144);stop-opacity:1"/></linearGradient>
        <linearGradient id="_Linear40" x1="0" y1="0" x2="1" y2="0" gradientUnits="userSpaceOnUse" gradientTransform="matrix(841.538,-1449.88,1449.88,841.538,1063.41,1938.34)"><stop offset="0" style="stop-color:rgb(79,82,255);stop-opacity:1"/><stop offset="1" style="stop-color:rgb(63,66,226);stop-opacity:1"/></linearGradient>
        <linearGradient id="_Linear41" x1="0" y1="0" x2="1" y2="0" gradientUnits="userSpaceOnUse" gradientTransform="matrix(-97.2215,-277.776,-277.776,97.2215,1558.78,1373.75)"><stop offset="0" style="stop-color:rgb(253,186,186);stop-opacity:1"/><stop offset="1" style="stop-color:rgb(255,145,142);stop-opacity:1"/></linearGradient>
        <linearGradient id="_Linear42" x1="0" y1="0" x2="1" y2="0" gradientUnits="userSpaceOnUse" gradientTransform="matrix(-97.2212,-277.776,-277.776,97.2212,1641.87,1402.83)"><stop offset="0" style="stop-color:rgb(253,186,186);stop-opacity:1"/><stop offset="1" style="stop-color:rgb(255,145,142);stop-opacity:1"/></linearGradient>
        <linearGradient id="_Linear43" x1="0" y1="0" x2="1" y2="0" gradientUnits="userSpaceOnUse" gradientTransform="matrix(73.2324,147.728,147.728,-73.2324,1567.18,1580.3)"><stop offset="0" style="stop-color:rgb(253,186,186);stop-opacity:1"/><stop offset="1" style="stop-color:rgb(255,145,142);stop-opacity:1"/></linearGradient>
        <linearGradient id="_Linear44" x1="0" y1="0" x2="1" y2="0" gradientUnits="userSpaceOnUse" gradientTransform="matrix(841.538,-1449.88,1449.88,841.538,888.364,1836.74)"><stop offset="0" style="stop-color:rgb(79,82,255);stop-opacity:1"/><stop offset="1" style="stop-color:rgb(63,66,226);stop-opacity:1"/></linearGradient>
        <linearGradient id="_Linear45" x1="0" y1="0" x2="1" y2="0" gradientUnits="userSpaceOnUse" gradientTransform="matrix(356.254,0,0,356.254,704.672,2100.49)"><stop offset="0" style="stop-color:rgb(253,186,186);stop-opacity:1"/><stop offset="1" style="stop-color:rgb(255,145,142);stop-opacity:1"/></linearGradient>
        <linearGradient id="_Linear46" x1="0" y1="0" x2="1" y2="0" gradientUnits="userSpaceOnUse" gradientTransform="matrix(110.987,0,0,110.987,1034.48,2063.14)"><stop offset="0" style="stop-color:rgb(253,186,186);stop-opacity:1"/><stop offset="1" style="stop-color:rgb(255,145,142);stop-opacity:1"/></linearGradient>
        <linearGradient id="_Linear47" x1="0" y1="0" x2="1" y2="0" gradientUnits="userSpaceOnUse" gradientTransform="matrix(140.85,0,0,140.85,978.226,1719.63)"><stop offset="0" style="stop-color:rgb(253,186,186);stop-opacity:1"/><stop offset="1" style="stop-color:rgb(255,145,142);stop-opacity:1"/></linearGradient>
        <linearGradient id="_Linear48" x1="0" y1="0" x2="1" y2="0" gradientUnits="userSpaceOnUse" gradientTransform="matrix(-154.866,-94.4569,94.4569,-154.866,1152.58,1630.03)"><stop offset="0" style="stop-color:rgb(253,186,186);stop-opacity:1"/><stop offset="1" style="stop-color:rgb(255,145,142);stop-opacity:1"/></linearGradient>
        <linearGradient id="_Linear49" x1="0" y1="0" x2="1" y2="0" gradientUnits="userSpaceOnUse" gradientTransform="matrix(200.069,158.021,-158.021,200.069,915.734,1436)"><stop offset="0" style="stop-color:rgb(8,0,93);stop-opacity:1"/><stop offset="1" style="stop-color:rgb(26,14,144);stop-opacity:1"/></linearGradient>
        <linearGradient id="_Linear50" x1="0" y1="0" x2="1" y2="0" gradientUnits="userSpaceOnUse" gradientTransform="matrix(-139.335,-84.9841,84.9841,-139.335,1111.9,1665.25)"><stop offset="0" style="stop-color:rgb(253,186,186);stop-opacity:1"/><stop offset="1" style="stop-color:rgb(255,145,142);stop-opacity:1"/></linearGradient>
    </defs>
</svg>
